<?xml version="1.0" encoding="utf-8"?>
<!-- Generator: Adobe Illustrator 27.8.0, SVG Export Plug-In . SVG Version: 6.00 Build 0)  -->
<svg version="1.1" id="Layer_1" xmlns="http://www.w3.org/2000/svg" xmlns:xlink="http://www.w3.org/1999/xlink" x="0px" y="0px"
	 viewBox="0 0 648 292.5" style="enable-background:new 0 0 648 292.5;" xml:space="preserve">
<style type="text/css">
	.st0{fill:#0F5E8A;}
</style>
<path class="st0" d="M7.1,235h633.8c3.5,0,5.9-3.5,4.8-6.7c-47.2-132-170-222.7-308.5-228c-1.4-0.1-2.9-0.1-4.3-0.1
	C186.9-3.6,52.5,88.6,2.3,228.3C1.2,231.5,3.6,235,7.1,235z"/>
<path class="st0" d="M642.9,242.5H10.1C4.5,242.5,0,247,0,252.6v29.7c0,5.6,4.6,10.2,10.2,10.2h632.7c2.8,0,5.1-2.3,5.1-5.1v-39.8
	C648,244.8,645.7,242.5,642.9,242.5z"/>
<g>
</g>
<g>
</g>
<g>
</g>
<g>
</g>
<g>
</g>
<g>
</g>
</svg>
