<?xml version="1.0" encoding="utf-8"?>
<!-- Generator: Adobe Illustrator 27.8.0, SVG Export Plug-In . SVG Version: 6.00 Build 0)  -->
<svg version="1.1" id="Layer_1" xmlns="http://www.w3.org/2000/svg" xmlns:xlink="http://www.w3.org/1999/xlink" x="0px" y="0px"
	 viewBox="0 0 100 100" style="enable-background:new 0 0 100 100;" xml:space="preserve">
<style type="text/css">
	.st0{display:none;}
	.st1{display:inline;fill:#004760;}
	.st2{opacity:0.15;}
	.st3{display:inline;fill:#0B4566;}
	.st4{fill:#FFFFFF;}
	.st5{opacity:0.1;}
</style>
<g id="Layer_2_00000025402592975847895520000017100897870143029390_" class="st0">
	<rect class="st1" width="100" height="100"/>
</g>
<g id="Layer_1_00000166663983401610157510000001254015362401020854_" class="st2">
	<g id="Layer_2_00000183954774991361771790000014312313774500472506_" class="st0">
		<rect class="st3" width="100" height="100"/>
	</g>
	<g id="Layer_1_00000029749115553259781280000016450290095236919960_" class="st2">
		<path class="st4" d="M50.1,59.2c-0.6-1-1.3-1.9-2-2.8c0.6-0.6,1.3-1.2,2-1.8c0.6,0.6,1.3,1.1,2.1,1.7
			C51.5,57.3,50.8,58.3,50.1,59.2L50.1,59.2L50.1,59.2z M56,54.4c-1.2,0.4-2.4,0.4-3.6-0.1c-0.7-0.4-1.2-1.1-1.5-1.7
			c0,0,0-0.1,0-0.2c0.2-0.3,0.4-0.5,0.7-0.7c-0.3-0.3-0.4-0.5-0.7-0.7c0-0.1-0.1-0.3-0.1-0.3c0.2-0.6,0.8-0.9,1.4-0.9
			c0.6,0,1.2,0.4,1.3,1c0.1,0.4-0.1,0.8-0.4,1.2c0,0,0,0-0.1,0.1c0.4,0.4,1,0.4,1.5,0.3c1-0.3,1.6-1.4,1.6-2.4s-1-1.9-2-2
			c-0.5,0-0.8,0-1.3,0c0-0.1-0.1-0.4-0.1-0.7c-0.2-0.6-0.4-1.1-0.9-1.5s-1-0.8-1.4-1.3c-0.2-0.1-0.3-0.3-0.4-0.5
			c-0.4,0.6-1,1.1-1.5,1.6c-0.8,0.6-1.5,1.3-1.3,2.4c-0.5,0-1-0.1-1.5,0c-1,0.1-1.7,0.9-1.8,2c-0.1,0.6,0.1,1.1,0.3,1.6
			c0.4,0.7,1.1,1.2,2.1,0.8c0.2-0.1,0.3-0.2,0.5-0.3c-0.1-0.2-0.3-0.4-0.3-0.5c-0.4-0.8-0.2-1.3,0.5-1.8c0.8-0.4,1.5-0.1,2,0.5
			c0.1,0.1,0,0.1,0.1,0.2c-0.2,0.4-0.5,0.6-0.8,0.9c0.1,0.2,0.3,0.4,0.6,0.7c0.2,0.1,0.2,0.3,0.1,0.5c-0.5,1.1-1.4,1.8-2.6,1.9
			c-1.6,0.2-2.9-0.1-4.1-1c-1.5-1.2-2.2-3.7-0.9-5.5c0.6-0.8,1.4-1.4,2.2-1.9s1.8-1,2.7-1.5c1.7-1,2.9-2.2,3.8-3.9
			c0.1,0.1,0.1,0.1,0,0.1c0.7,1.6,1.8,2.7,3.3,3.5c0.9,0.5,1.9,1,2.8,1.5c1,0.4,1.8,1.1,2.4,2C60,50.2,59.2,53.3,56,54.4L56,54.4
			L56,54.4z"/>
	</g>
	<g id="Layer_1_00000026854353718046203090000013025840510377660560_" class="st5">
		<path class="st4" d="M24.2,28.2c0.6,1,1.3,1.9,2,2.8c-0.6,0.6-1.3,1.2-2,1.8c-0.6-0.6-1.3-1.1-2.1-1.7
			C22.9,30.2,23.6,29.2,24.2,28.2L24.2,28.2L24.2,28.2z M18.3,33.1c1.2-0.4,2.4-0.4,3.6,0.1c0.7,0.4,1.2,1.1,1.5,1.7
			c0,0,0,0.1,0,0.2c-0.2,0.3-0.4,0.5-0.7,0.7c0.3,0.3,0.4,0.5,0.7,0.7c0,0.1,0.1,0.3,0.1,0.3c-0.2,0.6-0.8,0.9-1.4,0.9
			s-1.2-0.4-1.3-1c-0.1-0.4,0.1-0.8,0.4-1.2c0.1-0.1,0.1-0.1,0.1-0.2c-0.4-0.4-1-0.4-1.5-0.3c-1,0.3-1.6,1.4-1.6,2.4s1,1.9,2,2
			c0.5,0,0.8,0,1.3,0c0,0.1,0.1,0.4,0.1,0.7c0.2,0.6,0.4,1.1,0.9,1.5s1,0.8,1.4,1.3c0.2,0.1,0.3,0.3,0.4,0.5c0.4-0.6,1-1.1,1.5-1.6
			c0.8-0.6,1.5-1.3,1.3-2.4c0.5,0,1,0.1,1.5,0c1-0.1,1.7-0.9,1.8-2c0.1-0.6-0.1-1.1-0.3-1.6C29.7,35.1,29,34.6,28,35
			c-0.2,0.1-0.3,0.2-0.5,0.3c0.1,0.2,0.3,0.4,0.3,0.5c0.4,0.8,0.2,1.3-0.5,1.8c-0.8,0.4-1.5,0.1-2-0.5c-0.1-0.1,0-0.1-0.1-0.2
			c0.2-0.4,0.5-0.6,0.8-0.9c-0.1-0.2-0.3-0.4-0.6-0.7c-0.2-0.1-0.2-0.3-0.1-0.5c0.5-1.1,1.4-1.8,2.6-1.9c1.6-0.2,2.9,0.1,4.1,1
			c1.5,1.2,2.2,3.7,0.9,5.5c-0.6,0.8-1.4,1.4-2.2,1.9c-0.8,0.5-1.8,1-2.7,1.5c-1.7,1-2.9,2.2-3.8,3.9c-0.1-0.1-0.1-0.1,0-0.1
			c-0.7-1.6-1.8-2.7-3.3-3.5c-0.9-0.5-1.9-1-2.8-1.5c-1-0.4-1.8-1.1-2.4-2C14.3,37.3,15.2,34.2,18.3,33.1L18.3,33.1L18.3,33.1z"/>
	</g>
	<g id="Layer_1_00000127759618709901451820000003533200053540701071_" class="st5">
		<path class="st4" d="M0.1,59.2c-0.6-1-1.3-1.9-2-2.8c0.6-0.6,1.3-1.2,2-1.8c0.6,0.6,1.3,1.1,2.1,1.7C1.5,57.3,0.8,58.3,0.1,59.2
			L0.1,59.2L0.1,59.2z M6,54.4c-1.2,0.4-2.4,0.4-3.6-0.1c-0.7-0.4-1.2-1.1-1.5-1.7c0,0,0-0.1,0-0.2c0.2-0.3,0.4-0.5,0.7-0.7
			c-0.3-0.3-0.4-0.5-0.7-0.7c0-0.1-0.1-0.3-0.1-0.3c0.2-0.6,0.8-0.9,1.4-0.9s1.2,0.4,1.3,1c0.1,0.4-0.1,0.8-0.4,1.2c0,0,0,0-0.1,0.1
			c0.4,0.4,1,0.4,1.5,0.3c1-0.3,1.6-1.4,1.6-2.4s-1-1.9-2-2c-0.5,0-0.8,0-1.3,0c0-0.1-0.1-0.4-0.1-0.7c-0.2-0.6-0.4-1.1-0.9-1.5
			s-1-0.8-1.4-1.3C0.2,44.4,0.1,44.2,0,44c-0.4,0.6-1,1.1-1.5,1.6C-2.4,46.2-3,46.9-2.8,48c-0.5,0-1-0.1-1.5,0c-1,0.1-1.7,0.9-1.8,2
			c-0.1,0.6,0.1,1.1,0.3,1.6c0.4,0.7,1.1,1.2,2.1,0.8c0.2-0.1,0.3-0.2,0.5-0.3c-0.1-0.2-0.3-0.4-0.3-0.5c-0.4-0.8-0.2-1.3,0.5-1.8
			c0.8-0.4,1.5-0.1,2,0.5c0.1,0.1,0,0.1,0.1,0.2c-0.2,0.4-0.5,0.6-0.8,0.9c0.1,0.2,0.3,0.4,0.6,0.7c0.2,0.1,0.2,0.3,0.1,0.5
			c-0.5,1.1-1.4,1.8-2.6,1.9c-1.6,0.2-2.9-0.1-4.1-1c-1.5-1.2-2.2-3.7-0.9-5.5c0.6-0.8,1.4-1.4,2.2-1.9s1.8-1,2.7-1.5
			c1.7-1,2.9-2.2,3.8-3.9c0.1,0.1,0.1,0.1,0,0.1c0.7,1.6,1.8,2.7,3.3,3.5c0.9,0.5,1.9,1,2.8,1.5c1,0.4,1.8,1.1,2.4,2
			C10,50.2,9.2,53.3,6,54.4L6,54.4L6,54.4z"/>
	</g>
	<g id="Layer_1_00000146483841835606148670000011300416295330551952_" class="st5">
		<path class="st4" d="M50.1,109.2c-0.6-1-1.3-1.9-2-2.9c0.6-0.6,1.3-1.2,2-1.8c0.6,0.6,1.3,1.1,2.1,1.7
			C51.5,107.3,50.8,108.3,50.1,109.2L50.1,109.2L50.1,109.2z M56.1,104.4c-1.2,0.4-2.4,0.4-3.6-0.1c-0.7-0.4-1.2-1.1-1.5-1.7
			c0,0,0-0.1,0-0.2c0.2-0.3,0.4-0.5,0.7-0.7c-0.3-0.3-0.4-0.5-0.7-0.7c0-0.1-0.1-0.3-0.1-0.3c0.2-0.6,0.8-0.9,1.4-0.9
			c0.6,0,1.2,0.5,1.3,1c0.1,0.4-0.1,0.8-0.4,1.3c-0.1,0.1-0.1,0.1-0.1,0.2c0.4,0.4,1,0.4,1.5,0.3c1-0.3,1.6-1.4,1.6-2.4s-1-1.9-2-2
			c-0.5,0-0.8,0-1.3,0c0-0.1-0.1-0.4-0.1-0.7c-0.2-0.6-0.5-1.1-0.9-1.5c-0.5-0.4-1-0.8-1.4-1.3c-0.2-0.1-0.3-0.3-0.4-0.5
			c-0.4,0.6-1,1.1-1.5,1.6c-0.8,0.6-1.5,1.3-1.3,2.4c-0.5,0-1-0.1-1.5,0c-1,0.1-1.7,0.9-1.8,2c-0.1,0.6,0.1,1.1,0.3,1.6
			c0.4,0.7,1.2,1.2,2.1,0.8c0.2-0.1,0.3-0.2,0.5-0.3c-0.1-0.2-0.3-0.4-0.3-0.5c-0.4-0.8-0.2-1.3,0.5-1.8c0.8-0.4,1.5-0.1,2,0.5
			c0.1,0.1,0,0.1,0.1,0.2c-0.2,0.4-0.5,0.6-0.8,0.9c0.1,0.2,0.3,0.4,0.6,0.7c0.2,0.1,0.2,0.3,0.1,0.5c-0.5,1.2-1.4,1.8-2.7,1.9
			c-1.6,0.2-2.9-0.1-4.1-1.1c-1.5-1.2-2.2-3.7-0.9-5.5c0.6-0.8,1.4-1.4,2.2-1.9s1.8-1,2.7-1.5c1.7-1,3-2.2,3.8-3.9
			c0.1,0.1,0.1,0.1,0,0.1c0.7,1.6,1.8,2.8,3.3,3.5c0.9,0.5,1.9,1,2.8,1.5c1,0.4,1.8,1.1,2.4,2C60.1,100.2,59.3,103.3,56.1,104.4
			L56.1,104.4L56.1,104.4z"/>
	</g>
	<g id="Layer_1_00000082369498869693974830000005497413455650182298_" class="st5">
		<path class="st4" d="M24.1,78.1c0.6,1,1.3,1.9,2,2.9c-0.6,0.6-1.3,1.2-2,1.8c-0.6-0.6-1.3-1.1-2.1-1.7
			C22.7,80.1,23.4,79,24.1,78.1L24.1,78.1L24.1,78.1z M18.2,82.9c1.2-0.4,2.4-0.4,3.6,0.1c0.7,0.4,1.2,1.1,1.5,1.7c0,0,0,0.1,0,0.2
			c-0.2,0.3-0.4,0.5-0.7,0.7c0.3,0.3,0.4,0.5,0.7,0.7c0,0.1,0.1,0.3,0.1,0.3c-0.2,0.6-0.8,0.9-1.4,0.9s-1.2-0.5-1.3-1
			c-0.1-0.4,0.1-0.8,0.4-1.3c0.1-0.1,0.1-0.1,0.1-0.2c-0.4-0.4-1-0.4-1.5-0.3c-1,0.3-1.6,1.4-1.6,2.4s1,1.9,2,2c0.5,0,0.8,0,1.3,0
			c0,0.1,0.1,0.4,0.1,0.7c0.2,0.6,0.5,1.1,0.9,1.5c0.5,0.4,1,0.8,1.4,1.3c0.2,0.1,0.3,0.3,0.4,0.5c0.4-0.6,1-1.1,1.5-1.6
			c0.8-0.6,1.5-1.3,1.3-2.4c0.5,0,1,0.1,1.5,0c1-0.1,1.7-0.9,1.8-2c0.1-0.6-0.1-1.1-0.3-1.6c-0.4-0.7-1.2-1.2-2.1-0.8
			c-0.2,0.1-0.3,0.2-0.5,0.3c0.1,0.2,0.3,0.4,0.3,0.5c0.4,0.8,0.2,1.3-0.5,1.8c-0.8,0.4-1.5,0.1-2-0.5c-0.1-0.1,0-0.1-0.1-0.2
			c0.2-0.4,0.5-0.6,0.8-0.9c-0.1-0.2-0.3-0.4-0.6-0.7c-0.2-0.1-0.2-0.3-0.1-0.5c0.5-1.2,1.4-1.8,2.7-1.9c1.6-0.2,2.9,0.1,4.1,1.1
			c1.5,1.2,2.2,3.7,0.9,5.5c-0.6,0.8-1.4,1.4-2.2,1.9c-0.8,0.5-1.8,1-2.7,1.5c-1.7,1-3,2.2-3.8,3.9c-0.1-0.1-0.1-0.1,0-0.1
			c-0.7-1.6-1.8-2.8-3.3-3.5c-0.9-0.5-1.9-1-2.8-1.5c-1-0.4-1.8-1.1-2.4-2C14.1,87.2,15,84,18.2,82.9L18.2,82.9L18.2,82.9z"/>
	</g>
	<g id="Layer_1_00000131329223877120392480000012445296512015490211_" class="st5">
		<path class="st4" d="M0.1,109.2c-0.6-1-1.3-1.9-2-2.8c0.6-0.6,1.3-1.2,2-1.8c0.6,0.6,1.3,1.1,2.1,1.7
			C1.5,107.3,0.8,108.3,0.1,109.2L0.1,109.2L0.1,109.2z M6,104.4c-1.2,0.4-2.4,0.4-3.6-0.1c-0.7-0.4-1.2-1.1-1.5-1.7
			c0,0,0-0.1,0-0.2c0.2-0.3,0.4-0.5,0.7-0.7c-0.3-0.3-0.4-0.5-0.7-0.7c0-0.1-0.1-0.3-0.1-0.3c0.2-0.6,0.8-0.9,1.4-0.9s1.2,0.4,1.3,1
			c0.1,0.4-0.1,0.8-0.4,1.2c0,0,0,0-0.1,0.1c0.4,0.4,1,0.4,1.5,0.3c1-0.3,1.6-1.4,1.6-2.4s-1-1.9-2-2c-0.5,0-0.8,0-1.3,0
			c0-0.1-0.1-0.4-0.1-0.7c-0.2-0.6-0.4-1.1-0.9-1.5s-1-0.8-1.4-1.3C0.2,94.4,0.1,94.2,0,94c-0.4,0.6-1,1.1-1.5,1.6
			C-2.4,96.2-3,96.9-2.8,98c-0.5,0-1-0.1-1.5,0c-1,0.1-1.7,0.9-1.8,2c-0.1,0.6,0.1,1.1,0.3,1.6c0.4,0.7,1.1,1.2,2.1,0.8
			c0.2-0.1,0.3-0.2,0.5-0.3c-0.1-0.2-0.3-0.4-0.3-0.5c-0.4-0.8-0.2-1.3,0.5-1.8c0.8-0.4,1.5-0.1,2,0.5c0.1,0.1,0,0.1,0.1,0.2
			c-0.2,0.4-0.5,0.6-0.8,0.9c0.1,0.2,0.3,0.4,0.6,0.7c0.2,0.1,0.2,0.3,0.1,0.5c-0.5,1.1-1.4,1.8-2.6,1.9c-1.6,0.2-2.9-0.1-4.1-1
			c-1.5-1.2-2.2-3.7-0.9-5.5c0.6-0.8,1.4-1.4,2.2-1.9s1.8-1,2.7-1.5c1.7-1,2.9-2.2,3.8-3.9c0.1,0.1,0.1,0.1,0,0.1
			c0.7,1.6,1.8,2.7,3.3,3.5c0.9,0.5,1.9,1,2.8,1.5c1,0.4,1.8,1.1,2.4,2C10,100.2,9.2,103.3,6,104.4L6,104.4L6,104.4z"/>
	</g>
	<g id="Layer_1_00000152229357844779123380000009544402702410452869_" class="st5">
		<path class="st4" d="M50.1,9.2c-0.6-1-1.3-1.9-2-2.8c0.6-0.6,1.3-1.2,2-1.8c0.6,0.6,1.3,1.1,2.1,1.7C51.5,7.3,50.8,8.3,50.1,9.2
			L50.1,9.2L50.1,9.2z M56,4.4c-1.2,0.4-2.4,0.4-3.6-0.1c-0.7-0.4-1.2-1.1-1.5-1.7c0,0,0-0.1,0-0.2c0.2-0.3,0.4-0.5,0.7-0.7
			c-0.3-0.3-0.4-0.5-0.7-0.7c0-0.1-0.1-0.3-0.1-0.3c0.2-0.6,0.8-0.9,1.4-0.9c0.6,0,1.2,0.4,1.3,1c0.1,0.4-0.1,0.8-0.4,1.2
			c0,0,0,0-0.1,0.1c0.4,0.4,1,0.4,1.5,0.3c1-0.3,1.6-1.4,1.6-2.4s-1-1.9-2-2c-0.5,0-0.8,0-1.3,0c0-0.1-0.1-0.4-0.1-0.7
			c-0.2-0.6-0.4-1.1-0.9-1.5s-1-0.8-1.4-1.3C50.2-5.6,50.1-5.8,50-6c-0.4,0.6-1,1.1-1.5,1.6C47.6-3.8,47-3.1,47.2-2
			c-0.5,0-1-0.1-1.5,0c-1,0.1-1.7,0.9-1.8,2c-0.1,0.6,0.1,1.1,0.3,1.6c0.4,0.7,1.1,1.2,2.1,0.8c0.2-0.1,0.3-0.2,0.5-0.3
			c-0.1-0.2-0.3-0.4-0.3-0.5c-0.4-0.8-0.2-1.3,0.5-1.8c0.8-0.4,1.5-0.1,2,0.5c0.1,0.1,0,0.1,0.1,0.2c-0.2,0.4-0.5,0.6-0.8,0.9
			c0.1,0.2,0.3,0.4,0.6,0.7c0.2,0.1,0.2,0.3,0.1,0.5c-0.5,1.1-1.4,1.8-2.6,1.9c-1.6,0.2-2.9-0.1-4.1-1c-1.5-1.2-2.2-3.7-0.9-5.5
			c0.6-0.8,1.4-1.4,2.2-1.9s1.8-1,2.7-1.5c1.7-1,2.9-2.2,3.8-3.9c0.1,0.1,0.1,0.1,0,0.1c0.7,1.6,1.8,2.7,3.3,3.5
			c0.9,0.5,1.9,1,2.8,1.5c1,0.4,1.8,1.1,2.4,2C60,0.2,59.2,3.3,56,4.4L56,4.4L56,4.4z"/>
	</g>
	<g id="Layer_1_00000133528461296154643540000007112797637375158163_" class="st5">
		<path class="st4" d="M24.2-21.8c0.6,1,1.3,1.9,2,2.8c-0.6,0.6-1.3,1.2-2,1.8c-0.6-0.6-1.3-1.1-2.1-1.7
			C22.9-19.8,23.6-20.8,24.2-21.8L24.2-21.8L24.2-21.8z M18.3-16.9c1.2-0.4,2.4-0.4,3.6,0.1c0.7,0.4,1.2,1.1,1.5,1.7
			c0,0,0,0.1,0,0.2c-0.2,0.3-0.4,0.5-0.7,0.7c0.3,0.3,0.4,0.5,0.7,0.7c0,0.1,0.1,0.3,0.1,0.3c-0.2,0.6-0.8,0.9-1.4,0.9
			s-1.2-0.4-1.3-1c-0.1-0.4,0.1-0.8,0.4-1.2c0.1-0.1,0.1-0.1,0.1-0.2c-0.4-0.4-1-0.4-1.5-0.3c-1,0.3-1.6,1.4-1.6,2.4s1,1.9,2,2
			c0.5,0,0.8,0,1.3,0c0,0.1,0.1,0.4,0.1,0.7c0.2,0.6,0.4,1.1,0.9,1.5C23-7.9,23.5-7.5,24-7c0.2,0.1,0.3,0.3,0.4,0.5
			c0.4-0.6,1-1.1,1.5-1.6c0.8-0.6,1.5-1.3,1.3-2.4c0.5,0,1,0.1,1.5,0c1-0.1,1.7-0.9,1.8-2c0.1-0.6-0.1-1.1-0.3-1.6
			c-0.4-0.7-1.1-1.2-2.1-0.8c-0.2,0.1-0.3,0.2-0.5,0.3c0.1,0.2,0.3,0.4,0.3,0.5c0.4,0.8,0.2,1.3-0.5,1.8c-0.8,0.4-1.5,0.1-2-0.5
			c-0.1-0.1,0-0.1-0.1-0.2c0.2-0.4,0.5-0.6,0.8-0.9c-0.1-0.2-0.3-0.4-0.6-0.7c-0.2-0.1-0.2-0.3-0.1-0.5c0.5-1.1,1.4-1.8,2.6-1.9
			c1.6-0.2,2.9,0.1,4.1,1c1.5,1.2,2.2,3.7,0.9,5.5c-0.6,0.8-1.4,1.4-2.2,1.9c-0.8,0.5-1.8,1-2.7,1.5c-1.7,1-2.9,2.2-3.8,3.9
			c-0.1-0.1-0.1-0.1,0-0.1C23.7-5,22.5-6.1,21-6.9c-0.9-0.5-1.9-1-2.8-1.5c-1-0.4-1.8-1.1-2.4-2C14.3-12.7,15.2-15.8,18.3-16.9
			L18.3-16.9L18.3-16.9z"/>
	</g>
	<g id="Layer_1_00000108298392484508617070000016688419591020170884_" class="st5">
		<path class="st4" d="M0.1,9.2c-0.6-1-1.3-1.9-2-2.8c0.6-0.6,1.3-1.2,2-1.8c0.6,0.6,1.3,1.1,2.1,1.7C1.5,7.3,0.8,8.3,0.1,9.2
			L0.1,9.2L0.1,9.2z M6,4.4C4.9,4.8,3.6,4.8,2.5,4.3C1.8,3.9,1.3,3.2,1,2.6c0,0,0-0.1,0-0.2c0.2-0.3,0.4-0.5,0.7-0.7
			C1.3,1.3,1.2,1.1,1,0.9c0-0.1-0.1-0.3-0.1-0.3C1.1,0,1.6-0.3,2.3-0.3s1.2,0.4,1.3,1c0.1,0.4-0.1,0.8-0.4,1.2C3.1,2,3.1,2,3,2.1
			c0.4,0.4,1,0.4,1.5,0.3C5.6,2.1,6.2,1,6.2,0s-1-1.9-2-2C3.7-2,3.3-2,2.9-2c0-0.1-0.1-0.4-0.1-0.7c-0.2-0.6-0.5-1.1-1-1.5
			S0.9-5,0.4-5.5C0.2-5.6,0.1-5.8,0-6c-0.4,0.6-1,1.1-1.5,1.6C-2.4-3.8-3-3.1-2.8-2c-0.5,0-1-0.1-1.5,0C-5.3-1.9-6-1.1-6,0
			c-0.1,0.6,0.1,1.1,0.3,1.6c0.4,0.7,1.1,1.2,2.1,0.8c0.2-0.1,0.3-0.2,0.5-0.3c-0.1-0.2-0.3-0.4-0.3-0.5c-0.4-0.8-0.2-1.3,0.5-1.8
			c0.8-0.4,1.5-0.1,2,0.5c0.1,0.1,0,0.1,0.1,0.2c-0.2,0.4-0.4,0.7-0.7,1C-1.4,1.7-1.2,1.9-1,2.2c0.2,0.1,0.2,0.3,0.1,0.5
			c-0.5,1.1-1.4,1.8-2.6,1.9c-1.6,0.2-2.9-0.1-4.1-1c-1.5-1.3-2.3-3.8-1-5.6C-8-2.8-7.2-3.4-6.4-3.9s1.8-1,2.7-1.5
			c1.7-1,2.9-2.2,3.8-3.9c0.1,0.1,0.1,0.1,0,0.1c0.7,1.6,1.8,2.7,3.3,3.5c0.9,0.5,1.9,1,2.8,1.5c1,0.4,1.8,1.1,2.4,2
			C10,0.2,9.2,3.3,6,4.4L6,4.4L6,4.4z"/>
	</g>
	<g id="Layer_1_00000118384434603892754330000003145374886479282576_" class="st5">
		<path class="st4" d="M50.1,34.2c-0.6-1-1.3-1.9-2-2.8c0.6-0.6,1.3-1.2,2-1.8c0.6,0.6,1.3,1.1,2.1,1.7
			C51.5,32.3,50.8,33.3,50.1,34.2L50.1,34.2L50.1,34.2z M56,29.4c-1.2,0.4-2.4,0.4-3.6-0.1c-0.7-0.4-1.2-1.1-1.5-1.7
			c0,0,0-0.1,0-0.2c0.2-0.3,0.4-0.5,0.7-0.7c-0.3-0.3-0.4-0.5-0.7-0.7c0-0.1-0.1-0.3-0.1-0.3c0.2-0.6,0.8-0.9,1.4-0.9
			c0.6,0,1.2,0.4,1.3,1c0.1,0.4-0.1,0.8-0.4,1.2c0,0,0,0-0.1,0.1c0.4,0.4,1,0.4,1.5,0.3c1-0.3,1.6-1.4,1.6-2.4s-1-1.9-2-2
			c-0.5,0-0.8,0-1.3,0c0-0.1-0.1-0.4-0.1-0.7c-0.2-0.6-0.4-1.1-0.9-1.5s-1-0.8-1.4-1.3c-0.2-0.1-0.3-0.3-0.4-0.5
			c-0.4,0.6-1,1.1-1.5,1.6c-0.8,0.6-1.5,1.3-1.3,2.4c-0.5,0-1-0.1-1.5,0c-1,0.1-1.7,0.9-1.8,2c-0.1,0.6,0.1,1.1,0.3,1.6
			c0.4,0.7,1.1,1.2,2.1,0.8c0.2-0.1,0.3-0.2,0.5-0.3c-0.1-0.2-0.3-0.4-0.3-0.5c-0.4-0.8-0.2-1.3,0.5-1.8c0.8-0.4,1.5-0.1,2,0.5
			c0.1,0.1,0,0.1,0.1,0.2c-0.2,0.4-0.5,0.6-0.8,0.9c0.1,0.2,0.3,0.4,0.6,0.7c0.2,0.1,0.2,0.3,0.1,0.5c-0.5,1.1-1.4,1.8-2.6,1.9
			c-1.6,0.2-2.9-0.1-4.1-1c-1.5-1.2-2.2-3.7-0.9-5.5c0.6-0.8,1.4-1.4,2.2-1.9s1.8-1,2.7-1.5c1.7-1,2.9-2.2,3.8-3.9
			c0.1,0.1,0.1,0.1,0,0.1c0.7,1.6,1.8,2.7,3.3,3.5c0.9,0.5,1.9,1,2.8,1.5c1,0.4,1.8,1.1,2.4,2C60,25.2,59.2,28.3,56,29.4L56,29.4
			L56,29.4z"/>
	</g>
	<g id="Layer_1_00000107583149504321278140000012240183935713070488_" class="st5">
		<path class="st4" d="M24.2,3.2c0.6,1,1.3,1.9,2,2.8c-0.6,0.6-1.3,1.2-2,1.8c-0.6-0.6-1.3-1.1-2.1-1.7C22.9,5.2,23.6,4.2,24.2,3.2
			L24.2,3.2L24.2,3.2z M18.3,8.1c1.2-0.4,2.4-0.4,3.6,0.1c0.7,0.4,1.2,1.1,1.5,1.7c0,0,0,0.1,0,0.2c-0.2,0.3-0.4,0.5-0.7,0.7
			c0.3,0.3,0.4,0.5,0.7,0.7c0,0.1,0.1,0.3,0.1,0.3c-0.2,0.6-0.8,0.9-1.4,0.9s-1.2-0.4-1.3-1c-0.1-0.4,0.1-0.8,0.4-1.2
			c0.1-0.1,0.1-0.1,0.1-0.2c-0.4-0.4-1-0.4-1.5-0.3c-1,0.3-1.6,1.4-1.6,2.4s1,1.9,2,2c0.5,0,0.8,0,1.3,0c0,0.1,0.1,0.4,0.1,0.7
			c0.2,0.6,0.4,1.1,0.9,1.5s1,0.8,1.4,1.3c0.2,0.1,0.3,0.3,0.4,0.5c0.4-0.6,1-1.1,1.5-1.6c0.8-0.6,1.5-1.3,1.3-2.4
			c0.5,0,1,0.1,1.5,0c1-0.1,1.7-0.9,1.8-2c0.1-0.6-0.1-1.1-0.3-1.6C29.7,10.1,29,9.6,28,10c-0.2,0.1-0.3,0.2-0.5,0.3
			c0.1,0.2,0.3,0.4,0.3,0.5c0.4,0.8,0.2,1.3-0.5,1.8c-0.8,0.4-1.5,0.1-2-0.5c-0.1-0.1,0-0.1-0.1-0.2c0.2-0.4,0.5-0.6,0.8-0.9
			c-0.1-0.2-0.3-0.4-0.6-0.7c-0.2-0.1-0.2-0.3-0.1-0.5c0.5-1.1,1.4-1.8,2.6-1.9C29.5,7.8,30.8,8,32,9c1.5,1.2,2.2,3.7,0.9,5.5
			c-0.6,0.8-1.4,1.4-2.2,1.9c-0.8,0.5-1.8,1-2.7,1.5c-1.7,1-2.9,2.2-3.8,3.9c-0.1-0.1-0.1-0.1,0-0.1c-0.7-1.6-1.8-2.7-3.3-3.5
			c-0.9-0.5-1.9-1-2.8-1.5c-1-0.4-1.8-1.1-2.4-2C14.3,12.3,15.2,9.2,18.3,8.1L18.3,8.1L18.3,8.1z"/>
	</g>
	<g id="Layer_1_00000127727244345265586420000017218811227616330166_" class="st5">
		<path class="st4" d="M0.1,34.2c-0.6-1-1.3-1.9-2-2.8c0.6-0.6,1.3-1.2,2-1.8c0.6,0.6,1.3,1.1,2.1,1.7C1.5,32.3,0.8,33.3,0.1,34.2
			L0.1,34.2L0.1,34.2z M6,29.4c-1.2,0.4-2.4,0.4-3.6-0.1c-0.7-0.4-1.2-1.1-1.5-1.7c0,0,0-0.1,0-0.2c0.2-0.3,0.4-0.5,0.7-0.7
			c-0.3-0.3-0.4-0.5-0.7-0.7c0-0.1-0.1-0.3-0.1-0.3c0.2-0.6,0.8-0.9,1.4-0.9s1.2,0.4,1.3,1c0.1,0.4-0.1,0.8-0.4,1.2c0,0,0,0-0.1,0.1
			c0.4,0.4,1,0.4,1.5,0.3c1-0.3,1.6-1.4,1.6-2.4s-1-1.9-2-2c-0.5,0-0.8,0-1.3,0c0-0.1-0.1-0.4-0.1-0.7c-0.2-0.6-0.4-1.1-0.9-1.5
			s-1-0.8-1.4-1.3C0.2,19.4,0.1,19.2,0,19c-0.4,0.6-1,1.1-1.5,1.6C-2.4,21.2-3,21.9-2.8,23c-0.5,0-1-0.1-1.5,0c-1,0.1-1.7,0.9-1.8,2
			c-0.1,0.6,0.1,1.1,0.3,1.6c0.4,0.7,1.1,1.2,2.1,0.8c0.2-0.1,0.3-0.2,0.5-0.3c-0.1-0.2-0.3-0.4-0.3-0.5c-0.4-0.8-0.2-1.3,0.5-1.8
			c0.8-0.4,1.5-0.1,2,0.5c0.1,0.1,0,0.1,0.1,0.2c-0.2,0.4-0.5,0.6-0.8,0.9c0.1,0.2,0.3,0.4,0.6,0.7c0.2,0.1,0.2,0.3,0.1,0.5
			c-0.5,1.1-1.4,1.8-2.6,1.9c-1.6,0.2-2.9-0.1-4.1-1c-1.5-1.2-2.2-3.7-0.9-5.5c0.6-0.8,1.4-1.4,2.2-1.9s1.8-1,2.7-1.5
			c1.7-1,2.9-2.2,3.8-3.9c0.1,0.1,0.1,0.1,0,0.1c0.7,1.6,1.8,2.7,3.3,3.5c0.9,0.5,1.9,1,2.8,1.5c1,0.4,1.8,1.1,2.4,2
			C10,25.2,9.2,28.3,6,29.4L6,29.4L6,29.4z"/>
	</g>
	<g id="Layer_1_00000106857260254378761230000013863662922235014078_" class="st5">
		<path class="st4" d="M50.1,84.2c-0.6-1-1.3-1.9-2-2.8c0.6-0.6,1.3-1.2,2-1.8c0.6,0.6,1.3,1.1,2.1,1.7
			C51.5,82.3,50.8,83.3,50.1,84.2L50.1,84.2L50.1,84.2z M56,79.4c-1.2,0.4-2.4,0.4-3.6-0.1c-0.7-0.4-1.2-1.1-1.5-1.7
			c0,0,0-0.1,0-0.2c0.2-0.3,0.4-0.5,0.7-0.7c-0.3-0.3-0.4-0.5-0.7-0.7c0-0.1-0.1-0.3-0.1-0.3c0.2-0.6,0.8-0.9,1.4-0.9
			c0.6,0,1.2,0.4,1.3,1c0.1,0.4-0.1,0.8-0.4,1.2c0,0,0,0-0.1,0.1c0.4,0.4,1,0.4,1.5,0.3c1-0.3,1.6-1.4,1.6-2.4s-1-1.9-2-2
			c-0.5,0-0.8,0-1.3,0c0-0.1-0.1-0.4-0.1-0.7c-0.2-0.6-0.4-1.1-0.9-1.5s-1-0.8-1.4-1.3c-0.2-0.1-0.3-0.3-0.4-0.5
			c-0.4,0.6-1,1.1-1.5,1.6c-0.8,0.6-1.5,1.3-1.3,2.4c-0.5,0-1-0.1-1.5,0c-1,0.1-1.7,0.9-1.8,2c-0.1,0.6,0.1,1.1,0.3,1.6
			c0.4,0.7,1.1,1.2,2.1,0.8c0.2-0.1,0.3-0.2,0.5-0.3c-0.1-0.2-0.3-0.4-0.3-0.5c-0.4-0.8-0.2-1.3,0.5-1.8c0.8-0.4,1.5-0.1,2,0.5
			c0.1,0.1,0,0.1,0.1,0.2c-0.2,0.4-0.5,0.6-0.8,0.9c0.1,0.2,0.3,0.4,0.6,0.7c0.2,0.1,0.2,0.3,0.1,0.5c-0.5,1.1-1.4,1.8-2.6,1.9
			c-1.6,0.2-2.9-0.1-4.1-1c-1.5-1.2-2.2-3.7-0.9-5.5c0.6-0.8,1.4-1.4,2.2-1.9s1.8-1,2.7-1.5c1.7-1,2.9-2.2,3.8-3.9
			c0.1,0.1,0.1,0.1,0,0.1c0.7,1.6,1.8,2.7,3.3,3.5c0.9,0.5,1.9,1,2.8,1.5c1,0.4,1.8,1.1,2.4,2C60,75.2,59.2,78.3,56,79.4L56,79.4
			L56,79.4z"/>
	</g>
	<g id="Layer_1_00000096053698166404815220000011431980115650964919_" class="st5">
		<path class="st4" d="M24.2,53.2c0.6,1,1.3,1.9,2,2.8c-0.6,0.6-1.3,1.2-2,1.8c-0.6-0.6-1.3-1.1-2.1-1.7
			C22.9,55.2,23.6,54.2,24.2,53.2L24.2,53.2L24.2,53.2z M18.3,58.1c1.2-0.4,2.4-0.4,3.6,0.1c0.7,0.4,1.2,1.1,1.5,1.7
			c0,0,0,0.1,0,0.2c-0.2,0.3-0.4,0.5-0.7,0.7c0.3,0.3,0.4,0.5,0.7,0.7c0,0.1,0.1,0.3,0.1,0.3c-0.2,0.6-0.8,0.9-1.4,0.9
			s-1.2-0.4-1.3-1c-0.1-0.4,0.1-0.8,0.4-1.2c0.1-0.1,0.1-0.1,0.1-0.2c-0.4-0.4-1-0.4-1.5-0.3c-1,0.3-1.6,1.4-1.6,2.4s1,1.9,2,2
			c0.5,0,0.8,0,1.3,0c0,0.1,0.1,0.4,0.1,0.7c0.2,0.6,0.4,1.1,0.9,1.5s1,0.8,1.4,1.3c0.2,0.1,0.3,0.3,0.4,0.5c0.4-0.6,1-1.1,1.5-1.6
			c0.8-0.6,1.5-1.3,1.3-2.4c0.5,0,1,0.1,1.5,0c1-0.1,1.7-0.9,1.8-2c0.1-0.6-0.1-1.1-0.3-1.6C29.7,60.1,29,59.6,28,60
			c-0.2,0.1-0.3,0.2-0.5,0.3c0.1,0.2,0.3,0.4,0.3,0.5c0.4,0.8,0.2,1.3-0.5,1.8c-0.8,0.4-1.5,0.1-2-0.5c-0.1-0.1,0-0.1-0.1-0.2
			c0.2-0.4,0.5-0.6,0.8-0.9c-0.1-0.2-0.3-0.4-0.6-0.7c-0.2-0.1-0.2-0.3-0.1-0.5c0.5-1.1,1.4-1.8,2.6-1.9c1.6-0.2,2.9,0.1,4.1,1
			c1.5,1.2,2.2,3.7,0.9,5.5c-0.6,0.8-1.4,1.4-2.2,1.9c-0.8,0.5-1.8,1-2.7,1.5c-1.7,1-2.9,2.2-3.8,3.9c-0.1-0.1-0.1-0.1,0-0.1
			c-0.7-1.6-1.8-2.7-3.3-3.5c-0.9-0.5-1.9-1-2.8-1.5c-1-0.4-1.8-1.1-2.4-2C14.3,62.3,15.2,59.2,18.3,58.1L18.3,58.1L18.3,58.1z"/>
	</g>
	<g id="Layer_1_00000064347493722068870500000003775290131336216233_" class="st5">
		<path class="st4" d="M0.1,84.2c-0.6-1-1.3-1.9-2-2.8c0.6-0.6,1.3-1.2,2-1.8c0.6,0.6,1.3,1.1,2.1,1.7C1.5,82.3,0.8,83.3,0.1,84.2
			L0.1,84.2L0.1,84.2z M6,79.4c-1.2,0.4-2.4,0.4-3.6-0.1c-0.7-0.4-1.2-1.1-1.5-1.7c0,0,0-0.1,0-0.2c0.2-0.3,0.4-0.5,0.7-0.7
			c-0.3-0.3-0.4-0.5-0.7-0.7c0-0.1-0.1-0.3-0.1-0.3c0.2-0.6,0.8-0.9,1.4-0.9s1.2,0.4,1.3,1c0.1,0.4-0.1,0.8-0.4,1.2c0,0,0,0-0.1,0.1
			c0.4,0.4,1,0.4,1.5,0.3c1-0.3,1.6-1.4,1.6-2.4s-1-1.9-2-2c-0.5,0-0.8,0-1.3,0c0-0.1-0.1-0.4-0.1-0.7c-0.2-0.6-0.4-1.1-0.9-1.5
			s-1-0.8-1.4-1.3C0.2,69.4,0.1,69.2,0,69c-0.4,0.6-1,1.1-1.5,1.6C-2.4,71.2-3,71.9-2.8,73c-0.5,0-1-0.1-1.5,0c-1,0.1-1.7,0.9-1.8,2
			c-0.1,0.6,0.1,1.1,0.3,1.6c0.4,0.7,1.1,1.2,2.1,0.8c0.2-0.1,0.3-0.2,0.5-0.3c-0.1-0.2-0.3-0.4-0.3-0.5c-0.4-0.8-0.2-1.3,0.5-1.8
			c0.8-0.4,1.5-0.1,2,0.5c0.1,0.1,0,0.1,0.1,0.2c-0.2,0.4-0.5,0.6-0.8,0.9c0.1,0.2,0.3,0.4,0.6,0.7c0.2,0.1,0.2,0.3,0.1,0.5
			c-0.5,1.1-1.4,1.8-2.6,1.9c-1.6,0.2-2.9-0.1-4.1-1c-1.5-1.2-2.2-3.7-0.9-5.5c0.6-0.8,1.4-1.4,2.2-1.9s1.8-1,2.7-1.5
			c1.7-1,2.9-2.2,3.8-3.9c0.1,0.1,0.1,0.1,0,0.1c0.7,1.6,1.8,2.7,3.3,3.5c0.9,0.5,1.9,1,2.8,1.5c1,0.4,1.8,1.1,2.4,2
			C10,75.2,9.2,78.3,6,79.4L6,79.4L6,79.4z"/>
	</g>
	<g id="Layer_1_00000172403174517780314310000017918153414725718400_" class="st5">
		<path class="st4" d="M74.4,27.8c0.6,1,1.3,1.9,2,2.9c-0.6,0.6-1.3,1.2-2,1.8c-0.6-0.6-1.3-1.1-2.1-1.7
			C73,29.8,73.7,28.8,74.4,27.8L74.4,27.8L74.4,27.8z M68.4,32.7c1.2-0.4,2.4-0.4,3.6,0.1c0.7,0.4,1.2,1.1,1.5,1.7c0,0,0,0.1,0,0.2
			c-0.2,0.3-0.4,0.5-0.7,0.7c0.3,0.3,0.4,0.5,0.7,0.7c0,0.1,0.1,0.3,0.1,0.3c-0.2,0.6-0.8,0.9-1.4,0.9s-1.2-0.5-1.3-1
			c-0.1-0.4,0.1-0.8,0.4-1.3c0.1-0.1,0.1-0.1,0.1-0.2c-0.4-0.4-1-0.4-1.5-0.3c-1,0.3-1.6,1.4-1.6,2.4s1,1.9,2,2c0.5,0,0.8,0,1.3,0
			c0,0.1,0.1,0.4,0.1,0.7c0.2,0.6,0.5,1.1,0.9,1.5c0.5,0.4,1,0.8,1.4,1.3c0.2,0.1,0.3,0.3,0.4,0.5c0.4-0.6,1-1.1,1.5-1.6
			c0.8-0.6,1.5-1.3,1.3-2.4c0.5,0,1,0.1,1.5,0c1-0.1,1.7-0.9,1.8-2c0.1-0.6-0.1-1.1-0.3-1.6c-0.4-0.7-1.2-1.2-2.1-0.8
			c-0.2,0.1-0.3,0.2-0.5,0.3c0.1,0.2,0.3,0.4,0.3,0.5c0.4,0.8,0.2,1.3-0.5,1.8c-0.8,0.4-1.5,0.1-2-0.5c-0.1-0.1,0-0.1-0.1-0.2
			c0.2-0.4,0.5-0.6,0.8-0.9c-0.1-0.2-0.3-0.4-0.6-0.7c-0.2-0.1-0.2-0.3-0.1-0.5c0.5-1.2,1.4-1.8,2.7-1.9c1.6-0.2,2.9,0.1,4.1,1.1
			c1.5,1.2,2.2,3.7,0.9,5.5c-0.6,0.8-1.4,1.4-2.2,1.9c-0.8,0.5-1.8,1-2.7,1.5c-1.7,1-3,2.2-3.8,3.9c-0.1-0.1-0.1-0.1,0-0.1
			c-0.7-1.6-1.8-2.8-3.3-3.5c-0.9-0.5-1.9-1-2.8-1.5c-1-0.4-1.8-1.1-2.4-2C64.4,36.9,65.3,33.8,68.4,32.7L68.4,32.7L68.4,32.7z"/>
	</g>
	<g id="Layer_1_00000100345963515668514700000003698150551008280469_" class="st5">
		<path class="st4" d="M74.4,78.1c0.6,1,1.3,1.9,2,2.9c-0.6,0.6-1.3,1.2-2,1.8c-0.6-0.6-1.3-1.1-2.1-1.7C73,80.1,73.7,79,74.4,78.1
			L74.4,78.1L74.4,78.1z M68.4,82.9c1.2-0.4,2.4-0.4,3.6,0.1c0.7,0.4,1.2,1.1,1.5,1.7c0,0,0,0.1,0,0.2c-0.2,0.3-0.4,0.5-0.7,0.7
			c0.3,0.3,0.4,0.5,0.7,0.7c0,0.1,0.1,0.3,0.1,0.3c-0.2,0.6-0.8,0.9-1.4,0.9s-1.2-0.5-1.3-1c-0.1-0.4,0.1-0.8,0.4-1.3
			c0.1-0.1,0.1-0.1,0.1-0.2c-0.4-0.4-1-0.4-1.5-0.3c-1,0.3-1.6,1.4-1.6,2.4s1,1.9,2,2c0.5,0,0.8,0,1.3,0c0,0.1,0.1,0.4,0.1,0.7
			c0.2,0.6,0.5,1.1,0.9,1.5c0.5,0.4,1,0.8,1.4,1.3c0.2,0.1,0.3,0.3,0.4,0.5c0.4-0.6,1-1.1,1.5-1.6c0.8-0.6,1.5-1.3,1.3-2.4
			c0.5,0,1,0.1,1.5,0c1-0.1,1.7-0.9,1.8-2c0.1-0.6-0.1-1.1-0.3-1.6c-0.4-0.7-1.2-1.2-2.1-0.8c-0.2,0.1-0.3,0.2-0.5,0.3
			c0.1,0.2,0.3,0.4,0.3,0.5c0.4,0.8,0.2,1.3-0.5,1.8c-0.8,0.4-1.5,0.1-2-0.5c-0.1-0.1,0-0.1-0.1-0.2c0.2-0.4,0.5-0.6,0.8-0.9
			c-0.1-0.2-0.3-0.4-0.6-0.7c-0.2-0.1-0.2-0.3-0.1-0.5c0.5-1.2,1.4-1.8,2.7-1.9c1.6-0.2,2.9,0.1,4.1,1.1c1.5,1.2,2.2,3.7,0.9,5.5
			c-0.6,0.8-1.4,1.4-2.2,1.9s-1.8,1-2.7,1.5c-1.7,1-3,2.2-3.8,3.9c-0.1-0.1-0.1-0.1,0-0.1c-0.7-1.6-1.8-2.8-3.3-3.5
			c-0.9-0.5-1.9-1-2.8-1.5c-1-0.4-1.8-1.1-2.4-2C64.4,87.2,65.3,84,68.4,82.9L68.4,82.9L68.4,82.9z"/>
	</g>
	<g id="Layer_1_00000011732313601366108920000005577852007133494423_" class="st5">
		<path class="st4" d="M74.2-21.8c0.6,1,1.3,1.9,2,2.8c-0.6,0.6-1.3,1.2-2,1.8c-0.6-0.6-1.3-1.1-2.1-1.7
			C72.9-19.8,73.6-20.8,74.2-21.8L74.2-21.8L74.2-21.8z M68.3-16.9c1.2-0.4,2.4-0.4,3.6,0.1c0.7,0.4,1.2,1.1,1.5,1.7
			c0,0,0,0.1,0,0.2c-0.2,0.3-0.4,0.5-0.7,0.7c0.3,0.3,0.4,0.5,0.7,0.7c0,0.1,0.1,0.3,0.1,0.3c-0.2,0.6-0.8,0.9-1.4,0.9
			s-1.2-0.4-1.3-1c-0.1-0.4,0.1-0.8,0.4-1.2c0.1-0.1,0.1-0.1,0.1-0.2c-0.4-0.4-1-0.4-1.5-0.3c-1,0.3-1.6,1.4-1.6,2.4s1,1.9,2,2
			c0.5,0,0.8,0,1.3,0c0,0.1,0.1,0.4,0.1,0.7c0.2,0.6,0.4,1.1,0.9,1.5C73-7.9,73.5-7.5,74-7c0.2,0.1,0.3,0.3,0.4,0.5
			c0.4-0.6,1-1.1,1.5-1.6c0.8-0.6,1.5-1.3,1.3-2.4c0.5,0,1,0.1,1.5,0c1-0.1,1.7-0.9,1.8-2c0.1-0.6-0.1-1.1-0.3-1.6
			c-0.4-0.7-1.1-1.2-2.1-0.8c-0.2,0.1-0.3,0.2-0.5,0.3c0.1,0.2,0.3,0.4,0.3,0.5c0.4,0.8,0.2,1.3-0.5,1.8c-0.8,0.4-1.5,0.1-2-0.5
			c-0.1-0.1,0-0.1-0.1-0.2c0.2-0.4,0.5-0.6,0.8-0.9c-0.1-0.2-0.3-0.4-0.6-0.7c-0.2-0.1-0.2-0.3-0.1-0.5c0.5-1.1,1.4-1.8,2.6-1.9
			c1.6-0.2,2.9,0.1,4.1,1c1.5,1.2,2.2,3.7,0.9,5.5c-0.6,0.8-1.4,1.4-2.2,1.9s-1.8,1-2.7,1.5c-1.7,1-2.9,2.2-3.8,3.9
			c-0.1-0.1-0.1-0.1,0-0.1C73.7-5,72.5-6.1,71-6.9c-0.9-0.5-1.9-1-2.8-1.5c-1-0.4-1.8-1.1-2.4-2C64.3-12.7,65.2-15.8,68.3-16.9
			L68.3-16.9L68.3-16.9z"/>
	</g>
	<g id="Layer_1_00000125587027428969306890000011581496547050503835_" class="st5">
		<path class="st4" d="M74.4,2.7c0.6,1,1.3,1.9,2,2.9c-0.6,0.6-1.3,1.2-2,1.8c-0.6-0.6-1.3-1.1-2.1-1.7C73,4.7,73.7,3.6,74.4,2.7
			L74.4,2.7L74.4,2.7z M68.4,7.5c1.2-0.4,2.4-0.4,3.6,0.1c0.7,0.4,1.2,1.1,1.5,1.7c0,0,0,0.1,0,0.2c-0.2,0.3-0.4,0.5-0.7,0.7
			c0.3,0.3,0.4,0.5,0.7,0.7c0,0.1,0.1,0.3,0.1,0.3c-0.2,0.6-0.8,0.9-1.4,0.9s-1.2-0.5-1.3-1c-0.1-0.4,0.1-0.8,0.4-1.3
			c0.1-0.1,0.1-0.1,0.1-0.2c-0.4-0.4-1-0.4-1.5-0.3c-1,0.3-1.6,1.4-1.6,2.4s1,1.9,2,2c0.5,0,0.8,0,1.3,0c0,0.1,0.1,0.4,0.1,0.7
			c0.2,0.6,0.5,1.1,0.9,1.5c0.5,0.4,1,0.8,1.4,1.3c0.2,0.1,0.3,0.3,0.4,0.5c0.4-0.6,1-1.1,1.5-1.6c0.8-0.6,1.5-1.3,1.3-2.4
			c0.5,0,1,0.1,1.5,0c1-0.1,1.7-0.9,1.8-2c0.1-0.6-0.1-1.1-0.3-1.6c-0.4-0.7-1.2-1.2-2.1-0.8c-0.2,0.1-0.3,0.2-0.5,0.3
			c0.1,0.2,0.3,0.4,0.3,0.5c0.4,0.8,0.2,1.3-0.5,1.8c-0.8,0.4-1.5,0.1-2-0.5c-0.1-0.1,0-0.1-0.1-0.2c0.2-0.4,0.5-0.6,0.8-0.9
			c-0.1-0.2-0.3-0.4-0.6-0.7c-0.2-0.1-0.2-0.3-0.1-0.5c0.5-1.2,1.4-1.8,2.7-1.9C79.7,7,81,7.3,82.2,8.3c1.5,1.2,2.2,3.7,0.9,5.5
			c-0.6,0.8-1.4,1.4-2.2,1.9c-0.8,0.5-1.8,1-2.7,1.5c-1.7,1-3,2.2-3.8,3.9c-0.1-0.1-0.1-0.1,0-0.1c-0.7-1.6-1.8-2.8-3.3-3.5
			c-0.9-0.5-1.9-1-2.8-1.5c-1-0.4-1.8-1.1-2.4-2C64.4,11.8,65.3,8.6,68.4,7.5L68.4,7.5L68.4,7.5z"/>
	</g>
	<g id="Layer_1_00000090275985215929032370000016894980704406699679_" class="st5">
		<path class="st4" d="M74.4,53c0.6,1,1.3,1.9,2,2.9c-0.6,0.6-1.3,1.2-2,1.8c-0.6-0.6-1.3-1.1-2.1-1.7C73,55,73.7,53.9,74.4,53
			L74.4,53L74.4,53z M68.4,57.8c1.2-0.4,2.4-0.4,3.6,0.1c0.7,0.4,1.2,1.1,1.5,1.7c0,0,0,0.1,0,0.2c-0.2,0.3-0.4,0.5-0.7,0.7
			c0.3,0.3,0.4,0.5,0.7,0.7c0,0.1,0.1,0.3,0.1,0.3c-0.2,0.6-0.8,0.9-1.4,0.9s-1.2-0.5-1.3-1c-0.1-0.4,0.1-0.8,0.4-1.3
			c0.1-0.1,0.1-0.1,0.1-0.2c-0.4-0.4-1-0.4-1.5-0.3c-1,0.3-1.6,1.4-1.6,2.4s1,1.9,2,2c0.5,0,0.8,0,1.3,0c0,0.1,0.1,0.4,0.1,0.7
			c0.2,0.6,0.5,1.1,0.9,1.5c0.5,0.4,1,0.8,1.4,1.3c0.2,0.1,0.3,0.3,0.4,0.5c0.4-0.6,1-1.1,1.5-1.6c0.8-0.6,1.5-1.3,1.3-2.4
			c0.5,0,1,0.1,1.5,0c1-0.1,1.7-0.9,1.8-2c0.1-0.6-0.1-1.1-0.3-1.6c-0.4-0.7-1.2-1.2-2.1-0.8c-0.2,0.1-0.3,0.2-0.5,0.3
			c0.1,0.2,0.3,0.4,0.3,0.5c0.4,0.8,0.2,1.3-0.5,1.8c-0.8,0.4-1.5,0.1-2-0.5c-0.1-0.1,0-0.1-0.1-0.2c0.2-0.4,0.5-0.6,0.8-0.9
			c-0.1-0.2-0.3-0.4-0.6-0.7c-0.2-0.1-0.2-0.3-0.1-0.5c0.5-1.2,1.4-1.8,2.7-1.9c1.6-0.2,2.9,0.1,4.1,1.1c1.5,1.2,2.2,3.7,0.9,5.5
			c-0.6,0.8-1.4,1.4-2.2,1.9c-0.8,0.5-1.8,1-2.7,1.5c-1.7,1-3,2.2-3.8,3.9c-0.1-0.1-0.1-0.1,0-0.1c-0.7-1.6-1.8-2.8-3.3-3.5
			c-0.9-0.5-1.9-1-2.8-1.5c-1-0.4-1.8-1.1-2.4-2C64.4,62.1,65.3,58.9,68.4,57.8L68.4,57.8L68.4,57.8z"/>
	</g>
	<g id="Layer_1_00000062173882026724610930000002776697719647623084_" class="st5">
		<path class="st4" d="M100.1,59.2c-0.6-1-1.3-1.9-2-2.8c0.6-0.6,1.3-1.2,2-1.8c0.6,0.6,1.3,1.1,2.1,1.7
			C101.5,57.3,100.8,58.3,100.1,59.2L100.1,59.2L100.1,59.2z M106,54.4c-1.2,0.4-2.4,0.4-3.6-0.1c-0.7-0.4-1.2-1.1-1.5-1.7
			c0,0,0-0.1,0-0.2c0.2-0.3,0.4-0.5,0.7-0.7c-0.3-0.3-0.4-0.5-0.7-0.7c0-0.1-0.1-0.3-0.1-0.3c0.2-0.6,0.8-0.9,1.4-0.9s1.2,0.4,1.3,1
			c0.1,0.4-0.1,0.8-0.4,1.2c-0.1,0.1-0.1,0.1-0.1,0.2c0.4,0.4,1,0.4,1.5,0.3c1-0.3,1.6-1.4,1.6-2.4s-1-1.9-2-2c-0.5,0-0.8,0-1.3,0
			c0-0.1-0.1-0.4-0.1-0.7c-0.2-0.6-0.4-1.1-0.9-1.5s-1-0.8-1.4-1.3c-0.2-0.1-0.3-0.3-0.4-0.5c-0.4,0.6-1,1.1-1.5,1.6
			c-0.8,0.6-1.5,1.3-1.3,2.4c-0.5,0-1-0.1-1.5,0c-1,0.1-1.7,0.9-1.8,2c-0.1,0.6,0.1,1.1,0.3,1.6c0.4,0.7,1.1,1.2,2.1,0.8
			c0.2-0.1,0.3-0.2,0.5-0.3c-0.1-0.2-0.3-0.4-0.3-0.5c-0.4-0.8-0.2-1.3,0.5-1.8c0.8-0.4,1.5-0.1,2,0.5c0.1,0.1,0,0.1,0.1,0.2
			c-0.2,0.4-0.5,0.6-0.8,0.9c0.1,0.2,0.3,0.4,0.6,0.7c0.2,0.1,0.2,0.3,0.1,0.5c-0.5,1.1-1.4,1.8-2.6,1.9c-1.6,0.2-2.9-0.1-4.1-1
			c-1.5-1.2-2.2-3.7-0.9-5.5c0.6-0.8,1.4-1.4,2.2-1.9c0.8-0.5,1.8-1,2.7-1.5c1.7-1,2.9-2.2,3.8-3.9c0.1,0.1,0.1,0.1,0,0.1
			c0.7,1.6,1.8,2.7,3.3,3.5c0.9,0.5,1.9,1,2.8,1.5c1,0.4,1.8,1.1,2.4,2C110,50.2,109.2,53.3,106,54.4L106,54.4L106,54.4z"/>
	</g>
	<g id="Layer_1_00000145778688540487827260000007534988259655470764_" class="st5">
		<path class="st4" d="M100.1,109.2c-0.6-1-1.3-1.9-2-2.8c0.6-0.6,1.3-1.2,2-1.8c0.6,0.6,1.3,1.1,2.1,1.7
			C101.5,107.3,100.8,108.3,100.1,109.2L100.1,109.2L100.1,109.2z M106,104.4c-1.2,0.4-2.4,0.4-3.6-0.1c-0.7-0.4-1.2-1.1-1.5-1.7
			c0,0,0-0.1,0-0.2c0.2-0.3,0.4-0.5,0.7-0.7c-0.3-0.3-0.4-0.5-0.7-0.7c0-0.1-0.1-0.3-0.1-0.3c0.2-0.6,0.8-0.9,1.4-0.9s1.2,0.4,1.3,1
			c0.1,0.4-0.1,0.8-0.4,1.2c-0.1,0.1-0.1,0.1-0.1,0.2c0.4,0.4,1,0.4,1.5,0.3c1-0.3,1.6-1.4,1.6-2.4s-1-1.9-2-2c-0.5,0-0.8,0-1.3,0
			c0-0.1-0.1-0.4-0.1-0.7c-0.2-0.6-0.4-1.1-0.9-1.5s-1-0.8-1.4-1.3c-0.2-0.1-0.3-0.3-0.4-0.5c-0.4,0.6-1,1.1-1.5,1.6
			c-0.8,0.6-1.5,1.3-1.3,2.4c-0.5,0-1-0.1-1.5,0c-1,0.1-1.7,0.9-1.8,2c-0.1,0.6,0.1,1.1,0.3,1.6c0.4,0.7,1.1,1.2,2.1,0.8
			c0.2-0.1,0.3-0.2,0.5-0.3c-0.1-0.2-0.3-0.4-0.3-0.5c-0.4-0.8-0.2-1.3,0.5-1.8c0.8-0.4,1.5-0.1,2,0.5c0.1,0.1,0,0.1,0.1,0.2
			c-0.2,0.4-0.5,0.6-0.8,0.9c0.1,0.2,0.3,0.4,0.6,0.7c0.2,0.1,0.2,0.3,0.1,0.5c-0.5,1.1-1.4,1.8-2.6,1.9c-1.6,0.2-2.9-0.1-4.1-1
			c-1.5-1.2-2.2-3.7-0.9-5.5c0.6-0.8,1.4-1.4,2.2-1.9c0.8-0.5,1.8-1,2.7-1.5c1.7-1,2.9-2.2,3.8-3.9c0.1,0.1,0.1,0.1,0,0.1
			c0.7,1.6,1.8,2.7,3.3,3.5c0.9,0.5,1.9,1,2.8,1.5c1,0.4,1.8,1.1,2.4,2C110,100.2,109.2,103.3,106,104.4L106,104.4L106,104.4z"/>
	</g>
	<g id="Layer_1_00000140003479304519455360000006221816115813335965_" class="st5">
		<path class="st4" d="M100.1,9.2c-0.6-1-1.3-1.9-2-2.8c0.6-0.6,1.3-1.2,2-1.8c0.6,0.6,1.3,1.1,2.1,1.7
			C101.5,7.3,100.8,8.3,100.1,9.2L100.1,9.2L100.1,9.2z M106,4.4c-1.2,0.4-2.4,0.4-3.6-0.1c-0.7-0.4-1.2-1.1-1.5-1.7
			c0,0,0-0.1,0-0.2c0.2-0.3,0.4-0.5,0.7-0.7c-0.3-0.3-0.4-0.5-0.7-0.7c0-0.1-0.1-0.3-0.1-0.3c0.2-0.6,0.8-0.9,1.4-0.9s1.2,0.4,1.3,1
			c0.1,0.4-0.1,0.8-0.4,1.2c0,0,0,0-0.1,0.1c0.4,0.4,1,0.4,1.5,0.3c1-0.3,1.6-1.4,1.6-2.4s-1-1.9-2-2c-0.5,0-0.8,0-1.3,0
			c0-0.1-0.1-0.4-0.1-0.7c-0.2-0.6-0.4-1.1-0.9-1.5s-1-0.8-1.4-1.3c-0.2-0.1-0.3-0.3-0.4-0.5c-0.4,0.6-1,1.1-1.5,1.6
			C97.6-3.8,97-3.1,97.2-2c-0.5,0-1-0.1-1.5,0c-1,0.1-1.7,0.9-1.8,2c-0.1,0.6,0.1,1.1,0.3,1.6c0.4,0.7,1.1,1.2,2.1,0.8
			c0.2-0.1,0.3-0.2,0.5-0.3c-0.1-0.2-0.3-0.4-0.3-0.5c-0.4-0.8-0.2-1.3,0.5-1.8c0.8-0.4,1.5-0.1,2,0.5c0.1,0.1,0,0.1,0.1,0.2
			c-0.2,0.4-0.5,0.6-0.8,0.9c0.1,0.2,0.3,0.4,0.6,0.7c0.2,0.1,0.2,0.3,0.1,0.5c-0.5,1.1-1.4,1.8-2.6,1.9c-1.6,0.2-2.9-0.1-4.1-1
			c-1.5-1.2-2.2-3.7-0.9-5.5c0.6-0.8,1.4-1.4,2.2-1.9c0.8-0.5,1.8-1,2.7-1.5c1.7-1,2.9-2.2,3.8-3.9c0.1,0.1,0.1,0.1,0,0.1
			c0.7,1.6,1.8,2.7,3.3,3.5c0.9,0.5,1.9,1,2.8,1.5c1,0.4,1.8,1.1,2.4,2C110,0.2,109.2,3.3,106,4.4L106,4.4L106,4.4z"/>
	</g>
	<g id="Layer_1_00000145754506001667985800000005042911628211417241_" class="st5">
		<path class="st4" d="M100.1,34.2c-0.6-1-1.3-1.9-2-2.8c0.6-0.6,1.3-1.2,2-1.8c0.6,0.6,1.3,1.1,2.1,1.7
			C101.5,32.3,100.8,33.3,100.1,34.2L100.1,34.2L100.1,34.2z M106,29.4c-1.2,0.4-2.4,0.4-3.6-0.1c-0.7-0.4-1.2-1.1-1.5-1.7
			c0,0,0-0.1,0-0.2c0.2-0.3,0.4-0.5,0.7-0.7c-0.3-0.3-0.4-0.5-0.7-0.7c0-0.1-0.1-0.3-0.1-0.3c0.2-0.6,0.8-0.9,1.4-0.9s1.2,0.4,1.3,1
			c0.1,0.4-0.1,0.8-0.4,1.2c-0.1,0.1-0.1,0.1-0.1,0.2c0.4,0.4,1,0.4,1.5,0.3c1-0.3,1.6-1.4,1.6-2.4s-1-1.9-2-2c-0.5,0-0.8,0-1.3,0
			c0-0.1-0.1-0.4-0.1-0.7c-0.2-0.6-0.4-1.1-0.9-1.5s-1-0.8-1.4-1.3c-0.2-0.1-0.3-0.3-0.4-0.5c-0.4,0.6-1,1.1-1.5,1.6
			c-0.8,0.6-1.5,1.3-1.3,2.4c-0.5,0-1-0.1-1.5,0c-1,0.1-1.7,0.9-1.8,2c-0.1,0.6,0.1,1.1,0.3,1.6c0.4,0.7,1.1,1.2,2.1,0.8
			c0.2-0.1,0.3-0.2,0.5-0.3c-0.1-0.2-0.3-0.4-0.3-0.5c-0.4-0.8-0.2-1.3,0.5-1.8c0.8-0.4,1.5-0.1,2,0.5c0.1,0.1,0,0.1,0.1,0.2
			c-0.2,0.4-0.5,0.6-0.8,0.9c0.1,0.2,0.3,0.4,0.6,0.7c0.2,0.1,0.2,0.3,0.1,0.5c-0.5,1.1-1.4,1.8-2.6,1.9c-1.6,0.2-2.9-0.1-4.1-1
			c-1.5-1.2-2.2-3.7-0.9-5.5c0.6-0.8,1.4-1.4,2.2-1.9c0.8-0.5,1.8-1,2.7-1.5c1.7-1,2.9-2.2,3.8-3.9c0.1,0.1,0.1,0.1,0,0.1
			c0.7,1.6,1.8,2.7,3.3,3.5c0.9,0.5,1.9,1,2.8,1.5c1,0.4,1.8,1.1,2.4,2C110,25.2,109.2,28.3,106,29.4L106,29.4L106,29.4z"/>
	</g>
	<g id="Layer_1_00000158708374216357029510000015881327248861435555_" class="st5">
		<path class="st4" d="M100.1,84.2c-0.6-1-1.3-1.9-2-2.8c0.6-0.6,1.3-1.2,2-1.8c0.6,0.6,1.3,1.1,2.1,1.7
			C101.5,82.3,100.8,83.3,100.1,84.2L100.1,84.2L100.1,84.2z M106,79.4c-1.2,0.4-2.4,0.4-3.6-0.1c-0.7-0.4-1.2-1.1-1.5-1.7
			c0,0,0-0.1,0-0.2c0.2-0.3,0.4-0.5,0.7-0.7c-0.3-0.3-0.4-0.5-0.7-0.7c0-0.1-0.1-0.3-0.1-0.3c0.2-0.6,0.8-0.9,1.4-0.9s1.2,0.4,1.3,1
			c0.1,0.4-0.1,0.8-0.4,1.2c-0.1,0.1-0.1,0.1-0.1,0.2c0.4,0.4,1,0.4,1.5,0.3c1-0.3,1.6-1.4,1.6-2.4s-1-1.9-2-2c-0.5,0-0.8,0-1.3,0
			c0-0.1-0.1-0.4-0.1-0.7c-0.2-0.6-0.4-1.1-0.9-1.5s-1-0.8-1.4-1.3c-0.2-0.1-0.3-0.3-0.4-0.5c-0.4,0.6-1,1.1-1.5,1.6
			c-0.8,0.6-1.5,1.3-1.3,2.4c-0.5,0-1-0.1-1.5,0c-1,0.1-1.7,0.9-1.8,2c-0.1,0.6,0.1,1.1,0.3,1.6c0.4,0.7,1.1,1.2,2.1,0.8
			c0.2-0.1,0.3-0.2,0.5-0.3c-0.1-0.2-0.3-0.4-0.3-0.5c-0.4-0.8-0.2-1.3,0.5-1.8c0.8-0.4,1.5-0.1,2,0.5c0.1,0.1,0,0.1,0.1,0.2
			c-0.2,0.4-0.5,0.6-0.8,0.9c0.1,0.2,0.3,0.4,0.6,0.7c0.2,0.1,0.2,0.3,0.1,0.5c-0.5,1.1-1.4,1.8-2.6,1.9c-1.6,0.2-2.9-0.1-4.1-1
			c-1.5-1.2-2.2-3.7-0.9-5.5c0.6-0.8,1.4-1.4,2.2-1.9c0.8-0.5,1.8-1,2.7-1.5c1.7-1,2.9-2.2,3.8-3.9c0.1,0.1,0.1,0.1,0,0.1
			c0.7,1.6,1.8,2.7,3.3,3.5c0.9,0.5,1.9,1,2.8,1.5c1,0.4,1.8,1.1,2.4,2C110,75.2,109.2,78.3,106,79.4L106,79.4L106,79.4z"/>
	</g>
	<g id="Layer_1_00000044148280988663769590000015743545860926655363_" class="st5">
		<path class="st4" d="M25.5,103.2c0.6,1,1.3,1.9,2,2.8c-0.6,0.6-1.3,1.2-2,1.8c-0.6-0.6-1.3-1.1-2.1-1.7
			C24.1,105.2,24.8,104.2,25.5,103.2L25.5,103.2L25.5,103.2z M19.6,108.1c1.2-0.4,2.4-0.4,3.6,0.1c0.7,0.4,1.2,1.1,1.5,1.7
			c0,0,0,0.1,0,0.2c-0.2,0.3-0.4,0.5-0.7,0.7c0.3,0.3,0.4,0.5,0.7,0.7c0,0.1,0.1,0.3,0.1,0.3c-0.2,0.6-0.8,0.9-1.4,0.9
			s-1.2-0.4-1.3-1c-0.1-0.4,0.1-0.8,0.4-1.2c0.1-0.1,0.1-0.1,0.1-0.2c-0.4-0.4-1-0.4-1.5-0.3c-1,0.3-1.6,1.4-1.6,2.4s1,1.9,2,2
			c0.5,0,0.8,0,1.3,0c0,0.1,0.1,0.4,0.1,0.7c0.2,0.6,0.4,1.1,0.9,1.5s1,0.8,1.4,1.3c0.2,0.1,0.3,0.3,0.4,0.5c0.4-0.6,1-1.1,1.5-1.6
			c0.8-0.6,1.5-1.3,1.3-2.4c0.5,0,1,0.1,1.5,0c1-0.1,1.7-0.9,1.8-2c0.1-0.6-0.1-1.1-0.3-1.6c-0.4-0.7-1.1-1.2-2.1-0.8
			c-0.2,0.1-0.3,0.2-0.5,0.3c0.1,0.2,0.3,0.4,0.3,0.5c0.4,0.8,0.2,1.3-0.5,1.8c-0.8,0.4-1.5,0.1-2-0.5c-0.1-0.1,0-0.1-0.1-0.2
			c0.2-0.4,0.5-0.6,0.8-0.9c-0.1-0.2-0.3-0.4-0.6-0.7c-0.2-0.1-0.2-0.3-0.1-0.5c0.5-1.1,1.4-1.8,2.6-1.9c1.6-0.2,2.9,0.1,4.1,1
			c1.5,1.2,2.2,3.7,0.9,5.5c-0.6,0.8-1.4,1.4-2.2,1.9s-1.8,1-2.7,1.5c-1.7,1-2.9,2.2-3.8,3.9c-0.1-0.1-0.1-0.1,0-0.1
			c-0.7-1.6-1.8-2.7-3.3-3.5c-0.9-0.5-1.9-1-2.8-1.5c-1-0.4-1.8-1.1-2.4-2C15.6,112.3,16.4,109.2,19.6,108.1L19.6,108.1L19.6,108.1z
			"/>
	</g>
	<g id="Layer_1_00000140699064674349944040000000609216132369009316_" class="st5">
		<path class="st4" d="M75.5,103.2c0.6,1,1.3,1.9,2,2.8c-0.6,0.6-1.3,1.2-2,1.8c-0.6-0.6-1.3-1.1-2.1-1.7
			C74.1,105.2,74.8,104.2,75.5,103.2L75.5,103.2L75.5,103.2z M69.6,108.1c1.2-0.4,2.4-0.4,3.6,0.1c0.7,0.4,1.2,1.1,1.5,1.7
			c0,0,0,0.1,0,0.2c-0.2,0.3-0.4,0.5-0.7,0.7c0.3,0.3,0.4,0.5,0.7,0.7c0,0.1,0.1,0.3,0.1,0.3c-0.2,0.6-0.8,0.9-1.4,0.9
			s-1.2-0.4-1.3-1c-0.1-0.4,0.1-0.8,0.4-1.2c0.1-0.1,0.1-0.1,0.1-0.2c-0.4-0.4-1-0.4-1.5-0.3c-1,0.3-1.6,1.4-1.6,2.4s1,1.9,2,2
			c0.5,0,0.8,0,1.3,0c0,0.1,0.1,0.4,0.1,0.7c0.2,0.6,0.4,1.1,0.9,1.5s1,0.8,1.4,1.3c0.2,0.1,0.3,0.3,0.4,0.5c0.4-0.6,1-1.1,1.5-1.6
			c0.8-0.6,1.5-1.3,1.3-2.4c0.5,0,1,0.1,1.5,0c1-0.1,1.7-0.9,1.8-2c0.1-0.6-0.1-1.1-0.3-1.6c-0.4-0.7-1.1-1.2-2.1-0.8
			c-0.2,0.1-0.3,0.2-0.5,0.3c0.1,0.2,0.3,0.4,0.3,0.5c0.4,0.8,0.2,1.3-0.5,1.8c-0.8,0.4-1.5,0.1-2-0.5c-0.1-0.1,0-0.1-0.1-0.2
			c0.2-0.4,0.5-0.6,0.8-0.9c-0.1-0.2-0.3-0.4-0.6-0.7c-0.2-0.1-0.2-0.3-0.1-0.5c0.5-1.1,1.4-1.8,2.6-1.9c1.6-0.2,2.9,0.1,4.1,1
			c1.5,1.2,2.2,3.7,0.9,5.5c-0.6,0.8-1.4,1.4-2.2,1.9c-0.8,0.5-1.8,1-2.7,1.5c-1.7,1-2.9,2.2-3.8,3.9c-0.1-0.1-0.1-0.1,0-0.1
			c-0.7-1.6-1.8-2.7-3.3-3.5c-0.9-0.5-1.9-1-2.8-1.5c-1-0.4-1.8-1.1-2.4-2C65.6,112.3,66.4,109.2,69.6,108.1L69.6,108.1L69.6,108.1z
			"/>
	</g>
</g>
</svg>
