<?xml version="1.0" encoding="utf-8"?>
<!-- Generator: Adobe Illustrator 27.2.0, SVG Export Plug-In . SVG Version: 6.00 Build 0)  -->
<svg version="1.1" id="Layer_1" xmlns="http://www.w3.org/2000/svg" xmlnsXlink="http://www.w3.org/1999/xlink" x="0px" y="0px"
	 viewBox="0 0 50 50" style="enable-background:new 0 0 50 50;" xml:space="preserve">
<g>
	<g id="Group_12106">
		<g id="Group_12089" transform="translate(0 0.001)">
			<g id="Group_12088">
				<path id="Path_16515" d="M43.1,33.7l-0.3,12.4H6.9v-1.4h1.2c1.3,0.1,2.6-0.1,3.7-0.7c0.7-0.5,1.2-1.3,1.3-2.1
					c0.3-2.2,0.4-4.5,0.3-6.7V14.4c0.1-2.2,0-4.3-0.3-6.5c-0.1-0.8-0.6-1.6-1.2-2c-1.3-0.5-2.7-0.7-4.2-0.6H6.9V3.9h20.3v1.4h-1.9
					c-1.4-0.1-2.8,0.1-4.1,0.5c-0.6,0.5-1.1,1.2-1.2,2c-0.3,2.2-0.4,4.4-0.3,6.6v22.1c-0.1,1.9,0,3.8,0.3,5.7
					c0.2,0.8,0.7,1.4,1.3,1.8c0.7,0.4,2.3,0.6,4.7,0.6h3.2c1.9,0.1,3.9-0.1,5.8-0.7c1.5-0.6,2.7-1.7,3.6-3c1.4-2.2,2.5-4.7,3.1-7.3
					L43.1,33.7z"/>
			</g>
		</g>
	</g>
</g>
</svg>
