<svg xmlns="http://www.w3.org/2000/svg" xmlnsXlink="http://www.w3.org/1999/xlink" width="24.329" height="24.333" viewBox="0 0 24.329 24.333">
  <defs>
    <clipPath id="clip-path">
      <rect id="Rectangle_5661" data-name="Rectangle 5661" width="24.329" height="24.333" fill="#fff"/>
    </clipPath>
  </defs>
  <g id="Group_11545" data-name="Group 11545" clip-path="url(#clip-path)">
    <path id="Path_77428" data-name="Path 77428" d="M12.165,24.33H.64A.8.8,0,0,1,.41,24.3a.544.544,0,0,1-.4-.48A1.2,1.2,0,0,1,0,23.659q0-3.754,0-7.507Q0,8.416,0,.681A1.418,1.418,0,0,1,.02.449.558.558,0,0,1,.572,0C.6,0,.626,0,.654,0H23.67a.957.957,0,0,1,.151.006.574.574,0,0,1,.506.578c0,.027,0,.055,0,.082q0,11.5,0,23a.97.97,0,0,1-.033.265.552.552,0,0,1-.5.4c-.043,0-.086,0-.128,0h-11.5v0M1.213,11.57h.13l7.3-.007s.006,0,.009-.007l.009-.009V8.918c-.118,0-.23,0-.342,0a.587.587,0,0,1-.6-.745A.553.553,0,0,1,8.3,7.712q.97,0,1.94,0a.561.561,0,0,1,.588.506.575.575,0,0,1-.492.685c-.089.009-.178.012-.267.015-.061,0-.122,0-.2,0v.176q0,1.5,0,2.994a1.444,1.444,0,0,1-.013.21.552.552,0,0,1-.489.463c-.093.008-.186.011-.28.011H1.212v2.647h5.03c.07,0,.14,0,.21.01A.552.552,0,0,1,6.98,16c0,.156,0,.312-.016.466-.02.232-.041.465-.081.694a6.244,6.244,0,0,1-.623,1.827,6.371,6.371,0,0,1-1.436,1.827,6.253,6.253,0,0,1-1.488.979,6.233,6.233,0,0,1-1.735.531l-.385.056a3.824,3.824,0,0,0,.011.742h10.33V15.181c0-.035,0-.07,0-.105a.664.664,0,0,1,.154-.43.618.618,0,0,1,.484-.191h3.063c.049,0,.1,0,.157,0,0-.126,0-.238,0-.351a.583.583,0,0,1,.727-.593.555.555,0,0,1,.476.59c.006.639.007,1.279,0,1.918a.572.572,0,0,1-.655.606.548.548,0,0,1-.528-.46,3.021,3.021,0,0,1-.018-.372c0-.041-.005-.081-.008-.129H12.879c-.031,0-.062,0-.093.007,0,0-.006,0-.009.007l-.007.007v7.433a.171.171,0,0,0,.04.012l10.217,0a.557.557,0,0,0,.069-.007s.006,0,.009-.007l.008-.009V15.667H20.47c0,.12,0,.232,0,.344a.583.583,0,0,1-.734.6.525.525,0,0,1-.449-.435,1.137,1.137,0,0,1-.021-.232q0-.883,0-1.766c0-.043,0-.086,0-.128a.556.556,0,0,1,.486-.545.577.577,0,0,1,.709.5,2.538,2.538,0,0,1,.006.315c0,.041,0,.082.005.121.215.025,2.553.015,2.635-.01.026-.2.015-7.36-.011-7.441-.161-.02-1.57-.013-1.666.012,0,.1.005.2,0,.3a1.035,1.035,0,0,1-.042.275.579.579,0,0,1-.726.35.558.558,0,0,1-.435-.588q0-.953,0-1.906a.567.567,0,0,1,.523-.609.573.573,0,0,1,.675.52c.011.1,0,.21.007.315,0,.037,0,.074.007.114h1.666a.18.18,0,0,0,.012-.04q0-2.216,0-4.432a.6.6,0,0,0-.007-.069s0-.006-.007-.009L23.1,1.216c-.212-.024-7.836-.013-7.92.012V5.774h1.193c0-.109,0-.21,0-.311a.658.658,0,0,1,.146-.445.627.627,0,0,1,.7-.157.565.565,0,0,1,.364.559c0,.164,0,.327,0,.491,0,.479,0,.959,0,1.438a.564.564,0,0,1-.29.524.637.637,0,0,1-.339.069.546.546,0,0,1-.561-.5c-.013-.108-.011-.217-.016-.326,0-.041,0-.082-.007-.133H14.532a.559.559,0,0,1-.552-.5c-.005-.07-.014-.14-.014-.209q0-2.456,0-4.912c0-.049,0-.1-.007-.15H9.893c-.028.113-.026,2.546,0,2.649.121,0,.245,0,.369,0a.559.559,0,0,1,.383.147.634.634,0,0,1,.148.678.567.567,0,0,1-.552.373c-.23,0-.46,0-.69,0H8.306a.556.556,0,0,1-.546-.347.917.917,0,0,1-.044-.25.564.564,0,0,1,.595-.6c.089,0,.179,0,.269,0a.68.68,0,0,0,.086-.012V1.215H1.213Zm0,9.618a5.161,5.161,0,0,0,2.119-.745,5.154,5.154,0,0,0,2-2.26,4.855,4.855,0,0,0,.436-1.554H1.212Z" transform="translate(0 0)" fill="#fff"/>
  </g>
</svg>
