<svg xmlns="http://www.w3.org/2000/svg" xmlnsXlink="http://www.w3.org/1999/xlink" width="68" height="68" viewBox="0 0 68 68">
  <defs>
    <filter id="Ellipse_67" x="0" y="0" width="68" height="68" filterUnits="userSpaceOnUse">
      <feOffset dy="3" input="SourceAlpha"/>
      <feGaussianBlur stdDeviation="3" result="blur"/>
      <feFlood flood-opacity="0.161"/>
      <feComposite operator="in" in2="blur"/>
      <feComposite in="SourceGraphic"/>
    </filter>
  </defs>
  <g id="icon-play" transform="translate(59 56) rotate(180)">
    <g transform="matrix(-1, 0, 0, -1, 59, 56)" filter="url(#Ellipse_67)">
      <circle id="Ellipse_67-2" data-name="Ellipse 67" cx="25" cy="25" r="25" transform="translate(59 6) rotate(90)" fill="#fff"/>
    </g>
    <path id="Path_83953" data-name="Path 83953" d="M2.852.977a1.87,1.87,0,0,1-1.895.035A1.878,1.878,0,0,1,0-.625v-13.75a1.878,1.878,0,0,1,.957-1.637,1.879,1.879,0,0,1,1.895.035L14.1-9.1A1.871,1.871,0,0,1,15-7.5a1.876,1.876,0,0,1-.9,1.6L2.852.977Z" transform="translate(30.511 17.5) rotate(180)"/>
  </g>
</svg>
