<svg id="icon-youtube" xmlns="http://www.w3.org/2000/svg" width="47.686" height="36.748" viewBox="0 0 47.686 36.748">
  <path id="Path_88" data-name="Path 88" d="M11.058,7.961A1.492,1.492,0,0,0,8.8,9.241V23.149a1.493,1.493,0,0,0,2.253,1.282l11.661-6.944a1.493,1.493,0,0,0,0-2.561Zm.727,12.567V11.865L19.047,16.2Z" transform="translate(8.69 2.179)" fill="#c8102e"/>
  <path id="Path_89" data-name="Path 89" d="M39.547,3.782a120.272,120.272,0,0,0-31.409,0,8.688,8.688,0,0,0-7.25,7.224,58.092,58.092,0,0,0,0,20.239,8.686,8.686,0,0,0,7.25,7.224A110.984,110.984,0,0,0,23.865,39.5a110.311,110.311,0,0,0,15.685-1.029A8.693,8.693,0,0,0,46.8,31.247,58.115,58.115,0,0,0,46.8,11a8.688,8.688,0,0,0-7.25-7.222Zm4.312,26.968a5.718,5.718,0,0,1-4.749,4.773,116.97,116.97,0,0,1-30.535,0,5.718,5.718,0,0,1-4.751-4.773,54.564,54.564,0,0,1,0-19.247A5.722,5.722,0,0,1,8.577,6.729a107.938,107.938,0,0,1,15.263-1,107.955,107.955,0,0,1,15.267,1A5.718,5.718,0,0,1,43.859,11.5a54.575,54.575,0,0,1,0,19.249Z" transform="translate(0 -2.753)" fill="#c8102e"/>
</svg>
