<svg id="Group_15094" data-name="Group 15094" xmlns="http://www.w3.org/2000/svg" xmlns:xlink="http://www.w3.org/1999/xlink" width="67.521" height="69.333" viewBox="0 0 67.521 69.333">
  <defs>
    <clipPath id="clip-path">
      <rect id="Rectangle_9745" data-name="Rectangle 9745" width="67.521" height="69.333" fill="#fff"/>
    </clipPath>
  </defs>
  <g id="Group_15067" data-name="Group 15067" clip-path="url(#clip-path)">
    <path id="Path_83964" data-name="Path 83964" d="M33.744,69.332q-13.459,0-26.918,0A6.549,6.549,0,0,1,0,62.5Q0,38.523,0,14.545A6.551,6.551,0,0,1,6.829,7.719c1.5,0,3-.022,4.5.008.657.013.914-.224.9-.887-.033-1.175-.019-2.352-.006-3.528A3.319,3.319,0,0,1,15.4.033c1.767-.046,3.536-.04,5.3,0A3.151,3.151,0,0,1,23.79,3.119c.033,1.229.03,2.46,0,3.689-.014.629.173.921.862.919q9.12-.026,18.24,0c.638,0,.846-.261.832-.865-.026-1.176-.016-2.352,0-3.529A3.19,3.19,0,0,1,47,.022q2.451-.025,4.9,0a3.335,3.335,0,0,1,3.4,3.406c.007,1.149.023,2.3-.005,3.448-.015.621.226.859.849.849,1.58-.024,3.161-.012,4.741-.006a6.551,6.551,0,0,1,6.63,6.616q.007,24.179,0,48.358a6.55,6.55,0,0,1-6.693,6.636q-13.54.008-27.079,0m.016-42.193H4.43c-1.2,0-1.205,0-1.206,1.2q0,16.963,0,33.925c0,2.468,1.365,3.845,3.816,3.846q26.719,0,53.438,0c2.451,0,3.817-1.378,3.817-3.845q0-16.962,0-33.925c0-1.2,0-1.2-1.2-1.2H33.761M20.572,8.22c0-1.388-.014-2.777.007-4.165.008-.568-.192-.834-.791-.822q-1.765.034-3.531,0c-.572-.01-.824.2-.82.793q.023,4.165,0,8.33c0,.643.275.837.874.823,1.1-.026,2.195-.038,3.29,0,.718.027,1.014-.209.988-.959-.045-1.333-.013-2.67-.014-4m31.5.017c0-1.389-.012-2.777.006-4.165.007-.554-.161-.85-.774-.838-1.2.023-2.408.019-3.611,0-.555-.008-.757.238-.755.774q.016,4.206,0,8.411c0,.551.233.764.772.757,1.177-.017,2.355-.025,3.531,0,.632.016.85-.247.839-.858-.025-1.361-.008-2.723-.009-4.085" transform="translate(0 0)" fill="#fff"/>
    <path id="Path_83965" data-name="Path 83965" d="M90.561,175.821a1.617,1.617,0,0,1-1.8-2c.415-2.449.829-4.9,1.284-7.34a1.4,1.4,0,0,0-.48-1.47c-1.8-1.671-3.558-3.4-5.317-5.115a1.676,1.676,0,0,1-.535-1.812,1.724,1.724,0,0,1,1.583-1.163c2.458-.381,4.917-.765,7.381-1.108a1.282,1.282,0,0,0,1.076-.81c1.048-2.136,2.123-4.258,3.18-6.39.355-.717.746-1.425,1.662-1.425.97,0,1.43.716,1.808,1.491,1.032,2.114,2.077,4.221,3.1,6.341a1.252,1.252,0,0,0,1.081.79c2.412.329,4.814.728,7.223,1.075a1.873,1.873,0,0,1,1.726,1.219,1.747,1.747,0,0,1-.7,1.906c-1.739,1.662-3.45,3.355-5.2,5a1.377,1.377,0,0,0-.438,1.42c.434,2.337.838,4.68,1.227,7.025.257,1.55-.465,2.5-1.761,2.354a1.982,1.982,0,0,1-.681-.214c-2.229-1.164-4.44-2.363-6.691-3.485a1.7,1.7,0,0,0-1.324,0c-2.182,1.079-4.323,2.24-6.486,3.358a6.841,6.841,0,0,1-.919.348m-1.785-16.136c.347.386.509.59.7.769,1.117,1.075,2.228,2.156,3.365,3.209a1.973,1.973,0,0,1,.628,1.953c-.249,1.366-.477,2.736-.7,4.107-.07.427-.1.86-.17,1.442.4-.171.651-.256.879-.374a31.868,31.868,0,0,0,3.328-1.769,3.145,3.145,0,0,1,3.922.156,1.868,1.868,0,0,0,.2.127l3.78,1.943c-.031-.3-.039-.449-.064-.6-.283-1.686-.542-3.376-.865-5.054a1.879,1.879,0,0,1,.626-1.862c1.157-1.112,2.285-2.254,3.42-3.389.175-.175.326-.372.587-.673-1.969-.3-3.761-.583-5.557-.843a2.01,2.01,0,0,1-1.668-1.2c-.475-1.017-1-2.012-1.5-3.016-.318-.634-.637-1.267-1.036-2.06-.228.4-.365.612-.48.839-.554,1.1-1.19,2.165-1.629,3.307a3.324,3.324,0,0,1-3.262,2.328c-1.428.08-2.842.407-4.5.662" transform="translate(-65.706 -115.641)" fill="#fff"/>
  </g>
</svg>
