<svg xmlns="http://www.w3.org/2000/svg" xmlnsXlink="http://www.w3.org/1999/xlink" width="88" height="82.098" viewBox="0 0 88 82.098">
  <defs>
    <clipPath id="clip-path">
      <rect id="Rectangle_8731" data-name="Rectangle 8731" width="88" height="82.098" fill="#5E514D"/>
    </clipPath>
  </defs>
  <g id="Group_13866" data-name="Group 13866" clip-path="url(#clip-path)">
    <path id="Path_82858" data-name="Path 82858" d="M52.92,10.171a20.422,20.422,0,0,0-1.571,7.22c-.007.282-.3.592-.521.83a5.024,5.024,0,0,0-.854,5.8,4.777,4.777,0,0,0,4.933,2.586c-3.071-5.948-3.185-11.907.135-17.756A16.963,16.963,0,0,1,66.287.481a17.64,17.64,0,0,1,21.46,14.336c1.76,10.773-5.972,18.54-12.689,19.991l-.524-2.963a14.727,14.727,0,0,0,8.245-21.572A14.518,14.518,0,0,0,62.244,5.644c-7.162,4.842-7.989,14.053-4.392,19.47,2.014-1.669,1.948-5.17-.187-7.066a1.373,1.373,0,0,1-.547-1.415c.219-1.157.429-2.316.643-3.474l.312-.1c.841.934,1.756,1.812,2.511,2.811A17.038,17.038,0,0,1,50.1,42.893a16.209,16.209,0,0,1-11.164-1.915c-.5-.283-.919-.421-1.406-.027a1.864,1.864,0,0,1-2.658-.089,5.631,5.631,0,0,0-.576-.388,1.644,1.644,0,0,0-2.583.829c-.411,1.051-.805,2.109-1.212,3.162a1.326,1.326,0,0,1-1.89.887c-1.276-.471-2.548-.954-3.828-1.414a2.516,2.516,0,0,0-2.695,1.649c-.11.716-.245,1.428-.359,2.143-.164,1.037-.7,1.43-1.779,1.394a7.265,7.265,0,0,0-1.928.142c-1.107.267-1.434,1.268-1.756,2.192-.512,1.471-1.345,1.708-2.668,1.582a3.481,3.481,0,0,0-1.7.353c-.943.437-1.809,1.039-2.745,1.5a1.639,1.639,0,0,1-1.118.093c-2.23-.725-4.441-1.506-6.658-2.268C.11,52.278-.159,51.873.079,50.576c.325-1.766.7-3.522,1.041-5.284a3.275,3.275,0,0,1,1.752-2.34Q16.215,35.474,29.543,27.97a1.237,1.237,0,0,0,.751-1.343A16.858,16.858,0,0,1,52,9.828c.3.091.588.217.925.342" transform="translate(0 0)" fill="#5E514D"/>
    <path id="Path_82859" data-name="Path 82859" d="M108.913,101.7c7.152,1.7,13.364.36,18.56-4.518,5.152-4.836,6.91-10.924,5.808-18.019A16.719,16.719,0,0,1,139.02,86.4a16.989,16.989,0,0,1-13.5,23.5,4.375,4.375,0,0,1-.953.063,2.144,2.144,0,0,0-2.474,1.353c-.14.329-.764.527-1.2.633a4.655,4.655,0,0,1-1.3-.025,1.671,1.671,0,0,0-1.9,2.147c.157,1.031.33,2.059.482,3.09.169,1.143-.231,1.687-1.346,1.874q-1.927.324-3.853.658a2.638,2.638,0,0,0-1.563,2.685c.266.735.54,1.466.812,2.2a1.449,1.449,0,0,1-.817,2.03,7.971,7.971,0,0,0-1.7,1.23c-.954.953-.4,2.14-.318,3.226a1.557,1.557,0,0,1-.913,1.773,4.214,4.214,0,0,0-2.547,2.537,4.208,4.208,0,0,1-3.919,2.786,43.854,43.854,0,0,0-4.855.944c-1.446.289-1.87.043-2.335-1.351-.532-1.592-1.031-3.2-1.6-4.776a3.472,3.472,0,0,1,.338-3.144q7.763-13.074,15.492-26.169c.386-.65.7-1.208-.138-1.96" transform="translate(-67.085 -57.109)" fill="#5E514D"/>
  </g>
</svg>
