<?xml version="1.0" encoding="UTF-8"?>
<svg id="Layer_1" data-name="Layer 1" xmlns="http://www.w3.org/2000/svg" viewBox="0 0 216.52 38.49">
  <g id="cover_title" data-name="cover title" style="isolation: isolate;">
    <g style="isolation: isolate;">
      <path d="m15.97,9.72c-2.4,12.93-8.01,28.02-13.95,28.02-1.53,0-2.55-1.41-1.74-4.14,1.14-3.84,6.15-7.89,10.41-10.29.9-2.88,1.62-5.85,2.13-8.43-1.92,3.54-6.21,9.39-8.67,10.11-2.01.6-3.33-.84-2.7-3.72.87-3.99,5.34-10.98,6.21-15.42.09-.48,1.77.33,1.53,1.77-.45,2.64-8.55,16.53-5.28,16.23,2.46-.24,9.63-11.61,10.74-15.45.06-.21,1.53.18,1.32,1.32Zm-5.64,14.73c-3.81,2.19-7.65,6.72-8.43,9.15-.45,1.41-.24,2.16.48,2.16,3.15,0,5.94-5.31,7.95-11.31Z" style="stroke-width: 0px;"/>
      <path d="m15.49,20.88c.06-3.69,3.51-7.59,4.8-7.59.72,0,1.98.57,2.52,1.5.09.15-.18.27-.36.15-.18-.12-.54-.33-.9-.33-2.19,0-3.99,4.38-4.32,6.21-.33,1.71-.03,2.37.45,2.37,1.77,0,3.66-4.35,3.93-5.94.09-.6.12-1.08-.06-1.56-.12-.33.45-.36.81-.06.42.36.6.87.54,1.5-.27,3.69-3.27,7.05-5.19,7.05-.99,0-2.25-.78-2.22-3.3Z" style="stroke-width: 0px;"/>
      <path d="m31.66,24.33c-1.77-.87-2.19-2.85-1.11-6.96-1.56,3.21-4.2,6.54-4.98,6.54-.42,0-1.77-.51-1.77-1.71,0-2.43,2.64-7.44,2.79-9.21.54.15,1.11.36,1.11,1.11,0,1.41-3.72,8.67-2.28,8.67.99,0,5.58-8.43,5.94-9.63,1.11.06,1.68.81,1.68,1.2,0,.57-.75,1.89-1.38,4.62-.84,3.63-.27,4.23.3,4.71.3.27.51,1.05-.3.66Z" style="stroke-width: 0px;"/>
      <path d="m42.07,15.84c-.12,1.2-1.38,1.83-1.8,1.83-.3,0-.45-.3-.21-.93.45-1.23.93-2.49.36-2.49-1.65,0-4.95,9.87-6,9.87-.21,0-.78-.39-.93-.66-.63-1.2,2.73-8.88,1.92-10.17.42,0,1.68.51,1.68,1.56,0,.99-1.17,3.81-1.8,6.51,1.44-3.33,3.6-8.07,5.01-8.07.87,0,1.89,1.38,1.77,2.55Z" style="stroke-width: 0px;"/>
      <path d="m61.33,9.84c-.06.27-.78-.06-.87-.63-.06-.45-.54-1.08-2.52-1.08-3.45,0-9.06,1.41-9.06,4.77,0,1.89,2.37,3.69,4.53,5.82,1.89-.93,3.6-1.68,4.83-2.07.27-.09.99.45.48.66-1.62.63-3.18,1.35-4.65,2.07,1.56,1.62,2.88,3.42,2.88,5.55,0,4.44-6.75,6.93-11.43,6.93-2.37,0-4.44-.69-4.44-2.55,0-3.09,5.58-7.02,10.71-9.75-2.28-2.1-4.74-4.08-4.74-6.48,0-4.08,7.59-6.81,11.97-6.96,1.92-.06,2.55,2.7,2.31,3.72Zm-8.88,10.35c-6.18,3.21-10.65,6.84-10.65,8.91,0,1.32,1.86,1.8,3.93,1.8,4.95,0,9.87-2.88,9.87-5.25,0-2.1-1.44-3.84-3.15-5.46Z" style="stroke-width: 0px;"/>
      <path d="m65.41,12.06c-1.32,0-2.34.21-3.3.42-1.89,5.01-3.72,11.19-1.71,13.71.12.15.12.48-.39.39-.69-.12-2.13-1.2-2.13-2.58,0-3.48.9-6.9,2.43-11.19-.21.03-.45.03-.69.03-.93,0-1.62-1.26-1.74-1.74-.06-.24.15-.21.45-.03.42.27,1.23.39,1.92.39h.54c.42-1.17.9-2.37,1.38-3.66.27-.72,1.62.51,1.29,1.29-.3.69-.6,1.47-.93,2.28,1.11-.06,2.1-.12,2.7,0,.42.06.39.69.18.69Z" style="stroke-width: 0px;"/>
      <path d="m69.76,24.12c0,.33-.66.3-.81.3-.45,0-1.47-.78-1.47-2.19,0-1.14.21-2.19.57-3.36-1.14,2.31-2.7,4.89-4.2,4.89-.48,0-1.95-.42-1.95-2.04,0-3.21,3.81-8.07,6.15-8.07.63,0,.93.48,1.38.99.18-.72.33-1.62.6-1.62.57,0,1.26.51,1.26,1.11s-1.47,2.88-2.07,5.85c-.66,3.33.54,3.81.54,4.14Zm-.78-8.76c-.33-.21-.75-.39-.99-.39-1.23,0-4.29,4.53-4.5,6.75-.06.66.09.96.36.96.63,0,3.78-5.07,5.13-7.32Z" style="stroke-width: 0px;"/>
      <path d="m78.76,22.14c-.12.75-.27,1.5-.39,2.22,1.92-.18.54.57-.21.93-1.32,6.45-3.18,11.31-6.96,11.31-1.53,0-2.46-.93-2.4-3,.09-3.09,3-7.65,7.86-8.94.57-2.43.96-4.8,1.29-6.51-1.59,2.55-3.45,5.28-4.65,5.28-.63,0-2.04-.54-2.1-1.5-.18-2.64,2.91-8.25,4.77-8.25.87,0,1.83.51,2.58,1.17.24-1.35.36-1.71.66-1.71.93,0,1.44.21,1.2,1.17-.3,1.2-1.26,5.58-1.65,7.83Zm-2.43,3.96c-3.66,1.98-6.84,5.82-6.69,8.52.03.48.21,1.05,1.05,1.05,2.67,0,4.44-4.71,5.64-9.57Zm1.65-10.53c-.39-.27-.93-.51-1.71-.51-1.47,0-3.15,4.56-3.48,5.55-.33.99-.33,1.89.09,1.89.66,0,3.39-3.96,5.1-6.93Z" style="stroke-width: 0px;"/>
      <path d="m91.09,18.63c-.45,1.68-3.33,5.82-6.45,5.82-1.56,0-3.45-1.05-3.33-3.96.15-3.51,3.18-7.47,4.71-7.53.84-.03,2.07.57,2.07,1.95,0,1.59-1.98,3.57-3.6,3.57-.42,0-.84-.15-1.2-.36-.18.51-.3,1.02-.36,1.44-.21,1.41-.03,3.39,2.01,3.39,2.25,0,4.5-2.64,5.52-4.14.39-.6.81-.87.63-.18Zm-7.47-1.38c.06.12.18.21.45.21,1.02,0,2.19-1.26,2.4-2.4.09-.48-.03-.9-.42-.9-.75,0-1.74,1.5-2.43,3.09Z" style="stroke-width: 0px;"/>
      <path d="m103.3,18.39c-1.41,2.61-3.45,2.73-5.28,2.4.84,2.31,1.11,4.38,1.11,5.88,0,3.9-1.08,7.23-3.51,7.23-3.96,0-2.31-7.41-.06-14.97,1.56-5.19,4.08-11.97,3.75-13.5,3.06.84,1.2,4.23-1.38,11.31-.48,1.32-.9,2.64-1.26,3.87.27-.45.69-.69,1.02-.69,2.43,0,4.17-.87,5.43-1.89.33-.27.42-.09.18.36Zm-5.7,9.93c0-2.28-.75-4.65-1.08-6.15-.06-.27-.09-.51-.06-.72-1.77,6.69-1.59,11.55-.57,11.55.93,0,1.71-2.4,1.71-4.68Z" style="stroke-width: 0px;"/>
      <path d="m102.34,20.88c.06-3.69,3.51-7.59,4.8-7.59.72,0,1.98.57,2.52,1.5.09.15-.18.27-.36.15s-.54-.33-.9-.33c-2.19,0-3.99,4.38-4.32,6.21-.33,1.71-.03,2.37.45,2.37,1.77,0,3.66-4.35,3.93-5.94.09-.6.12-1.08-.06-1.56-.12-.33.45-.36.81-.06.42.36.6.87.54,1.5-.27,3.69-3.27,7.05-5.19,7.05-.99,0-2.25-.78-2.22-3.3Z" style="stroke-width: 0px;"/>
      <path d="m119.08,15.84c-.12,1.2-1.38,1.83-1.8,1.83-.3,0-.45-.3-.21-.93.45-1.23.93-2.49.36-2.49-1.65,0-4.95,9.87-6,9.87-.21,0-.78-.39-.93-.66-.63-1.2,2.73-8.88,1.92-10.17.42,0,1.68.51,1.68,1.56,0,.99-1.17,3.81-1.8,6.51,1.44-3.33,3.6-8.07,5.01-8.07.87,0,1.89,1.38,1.77,2.55Z" style="stroke-width: 0px;"/>
      <path d="m123.64,22.77c.93-3.6,4.14-11.97,5.07-16.77,1.56.18,2.13.72,1.74,2.31-.45,1.86-3.99,10.68-5.13,14.31-.99,3.12.39,3.15,2.58,3.15,2.94,0,6.99-.69,8.52-.93.42-.06.63.39.27.51-3.21,1.08-5.01,1.53-7.92,1.77-3.63.33-5.91-1.38-5.13-4.35Z" style="stroke-width: 0px;"/>
      <path d="m137.62,13.83c.3-.57.45-.72.6-.72.6,0,1.17.72.93,1.38-.54,1.44-3.96,8.31-1.65,8.31,1.47,0,3.27-3.27,3.51-3.75.21-.42.72-1.23.27.06-.48,1.44-2.25,4.89-4.41,4.89-3.84,0,.39-9.48.75-10.17Zm1.47-3.15c0-.72.72-2.31,1.11-2.31s1.08.63,1.08,1.14c0,.75-1.14,1.71-1.71,1.71-.36,0-.48-.33-.48-.54Z" style="stroke-width: 0px;"/>
      <path d="m149.05,18.39c-1.41,2.61-3.45,2.73-5.28,2.4.84,2.31,1.11,4.38,1.11,5.88,0,3.9-1.08,7.23-3.51,7.23-3.96,0-2.31-7.41-.06-14.97,1.56-5.19,4.08-11.97,3.75-13.5,3.06.84,1.2,4.23-1.38,11.31-.48,1.32-.9,2.64-1.26,3.87.27-.45.69-.69,1.02-.69,2.43,0,4.17-.87,5.43-1.89.33-.27.42-.09.18.36Zm-5.7,9.93c0-2.28-.75-4.65-1.08-6.15-.06-.27-.09-.51-.06-.72-1.77,6.69-1.59,11.55-.57,11.55.93,0,1.71-2.4,1.71-4.68Z" style="stroke-width: 0px;"/>
      <path d="m158.02,18.63c-.45,1.68-3.33,5.82-6.45,5.82-1.56,0-3.45-1.05-3.33-3.96.15-3.51,3.18-7.47,4.71-7.53.84-.03,2.07.57,2.07,1.95,0,1.59-1.98,3.57-3.6,3.57-.42,0-.84-.15-1.2-.36-.18.51-.3,1.02-.36,1.44-.21,1.41-.03,3.39,2.01,3.39,2.25,0,4.5-2.64,5.52-4.14.39-.6.81-.87.63-.18Zm-7.47-1.38c.06.12.18.21.45.21,1.02,0,2.19-1.26,2.4-2.4.09-.48-.03-.9-.42-.9-.75,0-1.74,1.5-2.43,3.09Z" style="stroke-width: 0px;"/>
      <path d="m158.92,12.27l-.21-.15-.06-.21.03-.21.12-.75v-.18l.06-.03v-.12l.06-.09v-.24l.06-.09.12-.3.06-.24.06-.3.06-.15v-.21l.03-.12.03-.15.03-.18v-.15l.06-.15v-.09l.09-.12.03-.27.03-.09.06-.06v-.24l.03-.3.09-.06.06-.12.09-.27.12-.39.12-.3.06-.03.33-.12.21.15.15.15.24.42h.06l.09.09.12.3-.06.18v.21l-.06.33-.09.21-.06.12.03.15-.09.21-.09.18.03.09-.03.06-.03.21-.06.12-.09.21-.06.12-.09.21h-.06v.33l-.06.21-.12.39-.24.6-.03.09v.15l-.06.03-.09.12-.03.15.03.09-.15.3-.36.36-.27.03-.3-.09Zm.93-4.92l.06-.06.27-.6h-.06v-.12l-.06-.06-.12.18-.15.6-.06.06h.12Zm.51-1.11l.09-.24-.09-.06-.24.3v.12l.06.09.18-.21Z" style="stroke-width: 0px;"/>
      <path d="m170.53,17.73c-1.35.54-2.73,1.2-3.99,1.86.48.33.81.78.81,1.32,0,2.25-3.24,4.59-5.58,4.59-.96,0-1.86-.48-1.86-1.62,0-.9,1.44-2.31,3.75-3.75-1.14-.51-2.31-1.23-2.31-2.73,0-2.16,3.9-4.14,5.91-4.14,1.38,0,.93,1.08.72,1.53-.09.18-.27.21-.45.18-1.5-.3-4.98,1.11-4.98,2.46,0,.63,1.68.99,3.06,1.62,1.44-.72,3.12-1.44,4.92-2.04.72-.24.33.57,0,.72Zm-5.79,2.82c-2.04,1.23-3.51,2.43-3.51,3.27,0,.21.18.42.75.42,1.56,0,3.99-1.56,3.99-2.82,0-.36-.51-.6-1.23-.87Z" style="stroke-width: 0px;"/>
      <path d="m181.18,17.19c-.84,2.76-1.59,5.43-1.95,7.77,0,.09-.03.42-.6.3-.66-.12-.96-.6-.96-1.44,0-1.08.51-1.92,1.77-6.27-.78.15-1.47.24-2.04.24-1.8.03-3.3-1.56-2.85-1.5,1.71.24,3.48.39,5.22.09.09-.24.15-.54.24-.81,1.02-3.69,1.62-5.94,2.01-7.38-2.94.84-5.01,2.1-6.12,2.73-1.47.84-2.52-.39-2.52-1.29.75-.24,4.65-1.98,9-2.88.27-1.05.27-1.2.33-1.71.9.18,1.32.69,1.47,1.41,1.02-.15,2.04-.24,3.03-.24,4.2,0,6.06,1.8,6.06,3.66,0,3.03-6.96,6.06-12.09,7.32Zm10.89-7.8c0-1.35-2.1-2.19-5.43-1.98-.87.06-1.68.15-2.46.3-.09.72-.33,1.53-.6,2.34-.66,1.95-1.35,3.96-2.01,5.94,5.07-1.32,10.5-4.53,10.5-6.6Z" style="stroke-width: 0px;"/>
      <path d="m198.85,19.89c-1.2,2.73-2.88,5.01-5.22,5.01s-2.7-2.4-2.43-5.55c.48-5.31,4.83-15.54,6.99-15.54,1.02,0,1.86.66,1.86,1.65,0,3.15-3.3,8.28-6.84,12.12-.57,3.69-.48,6.21.69,6.21,1.62,0,3.27-2.46,5.01-5.04.36-.54.75-.72-.06,1.14Zm-5.34-3.9c3.93-4.47,5.4-10.89,4.8-10.89-1.08,0-3.93,7.41-4.8,10.89Z" style="stroke-width: 0px;"/>
      <path d="m205.81,24.12c0,.33-.66.3-.81.3-.45,0-1.47-.78-1.47-2.19,0-1.14.21-2.19.57-3.36-1.14,2.31-2.7,4.89-4.2,4.89-.48,0-1.95-.42-1.95-2.04,0-3.21,3.81-8.07,6.15-8.07.63,0,.93.48,1.38.99.18-.72.33-1.62.6-1.62.57,0,1.26.51,1.26,1.11s-1.47,2.88-2.07,5.85c-.66,3.33.54,3.81.54,4.14Zm-.78-8.76c-.33-.21-.75-.39-.99-.39-1.23,0-4.29,4.53-4.5,6.75-.06.66.09.96.36.96.63,0,3.78-5.07,5.13-7.32Z" style="stroke-width: 0px;"/>
      <path d="m216.22,14.46c-.33,2.19-.93,5.04-1.71,7.98,1.11-.27,1.02.12.42.42l-.6.27c-1.95,7.11-5.01,14.55-8.67,14.55-2.07,0-3.69-1.23-3.69-3.6,0-5.31,6.75-9.42,10.83-11.07.6-2.16,1.11-4.35,1.5-6.36-1.59,3.12-4.32,7.08-5.01,7.08-.99,0-1.65-.93-1.65-2.1,0-1.59,1.92-6.45,2.25-7.98.09-.42,1.71-.12,1.71,1.02s-3.6,7.98-2.49,7.98c.72,0,5.31-7.08,5.82-8.88.18-.63,1.41-.06,1.29.69Zm-3.69,9.57c-5.16,2.7-9.54,6.3-9.54,10.38,0,1.11.45,2.1,1.98,2.1,3.12,0,5.7-6.03,7.56-12.48Z" style="stroke-width: 0px;"/>
    </g>
  </g>
</svg>