<svg id="logo-legion" xmlns="http://www.w3.org/2000/svg" xmlnsXlink="http://www.w3.org/1999/xlink" width="242" height="88.797" viewBox="0 0 242 88.797">
  <defs>
    <clipPath id="clip-path">
      <rect id="Rectangle_9645" data-name="Rectangle 9645" width="242" height="88.797" fill="none"/>
    </clipPath>
  </defs>
  <path id="Path_83928" data-name="Path 83928" d="M6.571,77.084l7.455-42.416h9.021l-6.2,34.96H31.005l-1.316,7.455Z" transform="translate(-3.228 -17.028)" fill="#1a1818"/>
  <g id="Group_14991" data-name="Group 14991">
    <g id="Group_14990" data-name="Group 14990" clip-path="url(#clip-path)">
      <path id="Path_83929" data-name="Path 83929" d="M85.953,67.258a26.71,26.71,0,0,1-1.064,6.893h-18.3a8.8,8.8,0,0,0-.126,1.127c.126,3.635,2.631,5.014,6.328,5.014a25.577,25.577,0,0,0,8.332-1.63l1.316,6.58a27.968,27.968,0,0,1-11.027,2.568c-7.392,0-13.282-3.821-13.282-13.157,0-9.836,6.891-19.423,16.728-19.423,7.644,0,11.09,4.887,11.09,12.029m-7.895-.5c0-2.381-1.19-4.2-3.947-4.2-3.258,0-5.575,2.82-6.515,5.827H77.934a15.283,15.283,0,0,0,.125-1.629" transform="translate(-28.554 -27.127)" fill="#1a1818"/>
      <path id="Path_83930" data-name="Path 83930" d="M141.386,84.741c-1.63,9.336-7.269,13.91-15.852,13.91a22.222,22.222,0,0,1-9.648-2.067l2.569-6.39a25.718,25.718,0,0,0,7.393,1.5c4.072,0,6.266-1.881,7.079-6.079l.377-2.13a10.137,10.137,0,0,1-7.706,3.635c-4.95,0-9.837-3.7-9.837-11.278,0-10.149,7.018-20.739,18.8-20.739a24.363,24.363,0,0,1,11.528,2.569Zm-4.762-21.365a7.614,7.614,0,0,0-3.258-.815c-5.514,0-8.709,6.83-8.709,11.967,0,3.447,1.5,5.2,3.7,5.2,2.883,0,5.764-2.633,6.516-6.642Z" transform="translate(-56.857 -27.066)" fill="#1a1818"/>
      <path id="Path_83931" data-name="Path 83931" d="M172.168,76.042l5.515-31.264h8.52l-5.451,31.264Zm10.721-33.973a4.762,4.762,0,1,1,4.763-4.761,4.759,4.759,0,0,1-4.763,4.761" transform="translate(-84.563 -15.985)" fill="#1a1818"/>
      <path id="Path_83932" data-name="Path 83932" d="M212.78,87.686c-7.7,0-12.906-4.886-12.906-13.783,0-9.335,6.829-18.8,17.23-18.8,7.643,0,12.779,5.325,12.779,13.408,0,9.648-6.389,19.171-17.1,19.171m8.208-18.609c0-3.508-1.44-6.453-4.573-6.453-5.263,0-7.519,6.641-7.519,11.34,0,3.447,1.379,6.454,4.449,6.454,5.262,0,7.644-6.766,7.644-11.342" transform="translate(-98.171 -27.066)" fill="#1a1818"/>
      <path id="Path_83933" data-name="Path 83933" d="M288.487,63.815a29.724,29.724,0,0,1-.625,5.514L284.79,87.123h-8.521l3.2-18.169a17.163,17.163,0,0,0,.25-2.381c0-2.382-1.127-3.759-3.634-3.759-2.756,0-4.7,2.254-5.261,5.512l-3.384,18.8h-8.584l5.514-31.264h8.019l-.563,3.445a11.246,11.246,0,0,1,8.709-4.2c4.323,0,7.957,2.632,7.957,8.709" transform="translate(-127.139 -27.066)" fill="#1a1818"/>
      <path id="Path_83934" data-name="Path 83934" d="M278.54,117.724c-1.006,1.15-3.5,6.413-4.9,9.161-6.512,12.772-14.872,14.981-25.335,14.13-6.031-.488-11.991-3.111-14.38-4.05s-25.055-11.141-50.582-11.041c-1.715.007-15.214-.231-15.214-.231a.262.262,0,0,1-.013-.524l7.6-.934,7.832-.637c5.075-.252,9.917-.389,15.052-.181,15.519.36,25.012,4.822,29.842,6.416s18.653,7.883,27.433,6.439c6.015-.989,9.2-3.78,12.021-6.6,2.586-2.587,6.941-10,8.225-12.178l.769.3a.262.262,0,0,1,.36-.094c.106.063,1.332-.087,1.3.026" transform="translate(-82.451 -57.707)" fill="#1a1818"/>
      <path id="Path_83935" data-name="Path 83935" d="M399.245,33.226c.478,1.176,2.039,4.384,1.9,6.906-.2,3.553-2.483,5.287-6.178,6.16a49.57,49.57,0,0,0-12.8-12.634c-.834-.526-1.327-.637-.3.4a59.66,59.66,0,0,1,9.7,11.643c2.4,3.85,3.492,8.108,2.479,11.746-1.1,3.941-3.079,6.28-4.913,7.2a2.563,2.563,0,0,1-3.4-.528c-.257-.378-.592-.794-1.138-.7-.493.089-.6.458-.883,1.086a9.811,9.811,0,0,1-3.389,4.039c-3.845,2.414-6.307-2.089-6.612-2.913s-.479-1.367-1.189-.892c-1.957,1.311-3.682,2.448-6.5,2.606-3.685.207-5.944-3.451-6.262-4.729a40.337,40.337,0,0,0,10.363-11.048c.162-.259.4-.645-.013-.595-.561.068-7.585,7.658-13.153,10.318-3.983,1.9-9.233,3.132-13.852.4-4.074-2.409-4.279-5.738-4-6.651.221-.706.362-.685-.3-1.1-1.9-1.2-4.534-2.933-5.176-5.225s1.493-4.086,3.046-4.983c1.12-.649.725-.766.186-1.581a10.166,10.166,0,0,1-2.358-6.388c-.107-3.5,2.856-5.927,5.8-6.833,2.109,3.622,8.419,9.647,10.3,11.107,1.144.881,1,.4.408-.4-1.684-2.278-8.349-9.907-10.413-16s.24-10.5,2.9-12.808a8,8,0,0,1,5.5-1.745c.493.077.744.1,1.2-.52.676-.909,2.321-3.314,4.8-4.339,3-1.237,5.049,2.244,5.487,3.027.264.466.451,1,1.011.642.728-.468,4.292-2.617,7.427-2.345,4.759.416,5.7,4.7,6.388,7.782a63.415,63.415,0,0,0-7.5,6.792c-.895.961-.427,1.111.366.433,13.39-11.464,22.927-10.817,27.493-7.187,4.449,3.54,3.26,6.51,3.155,6.964s-.38.9.3,1.4c.917.685,3.476,2.858,4.23,4.825,1.27,3.31-2.458,4.991-3.394,5.469-.585.3-1.091.337-.734,1.213" transform="translate(-163.812 -1.938)" fill="#fff"/>
      <path id="Path_83936" data-name="Path 83936" d="M384.491,35.9A50.917,50.917,0,0,1,395.32,47.7c3.437-.813,5.686-2.375,5.868-5.683.132-2.348-1.254-5.366-1.767-6.432s.613-1.3,1.159-1.572c.873-.447,3.945-1.8,2.653-4.9-.619-1.482-2.188-2.885-3.908-4.246-.726-.575-.429-.873-.279-1.306.207-.593,1.507-3.606-2.937-6.483-3.841-2.486-6.949-2.292-10.2-1.785-2.937.458-8.939,2.987-15.2,7.544-.79.571-1.506.463-.674-.433,2.073-2.232,5.423-4.156,7.108-5.366-.642-2.869-1.614-7.038-6.062-7.1a15.931,15.931,0,0,0-7.233,2.035c-.558.332-.474.092-.943-.6s-1.707-3.807-4.59-2.911c-2.355.734-4,3.238-4.558,4.135-.491.787-.661.555-1.122.482a5.787,5.787,0,0,0-5.366,1.652c-1.671,1.67-3.684,5.214-2.1,11.871,1.387,5.832,7.005,12.826,8.514,15.3.363.594.1.839-.1.667a68.409,68.409,0,0,1-9.048-11c-2.835,1.172-5.461,3.132-5.4,6.564a9.891,9.891,0,0,0,2.191,5.75c.5.758.935.8-.171,1.472-1.03.627-3.436,2.506-2.838,4.64s3.05,3.752,4.821,4.868c.615.389.485.368.277,1.026-.261.851-.885,3.932,3.7,6.331,4.946,2.588,10.647,1.187,14.238-1.321,7.774-5.429,10.543-7.927,11.026-7.888.387.034.26.3.075.519a54.445,54.445,0,0,1-10.118,9.439c1.023,1.866,2.733,4.766,6.15,4.382s4.216-1.235,6.055-2.427c.773-.5.824.063,1.107.831s2.992,4.931,6.592,2.713a8.115,8.115,0,0,0,3.178-3.6c.267-.582.25-.993.8-1.17s.751.145,1.06.646,1.024,1.348,2.732.494a9.532,9.532,0,0,0,4.592-7.127c.492-3.6-.451-7.108-2.671-10.7-2.383-3.859-7.1-9.538-7.919-10.618-.957-1.261-.289-1.139.481-.5" transform="translate(-166.124 -4.083)" fill="#d80028"/>
      <path id="Path_83937" data-name="Path 83937" d="M396.374,31.288c.479,1.176,2.039,4.384,1.9,6.906-.2,3.553-2.482,5.287-6.177,6.16a49.566,49.566,0,0,0-12.8-12.634c-.835-.526-1.327-.637-.3.4a59.661,59.661,0,0,1,9.7,11.643c2.4,3.85,3.493,8.108,2.479,11.746-1.1,3.941-3.079,6.28-4.913,7.2a2.562,2.562,0,0,1-3.4-.528c-.258-.377-.592-.794-1.139-.7-.493.089-.6.458-.883,1.085a9.819,9.819,0,0,1-3.389,4.039c-3.846,2.414-6.307-2.089-6.613-2.913s-.479-1.367-1.189-.892c-1.957,1.311-3.682,2.448-6.5,2.606-3.685.207-5.944-3.451-6.263-4.729a40.337,40.337,0,0,0,10.363-11.048c.162-.26.4-.645-.012-.595-.561.067-7.585,7.657-13.153,10.317-3.983,1.9-9.233,3.132-13.853.4-4.073-2.409-4.279-5.738-4-6.651.22-.706.362-.685-.3-1.1-1.9-1.2-4.533-2.933-5.176-5.225s1.493-4.086,3.046-4.983c1.12-.649.725-.766.186-1.581a10.163,10.163,0,0,1-2.358-6.388c-.107-3.5,2.856-5.927,5.8-6.833,2.109,3.622,8.418,9.647,10.3,11.107,1.144.88,1,.4.408-.405-1.684-2.277-8.349-9.907-10.413-16s.24-10.5,2.9-12.808a8,8,0,0,1,5.5-1.745c.493.077.744.1,1.2-.519.676-.91,2.322-3.315,4.8-4.34,3-1.237,5.049,2.245,5.487,3.027.264.466.451,1,1.012.642.728-.468,4.291-2.617,7.427-2.345,4.758.416,5.7,4.7,6.387,7.782a63.412,63.412,0,0,0-7.5,6.792c-.895.962-.427,1.111.366.433,13.39-11.464,22.928-10.817,27.493-7.186,4.449,3.54,3.26,6.509,3.155,6.964s-.38.9.3,1.4c.916.685,3.476,2.858,4.23,4.825,1.27,3.311-2.458,4.991-3.394,5.469-.585.3-1.091.337-.734,1.213m2.943-1.087a4.693,4.693,0,0,0,3.521-3.592c.684-3.377-2.083-6.555-5.065-8.629a8.962,8.962,0,0,0-2.623-8.344c-6-5.693-13.381-4.227-17.988-1.358-4.125-14.4-16.948-5.928-18.644-4.553-.153.163-4.895-9.015-12.871,1.448a10.088,10.088,0,0,0-8.928,4.84,15.191,15.191,0,0,0-1.878,11.57c.171.623.291.7-.2.945-1.931.957-4.652,2.016-6.1,5.059-2.785,5.856,2.007,12.459,2.551,13.4a.589.589,0,0,1-.282.942c-2.724,1.289-2.9,4.166-2.028,6.194a13.11,13.11,0,0,0,5.461,5.48c-1.164,3.274,1.746,10.386,11.44,10.809a16.023,16.023,0,0,0,8.789-2.011c.344-.176.631-.492.814.12a6.83,6.83,0,0,0,4.089,4.254c5.3,1.963,10-2.652,10.427-1.833,3.4,6.554,7.808,4.362,9.428,3.167a11.519,11.519,0,0,0,3.352-4.52s1.219,2.457,4.592.921a14.607,14.607,0,0,0,6.039-5.977c2.187-4.123,1.537-6.575,1.261-7.634-.311-1.2-.846-1.425.464-1.95,1.775-.714,4.547-1.424,6.2-5.149,2.443-5.508-1.422-11.51-2.211-12.62-.591-.827-.109-.817.394-.975" transform="translate(-160.942 0)" fill="#1a1818"/>
      <path id="Path_83938" data-name="Path 83938" d="M393.43,48.589c.313.658.546.475,1.425.675,3.782.854,3.63,3.246,3,5.4a.573.573,0,0,0,.2.7c2.414,2.252,1.517,5.178-1.115,6.444a.643.643,0,0,0-.383.658c.016,2.7-2.036,5-5.345,3.786-.26-.1-.53-.349-1.017.138-2.378,2.384-5.168,1.377-6.093-.982-.139-.36-.159-.6-.553-.64-2.465-.262-5.386-1.52-3.968-5.321.094-.255.2-.537-.034-.782-2.415-2.545-1.544-5.159.9-6.3a1.169,1.169,0,0,0,.6-1c.168-2.486,1.974-4.606,5.156-3.656.738.221.616.369,1.075-.147a3.682,3.682,0,0,1,6.154,1.028" transform="translate(-185.717 -22.74)" fill="#1a1818"/>
      <path id="Line_2" data-name="Line 2" d="M136.9,1H0V-1H136.9Z" transform="translate(0.628 77.947)" fill="#1a1818"/>
      <path id="Path_83939" data-name="Path 83939" d="M5.786,163.271a5.277,5.277,0,0,1-1.279,3.553,2.971,2.971,0,0,1-2.139.866A2.387,2.387,0,0,1,0,165.048a5.253,5.253,0,0,1,1.328-3.576,3.019,3.019,0,0,1,2.107-.849c1.7,0,2.352,1.3,2.352,2.648m-3.607-1.188a4.774,4.774,0,0,0-.98,2.937c0,.866.335,1.7,1.337,1.7a1.536,1.536,0,0,0,1.088-.483,4.982,4.982,0,0,0,.962-2.954c0-.818-.237-1.692-1.3-1.692a1.558,1.558,0,0,0-1.109.492" transform="translate(0 -78.893)" fill="#1a1818"/>
      <path id="Path_83940" data-name="Path 83940" d="M11.868,167.686l1.3-6.86h1.241l1.025,3.181a20.424,20.424,0,0,1,.533,2.12l.023,0a21.636,21.636,0,0,1,.327-2.447l.541-2.85h1.047l-1.3,6.86H15.489l-1.049-3.178a15.953,15.953,0,0,1-.561-2.209l-.029.005c-.078.669-.219,1.563-.411,2.579l-.528,2.8Z" transform="translate(-5.829 -78.992)" fill="#1a1818"/>
      <path id="Path_83941" data-name="Path 83941" d="M26.386,161.84H24.694l.2-1.015h4.532l-.2,1.015h-1.7l-1.107,5.845H25.279Z" transform="translate(-12.129 -78.992)" fill="#1a1818"/>
      <path id="Path_83942" data-name="Path 83942" d="M32.836,165.773l-.866,1.912H30.785l3.246-6.861h1.393l.647,6.861H34.907l-.145-1.912Zm1.888-.876-.136-1.683c-.022-.39-.042-.959-.063-1.4H34.5c-.177.447-.367.992-.552,1.4L33.18,164.9Z" transform="translate(-15.121 -78.992)" fill="#1a1818"/>
      <path id="Path_83943" data-name="Path 83943" d="M43.919,160.892a7.684,7.684,0,0,1,1.549-.148,2.631,2.631,0,0,1,1.63.445,1.474,1.474,0,0,1,.577,1.2,2.091,2.091,0,0,1-1.534,1.995l0,.03c.425.17.621.635.667,1.344a12.439,12.439,0,0,0,.2,1.885H45.84A14.109,14.109,0,0,1,45.7,166c-.044-.884-.323-1.2-.916-1.2h-.486l-.537,2.845H42.634Zm.549,3.039h.566a1.389,1.389,0,0,0,1.457-1.389c0-.574-.41-.9-1.047-.9a2.235,2.235,0,0,0-.556.053Z" transform="translate(-20.94 -78.952)" fill="#1a1818"/>
      <path id="Path_83944" data-name="Path 83944" d="M55.321,160.826l-1.3,6.86H52.878l1.3-6.86Z" transform="translate(-25.972 -78.992)" fill="#1a1818"/>
      <path id="Path_83945" data-name="Path 83945" d="M63.965,163.271a5.277,5.277,0,0,1-1.279,3.553,2.971,2.971,0,0,1-2.139.866,2.387,2.387,0,0,1-2.369-2.642,5.253,5.253,0,0,1,1.328-3.576,3.019,3.019,0,0,1,2.107-.849c1.7,0,2.352,1.3,2.352,2.648m-3.607-1.188a4.774,4.774,0,0,0-.98,2.937c0,.866.335,1.7,1.337,1.7a1.536,1.536,0,0,0,1.088-.483,4.982,4.982,0,0,0,.962-2.954c0-.818-.237-1.692-1.3-1.692a1.558,1.558,0,0,0-1.109.492" transform="translate(-28.576 -78.893)" fill="#1a1818"/>
      <path id="Path_83946" data-name="Path 83946" d="M78,167.428a3.932,3.932,0,0,1-1.535.261,2.5,2.5,0,0,1-2.613-2.726,4.438,4.438,0,0,1,1.519-3.5,3.631,3.631,0,0,1,2.369-.822,2.706,2.706,0,0,1,1.269.254l-.328.945a2.489,2.489,0,0,0-1.075-.2,2.285,2.285,0,0,0-1.565.627,3.529,3.529,0,0,0-.963,2.521c0,1.106.492,1.911,1.669,1.911a3.052,3.052,0,0,0,1.173-.216Z" transform="translate(-36.274 -78.902)" fill="#1a1818"/>
      <path id="Path_83947" data-name="Path 83947" d="M89.265,163.271a5.277,5.277,0,0,1-1.279,3.553,2.971,2.971,0,0,1-2.139.866,2.387,2.387,0,0,1-2.369-2.642,5.253,5.253,0,0,1,1.328-3.576,3.019,3.019,0,0,1,2.107-.849c1.7,0,2.352,1.3,2.352,2.648m-3.607-1.188a4.774,4.774,0,0,0-.98,2.937c0,.866.335,1.7,1.337,1.7a1.536,1.536,0,0,0,1.088-.483,4.982,4.982,0,0,0,.962-2.954c0-.818-.237-1.692-1.3-1.692a1.558,1.558,0,0,0-1.109.492" transform="translate(-41.002 -78.893)" fill="#1a1818"/>
      <path id="Path_83948" data-name="Path 83948" d="M100.451,167.686l.451-3.229c.095-.662.237-1.541.4-2.374h-.035c-.33.806-.7,1.648-1.03,2.311l-1.594,3.212h-.86l-.306-3.193c-.063-.692-.114-1.514-.137-2.33h-.022c-.171.8-.357,1.715-.516,2.377l-.781,3.227H94.975l1.737-6.86h1.427l.308,3.318c.043.585.1,1.266.1,1.878h.034c.218-.612.523-1.3.794-1.875l1.606-3.321h1.449l-.9,6.86Z" transform="translate(-46.649 -78.992)" fill="#1a1818"/>
      <path id="Path_83949" data-name="Path 83949" d="M115.211,167.686l.451-3.229c.095-.662.237-1.541.4-2.374h-.035c-.33.806-.7,1.648-1.03,2.311l-1.594,3.212h-.86l-.306-3.193c-.063-.692-.114-1.514-.137-2.33h-.022c-.171.8-.357,1.715-.516,2.377l-.781,3.227h-1.041l1.737-6.86H112.9l.308,3.318c.043.585.1,1.266.1,1.878h.034c.218-.612.523-1.3.794-1.875l1.606-3.321h1.449l-.9,6.86Z" transform="translate(-53.898 -78.992)" fill="#1a1818"/>
      <path id="Path_83950" data-name="Path 83950" d="M125.935,165.773l-.866,1.912h-1.186l3.246-6.861h1.393l.647,6.861h-1.164l-.145-1.912Zm1.888-.876-.136-1.683c-.022-.39-.042-.959-.063-1.4H127.6c-.177.447-.367.992-.552,1.4l-.769,1.687Z" transform="translate(-60.848 -78.992)" fill="#1a1818"/>
      <path id="Path_83951" data-name="Path 83951" d="M135.727,167.686l1.3-6.86h1.241l1.025,3.181a20.427,20.427,0,0,1,.533,2.12l.023,0a21.633,21.633,0,0,1,.327-2.447l.541-2.85h1.047l-1.3,6.86h-1.116l-1.049-3.178a15.95,15.95,0,0,1-.561-2.209l-.029.005c-.078.669-.219,1.563-.411,2.579l-.528,2.8Z" transform="translate(-66.665 -78.992)" fill="#1a1818"/>
      <path id="Path_83952" data-name="Path 83952" d="M148.926,160.88a9.2,9.2,0,0,1,1.622-.136,3.009,3.009,0,0,1,2.246.779,2.607,2.607,0,0,1,.695,1.932,4.485,4.485,0,0,1-1.4,3.379,4.192,4.192,0,0,1-2.845.854,10.018,10.018,0,0,1-1.587-.112Zm.026,5.825a4.678,4.678,0,0,0,.635.04,2.385,2.385,0,0,0,1.913-.861,3.874,3.874,0,0,0,.774-2.438,1.576,1.576,0,0,0-1.732-1.779,3.333,3.333,0,0,0-.635.049Z" transform="translate(-72.523 -78.952)" fill="#1a1818"/>
    </g>
  </g>
</svg>
