<svg id="logo-heros-ridge" xmlns="http://www.w3.org/2000/svg" xmlnsXlink="http://www.w3.org/1999/xlink" width="481.755" height="119.779" viewBox="0 0 481.755 119.779">
  <defs>
    <clipPath id="clip-path">
      <rect id="Rectangle_9619" data-name="Rectangle 9619" width="481.755" height="119.779" fill="none"/>
    </clipPath>
  </defs>
  <g id="Group_14925" data-name="Group 14925" clip-path="url(#clip-path)">
    <path id="Path_82984" data-name="Path 82984" d="M134.153,31.019A46.772,46.772,0,0,0,101.247,17.23,79.464,79.464,0,0,1,105.4,4.188l.034-.086A2.963,2.963,0,0,0,102.771.025l-.087,0C102.131.008,101.564,0,101,0A69.675,69.675,0,0,0,77.139,4.281,52.131,52.131,0,0,0,52.275,23.145a50.836,50.836,0,0,0-7.687,16.63c-.256,1.018-.49,2.049-.7,3.077q-.515.01-1.035.01A96.645,96.645,0,0,1,28.064,41.5a107.34,107.34,0,0,1-15.252-4.3c-1.261-.476-2.575-1.01-3.914-1.59l-1.525-.673L0,31.67,4.43,40.3a80.716,80.716,0,0,0,4.455,8.459A44.936,44.936,0,0,0,19.428,60.421l4.031,7.466A54.051,54.051,0,0,0,30.8,78.638a39.758,39.758,0,0,0,4.089,3.847,31.682,31.682,0,0,0,4.921,3.306l2.1,4.554a34.778,34.778,0,0,0,5.713,7.633,30.169,30.169,0,0,0,7.884,5.312l.25.1a29.67,29.67,0,0,0,12.159,2.389c1.2,0,2.472-.066,3.766-.193l.165-.017a6.541,6.541,0,0,1,1.556,2.832,3.453,3.453,0,0,1-.481,1.715,6.7,6.7,0,0,1-1.2,1.374l-.021.021c-.325.321-.694.685-1.054,1.088l-.1.117a2.962,2.962,0,0,0,2.209,4.937c.061,0,.123,0,.187,0l.156-.01a15.718,15.718,0,0,0,10.511-5.532,18.582,18.582,0,0,0,2.1-3.2,47.1,47.1,0,0,0,48.448-77.9" fill="#fff"/>
    <path id="Path_82985" data-name="Path 82985" d="M134.67,32.943a45.133,45.133,0,0,0-32.125-13.306c-.534,0-1.084.012-1.636.032a79.255,79.255,0,0,1,4.65-15.346l.034-.085a1.311,1.311,0,0,0-1.18-1.8l-.09,0c-.539-.016-1.091-.023-1.642-.023A67.992,67.992,0,0,0,79.406,6.583a50.514,50.514,0,0,0-24.1,18.269,49.161,49.161,0,0,0-7.436,16.082c-.37,1.472-.676,2.9-.929,4.282l-.16.007c-.732.032-1.489.049-2.247.049a98.35,98.35,0,0,1-15.049-1.378A109.561,109.561,0,0,1,13.911,39.51c-1.45-.549-2.965-1.169-4.506-1.848l-.7-.309L5.362,35.867l1.937,4a76.112,76.112,0,0,0,4.662,8.758,41.332,41.332,0,0,0,17.1,15.5,40.545,40.545,0,0,0,11.405,3.224,62.012,62.012,0,0,0,6.527.5h0l.288,0q.194.756.425,1.534H47.44a54.652,54.652,0,0,1-8.58-.683,51.267,51.267,0,0,1-7.482-1.694,29.669,29.669,0,0,1-3.018-1.062l-3.662-1.6,1.9,3.518a52.5,52.5,0,0,0,7.117,10.427,37.939,37.939,0,0,0,3.914,3.681A30.147,30.147,0,0,0,42.4,85.16a28.6,28.6,0,0,0,14.31,3.669l.2,0,.879-.008q.585.753,1.191,1.49c-.481.032-.935.045-1.426.045-.677,0-1.451-.027-2.435-.085a33,33,0,0,1-8.182-1.679L43.5,86.944l1.6,3.465a33.455,33.455,0,0,0,5.377,7.154,28.683,28.683,0,0,0,7.36,4.962l.256.108a28.087,28.087,0,0,0,11.513,2.257h0c1.151,0,2.363-.062,3.6-.186l.99-.1a7.152,7.152,0,0,1,.593.647c2.632,3.329,2.116,4.524,1.32,6.319a7.294,7.294,0,0,1-1.54,1.856l-.019.019c-.324.32-.658.65-.985,1.015l-.1.117a1.311,1.311,0,0,0,.977,2.185c.027,0,.055,0,.083,0l.156-.011a13.959,13.959,0,0,0,9.331-4.923,16.8,16.8,0,0,0,2.519-4.223A45.443,45.443,0,0,0,134.67,32.943" transform="translate(-1.685 -0.757)" fill="#231f20"/>
    <path id="Path_82986" data-name="Path 82986" d="M184.046,73.561a44.17,44.17,0,0,1-59.707,41.3c.213-.63.384-1.238.531-1.813a20.957,20.957,0,0,0,.488-3.065,18.928,18.928,0,0,0,2.3-.916c1.456-.656,2.41-1.109,2.564-1.182a35.663,35.663,0,0,0,33.564-60.821A4.5,4.5,0,0,1,164,45.647c.055-.181.11-.376.165-.569s.108-.379.159-.549c2.693,2.693,4.26,2.2,4.316,2.17a.648.648,0,0,1,.337-.091,2.022,2.022,0,0,1,1.186.692l.008.01.01-.011-.01.009.045-.047.046-.047h0c-.078-.089-.717-.853-.418-1.453.028-.067.663-1.669-2.183-4.692l-.071-.075-.039.1a3.316,3.316,0,0,0-.014,1.792l.01.074A1.5,1.5,0,0,1,167.274,44a1.077,1.077,0,0,1-.852.329l-.307-.022a4.526,4.526,0,0,0-1.363-.23l-.274.012c.051-.129.108-.262.175-.4a4.054,4.054,0,0,0,.3-.784l.179-.029a2.195,2.195,0,0,1,1.16.529l.01.009.008-.012-.009.01.039-.053.038-.054c-.085-.074-.829-.745-.614-1.381.019-.071.427-1.745-2.81-4.346l-.081-.066-.025.1a3.321,3.321,0,0,0,.234,1.777l.019.071a1.461,1.461,0,0,1-.164,1.127,1.277,1.277,0,0,1-1.07.416,4.955,4.955,0,0,0-.846-.076,2.8,2.8,0,0,0-1.176.205l-.092.046.081.065a12.094,12.094,0,0,0,1.783,1.193l-.171.064c-.152.058-.309.119-.477.178-.411.149-.817.319-1.086.436a8.358,8.358,0,0,0-.763.388,35.537,35.537,0,0,0-19.188-5.6c-.786,0-1.579.026-2.367.078a41.526,41.526,0,0,1,.5-8.5c.621-.027,1.245-.04,1.866-.04a44.121,44.121,0,0,1,44.119,44.12" transform="translate(-39.066 -9.25)" fill="#b79257"/>
    <path id="Path_82987" data-name="Path 82987" d="M128.475,93.72c2.073,2.208,3.9,4.155,4.6,5.707q.056.123.1.243c.035.093.065.184.092.273.021.069.039.138.053.205.059.261.1.512.139.754s.06.473.075.7.021.438.021.643-.01.42-.025.617c-.01.158-.027.309-.045.456-.006.046-.012.09-.018.135-.069.489-.165.92-.253,1.3.691-.566,1.658-1.431,2.415-2.12l.2-.183.654-.6c.092-.085.184-.171.28-.256l.291-.259c.2-.175.4-.353.613-.536a29.659,29.659,0,0,0,2.212-2.057,5.831,5.831,0,0,0,.879-1.169l.06-.109a2.156,2.156,0,0,0,.366-1.193,3.043,3.043,0,0,0-.033-.382,2.931,2.931,0,0,0-.2-.715,5.307,5.307,0,0,0-.713-1.144q-.508-.666-1-1.257-.37-.444-.728-.855-.226-.258-.447-.5-.257-.285-.506-.556-.155-.169-.309-.331c-.081-.088-.163-.176-.243-.263l-.291-.308-.049-.054-.19-.2c-.069-.073-.136-.145-.2-.215a11.272,11.272,0,0,1-2.683-3.637,3.355,3.355,0,0,1-.156-.6c-.008-.041-.012-.083-.018-.126,0-.014,0-.026,0-.039a4.218,4.218,0,0,1-.021-.944c.427-2.954,4.121-4.934,6.733-1.649l1.021,1.269s4.808,6.068,7.378,9.182l1.323,1.561c.048.051.089.1.124.131a23.774,23.774,0,0,0,7.069,5c-.069-.081-.148-.175-.234-.28a18.284,18.284,0,0,1-1.74-2.507c-.156-.277-.3-.561-.431-.848l-.076-.169c-.088-.2-.176-.393-.263-.6-.057-.132-.112-.266-.169-.4a16.062,16.062,0,0,1-.745-2.308q-.108-.458-.186-.9c-.027-.154-.051-.307-.074-.458,0-.026-.008-.051-.012-.078-.022-.156-.041-.31-.059-.461-.012-.1-.023-.208-.032-.31-.014-.156-.027-.309-.036-.458,0-.011,0-.021,0-.032-.01-.154-.017-.3-.022-.45-.009-.234-.012-.458-.011-.671s.007-.416.016-.606c.021-.487.062-.892.1-1.2a.3.3,0,0,1,0-.036c.029-.222.058-.386.076-.485a4.755,4.755,0,0,1-.558-.169,5.266,5.266,0,0,1-1.817-1.119,4.688,4.688,0,0,1-.863-1.112,10.021,10.021,0,0,1-1.348-4.753c-.145.106-.289.216-.435.327a12.216,12.216,0,0,1-2.188,1.418,7.6,7.6,0,0,1-2.318.673,6.1,6.1,0,0,1-.691.041,5.388,5.388,0,0,1-.581-.032,4.766,4.766,0,0,1-.554-.095c-2.4-.558-3.887-1.673-4.669-3.509a5.377,5.377,0,0,1-.373-1.3c-.016-.11-.03-.222-.04-.333s-.017-.225-.021-.337a5.592,5.592,0,0,1,.024-.684,9.2,9.2,0,0,1,.286-1.585c.033-.12.069-.241.11-.361s.083-.239.13-.357a5.638,5.638,0,0,1,.527-1.023c.071-.108.147-.213.227-.315a4.312,4.312,0,0,1,.693-.705,3.951,3.951,0,0,1,.509-.351c.06-.036.123-.071.187-.1.128-.065.261-.127.4-.182.1-.04.2-.073.3-.1a3.634,3.634,0,0,1,3.869,1.308c.019-.051.037-.106.058-.165.14-.416.314-1.038.518-1.773a58.915,58.915,0,0,1,1.985-6.154q.193-.481.388-.979.148-.38.3-.762a18.788,18.788,0,0,1,2.649-4.984,17.173,17.173,0,0,0-4.458-2.333c-.11-.038-.219-.073-.328-.108a13.606,13.606,0,0,0-4.306-.646h-.252a22.58,22.58,0,0,0-7.154,1.154c-.146.049-.291.1-.438.155-.643.237-1.278.508-1.911.814q-.3.147-.6.3c-.1.051-.193.1-.289.15a20.711,20.711,0,0,0-4.819,3.611.083.083,0,0,1-.011.011,22.461,22.461,0,0,0-4.664,6.871,21.718,21.718,0,0,0-1.1,3.18,24.151,24.151,0,0,0-.717,3.77,16.866,16.866,0,0,0-.082,1.692,16.189,16.189,0,0,0,.169,2.293q.069.479.171.979c.094.462.213.938.355,1.426.026.093.054.187.084.28a23.956,23.956,0,0,0,1.88,4.408,23.416,23.416,0,0,0,1.326,2.137,61.382,61.382,0,0,0,5.766,6.779" transform="translate(-37.302 -16.873)" fill="#b79257"/>
    <path id="Path_82988" data-name="Path 82988" d="M172.029,98.08l-.479,2.066,1.335,5.627s-3.908.612-5.648.874c-.536,1.8-3.215,8.841-3.215,8.841l-.536-.265a9.171,9.171,0,0,0-4.682-7.292,17.517,17.517,0,0,0-4.153-1.838,36.9,36.9,0,0,0-5.84-1.255,3.312,3.312,0,0,0,0-2.386,9.679,9.679,0,0,0-1.577-2.385,2.787,2.787,0,0,0,2.628-3.2c-.308.538-1.614,2.748-3.543,2.313-3.963-4.67-4.639-4.923-5.022-6.43a3.142,3.142,0,0,1,1.363-3.224c2.068-1.286,3.359.019,5.452,2.651,1.112,1.4,5.131,6.73,7.773,9.727a21.545,21.545,0,0,0,6.547,5.081,24.434,24.434,0,0,0,2.966,1.266l.328-.525a19.463,19.463,0,0,1-3.208-4.434,17.029,17.029,0,0,1-1.37-3.771,16.611,16.611,0,0,1-.028-6.394s-1.856.306-3.584-2.24a9.47,9.47,0,0,1-1.012-3.214,15.615,15.615,0,0,1-.173-1.844c3.177-2.9,7.5-8.08,9.155-8.465.5,1.038,7.728,16.366,7.728,16.366l-1.62.778.007,1.763-4.231,3.1Z" transform="translate(-44.371 -24.308)" fill="#fff"/>
    <path id="Path_82989" data-name="Path 82989" d="M100.554,112.029c.02-.141.03-.241.034-.271a8.072,8.072,0,0,0-.946-4.65,12.093,12.093,0,0,0-1.918-2.728,22.237,22.237,0,0,0-3.628-3.19c-.144-.1-14.429-10.437-20.586-25.42a48.93,48.93,0,0,1-2.841-28.3,54.216,54.216,0,0,1,1.691-6.4l.023-.073A46.8,46.8,0,0,1,81.6,24.565c9.023-10.227,23.514-16.381,39.84-16.94A74.315,74.315,0,0,0,118.2,18.408a53.408,53.408,0,0,0-1.341,13.4,36.06,36.06,0,0,0-13.377,7.254,29.264,29.264,0,0,0-6.709,8.478,26.131,26.131,0,0,0-2.778,9.644q-.052.43-.1.826c-.459,3.417.66,12.092,5.423,17.615,1.305,1.516,3.117,3.763,5.412,6.608l.029.037q2.288,2.837,5.183,6.4a16.81,16.81,0,0,0-3.609,5.581,17.125,17.125,0,0,0-1.282,4.637c-.067.575-.115,1.179-.165,1.816a25,25,0,0,1-.9,5.638,14.179,14.179,0,0,1-1.477,3.316,11.686,11.686,0,0,1-1.944,2.378" transform="translate(-21.912 -2.396)" fill="#da1a31"/>
    <path id="Path_82990" data-name="Path 82990" d="M123.557,4.346l-.093,0c-.523-.016-1.063-.023-1.6-.023A66.626,66.626,0,0,0,99.046,8.413a49.217,49.217,0,0,0-23.485,17.8,47.861,47.861,0,0,0-7.237,15.645c-2.863,11.4-1.9,20.046-1.077,24.184a53.957,53.957,0,0,0,4.635,13.021c.413.807,2.522,4.519,3.921,6.55a66.348,66.348,0,0,0,4.65,5.976,65.523,65.523,0,0,0,4.768,4.958c.388.368.724.686,1.044,1.007a48.6,48.6,0,0,0,4.951,4.186A22.9,22.9,0,0,1,95,105.04c3.131,3.959,2.367,5.683,1.483,7.679a8.235,8.235,0,0,1-1.811,2.243c-.316.312-.643.634-.948.975l-.1.117.157-.01a12.562,12.562,0,0,0,8.394-4.44,16.536,16.536,0,0,0,3.227-6.684,27.446,27.446,0,0,0,.575-4.154c.079-.887.163-1.8.285-2.7a15.218,15.218,0,0,1,1.213-4.207,15.451,15.451,0,0,1,3.024-4.564c-.34-.348-.671-.708-1-1.071a19.116,19.116,0,0,0-3.28,4.973A16.836,16.836,0,0,0,104.725,99c-.028.33-.053.614-.1.887-.045.294-.071.673-.1,1.112a17.41,17.41,0,0,1-1.989,7.548,12,12,0,0,1-4.79,4.842,6.2,6.2,0,0,0,.879-3.941c-.31-3.439-2.976-6.1-5.158-7.73A72.245,72.245,0,0,1,77.026,84.878a51.425,51.425,0,0,1-8.284-18.854,51.373,51.373,0,0,1,.775-23.606A48.6,48.6,0,0,1,80.129,22.753C89.829,11.97,104.17,6.1,121.606,5.765l-.2.569c-.938,2.655-1.908,5.4-2.708,8.424-.621,2.345-1.126,4.714-1.547,7.241a36.634,36.634,0,0,0-.466,8.589l1.361-.311c-.512-9.11,2.7-19.057,5.479-25.845Z" transform="translate(-20.863 -1.358)" fill="#b79257"/>
    <path id="Path_82991" data-name="Path 82991" d="M172.891,145.575l-.021-.037.027.058Z" transform="translate(-54.314 -45.727)" fill="#b79257"/>
    <path id="Path_82992" data-name="Path 82992" d="M182.344,100.341,179.1,102.3l.08.2,5.4-1.3Z" transform="translate(-56.273 -31.526)" fill="#231f20"/>
    <path id="Path_82993" data-name="Path 82993" d="M176.249,88.576a3.264,3.264,0,0,0-.269-1.155c-.217-.326.972-.833.972-.833l-.616-.337-.148.267-2.778.972-2.315,1.9,1.985-.639,4.079.521Z" transform="translate(-53.756 -27.099)" fill="#231f20"/>
    <path id="Path_82994" data-name="Path 82994" d="M159.894,36.571a.888.888,0,0,1,.866-.4,2.842,2.842,0,0,1,.745.111l.012,0,.018-.062.008-.067c-.108-.034-1.058-.348-1.12-1.016-.012-.073-.314-1.769-4.325-2.843l-.1-.027.018.1a3.307,3.307,0,0,0,.935,1.536l.043.053a1.473,1.473,0,0,1,.3,1.1,1.276,1.276,0,0,1-.811.811,3.46,3.46,0,0,0-1.8.935l-.066.08.1.025a10.96,10.96,0,0,0,2.736.4c1.828,0,2.405-.7,2.435-.741" transform="translate(-48.581 -10.139)" fill="#231f20"/>
    <path id="Path_82995" data-name="Path 82995" d="M168,38.636a2.608,2.608,0,0,1,.96.229l.012.005.027-.06.016-.064c-.1-.049-1-.49-.97-1.16,0-.073-.066-1.8-3.89-3.412l-.1-.04,0,.1a3.323,3.323,0,0,0,.713,1.649l.036.06a1.468,1.468,0,0,1,.15,1.13,1.281,1.281,0,0,1-.916.691,3.459,3.459,0,0,0-1.91.678l-.077.07.1.04a9.354,9.354,0,0,0,3.474.836,2.459,2.459,0,0,0,1.694-.459.778.778,0,0,1,.676-.294" transform="translate(-50.919 -10.724)" fill="#231f20"/>
    <path id="Path_82996" data-name="Path 82996" d="M175.283,41.1c.009-.071.182-1.787-3.382-3.916l-.089-.053-.011.1a3.327,3.327,0,0,0,.478,1.728l.028.067a1.46,1.46,0,0,1-.008,1.14,1.279,1.279,0,0,1-1,.558l-.176,0a3.34,3.34,0,0,0-1.809.411l-.085.058.088.053a7.98,7.98,0,0,0,3.917,1.351,2.017,2.017,0,0,0,1.15-.264.708.708,0,0,1,.538-.211,2.41,2.41,0,0,1,1.09.372l.012.007.035-.056.025-.062c-.095-.062-.924-.623-.8-1.284" transform="translate(-53.169 -11.666)" fill="#231f20"/>
    <path id="Path_82997" data-name="Path 82997" d="M191.951,58.058l.25-.051c.585,0,1.117.769,1.176.857l.007.01.055-.037.048-.046c-.062-.1-.594-.944-.215-1.5.037-.063.887-1.562-1.513-4.949l-.06-.084-.052.09a3.321,3.321,0,0,0-.26,1.78l0,.067c0,.05-.027,1.226-1.082,1.226a2.04,2.04,0,0,1-.528-.08,4.051,4.051,0,0,0-1.722-.446,1.578,1.578,0,0,0-.259.017l-.1.02.06.084c1.979,2.757,3.47,3.055,4.02,3.055Z" transform="translate(-58.971 -16.42)" fill="#231f20"/>
    <path id="Path_82998" data-name="Path 82998" d="M196.238,64.8l.165-.021c.624,0,1.084.913,1.135,1.016l.006.011.058-.029.055-.04c-.049-.1-.458-1.017-.005-1.512.046-.057,1.095-1.425-.816-5.111l-.048-.092-.062.082a3.294,3.294,0,0,0-.5,1.719l-.011.075c-.008.044-.175,1.077-1.064,1.077a1.763,1.763,0,0,1-.688-.164,3.613,3.613,0,0,0-1.879-.7l-.127.006.048.091c1.835,3.492,3.515,3.592,3.7,3.592Z" transform="translate(-60.466 -18.546)" fill="#231f20"/>
    <path id="Path_82999" data-name="Path 82999" d="M199.586,72.1l.08,0c.671,0,1.029,1.044,1.071,1.168l0,.014.062-.021.06-.03c-.034-.109-.313-1.071.2-1.5.053-.05,1.28-1.261-.1-5.174l-.034-.1-.075.072a3.313,3.313,0,0,0-.737,1.637l-.02.069c0,.009-.285.93-1.055.93a1.573,1.573,0,0,1-.805-.268,3.453,3.453,0,0,0-1.789-.953l-.1-.01.036.1c1.4,3.907,3.121,4.067,3.205,4.072" transform="translate(-61.689 -20.879)" fill="#231f20"/>
    <path id="Path_83000" data-name="Path 83000" d="M201.042,76.438a3.481,3.481,0,0,0-1.64-1.192l-.1-.023.021.1c.852,4.064,2.531,4.459,2.614,4.476.727.014.954,1.174.979,1.311l0,.014.064-.012.063-.023c-.018-.112-.163-1.1.409-1.456.058-.041,1.442-1.071.612-5.139l-.021-.1-.084.061a3.335,3.335,0,0,0-.956,1.52l-.028.064c0,.009-.366.786-1.045.786a1.438,1.438,0,0,1-.89-.387" transform="translate(-62.619 -23.374)" fill="#231f20"/>
    <path id="Path_83001" data-name="Path 83001" d="M152.4,35.575c.147-2.172-6.517-.44-6.517-.44s6.375,2.54,6.517.44" transform="translate(-45.835 -10.833)" fill="#231f20"/>
    <path id="Path_83002" data-name="Path 83002" d="M146.725,150.352l.013.064v0l0-.132h-.058c-.215,0-1.287-.034-1.44-.713-.027-.067-.748-1.633-4.9-1.667h-.1l.043.094a3.43,3.43,0,0,0,1.481,1.365,1.281,1.281,0,0,1,.582,1,1.469,1.469,0,0,1-.58.981l-.036.028a3.349,3.349,0,0,0-1.322,1.25l-.044.094h.142c4.118,0,4.849-1.55,4.88-1.62.233-.626,1.232-.681,1.346-.684Z" transform="translate(-44.061 -46.471)" fill="#231f20"/>
    <path id="Path_83003" data-name="Path 83003" d="M154.594,149.909l-.011-.062.022.06V149.9l0,.007-.023-.13-.013,0,.011.043v.021l-.011-.063a2.905,2.905,0,0,1-.449.034c-.42,0-.952-.09-1.118-.534-.027-.045-.692-1.092-3.388-1.092a13.078,13.078,0,0,0-1.7.119l-.1.014.055.087a3.451,3.451,0,0,0,1.657,1.147,1.281,1.281,0,0,1,.713.911,1.465,1.465,0,0,1-.438,1.052l-.056.053a3.29,3.29,0,0,0-1.112,1.4l-.032.1.1-.014c4.113-.563,4.626-2.209,4.647-2.284.143-.649,1.121-.842,1.238-.863Z" transform="translate(-46.443 -46.559)" fill="#231f20"/>
    <path id="Path_83004" data-name="Path 83004" d="M162.295,148.1l-.014,0a2.831,2.831,0,0,1-.768.12.881.881,0,0,1-.852-.4c-.022-.029-.589-.7-2.347-.7a10.84,10.84,0,0,0-2.821.438l-.1.027.067.08a3.448,3.448,0,0,0,1.8.907,1.287,1.287,0,0,1,.832.8,1.458,1.458,0,0,1-.29,1.1l-.04.052a3.326,3.326,0,0,0-.917,1.549l-.016.1.1-.028c4-1.125,4.277-2.827,4.288-2.9.052-.665,1-.991,1.107-1.027l-.02-.06.031.058,0-.007,0,.006Z" transform="translate(-48.823 -46.224)" fill="#231f20"/>
    <path id="Path_83005" data-name="Path 83005" d="M169.721,145.312l-.012.006.023.037.005.019-.028-.056a2.6,2.6,0,0,1-.976.241.778.778,0,0,1-.669-.294,2.445,2.445,0,0,0-1.627-.428,9.192,9.192,0,0,0-3.527.882l-.1.04.077.069a3.428,3.428,0,0,0,1.907.651,1.287,1.287,0,0,1,.935.681,1.462,1.462,0,0,1-.135,1.131l-.022.043a3.331,3.331,0,0,0-.7,1.676l0,.1.095-.042c3.8-1.667,3.847-3.391,3.845-3.467-.039-.665.853-1.119.956-1.169l-.027-.058.037.053,0-.006,0,.006Z" transform="translate(-51.155 -45.506)" fill="#231f20"/>
    <path id="Path_83006" data-name="Path 83006" d="M176.722,141.491l-.01.007.026.034.008.019-.034-.053a2.393,2.393,0,0,1-1.1.387.721.721,0,0,1-.536-.211,2,2,0,0,0-1.1-.242,7.864,7.864,0,0,0-3.946,1.4l-.088.053.086.057a3.285,3.285,0,0,0,1.744.387l.235-.005a1.288,1.288,0,0,1,1.022.545,1.459,1.459,0,0,1,.022,1.14l-.015.043a3.334,3.334,0,0,0-.467,1.759l.012.1.088-.053c3.537-2.176,3.342-3.889,3.331-3.965-.131-.654.691-1.227.785-1.29l-.035-.053.044.048,0-.007.006.005Z" transform="translate(-53.394 -44.436)" fill="#231f20"/>
    <path id="Path_83007" data-name="Path 83007" d="M183.16,136.587l-.01.008h0a2.183,2.183,0,0,1-1.166.544.682.682,0,0,1-.431-.145,1.629,1.629,0,0,0-.69-.119c-.792,0-2.155.342-4.144,1.965l-.08.065.093.045a2.756,2.756,0,0,0,1.123.19,4.756,4.756,0,0,0,.889-.086h.037a1.257,1.257,0,0,1,1.052.405,1.462,1.462,0,0,1,.177,1.12l-.01.045a3.336,3.336,0,0,0-.219,1.807l.025.1.08-.066c3.2-2.642,2.772-4.313,2.751-4.386-.221-.63.514-1.31.6-1.386l-.043-.047.051.04-.005-.006.006,0Z" transform="translate(-55.498 -42.914)" fill="#231f20"/>
    <path id="Path_83008" data-name="Path 83008" d="M188.916,130.831l-.008.01a2,2,0,0,1-1.187.708.675.675,0,0,1-.339-.092,1.242,1.242,0,0,0-.377-.046c-.673,0-2.106.331-4.157,2.541l-.069.076.1.032a2.223,2.223,0,0,0,.615.071,4.42,4.42,0,0,0,1.392-.245,1.248,1.248,0,0,1,1.178.294,1.5,1.5,0,0,1,.287,1.041l-.009.075a3.317,3.317,0,0,0,.038,1.791l.04.1.069-.076c2.808-3.06,2.152-4.655,2.121-4.725-.305-.593.329-1.368.4-1.454l-.048-.043.056.034-.006,0,.007,0Z" transform="translate(-57.427 -41.106)" fill="#231f20"/>
    <path id="Path_83009" data-name="Path 83009" d="M193.876,124.358l-.007.011c-.06.092-.585.872-1.172.872l-.254-.051-.148-.011c-.429,0-1.986.224-4,3.109l-.059.085.1.018a1.412,1.412,0,0,0,.228.014,3.984,3.984,0,0,0,1.736-.465,1.96,1.96,0,0,1,.555-.091c1.036,0,1.079,1.161,1.079,1.211l0,.058a3.33,3.33,0,0,0,.285,1.785l.053.09.058-.086c2.357-3.418,1.488-4.906,1.447-4.971-.383-.545.134-1.4.2-1.5h0l-.054-.034.06.025-.007,0,.008,0Z" transform="translate(-59.142 -39.072)" fill="#231f20"/>
    <path id="Path_83010" data-name="Path 83010" d="M198.068,117.363l-.058-.027.062.017-.007,0,.007,0-.119-.055-.005.012c-.05.107-.5,1.03-1.13,1.03l-.17-.021h-.018c-.185,0-1.86.1-3.66,3.64l-.037.1h.107a3.53,3.53,0,0,0,1.87-.717,1.732,1.732,0,0,1,.711-.18c.876,0,1.055,1.02,1.062,1.062l.013.075a3.318,3.318,0,0,0,.525,1.712l.064.081.046-.093c1.863-3.712.8-5.065.748-5.124-.457-.486-.058-1.406-.012-1.509" transform="translate(-60.618 -36.853)" fill="#231f20"/>
    <path id="Path_83011" data-name="Path 83011" d="M201.092,110.156h0l-.06-.02.064.009-.007,0h.007l-.126-.038,0,.012c-.039.123-.392,1.178-1.069,1.178l-.086,0c-.073.005-1.788.177-3.166,4.094l-.034.1.1-.01a3.45,3.45,0,0,0,1.773-.959,1.571,1.571,0,0,1,.819-.281c.765,0,1.053.914,1.056.922l.015.043a3.342,3.342,0,0,0,.754,1.658l.075.072.034-.1c1.357-3.924.121-5.125.065-5.178-.515-.42-.247-1.378-.213-1.493" transform="translate(-61.773 -34.594)" fill="#231f20"/>
    <path id="Path_83012" data-name="Path 83012" d="M203.589,104.105c-.568-.35-.424-1.342-.406-1.454l-.062-.011.051,0,.014,0-.007,0h.007l-.13-.021v.012h0c-.023.134-.25,1.3-.99,1.315-.07.014-1.747.411-2.6,4.476l-.022.1.1-.023a3.441,3.441,0,0,0,1.63-1.185,1.442,1.442,0,0,1,.9-.394c.678,0,1.041.776,1.045.784l.021.041a3.313,3.313,0,0,0,.966,1.542l.084.062.021-.1c.826-4.069-.558-5.1-.621-5.14" transform="translate(-62.663 -32.241)" fill="#231f20"/>
    <path id="Path_83013" data-name="Path 83013" d="M130.871,149s5.98,3.412,6.406,1.276c.411-2.064-6.406-1.276-6.406-1.276" transform="translate(-41.118 -46.767)" fill="#231f20"/>
    <path id="Path_83014" data-name="Path 83014" d="M204.533,90.4a2.021,2.021,0,1,0,2.022,2.022,2.022,2.022,0,0,0-2.022-2.022" transform="translate(-63.627 -28.404)" fill="#231f20"/>
    <path id="Path_83015" data-name="Path 83015" d="M170.106,51.442A11.439,11.439,0,0,1,170.9,49.4a1.911,1.911,0,0,0,.26-.692l0-.031-.025-.016-.173-.032c-1.035,0-5.417,1.221-9.66,4.96a16.33,16.33,0,0,0-4.515,6.825l-.112.285a78.263,78.263,0,0,0-3.727,12.547,8.4,8.4,0,0,0-1.027-2.629,2.687,2.687,0,0,0-2.127-1.1,3.219,3.219,0,0,0-.527.045,3.272,3.272,0,0,0-2.4,2.156l-.012.034a6.393,6.393,0,0,0-.509,2.747,4.281,4.281,0,0,0,.509,1.941,5.217,5.217,0,0,0,4.795,2.662c.275,0,.563-.014.856-.044a5.707,5.707,0,0,0,2.557-.988,30.886,30.886,0,0,0,5.179-4.731c.944-1,1.919-2.033,2.97-2.993a23.67,23.67,0,0,1,3.71-2.874,12.559,12.559,0,0,1,3.438-1.408l.178-.1-.037-.228-.041-.1a20.368,20.368,0,0,1-.968-3.924,22.571,22.571,0,0,1-.274-4.834,29.35,29.35,0,0,1,.9-5.432" transform="translate(-45.977 -15.278)" fill="#b79257"/>
    <path id="Path_83016" data-name="Path 83016" d="M131.557,132.564c1.257-.573,2.557-1.165,3.924-1.745a55.457,55.457,0,0,1,7.943-2.771,34.035,34.035,0,0,1,9.084-1.411h.06a14.854,14.854,0,0,1,3.227.378c-1.244-3.693-5.589-4.966-7.234-5.447a51.418,51.418,0,0,0-6.369-1.17l-.169-.016.138-.1a4.271,4.271,0,0,0,.882-.9l.218-.27.023-.027.035,0a35.884,35.884,0,0,1,6.2,1.289,16.234,16.234,0,0,1,4.959,2.436,8.365,8.365,0,0,1,1.984,2.195,8.449,8.449,0,0,1,1.036,4.252v.119l-.1-.066a6.884,6.884,0,0,0-2.824-1.117,15.875,15.875,0,0,0-2.167-.141,28,28,0,0,0-6.464.87,61.061,61.061,0,0,0-6.877,2.083c-2.625.957-4.69,1.867-7.54,3.144-.446.2-.877.4-1.3.592-1.391.637-2.714,1.243-4.171,1.745.048-.529.1-1.065.16-1.6,1.9-.763,3.651-1.557,5.345-2.329" transform="translate(-39.604 -37.415)" fill="#b79257"/>
    <path id="Path_83017" data-name="Path 83017" d="M88.322,143.568h0a26.827,26.827,0,0,1-11-2.155l-.26-.108a27.489,27.489,0,0,1-6.943-4.685,32.441,32.441,0,0,1-5.11-6.772l-.074-.161.16.077a33.547,33.547,0,0,0,8.671,1.805c1.012.06,1.809.087,2.511.087a24.667,24.667,0,0,0,2.671-.146c.06.069.118.139.179.208.37.422.715.81,1.044,1.172-.916.088-1.981.143-3.373.176l-.239,0a56.913,56.913,0,0,1-8.1-.729c2.779,3.6,5.275,6.052,9.647,7.87a23.423,23.423,0,0,0,4.985,1.448,35.349,35.349,0,0,0,6,.434c.333,0,.68,0,1.044-.008.6.459,1.16.892,1.667,1.3-1.174.118-2.339.18-3.472.18" transform="translate(-20.401 -40.746)" fill="#b79257"/>
    <path id="Path_83018" data-name="Path 83018" d="M58.982,101.773c-.313.012-.654.019-1.027.019a67.187,67.187,0,0,1-10.316-.94,31.069,31.069,0,0,1-6.668-1.635c.077.123.17.273.276.445a35.694,35.694,0,0,0,6.9,8.582,30.684,30.684,0,0,0,11.143,6.333,31.86,31.86,0,0,0,6.941,1.172q.492.7,1,1.389c-.1,0-.2,0-.3,0a27.341,27.341,0,0,1-13.685-3.512,28.91,28.91,0,0,1-4.567-3.053,36.8,36.8,0,0,1-3.775-3.549A51.273,51.273,0,0,1,37.968,96.86L37.88,96.7l.17.075a30.112,30.112,0,0,0,3.159,1.114,52.429,52.429,0,0,0,7.671,1.736,55.858,55.858,0,0,0,8.777.7c.272,0,.551,0,.831-.007q.235.728.494,1.461" transform="translate(-11.902 -30.381)" fill="#b79257"/>
    <path id="Path_83019" data-name="Path 83019" d="M37.393,64.186l-.1-.011a100.069,100.069,0,0,1-16.7-3.428c-2.871-.862-5.6-1.808-8.1-2.809l-.1-.042a47.872,47.872,0,0,0,3.028,5.54A40.752,40.752,0,0,0,26.261,75.11,37.973,37.973,0,0,0,39.38,80.8l0-.024h.058l.029,0,.219.045a46.141,46.141,0,0,0,7.7.869c.266,0,.519-.006.763-.016.034.176.066.349.1.512.062.305.129.618.2.933H48.33a60.407,60.407,0,0,1-6.349-.491,39.242,39.242,0,0,1-11.013-3.105A40.064,40.064,0,0,1,14.4,64.5a56.547,56.547,0,0,1-4.621-8.97l-.069-.169-.01,0L9.7,55.327l-.079-.15.149.067H9.8l.01.017c1.7.759,3.38,1.45,4.979,2.055a111.2,111.2,0,0,0,15.836,4.45,99.527,99.527,0,0,0,15.253,1.4c.8,0,1.571-.017,2.306-.051q-.112.687-.206,1.356a30.656,30.656,0,0,1-3.548.193,67.232,67.232,0,0,1-7.034-.474" transform="translate(-3.022 -17.336)" fill="#b79257"/>
    <path id="Path_83020" data-name="Path 83020" d="M200.4,143.272a2.467,2.467,0,1,0,2.467,2.467,2.467,2.467,0,0,0-2.467-2.467m0,4.4a1.938,1.938,0,1,1,1.939-1.937,1.938,1.938,0,0,1-1.939,1.937" transform="translate(-62.189 -45.015)" fill="#231f20"/>
    <path id="Path_83021" data-name="Path 83021" d="M202.08,145.651a.835.835,0,0,0-.835-.837h-1.19v2.819h.529v-1.147h.379l.534,1.147h.584l-.556-1.193a.837.837,0,0,0,.555-.788m-.835.307h-.66v-.616h.66a.308.308,0,0,1,0,.616" transform="translate(-62.855 -45.499)" fill="#231f20"/>
    <path id="Path_83022" data-name="Path 83022" d="M612.288,96.929A7.533,7.533,0,0,1,612,98.636c-.481.964-2.321,4.43-2.321,4.43l2.01-.338c4.6-.774,15.607-2.625,16.753-2.834s2.22-.247,2.613,1.26a6.028,6.028,0,0,1,.162,1.515l-1.057,18.764h4.14l-1.057-18.764c0-3.039,1.322-3.04,2.775-2.775s18.764,3.172,18.764,3.172-2.051-4.89-2.051-6.739c0-.542,1.892-2.284,4.121-4.172q-24.081.514-46.924,1.23c1.457,1.377,2.365,2.544,2.365,3.544" transform="translate(-191.554 -28.954)" fill="#c8102e"/>
    <path id="Path_83023" data-name="Path 83023" d="M665.333,50.868c0-.529-3.964-.4-3.964-3.3s3.7-13.743,3.7-13.743-7.8,2.643-9.909,2.643-5.419-3.832-5.419-6.871c0,0-10.174,12.816-12.288,11.892s3.832-26.031,3.832-26.031-6.078,5.153-8.193,4.493-8.06-15.328-8.06-15.328-.1-.188-.22-.188-.219.188-.219.188-5.946,14.668-8.06,15.328-8.193-4.493-8.193-4.493,5.947,25.107,3.832,26.031-12.289-11.892-12.289-11.892c0,3.04-3.3,6.871-5.418,6.871s-9.91-2.643-9.91-2.643,3.7,10.836,3.7,13.743-3.964,2.774-3.964,3.3,3.832,3.039,9.382,7.928c.091.081.182.158.273.237q30.665-1,63.652-1.661c4.644-3.953,7.734-6.03,7.734-6.5" transform="translate(-183.578 -1.392)" fill="#c8102e"/>
    <path id="Path_83024" data-name="Path 83024" d="M255.585,46.38H243.346v16.97H228.332V18.686h14.951V33.827h12.238V18.686H270.6V63.351H255.585Z" transform="translate(-71.74 -5.871)"/>
    <path id="Path_83025" data-name="Path 83025" d="M302.1,18.686h30.722V31.176H316.236v3.849h15.582V46.7H316.236V50.86H333.9V63.35H302.1Z" transform="translate(-94.918 -5.871)"/>
    <path id="Path_83026" data-name="Path 83026" d="M357.572,18.686h19.241a32.659,32.659,0,0,1,6.53.662,16.535,16.535,0,0,1,5.8,2.334,12.676,12.676,0,0,1,4.132,4.479,14.22,14.22,0,0,1,1.577,7.034,12.639,12.639,0,0,1-7.8,12.049l11.334,18.106H381.141L372.585,47.39h-.44V63.351H357.572Zm14.447,18.863h2.943a12.083,12.083,0,0,0,1.658-.126,5.094,5.094,0,0,0,1.69-.536,3.793,3.793,0,0,0,1.315-1.136,3.179,3.179,0,0,0,.532-1.924,3.531,3.531,0,0,0-.438-1.893,2.831,2.831,0,0,0-1.127-1.041,4.479,4.479,0,0,0-1.5-.442,13.07,13.07,0,0,0-1.5-.095h-3.568Z" transform="translate(-112.345 -5.871)"/>
    <path id="Path_83027" data-name="Path 83027" d="M420.306,40.188A23.893,23.893,0,0,1,422.2,30.5a21.52,21.52,0,0,1,5.2-7.35,23.155,23.155,0,0,1,7.854-4.668,30.34,30.34,0,0,1,19.683,0,23.517,23.517,0,0,1,7.886,4.668,21.333,21.333,0,0,1,5.235,7.35,23.894,23.894,0,0,1,1.893,9.684,24.568,24.568,0,0,1-1.893,9.778,22.077,22.077,0,0,1-5.235,7.538,23.505,23.505,0,0,1-7.886,4.826,29.278,29.278,0,0,1-19.683,0A23.146,23.146,0,0,1,427.4,57.5a22.276,22.276,0,0,1-5.2-7.538,24.567,24.567,0,0,1-1.893-9.778m15.961,0a11.78,11.78,0,0,0,.663,4.037,9.7,9.7,0,0,0,1.829,3.154,8.006,8.006,0,0,0,2.808,2.051,8.626,8.626,0,0,0,3.533.726,8.332,8.332,0,0,0,6.309-2.776,9.438,9.438,0,0,0,1.861-3.154,11.78,11.78,0,0,0,.662-4.037,11.333,11.333,0,0,0-.662-3.943,8.49,8.49,0,0,0-1.861-3.028A8.668,8.668,0,0,0,445.1,30.6a8.967,8.967,0,0,0-3.533.694,8.243,8.243,0,0,0-2.808,1.924,8.707,8.707,0,0,0-1.829,3.028,11.333,11.333,0,0,0-.663,3.943" transform="translate(-132.056 -5.293)"/>
    <path id="Path_83028" data-name="Path 83028" d="M515.822,18.686l-6.246,17.79H499.23l4.668-17.79Z" transform="translate(-156.853 -5.871)"/>
    <path id="Path_83029" data-name="Path 83029" d="M546.085,64.034a30.1,30.1,0,0,1-5.331-.47,28.944,28.944,0,0,1-5.047-1.381,31.507,31.507,0,0,1-4.574-2.134,22.952,22.952,0,0,1-3.848-2.73l9.147-9.939a14.687,14.687,0,0,0,4.2,3.029,11.823,11.823,0,0,0,5.394,1.324,5.82,5.82,0,0,0,2.3-.443,1.632,1.632,0,0,0,1.04-1.643,1.691,1.691,0,0,0-.347-1.075,3.941,3.941,0,0,0-1.23-.916,19.986,19.986,0,0,0-2.429-1.042q-1.546-.569-3.88-1.328a32.961,32.961,0,0,1-4.353-1.8,15.4,15.4,0,0,1-3.69-2.56,11.236,11.236,0,0,1-2.555-3.633,12.411,12.411,0,0,1-.946-5.089,13.78,13.78,0,0,1,1.7-7.077,14.9,14.9,0,0,1,4.384-4.771,17.969,17.969,0,0,1,6.025-2.687,27.664,27.664,0,0,1,6.624-.822,25.667,25.667,0,0,1,8.99,1.7,24.064,24.064,0,0,1,8.043,4.921L556.369,33a9.773,9.773,0,0,0-3.722-2.87,9.979,9.979,0,0,0-3.975-.978,6.3,6.3,0,0,0-2.649.473,1.654,1.654,0,0,0,.032,3.06,29.12,29.12,0,0,0,3.375,1.262q2.4.756,5.047,1.767a21.374,21.374,0,0,1,4.889,2.617,13.771,13.771,0,0,1,3.691,3.943,10.812,10.812,0,0,1,1.45,5.8,14.651,14.651,0,0,1-1.608,7.034,15.185,15.185,0,0,1-4.227,4.983,18.311,18.311,0,0,1-5.9,2.966,23.317,23.317,0,0,1-6.687.977" transform="translate(-165.668 -5.293)"/>
    <path id="Path_83030" data-name="Path 83030" d="M228.761,93.67h23.257a39.285,39.285,0,0,1,7.892.8,19.94,19.94,0,0,1,7.015,2.83,15.34,15.34,0,0,1,5,5.432,17.287,17.287,0,0,1,1.906,8.529,15.331,15.331,0,0,1-9.429,14.612l13.7,21.956H257.25l-10.342-19.355h-.533v19.355H228.761Zm17.462,22.874h3.557a14.489,14.489,0,0,0,2.005-.153,6.164,6.164,0,0,0,2.042-.65,4.587,4.587,0,0,0,1.59-1.377,3.86,3.86,0,0,0,.643-2.333,4.294,4.294,0,0,0-.53-2.3,3.417,3.417,0,0,0-1.362-1.262,5.379,5.379,0,0,0-1.815-.536,15.671,15.671,0,0,0-1.816-.115h-4.313Z" transform="translate(-71.874 -29.43)" fill="#c8102e"/>
    <rect id="Rectangle_9618" data-name="Rectangle 9618" width="18.302" height="54.162" transform="translate(211.332 64.24)" fill="#c8102e"/>
    <path id="Path_83031" data-name="Path 83031" d="M349.511,147.832V93.67h20.131a57.733,57.733,0,0,1,12.238,1.262,28.332,28.332,0,0,1,10.295,4.361,22.43,22.43,0,0,1,7.13,8.224q2.668,5.126,2.669,12.928a27.671,27.671,0,0,1-2.555,12.316,24.074,24.074,0,0,1-6.825,8.53,28.838,28.838,0,0,1-9.837,4.934,41.616,41.616,0,0,1-11.591,1.606Zm17.462-38.709v23.027h3.355q6.406,0,9.837-2.782t3.431-9.112a10.207,10.207,0,0,0-3.431-8.2q-3.432-2.935-9.151-2.936Z" transform="translate(-109.813 -29.43)" fill="#c8102e"/>
    <path id="Path_83032" data-name="Path 83032" d="M463.461,148.508a34.353,34.353,0,0,1-11.858-1.989,27.686,27.686,0,0,1-9.456-5.7,26.39,26.39,0,0,1-6.29-8.989,31.476,31.476,0,0,1,0-23.562,27.061,27.061,0,0,1,6.253-9.027,27.693,27.693,0,0,1,9.3-5.776,31.964,31.964,0,0,1,11.438-2.027A34.877,34.877,0,0,1,474.861,93.5a24.844,24.844,0,0,1,9.265,5.661l-10.6,12.776a12.96,12.96,0,0,0-3.965-3.175,12.17,12.17,0,0,0-5.643-1.185,11.234,11.234,0,0,0-8.007,3.4,12.941,12.941,0,0,0-2.593,3.94,12.808,12.808,0,0,0-.991,5.126,14,14,0,0,0,2.936,9.218q2.934,3.557,9.418,3.557a15.179,15.179,0,0,0,2.364-.191,5.815,5.815,0,0,0,1.906-.573V127.93h-8.693V113.624H485.04v29.605a28.15,28.15,0,0,1-4.384,2.1,43.714,43.714,0,0,1-5.262,1.645,56.678,56.678,0,0,1-5.833,1.11,44.821,44.821,0,0,1-6.1.42" transform="translate(-136.223 -28.729)" fill="#c8102e"/>
    <path id="Path_83033" data-name="Path 83033" d="M521.852,93.67h37.136v15.147H538.932v4.667h18.835v14.152H538.932v5.049h21.351v15.147H521.852Z" transform="translate(-163.96 -29.43)" fill="#c8102e"/>
  </g>
</svg>
