<?xml version="1.0" encoding="UTF-8"?><svg id="a" xmlns="http://www.w3.org/2000/svg" width="12.23" height="16.31" xmlnsXlink="http://www.w3.org/1999/xlink" viewBox="0 0 12.23 16.31"><defs><clipPath id="c"><rect y="0" width="12.23" height="16.31" fill="none"/></clipPath></defs><g id="b"><g clip-path="url(#c)"><g id="d"><path d="m5.49,15.98C.86,9.27,0,8.58,0,6.12,0,2.74,2.74,0,6.11,0c3.38,0,6.12,2.74,6.12,6.11h0c0,2.47-.86,3.16-5.49,9.86-.24.35-.72.43-1.06.19l-.19-.19h0Zm.63-7.82c1.41,0,2.55-1.14,2.55-2.55s-1.14-2.55-2.55-2.55-2.55,1.14-2.55,2.55,1.14,2.55,2.55,2.55Z" fill="#fff"/></g></g></g></svg>