<svg id="Group_13948" data-name="Group 13948" xmlns="http://www.w3.org/2000/svg" xmlnsXlink="http://www.w3.org/1999/xlink" width="72" height="72" viewBox="0 0 72 72">
  <defs>
    <clipPath id="clip-path">
      <rect id="Rectangle_8763" data-name="Rectangle 8763" width="72" height="72" fill="none"/>
    </clipPath>
  </defs>
  <g id="Group_13947" data-name="Group 13947" clip-path="url(#clip-path)">
    <path id="Path_82981" data-name="Path 82981" d="M36,0a36,36,0,1,0,.01,0ZM46.725,36.467,30.294,46.409a.534.534,0,0,1-.73-.19.54.54,0,0,1-.073-.278V26.058a.531.531,0,0,1,.8-.467l16.434,9.942a.549.549,0,0,1,0,.934Z" fill="#fff"/>
    <path id="Path_82982" data-name="Path 82982" d="M46.725,36.467,30.294,46.409a.534.534,0,0,1-.73-.19.54.54,0,0,1-.073-.278V26.058a.531.531,0,0,1,.8-.467l16.434,9.942a.549.549,0,0,1,0,.934Z" fill="#000000" stroke="#000000" strokeWidth="1"/>
  </g>
</svg>
