<svg xmlns="http://www.w3.org/2000/svg" width="27.062" height="27.06" viewBox="0 0 27.062 27.06">
  <path id="Path_44300" data-name="Path 44300" d="M3436.414,12211.044c-.552-.562-1.1-1.131-1.658-1.69q-2.358-2.361-4.723-4.722a1.013,1.013,0,0,1-.146-1.5c-.758-.751-1.514-1.5-2.287-2.262a9.352,9.352,0,0,1-8.121,1.711,9.115,9.115,0,0,1-5.443-3.754,9.44,9.44,0,1,1,15.069.563c.747.746,1.493,1.493,2.2,2.2a3.229,3.229,0,0,1,.9-.164,1.275,1.275,0,0,1,.668.39q3.156,3.129,6.292,6.276a2.642,2.642,0,0,0,.225.2v.334c-.232.22-.469.438-.695.663-.581.584-1.157,1.177-1.735,1.764Zm-14.636-25.07a7.454,7.454,0,1,0,7.452,7.436A7.437,7.437,0,0,0,3421.778,12185.974Z" transform="translate(-3412.334 -12183.984)" fill="#fff"/>
</svg>
