<svg id="Group_14364" data-name="Group 14364" xmlns="http://www.w3.org/2000/svg" xmlnsXlink="http://www.w3.org/1999/xlink" width="96.278" height="83.055" viewBox="0 0 96.278 83.055">
  <defs>
    <clipPath id="clip-path">
      <rect id="Rectangle_8930" data-name="Rectangle 8930" width="96.278" height="83.055" fill="#5e514d"/>
    </clipPath>
  </defs>
  <g id="Group_14363" data-name="Group 14363" clip-path="url(#clip-path)">
    <path id="Path_83709" data-name="Path 83709" d="M100.1,4.33C103.277,2.947,106.335,1,109.657.3c6.275-1.327,12.542,2.112,15.5,7.747a14.564,14.564,0,0,1-2.24,17.019c-6.773,7.01-13.754,13.819-20.624,20.735-1.35,1.359-2.566,1.213-3.837-.06-6.944-6.959-14.012-13.8-20.8-20.9-5.28-5.523-5.054-14.466.133-20.071A15.082,15.082,0,0,1,98.026,3.156c.769.6,1.5,1.252,2.252,1.88L100.1,4.33m-11,1.374c-5.239-.028-9.667,4.254-9.5,8.711.034.92,1.21,1.8,1.859,2.695.8-.672,2.183-1.257,2.3-2.033.468-3.092,2.036-4.6,5.11-5.092.793-.127,1.8-1.624,1.881-2.566.058-.637-1.323-1.4-1.649-1.715" transform="translate(-52.147 0)" fill="#5e514d"/>
    <path id="Path_83710" data-name="Path 83710" d="M30.054,129.922c-2.149,0-4.3-.027-6.446.009-1.48.025-2.493-.459-2.291-2.118.68-5.573-1.9-9.687-5.534-13.579-3.431-3.68-6.444-7.747-9.685-11.606a15.352,15.352,0,0,1-3.584-8.535C1.749,86.616.946,79.144.169,71.669.1,71.013-.155,70.18.137,69.723c.731-1.143,1.535-2.587,2.662-3.047,1.606-.655,2.938.548,3.228,2.2a122.078,122.078,0,0,1,1.888,12.96,19.66,19.66,0,0,0,2.652,9.4c2.616,4.2,5.265,8.389,7.991,12.521.354.536,1.251.713,1.9,1.057a6.076,6.076,0,0,0-.333-2.141c-2.385-4.056-4.876-8.05-7.3-12.081-1.394-2.313-1.177-4.287.539-5.489,1.755-1.229,3.627-.756,5.3,1.378,2.087,2.668,4.048,5.442,6.256,8a68.53,68.53,0,0,0,6.526,6.71c5.661,4.991,9.052,10.817,7.963,18.687A70.585,70.585,0,0,0,39,127.8c-.042,1.711-.847,2.306-2.5,2.238-2.145-.089-4.3-.022-6.445-.022Z" transform="translate(0 -46.986)" fill="#5e514d"/>
    <path id="Path_83711" data-name="Path 83711" d="M202.991,129.993c-2.231,0-4.471.122-6.686-.067-.758-.065-2.031-.859-2.079-1.406-.393-4.518-.99-9.088-.667-13.58a17.215,17.215,0,0,1,6.664-12.338c4.747-3.756,8.248-8.516,11.887-13.206q1.291-1.663,2.58-3.329a3.344,3.344,0,0,1,4.792-.969,3.451,3.451,0,0,1,1.1,4.971c-2.518,4.264-5.163,8.452-7.68,12.716a6.069,6.069,0,0,0-.337,2.134c.648-.342,1.563-.515,1.9-1.052,3.132-4.945,6.685-9.722,9.041-15.025,1.572-3.539,1.386-7.856,2.011-11.82.385-2.444.748-4.895,1.249-7.316.377-1.819,1.234-3.4,3.479-3.028,2.219.366,2.907,2,2.705,4.039-.706,7.148-1.639,14.279-2.127,21.442a20.606,20.606,0,0,1-5.65,12.83c-3.7,4.113-7.068,8.517-10.7,12.694-1.631,1.877-2.823,3.766-2.573,6.382.116,1.22-.172,2.473-.15,3.709.027,1.474-.607,2.106-2.073,2.079-2.23-.042-4.461-.011-6.691-.011Z" transform="translate(-136.707 -47.078)" fill="#5e514d"/>
    <path id="Path_83712" data-name="Path 83712" d="M33.485,88.992c-.539-4.318-1.064-8.52-1.589-12.722l.518-.278a11.959,11.959,0,0,1,1.544,2.739c.635,2.46.985,4.992,1.556,7.471.373,1.621-.148,2.508-2.03,2.791" transform="translate(-22.538 -53.697)" fill="#5e514d"/>
    <path id="Path_83713" data-name="Path 83713" d="M284.967,89.684l-2.18-1.137c.943-3.947.713-8.241,3.137-11.751l.666.174c-.532,4.167-1.064,8.334-1.623,12.714" transform="translate(-199.823 -54.266)" fill="#5e514d"/>
    <path id="Path_83714" data-name="Path 83714" d="M270.823,87.24c-.7,6.574-1.373,8.21-3.715,8.49,1.193-2.85.8-6.149,3.715-8.49" transform="translate(-188.744 -61.645)" fill="#5e514d"/>
    <path id="Path_83715" data-name="Path 83715" d="M51.986,95.969c-2.147-.4-3.221-3.172-3.682-8.6,2.757,2.288,2.54,5.536,3.682,8.6" transform="translate(-34.133 -61.735)" fill="#5e514d"/>
  </g>
</svg>
