<svg xmlns="http://www.w3.org/2000/svg" xmlnsXlink="http://www.w3.org/1999/xlink" width="36.85" height="29.717" viewBox="0 0 36.85 29.717">
  <defs>
    <clipPath id="clip-path">
      <rect id="Rectangle_8610" data-name="Rectangle 8610" width="36.85" height="29.717" fill="#fff"/>
    </clipPath>
  </defs>
  <g id="Group_13359" data-name="Group 13359" clip-path="url(#clip-path)">
    <path id="Path_82722" data-name="Path 82722" d="M129.731,42.9a3.985,3.985,0,1,0,3.985,3.986,3.991,3.991,0,0,0-3.985-3.986m-1.052,6.133a2.344,2.344,0,1,1,3.351-3.258,3.785,3.785,0,0,0-3.351,3.258" transform="translate(-109.194 -37.254)" fill="#fff"/>
    <path id="Path_82723" data-name="Path 82723" d="M78.933,16.019a1.568,1.568,0,0,0,.012-.185V3.167a1.588,1.588,0,0,0-1.583-1.583H75.778V0H74.195V1.583H66.278A1.664,1.664,0,0,0,64.695,0H61.528a1.663,1.663,0,0,0-1.583,1.583H58.361a1.589,1.589,0,0,0-1.583,1.583V15.834a1.577,1.577,0,0,0,.022.248,48.99,48.99,0,0,0,22.134-.063M69.841,3.591A6.043,6.043,0,1,1,63.8,9.633a6.049,6.049,0,0,1,6.043-6.043M60.569,4.619a1.153,1.153,0,1,1-1.153,1.152,1.153,1.153,0,0,1,1.153-1.152" transform="translate(-49.304)" fill="#fff"/>
    <path id="Path_82724" data-name="Path 82724" d="M2.829,78.628l3.435,1.51L3.656,83.609l-.363-1.648c-.561.354-1.094.635-1.561,1-.659.513-.7.945.047,1.332A21.79,21.79,0,0,0,6.16,86.164,52.347,52.347,0,0,0,22.288,87.4,36.26,36.26,0,0,0,32.2,85.718a14.044,14.044,0,0,0,2.868-1.434c.717-.451.723-.893,0-1.329a19.862,19.862,0,0,0-3.164-1.542c-1.334-.512-1.358-.452-1.109-2.026,1.934.545,3.85,1.088,5.3,2.577a2.244,2.244,0,0,1-.024,3.372,9.344,9.344,0,0,1-2.619,1.683,29.718,29.718,0,0,1-8.739,1.9,60.3,60.3,0,0,1-12.675,0,30.958,30.958,0,0,1-8.3-1.736A10.2,10.2,0,0,1,1.089,85.68,2.6,2.6,0,0,1,1.2,81.374a3.145,3.145,0,0,1,.32-.229c.312-.193.618-.4.945-.563s.679-.277.548-.78c-.09-.346-.113-.71-.182-1.173" transform="translate(0.001 -68.278)" fill="#fff"/>
    <path id="Path_82725" data-name="Path 82725" d="M63.822,178.111a3.568,3.568,0,0,0,1.567.415c.82,0,1.235-.394,1.235-.892,0-.674-.664-.975-1.359-.975H64.62v-1.131h.623c.529,0,1.193-.208,1.193-.778,0-.4-.322-.706-1-.706a2.993,2.993,0,0,0-1.4.4l-.322-1.141A4.2,4.2,0,0,1,65.8,172.8c1.432,0,2.231.757,2.231,1.681a1.607,1.607,0,0,1-1.235,1.567v.021a1.678,1.678,0,0,1,1.463,1.65c0,1.183-1.048,2.054-2.76,2.054a4.109,4.109,0,0,1-2-.467Z" transform="translate(-55.142 -150.054)" fill="#fff"/>
    <path id="Path_82726" data-name="Path 82726" d="M111.045,174.1a4.346,4.346,0,0,0-.612.021,2.161,2.161,0,0,0-2.2,1.608h.031a1.951,1.951,0,0,1,1.432-.529,2.047,2.047,0,0,1,2.085,2.2,2.413,2.413,0,0,1-2.48,2.438,2.646,2.646,0,0,1-2.687-2.946,4.046,4.046,0,0,1,1.2-3.009,4,4,0,0,1,2.594-.986,3.3,3.3,0,0,1,.633-.01Zm-.861,3.382a1.031,1.031,0,0,0-1.006-1.162,1.01,1.01,0,0,0-.923.591.826.826,0,0,0-.073.4c.031.716.374,1.359,1.1,1.359.55,0,.9-.508.9-1.193" transform="translate(-92.582 -150.122)" fill="#fff"/>
    <path id="Path_82727" data-name="Path 82727" d="M155.672,176.254c0,2.075-.84,3.517-2.552,3.517-1.743,0-2.511-1.567-2.521-3.476,0-1.961.82-3.5,2.563-3.5,1.795,0,2.511,1.608,2.511,3.455m-3.5.042c0,1.546.374,2.283.975,2.283s.944-.768.944-2.3c0-1.494-.322-2.283-.955-2.283-.571,0-.965.726-.965,2.3" transform="translate(-130.776 -150.054)" fill="#fff"/>
    <path id="Path_82728" data-name="Path 82728" d="M197.024,172.343a1.552,1.552,0,0,1-1.587,1.546,1.51,1.51,0,0,1-1.567-1.515,1.546,1.546,0,0,1,1.587-1.546,1.51,1.51,0,0,1,1.567,1.515m-2.324.031a.75.75,0,1,0,.737-.82.766.766,0,0,0-.737.82" transform="translate(-168.352 -148.342)" fill="#fff"/>
  </g>
</svg>
