<svg xmlns="http://www.w3.org/2000/svg" xmlnsXlink="http://www.w3.org/1999/xlink" width="133.163" height="82.027" viewBox="0 0 133.163 82.027">
  <defs>
    <clipPath id="clip-path">
      <rect id="Rectangle_8629" data-name="Rectangle 8629" width="133.163" height="82.027" fill="#fff"/>
    </clipPath>
  </defs>
  <g id="icon-amenities-bicyclestorage" style="isolation: isolate">
    <g id="Group_13398" data-name="Group 13398" transform="translate(0 0)" clip-path="url(#clip-path)">
      <path id="Path_82746" data-name="Path 82746" d="M107.048,82.027A26.209,26.209,0,0,1,84.215,68.595a25.272,25.272,0,0,1-2.16-20.374A25.717,25.717,0,0,1,94.493,33L92.4,27.621c-.365.4-.7.771-1.025,1.149l-5.885,6.869Q76.168,46.531,66.772,57.361a6.49,6.49,0,0,1-4.08,1.933,86.633,86.633,0,0,1-9.3.055c-1.084-.048-1.3.065-1.538,1.266-2.212,11.492-12.273,20.673-23.4,21.354-12.507.774-23.229-6.312-26.923-17.6C-1.82,54.151.354,44.844,7.825,37.462c7.492-7.4,16.624-9.48,27.157-6.192.457.144.9.327,1.338.513l1.765.712q.98-1.393,1.961-2.752a102.4,102.4,0,0,0,5.7-8.52c.282-.492-.01-1.641-.265-2.655-.086-.316-.165-.636-.234-.953-.268.041-.519.076-.76.11-.963.138-1.758.251-2.535.44a2.99,2.99,0,0,1-2.36-.255,2.705,2.705,0,0,1-1.173-1.816,16.667,16.667,0,0,1-.406-4.1c.076-2.4,2.325-2.394,3.268-2.391q7.456.021,14.911,0c1.08,0,2.958-.024,3.089,2.208.114,2-.764,3.33-2.466,3.753-1.293.32-2.6.564-3.9.808l-.891.169c.186,1.056.746,1.379,2.133,1.379h.093c8.2-.083,16.4-.072,24.608-.062l9.941.01L84.624,6.938l-1.465,0c-1.544,0-3.061-.007-4.578.014-2.126.058-3.574-1.111-3.7-3.147a3.447,3.447,0,0,1,.8-2.607A3.7,3.7,0,0,1,78.36.065c2.886-.11,5.837-.058,8.6,0,2.549.058,3.378,2.222,3.87,3.515q4.613,12.068,9.236,24.123l.468,1.228c.172.447.361.891.564,1.376l.028.065c8.066-1.531,15.293.01,21.461,4.6a25.334,25.334,0,0,1,10.027,15.689c2.611,12.913-4.3,25.169-16.813,29.805a25.154,25.154,0,0,1-8.754,1.565M93,24.408l3.65,9.384-.678.358A24.133,24.133,0,0,0,83.7,48.73a23.58,23.58,0,0,0,2.019,19.032A24.322,24.322,0,0,0,115.2,78.849C126.9,74.511,133.369,63.06,130.926,51a23.627,23.627,0,0,0-9.366-14.653c-6.009-4.475-12.8-5.837-20.776-4.152l-.7.148-.571-1.372c-.213-.506-.406-.963-.581-1.431l-.471-1.225Q93.839,16.252,89.226,4.193c-.626-1.644-1.111-2.384-2.3-2.411-2.858-.062-5.662-.11-8.5,0a2.077,2.077,0,0,0-1.469.561,1.766,1.766,0,0,0-.371,1.348c.052.8.316,1.534,1.885,1.534h.079c1.524-.024,3.058-.017,4.613-.014l2.645.007,5.483,14.371-12.445-.01c-8.2-.01-16.387-.024-24.584.062h-.093c-2.631,0-3.846-1.166-3.942-3.763l-.024-.733,2.384-.461c1.269-.237,2.545-.478,3.808-.791.585-.144,1.249-.5,1.163-1.985-.028-.53-.086-.605-1.156-.588-5.187.007-10.158.01-15.131,0h-.041c-1.476,0-1.486.244-1.5.726a14.887,14.887,0,0,0,.365,3.677,1.1,1.1,0,0,0,.406.726,1.437,1.437,0,0,0,1.039.041c.829-.2,1.675-.323,2.7-.471.478-.065.994-.141,1.565-.234l.867-.138.12.874a15.319,15.319,0,0,0,.354,1.62c.354,1.4.722,2.838.089,3.938a103.811,103.811,0,0,1-5.793,8.665Q40.27,32.373,39.1,34.036l-.389.561-3.058-1.228a12.388,12.388,0,0,0-1.187-.454c-9.886-3.085-18.434-1.142-25.433,5.772C1.96,45.676-.014,54.138,3.164,63.834c3.45,10.532,13.58,17.12,25.182,16.418,10.367-.636,19.748-9.219,21.822-19.964.378-1.974,1.262-2.7,3.278-2.659a84.838,84.838,0,0,0,9.112-.048,4.778,4.778,0,0,0,2.917-1.352Q74.9,45.435,84.187,34.521l5.885-6.873c.4-.464.808-.915,1.276-1.421ZM26.383,76.826A21.264,21.264,0,0,1,7.471,64.852,20.632,20.632,0,0,1,12.627,40.11c6.432-5.741,16.387-6.842,23.16-2.559l.76.482L27.07,51.644c-.189.268-.4.533-.605.8a6.171,6.171,0,0,0-1,1.538c-.189.516-.774,2.088-.478,2.728a3.15,3.15,0,0,0,2.126.884c4.059.1,8.187.079,12.2.076l7.743-.01-.114.956c-.991,8.8-8.224,16.332-17.2,17.921a19.456,19.456,0,0,1-3.361.292m0-40.118a19.2,19.2,0,0,0-12.614,4.685A18.952,18.952,0,0,0,9.022,64.113,19.35,19.35,0,0,0,29.444,74.841,19.476,19.476,0,0,0,45.1,59.376l-5.779.01c-4.014.01-8.159.021-12.245-.076-1.187-.031-3.113-.705-3.65-1.888-.519-1.132-.1-2.611.43-4.042a7.526,7.526,0,0,1,1.262-2.005c.186-.237.371-.475.543-.719l8.431-12.108a16.235,16.235,0,0,0-7.708-1.84M106.838,76.7A20.4,20.4,0,0,1,87.913,64.216c-4.372-10.03-.014-22.4,9.325-26.476l.822-.361,7.172,18.812c.5,1.307,1.328,1.73,2.556,1.262a1.5,1.5,0,0,0,.915-.743,2.509,2.509,0,0,0-.141-1.792l-5.841-15.327c-.22-.574-.423-1.159-.619-1.741l-.519-1.486.76-.31c8.531-3.457,20.04,2.3,24.137,12.087a20.369,20.369,0,0,1,.038,15.634A20.052,20.052,0,0,1,115.64,74.893a22.791,22.791,0,0,1-8.8,1.806m-9.731-37c-7.929,4.062-11.489,14.939-7.616,23.827,4.3,9.855,15.252,14.048,25.485,9.779a18.347,18.347,0,0,0,9.944-10.175,18.7,18.7,0,0,0-.024-14.327c-3.564-8.52-13.649-13.862-21.144-11.434.186.533.368,1.073.574,1.6l5.841,15.331a3.987,3.987,0,0,1,.1,3.113,3.159,3.159,0,0,1-1.875,1.644,3.469,3.469,0,0,1-4.767-2.26ZM56.095,54.1c-1.276,0-2.5-.01-3.732-.062a2.4,2.4,0,0,1-1.854-1.813,25.455,25.455,0,0,0-8.276-14.953l-.543-.506,8.066-11.726,11.41,29.049-3.257.007c-.619,0-1.221,0-1.813,0M43.942,36.519a27.365,27.365,0,0,1,8.266,15.42,1.045,1.045,0,0,0,.358.4c1.644.048,3.412.038,5.335.031l.743,0-9.3-23.693ZM47.152,54H29.778L39.564,39.7l.729.681A20.711,20.711,0,0,1,47,53.006Zm-14.113-1.72H45.126a18.829,18.829,0,0,0-5.283-9.937Zm31.319.1L52.782,23.128H89.3ZM55.314,24.848,64.9,49.081,85.57,24.848Z" transform="translate(0 0.001)" fill="#fff"/>
    </g>
  </g>
</svg>
