<svg xmlns="http://www.w3.org/2000/svg" xmlnsXlink="http://www.w3.org/1999/xlink" width="104.916" height="88.117" viewBox="0 0 104.916 88.117">
  <defs>
    <clipPath id="clip-path">
      <rect id="Rectangle_8630" data-name="Rectangle 8630" width="104.916" height="88.117" fill="#fff"/>
    </clipPath>
  </defs>
  <g id="Group_13400" data-name="Group 13400" clip-path="url(#clip-path)">
    <path id="Path_82747" data-name="Path 82747" d="M12.9,16.948A8.474,8.474,0,1,1,12.885,0H12.9a8.474,8.474,0,0,1,.066,16.947ZM12.888,1.369A7.106,7.106,0,1,0,12.9,15.58h.06A7.106,7.106,0,0,0,12.9,1.369Z" transform="translate(7.649 0)" fill="#fff"/>
    <path id="Path_82748" data-name="Path 82748" d="M36.086,16.951h-.1a8.414,8.414,0,0,1-8.432-8.476,8.465,8.465,0,0,1,2.493-6.03A8.175,8.175,0,0,1,36.108,0a8.417,8.417,0,0,1,8.381,8.531,8.431,8.431,0,0,1-2.539,6.017,8.31,8.31,0,0,1-5.863,2.4m-.03-15.579a7.053,7.053,0,1,0,5.037,2.1,7,7,0,0,0-4.993-2.1Z" transform="translate(47.832 -0.002)" fill="#fff"/>
    <path id="Path_82749" data-name="Path 82749" d="M15.254,75.336a4.578,4.578,0,0,1-1.026-.118,4.285,4.285,0,0,1-3.316-3.789c-.038-.441-.038-.884-.038-1.327l-.008-50.6q-1.276,4.309-2.542,8.619L7.18,32.011a8.009,8.009,0,0,1-.391,1.135A3.569,3.569,0,0,1,2.4,35.179,3.512,3.512,0,0,1,.156,30.791C.84,28.473,1.573,26.172,2.3,23.871l1.25-3.954c.758-2.413,1.519-4.826,2.3-7.231a7.44,7.44,0,0,1,7.483-5.5q7.231-.037,14.468,0a7.419,7.419,0,0,1,7.415,5.447q1.4,4.428,2.788,8.865c.019.055,2,6.178,2.906,9.231a3.166,3.166,0,0,1,.071.323,3.493,3.493,0,0,1-2.3,4.12,3.554,3.554,0,0,1-4.389-2.033,6.994,6.994,0,0,1-.35-1c-1.026-3.475-2.752-9.21-3.732-12.419l-.008,50.3v.222a7.247,7.247,0,0,1-.09,1.447,4.344,4.344,0,0,1-4.7,3.6,4.3,4.3,0,0,1-3.915-4.449q-.012-7.474-.008-14.95l0-10.553L21.495,45a2.2,2.2,0,0,0-.014-.553,2.292,2.292,0,0,0-1.078-.9c-.542-.112-.725.588-.755.731a3.435,3.435,0,0,0-.041.736l0,6.624c0,6.178.005,12.359-.03,18.537a7.074,7.074,0,0,1-.72,3.029,3.974,3.974,0,0,1-3.606,2.129m-4.189-58.91a.812.812,0,0,1,.115.008l.353.06a.685.685,0,0,1,.569.61l.047.432a8.759,8.759,0,0,1,.085,1.064l.008,51.331v.172c0,.4,0,.8.033,1.2a2.918,2.918,0,0,0,2.26,2.577,2.676,2.676,0,0,0,3.1-1.286,5.681,5.681,0,0,0,.575-2.427c.036-6.175.033-12.351.03-18.529l0-6.608a4.558,4.558,0,0,1,.074-1.053,2.039,2.039,0,0,1,2.358-1.77,3.609,3.609,0,0,1,1.912,1.434,2.109,2.109,0,0,1,.279,1.423l-.011.279,0,10.553q0,7.474.008,14.947a2.925,2.925,0,0,0,2.657,3.089,2.96,2.96,0,0,0,3.25-2.5,6.025,6.025,0,0,0,.066-1.179v-.23l.008-51.443a8.5,8.5,0,0,1,.085-1.048l.049-.435a.688.688,0,0,1,.616-.616l.46-.044a.706.706,0,0,1,.7.43c.164.413,3.179,10.408,4.46,14.75a6.765,6.765,0,0,0,.32.949,2.216,2.216,0,0,0,2.7,1.311,2.121,2.121,0,0,0,1.406-2.545l-.011-.044a1.166,1.166,0,0,0-.033-.167c-.9-3.042-2.878-9.147-2.9-9.21q-1.4-4.441-2.791-8.868A6.047,6.047,0,0,0,27.8,8.558q-7.235-.037-14.457,0a6.09,6.09,0,0,0-6.189,4.553c-.777,2.4-1.535,4.807-2.293,7.218L3.606,24.285c-.728,2.293-1.456,4.586-2.14,6.895a2.141,2.141,0,0,0,1.376,2.706,2.216,2.216,0,0,0,2.7-1.311,5.471,5.471,0,0,0,.276-.8l1.19-4.033q1.449-4.929,2.911-9.861a3.559,3.559,0,0,1,.38-.807l.153-.271a.681.681,0,0,1,.607-.372" transform="translate(0 12.448)" fill="#fff"/>
    <path id="Path_82750" data-name="Path 82750" d="M38.435,75.345a4.284,4.284,0,0,1-2.958-1.253,4.547,4.547,0,0,1-1.319-3.508q.021-7.125.011-14.244l0-5.915H27.1a.685.685,0,0,1-.654-.884l.594-1.945c.38-1.239.744-2.435,1.114-3.628l1.825-5.847q1.912-6.127,3.8-12.257a16.441,16.441,0,0,0,.386-5.612l-.025-.6c-.142.482-.315,1.056-.5,1.688-.761,2.553-1.795,6.028-2.443,8.186l-.131.482q-.156.558-.3,1.125c-.019.057-.279.791-.4,1.168a5.009,5.009,0,0,1-1.4,2.2,3.369,3.369,0,0,1-4.14.068,3.588,3.588,0,0,1-1.218-4.32l1.453-4.588c1.223-4.282,3.973-12.6,4.159-13.16a.829.829,0,0,1,.044-.115,7.361,7.361,0,0,1,7.346-5.2q7.231-.033,14.468,0a7.442,7.442,0,0,1,7.42,5.434q2.844,8.873,5.617,17.768h0A3.589,3.589,0,0,1,62.9,34.707a3.365,3.365,0,0,1-4.14-.068,5.018,5.018,0,0,1-1.4-2.2c-.985-3.2-1.929-6.413-2.873-9.625l-.98-3.324c-.022,2.1-.038,4.255.027,6.37a8.721,8.721,0,0,0,.487,2.178l.1.309q2.167,7.018,4.348,14.025l1.858,5.981c.074.235.137.473.211.747l.115.424a.682.682,0,0,1-.659.865l-1.811.008c-1.456.008-2.865.016-4.271-.027a.9.9,0,0,0-.394.033,3.516,3.516,0,0,0-.025.4c.033,6.222.022,12.444.014,18.665l0,.55a7.872,7.872,0,0,1-.186,2.033,4.327,4.327,0,0,1-8.526-1.053c-.025-2.845-.022-5.691-.016-8.539V50.392h-.088a15.969,15.969,0,0,0-1.672.027,1.116,1.116,0,0,0-.1.345c-.027,2.509-.025,5.015-.022,7.524l.005,5.073c0,2.5.008,5-.019,7.491a4.29,4.29,0,0,1-2.8,4.162,4.36,4.36,0,0,1-1.639.331M28.03,49.057h6.821a.684.684,0,0,1,.684.684l0,6.6q0,7.125-.011,14.249a3.155,3.155,0,0,0,.884,2.506,2.781,2.781,0,0,0,3.149.651A2.922,2.922,0,0,0,41.5,70.839c.027-2.49.022-4.982.019-7.475l-.005-5.073c0-2.514-.005-5.029.022-7.543.005-.449.32-1.568,1.073-1.661a14.51,14.51,0,0,1,2.093-.063l.747.008a.684.684,0,0,1,.684.684V62.453c-.005,2.845-.008,5.686.016,8.528a2.89,2.89,0,0,0,2.49,2.936,2.94,2.94,0,0,0,3.346-2.224,6.871,6.871,0,0,0,.14-1.683l0-.55c.008-6.219.019-12.435-.014-18.654a1.862,1.862,0,0,1,.446-1.4A1.789,1.789,0,0,1,53.943,49c1.393.044,2.783.036,4.224.027l.925,0c-.027-.09-.052-.181-.079-.268l-1.858-5.981q-2.179-7.01-4.348-14.025l-.1-.3a9.711,9.711,0,0,1-.55-2.542c-.068-2.213-.047-4.454-.027-6.624l.011-1.133a3,3,0,0,1,.183-.9c.03-.1.06-.189.085-.282a.687.687,0,0,1,.654-.517l.323-.005a.758.758,0,0,1,.654.432l.145.353a8.512,8.512,0,0,1,.326.867l1.278,4.334c.944,3.207,1.888,6.413,2.867,9.609a3.688,3.688,0,0,0,1.007,1.579,2.021,2.021,0,0,0,2.443-.025,2.267,2.267,0,0,0,.7-2.791Q60.02,21.914,57.2,13.037A6.072,6.072,0,0,0,51.07,8.555q-7.227-.033-14.455,0A6.037,6.037,0,0,0,30.528,12.9l-.008.022c-.025.071-2.917,8.826-4.151,13.128l-1.456,4.608a2.269,2.269,0,0,0,.7,2.794,2.03,2.03,0,0,0,2.443.025,3.657,3.657,0,0,0,1-1.579c.123-.4.4-1.168.4-1.168.082-.326.189-.709.293-1.089l.137-.49c.651-2.175,1.685-5.647,2.443-8.2.558-1.871.969-3.253.982-3.291.1-.224.194-.408.3-.616l.2-.386a.684.684,0,0,1,.564-.375.67.67,0,0,1,.61.29,2.877,2.877,0,0,0,.194.252,1.043,1.043,0,0,1,.3.714c-.027.878.014,1.765.052,2.654a17.761,17.761,0,0,1-.446,6.071c-1.25,4.093-2.528,8.178-3.8,12.266l-1.822,5.847c-.369,1.19-.733,2.383-1.111,3.62Z" transform="translate(40.555 12.448)" fill="#fff"/>
    <path id="Path_82751" data-name="Path 82751" d="M20.3,88.115a.684.684,0,0,1-.684-.684V.685a.684.684,0,0,1,1.368,0V87.431a.684.684,0,0,1-.684.684" transform="translate(34.061 0)" fill="#fff"/>
  </g>
</svg>
