<svg xmlns="http://www.w3.org/2000/svg" xmlnsXlink="http://www.w3.org/1999/xlink" width="115.292" height="89.99" viewBox="0 0 115.292 89.99">
  <defs>
    <clipPath id="clip-path">
      <rect id="Rectangle_8631" data-name="Rectangle 8631" width="115.292" height="89.99" fill="none" stroke="#fff" strokeWidth="1.5"/>
    </clipPath>
  </defs>
  <g id="icon-amenities-courtyard" transform="translate(0 0)" style="isolation: isolate">
    <g id="Group_13402" data-name="Group 13402" transform="translate(0 0)" clip-path="url(#clip-path)">
      <path id="Path_82752" data-name="Path 82752" d="M48.224,24.372a5.857,5.857,0,0,0-2.084,1.521,20.745,20.745,0,0,1,0-2.289,3.456,3.456,0,0,0-.633-2.156,1.638,1.638,0,0,0-2.039-.479,2.542,2.542,0,0,0-.818,2.161q-.155,4.029-.154,8.058A5.758,5.758,0,0,0,39.6,29.229a2.022,2.022,0,0,0-1.081-.072c-1.259.339-.854,2.195-.265,2.927a16.016,16.016,0,0,0,1.714,1.562A8.8,8.8,0,0,1,42.4,38.42a26.211,26.211,0,0,1,.3,5.427q-.112,7.744-.224,15.483l3.49.149c.255-6.518.284-13.047.024-19.565a33.19,33.19,0,0,1,.1-5.93A10.037,10.037,0,0,1,48.4,28.61a14.426,14.426,0,0,0,2.226-2.445c.412-.741.387-1.925-.424-2.178a1.565,1.565,0,0,0-.746,0A5.669,5.669,0,0,0,48.224,24.372Z" transform="translate(53.027 29.234)" fill="none" stroke="#fff" stroke-miterlimit="10" strokeWidth="1.5"/>
      <path id="Path_82753" data-name="Path 82753" d="M73.01,60.457v-6.8c5.731-.443,6.845-.982,6.816-3.786-.026-2.44.212-5.293-.948-7.179-.838-1.365-3.769-1.442-6.053-2.188,0-4.284,0-8.972,0-13.658,0-5.117-1.73-6.814-6.92-6.816H16.094c-7.456,0-8.518,1.066-8.518,8.534,0,4.159,0,8.32,0,12.563-3.042.241-6.691-.794-6.989,3.622a17.1,17.1,0,0,0,.645,7.1C2.26,54.52,5.377,53.145,7.44,53.7V60.6c.2,0,3.791-.14,3.791-.14V53.639h57.9v6.826ZM69.137,41.068H11.23V37.752H69.137Zm.026-7.093H11.192V30.738H69.164Zm.026-7.037H11.209c-.164-3,.176-3.377,2.987-3.377q26.011,0,52.018.01C69.024,23.573,69.356,23.939,69.19,26.938Z" transform="translate(0.703 28.181)" fill="none" stroke="#fff" stroke-miterlimit="10" strokeWidth="1.5"/>
      <path id="Path_82754" data-name="Path 82754" d="M66.632,48.729c-1.018,6.012-4.1,11.18-11.028,13.529,0-3.35-.041-6.448.043-9.545.014-.477.563-.984.948-1.4.9-.965,1.882-1.856,2.775-2.828a5.023,5.023,0,0,0,1.215-5.29,5.35,5.35,0,0,0-4.315-3.637,4.42,4.42,0,0,1-2.046-.929,5.185,5.185,0,0,0-5.846-1.338A5.129,5.129,0,0,0,45,42.462c0,.724,0,1.451,0,2.125-4.084,1.273-6.041,3.586-5.112,6.534a9.533,9.533,0,0,0,2.953,4.207C45.118,57.2,45.311,59.4,44.8,62.19A15.289,15.289,0,0,1,34.458,51.882c-1.61-5.042-.975-10.193-.339-15.283a69.478,69.478,0,0,1,6.568-21.36A22.09,22.09,0,0,1,45.3,8.9a7.057,7.057,0,0,1,10.137.084,20.469,20.469,0,0,1,4.248,5.8,77.664,77.664,0,0,1,6.284,18.641C66.921,38.377,67.463,43.834,66.632,48.729Z" transform="translate(47.047 9.56)" fill="none" stroke="#fff" stroke-miterlimit="10" strokeWidth="1.5"/>
      <path id="Path_82755" data-name="Path 82755" d="M23.139,26.053A10.671,10.671,0,1,1,33.805,15.408,10.624,10.624,0,0,1,23.139,26.053Z" transform="translate(17.68 6.628)" fill="none" stroke="#fff" stroke-miterlimit="10" strokeWidth="1.5"/>
      <path id="Path_82756" data-name="Path 82756" d="M16.875,7.45A6.29,6.29,0,0,1,15.83,8.7,1.323,1.323,0,0,1,14.1,8.54c-1.047-.992-2.075-2.01-3.04-3.081A1.564,1.564,0,0,1,11.233,3.3a1.5,1.5,0,0,1,2.084-.108c1.064.972,2.07,2.012,3.057,3.066A4.4,4.4,0,0,1,16.875,7.45Z" transform="translate(15.059 3.97)" fill="none" stroke="#fff" stroke-miterlimit="10" strokeWidth="1.5"/>
      <path id="Path_82757" data-name="Path 82757" d="M20.667,7.386a6.917,6.917,0,0,1,.724-1.331c.842-.917,1.733-1.793,2.626-2.662a1.6,1.6,0,0,1,2.349-.1,1.636,1.636,0,0,1,.019,2.361c-.893.948-1.817,1.868-2.756,2.773a1.369,1.369,0,0,1-1.783.3A7.018,7.018,0,0,1,20.667,7.386Z" transform="translate(29.074 3.98)" fill="none" stroke="#fff" stroke-miterlimit="10" strokeWidth="1.5"/>
      <path id="Path_82758" data-name="Path 82758" d="M10.62,17.441a8.724,8.724,0,0,1,.821-1.36c.8-.876,1.656-1.709,2.505-2.539a1.637,1.637,0,0,1,2.414-.128,1.669,1.669,0,0,1-.072,2.424q-1.325,1.379-2.7,2.708a1.379,1.379,0,0,1-1.788.272A7,7,0,0,1,10.62,17.441Z" transform="translate(14.94 18.205)" fill="none" stroke="#fff" stroke-miterlimit="10" strokeWidth="1.5"/>
      <path id="Path_82759" data-name="Path 82759" d="M20.691,14.438a6.14,6.14,0,0,1,1.035-1.259,1.324,1.324,0,0,1,1.73.149c1.049.987,2.077,2.007,3.042,3.076a1.574,1.574,0,0,1-.154,2.159,1.541,1.541,0,0,1-2.156.077c-1.035-.963-2.019-1.983-2.984-3.018A4.61,4.61,0,0,1,20.691,14.438Z" transform="translate(29.108 18.18)" fill="none" stroke="#fff" stroke-miterlimit="10" strokeWidth="1.5"/>
      <path id="Path_82760" data-name="Path 82760" d="M16.317,18.385c0-.681-.029-1.362,0-2.041a1.607,1.607,0,0,1,1.605-1.55,1.591,1.591,0,0,1,1.608,1.543c.036,1.389.039,2.78,0,4.169a1.606,1.606,0,0,1-3.206,0C16.286,19.8,16.32,19.093,16.317,18.385Z" transform="translate(22.937 20.811)" fill="none" stroke="#fff" stroke-miterlimit="10" strokeWidth="1.5"/>
      <path id="Path_82761" data-name="Path 82761" d="M16.313,4.137c0-.681-.022-1.362,0-2.041a1.609,1.609,0,0,1,3.218-.022q.051,2.043,0,4.084a1.608,1.608,0,0,1-3.213.019c-.036-.679-.007-1.36-.007-2.041Z" transform="translate(22.937 0.702)" fill="none" stroke="#fff" stroke-miterlimit="10" strokeWidth="1.5"/>
      <path id="Path_82762" data-name="Path 82762" d="M11.944,11.739c-.65,0-1.3.022-1.949,0a1.61,1.61,0,0,1-1.6-1.634A1.566,1.566,0,0,1,9.925,8.494c1.381-.041,2.768-.041,4.152.007a1.5,1.5,0,0,1,1.451,1.569,1.559,1.559,0,0,1-1.466,1.653c-.7.046-1.413.01-2.118.01Z" transform="translate(11.809 11.907)" fill="none" stroke="#fff" stroke-miterlimit="10" strokeWidth="1.5"/>
      <path id="Path_82763" data-name="Path 82763" d="M26.089,11.743c-.621,0-1.244.019-1.865,0A1.565,1.565,0,0,1,22.6,10.149a1.535,1.535,0,0,1,1.545-1.656c1.326-.041,2.657-.039,3.983,0a1.584,1.584,0,0,1,1.608,1.62,1.625,1.625,0,0,1-1.615,1.627C27.446,11.764,26.767,11.743,26.089,11.743Z" transform="translate(31.794 11.905)" fill="none" stroke="#fff" stroke-miterlimit="10" strokeWidth="1.5"/>
    </g>
  </g>
</svg>
