<svg xmlns="http://www.w3.org/2000/svg" xmlnsXlink="http://www.w3.org/1999/xlink" width="100.923" height="48.146" viewBox="0 0 100.923 48.146">
  <defs>
    <clipPath id="clip-path">
      <rect id="Rectangle_8556" data-name="Rectangle 8556" width="100.923" height="48.145" fill="#fff" stroke="#b2acaa" strokeWidth="0.25"/>
    </clipPath>
  </defs>
  <g id="icon-amenities-fitnesscentre" transform="translate(0 0.001)" style="isolation: isolate">
    <g id="Group_13143" data-name="Group 13143" transform="translate(0 -0.001)" clip-path="url(#clip-path)">
      <path id="Path_82464" data-name="Path 82464" d="M68.811,48.145H68.75c-.944-.016-1.891-.011-2.838-.007-.895,0-1.792.009-2.683,0C60.5,48.1,59.1,46.366,59.067,43c-.02-2.136-.016-4.275-.009-6.413l0-3.991H18.669l0,1.345c0,1.52,0,3.033,0,4.544v1.439c.007,1.315.013,2.674-.065,4.012-.137,2.345-1.489,4.007-3.366,4.135-1.237.083-2.447.065-3.721.045-.549-.007-1.106-.016-1.668-.016H9.285V.071h.562c.576,0,1.147-.011,1.709-.025a32.207,32.207,0,0,1,3.892.067c1.941.191,3.173,2.037,3.209,4.819.027,2.179.025,4.36.018,6.539l-.007,4.115H59.02c.018-.349.038-.695.038-1.041,0-1.127,0-2.258,0-3.386-.007-2.037-.013-4.075.011-6.11.052-4.106,2.269-5,4.122-5.035C64.158,0,65.121,0,66.085.006c.875,0,1.752.009,2.626,0A1.806,1.806,0,0,1,70.09.444a2.329,2.329,0,0,1,.519,1.761c-.034,13.991-.034,28.69,0,43.691a2.517,2.517,0,0,1-.528,1.815,1.728,1.728,0,0,1-1.27.434m-1.531-1.136c.495,0,.992,0,1.491.011a.721.721,0,0,0,.524-.11c.088-.088.193-.335.191-1.012-.034-15-.034-29.7,0-43.7,0-.668-.117-.886-.189-.956s-.25-.121-.569-.117c-.884.011-1.765.009-2.649,0-.958-.007-1.916-.009-2.869.009-1.27.02-2.973.45-3.015,3.924-.025,2.031-.018,4.061-.011,6.094,0,1.131,0,2.262,0,3.391,0,.369-.022.738-.038,1.111l-.052,1.052H17.544l.007-5.242c.007-2.174.009-4.349-.018-6.523-.027-2.192-.848-3.58-2.2-3.712a31.415,31.415,0,0,0-3.753-.063c-.387.009-.778.018-1.174.022V46.978c.378,0,.749.009,1.122.016,1.259.016,2.444.036,3.629-.045,1.306-.088,2.217-1.3,2.321-3.078.076-1.3.07-2.644.063-3.942V38.482c.007-1.511,0-3.022,0-4.54l0-2.471H60.185l0,5.12c-.007,2.132-.011,4.266.009,6.4.034,3.526,1.651,4,3.056,4.021.888.016,1.772.011,2.658,0,.456,0,.913,0,1.374,0" transform="translate(11.594 0.001)" fill="#fff" stroke="#b2acaa" strokeWidth="0.25"/>
      <path id="Path_82465" data-name="Path 82465" d="M13.521,39.776a23.573,23.573,0,0,1-2.579-.121c-1.52-.166-2.451-2.111-2.557-3.859-.02-.326-.029-.652-.04-1.021l0-.063-.962,0c-1.127,0-2.235.007-3.337-.007C1.516,34.676.054,32.915.032,29.877c-.043-5.772-.043-11.65,0-17.474C.054,9.365,1.518,7.6,4.046,7.575c.96-.013,1.923-.016,2.883-.018l1.522,0,.09-.4c.13-.6.265-1.208.443-1.8.652-2.152,1.639-2.993,3.521-3,1.394,0,2.8,0,4.2.018a1.224,1.224,0,0,1,.434.094l.555.171V39.722h-.562c-.6,0-1.192.013-1.79.027s-1.21.027-1.821.027M8.887,33.588h.542l.04,1.156c.009.355.02.67.038.985.085,1.417.814,2.728,1.556,2.809a31.613,31.613,0,0,0,4.254.088c.416-.009.834-.02,1.252-.025V3.514c-1.394-.038-2.721-.047-4.061-.04-1.208,0-1.882.337-2.449,2.2-.171.562-.3,1.147-.423,1.713L9.391,8.479l-.317.092a1.466,1.466,0,0,1-.465.106l-1.677,0c-.956,0-1.914,0-2.869.018-2.379.027-2.894,2.035-2.905,3.712-.043,5.817-.043,11.691,0,17.456.018,2.442.994,3.69,2.9,3.715,1.1.013,2.2.011,3.319.007Z" transform="translate(0 2.933)" fill="#fff" stroke="#b2acaa" strokeWidth="0.25"/>
      <path id="Path_82466" data-name="Path 82466" d="M40.921,39.971a18.708,18.708,0,0,1-2.514-.238l-.486-.067V2.637l.486-.067c4.7-.659,5.478-.142,6.577,5.01l1.073,0c1.149,0,2.312-.007,3.472,0,2.478.027,3.976,1.779,4,4.688.056,6.031.056,12.01,0,17.775-.027,2.894-1.527,4.641-4.009,4.67-1.111.013-2.219.009-3.323.007l-.908,0c-.146,2.186-.675,3.6-1.65,4.416a4.042,4.042,0,0,1-2.716.834m-1.875-1.286c1.556.211,2.991.328,3.868-.409.783-.657,1.2-2.01,1.277-4.137l.02-.542,1.988,0c1.1,0,2.2.007,3.308-.007,2.368-.027,2.885-1.95,2.9-3.557.058-5.759.058-11.731,0-17.753-.011-1.324-.4-3.548-2.889-3.575-1.154-.011-2.314-.009-3.456,0l-1.992,0-.092-.447c-1.028-4.965-1.3-5.138-4.931-4.641Z" transform="translate(47.349 2.924)" fill="#fff" stroke="#b2acaa" strokeWidth="0.25"/>
    </g>
  </g>
</svg>
