<svg xmlns="http://www.w3.org/2000/svg" xmlnsXlink="http://www.w3.org/1999/xlink" width="86.203" height="86.155" viewBox="0 0 86.203 86.155">
  <defs>
    <clipPath id="clip-path">
      <rect id="Rectangle_8633" data-name="Rectangle 8633" width="86.203" height="86.155" fill="#fff"/>
    </clipPath>
  </defs>
  <g id="icon-amenities-gameslounge" transform="translate(0 0)" style="isolation: isolate">
    <g id="Group_13406" data-name="Group 13406" transform="translate(0 0)" clip-path="url(#clip-path)">
      <path id="Path_82770" data-name="Path 82770" d="M33.328,103.417l-28.379-.006c-.208,0-.419,0-.622-.016A4.7,4.7,0,0,1,.01,99.03c-.089-1.469.326-4,3.926-5.02a22.8,22.8,0,0,1,3.022-8.134,4.721,4.721,0,0,1-2.042-5.1,4.868,4.868,0,0,1,4.309-3.629,1.043,1.043,0,0,0,.5-.361,21.5,21.5,0,0,0,3.515-9.968c.054-.4.032-.479-.365-.733a11.431,11.431,0,0,1,5.467-21,11.461,11.461,0,0,1,6.833,21.167.971.971,0,0,0-.193.175,21.706,21.706,0,0,0,3.472,10.346.774.774,0,0,0,.712.442,4.612,4.612,0,0,1,4.158,3.6,4.723,4.723,0,0,1-1.981,5.025l-.035.023c.1.209.207.415.311.621a32.542,32.542,0,0,1,1.48,3.193,31.914,31.914,0,0,1,1.015,3.361q.124.475.258.962a4.622,4.622,0,0,1,3.01,1.968,4.522,4.522,0,0,1,.315,4.888,4.641,4.641,0,0,1-4.366,2.562ZM18.464,46.908a9.6,9.6,0,0,0-4.6,17.635,2.317,2.317,0,0,1,1.194,2.508,23.6,23.6,0,0,1-3.83,10.784,2.774,2.774,0,0,1-1.762,1.128A3.052,3.052,0,0,0,6.7,81.2,2.915,2.915,0,0,0,8.22,84.51l1.252.721-.483.8a20.911,20.911,0,0,0-3.307,8.812l-.072.663-.651.138c-2.939.621-3.186,2.167-3.121,3.272a2.9,2.9,0,0,0,2.628,2.654c.161.013.326.009.483.011l28.379,0h.007A2.8,2.8,0,0,0,36.077,100,2.718,2.718,0,0,0,35.87,97a2.907,2.907,0,0,0-2.292-1.262l-.633-.052-.171-.609c-.154-.531-.289-1.053-.426-1.568a31.732,31.732,0,0,0-.954-3.175,31.434,31.434,0,0,0-1.4-3.016c-.233-.46-.469-.92-.7-1.392l-.357-.748.9-.55c.151-.091.322-.193.479-.3a2.906,2.906,0,0,0,1.226-3.086,2.793,2.793,0,0,0-2.5-2.2,2.562,2.562,0,0,1-2.106-1.244,23.6,23.6,0,0,1-3.8-11.4A2.08,2.08,0,0,1,24.2,64.7a9.628,9.628,0,0,0-5.106-17.813c-.207,0-.418.006-.629.02" transform="translate(0 -17.262)" fill="#fff"/>
      <path id="Path_82771" data-name="Path 82771" d="M86.232,110.583l-7.413-7.417q-4.328-4.326-8.649-8.657a5.542,5.542,0,0,1,.043-8.34l11.42-11.426c1.591-1.587,3.182-3.175,4.756-4.778A5.409,5.409,0,0,1,90.3,68.391h.043a5.516,5.516,0,0,1,3.811,1.488c.565.552,1.112,1.121,1.659,1.691.461.479.922.96,1.394,1.429l5.345,5.317q4.071,4.041,8.127,8.093a5.47,5.47,0,0,1,.036,7.875q-7.128,7.187-14.313,14.322l-2.149,2.145a5.415,5.415,0,0,1-4.033,1.6.371.371,0,0,0-.064,0,5.522,5.522,0,0,1-3.922-1.77m3.965-.061a3.471,3.471,0,0,0,2.76-1.067l2.153-2.145q7.165-7.144,14.3-14.315a3.633,3.633,0,0,0-.028-5.292q-4.049-4.057-8.12-8.088L95.911,74.3c-.479-.479-.951-.969-1.423-1.459-.533-.556-1.065-1.112-1.616-1.652a3.738,3.738,0,0,0-2.546-.964A3.429,3.429,0,0,0,87.7,71.248c-1.58,1.609-3.179,3.2-4.773,4.791L71.512,87.46a3.755,3.755,0,0,0-.046,5.759q4.318,4.331,8.646,8.653l7.416,7.419a3.484,3.484,0,0,0,2.656,1.231H90.2Zm-2.524-7.406a3.794,3.794,0,0,1,2.653-6.483h.018a3.8,3.8,0,0,1,3.765,3.7,3.757,3.757,0,0,1-3.716,3.867h-.053a3.793,3.793,0,0,1-2.667-1.083m2.692-.748a1.923,1.923,0,0,0,1.913-1.991,1.956,1.956,0,0,0-1.935-1.913h-.01a1.97,1.97,0,0,0-1.391.6,1.942,1.942,0,0,0-.572,1.382,1.912,1.912,0,0,0,.583,1.364,1.959,1.959,0,0,0,1.387.563Zm9.972-8.226A3.805,3.805,0,0,1,96.6,90.268a3.821,3.821,0,0,1,3.793-3.7h0a3.727,3.727,0,0,1,2.667,1.113,3.779,3.779,0,0,1-2.678,6.458Zm.057-5.741a2,2,0,0,0-1.963,1.913,1.976,1.976,0,0,0,1.927,2,1.811,1.811,0,0,0,1.4-.551,1.934,1.934,0,0,0,.576-1.38v0a1.945,1.945,0,0,0-.572-1.4A1.906,1.906,0,0,0,100.4,88.4ZM90.3,94.142h0A3.8,3.8,0,0,1,86.54,90.3,3.818,3.818,0,0,1,90.3,86.571a4.047,4.047,0,0,1,2.692,1.1,3.781,3.781,0,0,1-2.656,6.472Zm.01-5.741a2,2,0,0,0-1.941,1.93,1.966,1.966,0,0,0,1.945,1.981h.014A1.953,1.953,0,0,0,91.7,88.97,1.923,1.923,0,0,0,90.33,88.4ZM77.644,93.086a3.728,3.728,0,0,1-1.159-2.658,3.79,3.79,0,0,1,1.084-2.717,3.743,3.743,0,0,1,2.656-1.139h.043a3.819,3.819,0,0,1,3.786,3.656,3.789,3.789,0,0,1-3.69,3.914l-.1,0a3.77,3.77,0,0,1-2.625-1.057m2.6-4.684a1.937,1.937,0,0,0-1.369.587,1.979,1.979,0,0,0-.561,1.413,1.92,1.92,0,0,0,.593,1.364,1.952,1.952,0,0,0,1.363.545h.05a1.935,1.935,0,0,0,1.373-.619,1.907,1.907,0,0,0,.529-1.395,1.974,1.974,0,0,0-1.956-1.9ZM87.68,83a3.776,3.776,0,0,1,2.542-6.479,3.9,3.9,0,0,1,2.721,1.046,3.749,3.749,0,0,1,1.166,2.66,3.793,3.793,0,0,1-1.076,2.723,3.735,3.735,0,0,1-2.657,1.144h-.039A3.775,3.775,0,0,1,87.68,83m4.6-2.741a1.923,1.923,0,0,0-.6-1.368,1.87,1.87,0,0,0-1.405-.54,1.957,1.957,0,0,0,.065,3.912h.018a1.923,1.923,0,0,0,1.366-.59,1.966,1.966,0,0,0,.558-1.414" transform="translate(-26.167 -26.201)" fill="#fff"/>
      <path id="Path_82772" data-name="Path 82772" d="M89.627,48.826c0-.075.039-2.335.039-2.6q.006-19.622,0-39.243A6.672,6.672,0,0,0,82.708,0H41.053a6.666,6.666,0,0,0-6.908,6.844c-.007,2.683-.007,5.585-.007,8.5,0,3.406,0,6.834-.011,9.965l1.831.007c.014-3.132.01-6.564.01-9.972,0-2.916,0-5.816.007-8.5a4.791,4.791,0,0,1,5.077-5.02H82.708a4.82,4.82,0,0,1,5.128,5.155q.011,19.622,0,39.243c0,.25-.036,2.376-.039,2.518Z" transform="translate(-13.075)" fill="#fff"/>
      <path id="Path_82773" data-name="Path 82773" d="M67.425,63.629q-1.93-2.038-3.851-4.04c-2.885-3.015-5.867-6.132-8.7-9.268a8.345,8.345,0,0,1-2.12-6.075,9.087,9.087,0,0,1,2.982-6.239,8.933,8.933,0,0,1,12.336.378l.021.025a9.261,9.261,0,0,1,6.2-2.685,8.9,8.9,0,0,1,9.068,8.6,9.384,9.384,0,0,1-2.7,6.729L79.55,52.207q-3.121,3.266-6.235,6.54c-1.066,1.123-2.117,2.256-3.2,3.42l-2.02,2.17Zm6.919-26.076a7.385,7.385,0,0,0-5.231,2.465L68.43,41.4l-1.663-1.734a7.1,7.1,0,0,0-9.808-.3,7.215,7.215,0,0,0-2.374,4.974,6.512,6.512,0,0,0,1.648,4.752c2.814,3.116,5.789,6.223,8.664,9.229q1.587,1.663,3.186,3.339l.69-.742c1.087-1.168,2.142-2.307,3.211-3.433q3.11-3.282,6.243-6.546l1.108-1.157a7.559,7.559,0,0,0,2.192-5.417,7.069,7.069,0,0,0-6.983-6.817c-.068,0-.136,0-.2,0" transform="translate(-20.206 -13.684)" fill="#fff"/>
      <path id="Path_82774" data-name="Path 82774" d="M96.338,21.926c-.922-.842-1.941-1.774-2.925-2.748a3.381,3.381,0,0,1-.468-4.283,3.489,3.489,0,0,1,3.9-1.582,5.515,5.515,0,0,1,1.266.583c.054-.039.111-.079.168-.117a3.621,3.621,0,0,1,4.559.52,3.285,3.285,0,0,1,.218,4.566c-1.051,1.076-2.163,2.038-3.243,2.968-.418.361-.826.711-1.212,1.055l-.622.554Zm2.95-6.619a4.321,4.321,0,0,0-.368.286l-.6.479-.522-.266c-.2-.1-.386-.208-.568-.312a4.074,4.074,0,0,0-.862-.416,1.641,1.641,0,0,0-1.859.77,1.57,1.57,0,0,0,.2,2.031c.962.955,1.963,1.867,2.868,2.693l.44.4.611-.529c1.047-.9,2.131-1.838,3.129-2.859a1.513,1.513,0,0,0-.233-2.022,1.767,1.767,0,0,0-1.276-.54,1.742,1.742,0,0,0-.955.283" transform="translate(-35.396 -5.054)" fill="#fff"/>
      <path id="Path_82775" data-name="Path 82775" d="M65.484,121.416h2.5l1.956,0v-1.831l-1.959,0c-2.925,0-6.587,0-8.85-.025l-.022,1.83c1.656.022,4.055.025,6.376.025" transform="translate(-22.645 -45.805)" fill="#fff"/>
    </g>
  </g>
</svg>
