<svg xmlns="http://www.w3.org/2000/svg" xmlnsXlink="http://www.w3.org/1999/xlink" width="97.15" height="93.354" viewBox="0 0 97.15 93.354">
  <defs>
    <clipPath id="clip-path">
      <rect id="Rectangle_8632" data-name="Rectangle 8632" width="97.15" height="93.354" fill="none" stroke="#fff" strokeWidth="2"/>
    </clipPath>
  </defs>
  <g id="icon-amenities-gardenpath" style="isolation: isolate">
    <g id="Group_13404" data-name="Group 13404" transform="translate(0 0)" clip-path="url(#clip-path)">
      <path id="Path_82764" data-name="Path 82764" d="M29.3,37.359c-2.171-1.858-4.26-3.609-6.293-5.42a3.386,3.386,0,0,1-1.145-1.6,2.6,2.6,0,0,1,.372-2c.6-.694,1.475-.5,2.11.212a32.123,32.123,0,0,0,2.336,2.675,19.049,19.049,0,0,0,3.093,2.259c1.475.882,2.935,1.453,4.772.532,1.727-.867,3.642-.383,5.4.289,2.655,1.018,5.319,1.755,8.18.876a1.131,1.131,0,0,1,.876.239c1.775,1.429,3.548,2.859,5.256,4.367a3.094,3.094,0,0,1,.838,1.569c.862,3.892,1.661,7.795,2.48,11.693.241,1.147.035,2.154-1.2,2.543s-1.957-.289-2.441-1.377c-1.035-2.34-2.106-4.665-3.233-7.151-4.058,2.55-7.665.7-11.253-1.1-1.353-.676-2.644-1.482-4.2-2.368-.447,1-.939,1.944-1.3,2.935-.8,2.18-1.467,4.411-2.329,6.564-.449,1.125-1.081,2.48-2.581,2.233-1.548-.256-1.655-1.819-1.609-2.97q.23-6.025.827-12.028A11.854,11.854,0,0,1,29.3,37.359Z" transform="translate(27.615 34.025)" fill="none" stroke="#fff" stroke-miterlimit="10" strokeWidth="2"/>
      <path id="Path_82765" data-name="Path 82765" d="M7.41,8.772a8.329,8.329,0,1,1,16.657.114A8.329,8.329,0,1,1,7.41,8.772Z" transform="translate(12.174 2.276)" fill="none" stroke="#fff" stroke-miterlimit="10" strokeWidth="2"/>
      <path id="Path_82766" data-name="Path 82766" d="M39.629,38.348a3.11,3.11,0,0,0-2.309-2.616,24.85,24.85,0,0,1-10.286-7.9,26.129,26.129,0,0,1-2.913-4.706,75.044,75.044,0,0,0,.609-8.211c-.315-4.078-3.469-6.122-7.37-4.943A8.563,8.563,0,0,0,11.7,15.4,41.524,41.524,0,0,0,9.137,35.56,10.874,10.874,0,0,0,11.162,41.1a3.188,3.188,0,0,1,.46,1.6A32.039,32.039,0,0,1,8.658,59.191,49.963,49.963,0,0,1,1.634,69.875a4.464,4.464,0,0,0,.556,6.479,4.65,4.65,0,0,0,6.433-.468A47.886,47.886,0,0,0,20.259,53.379c.155-.775.328-1.548.56-2.638a22.693,22.693,0,0,1,1.67,10.491c-.263,3.395-.832,6.775-1.394,10.139-.479,2.876.845,5.343,3.36,5.9a4.671,4.671,0,0,0,5.656-3.544c1.545-6.47,2.346-12.993,1.224-19.637-.941-5.555-2.909-10.682-6.961-14.687A5.7,5.7,0,0,1,22.4,34.439a4.536,4.536,0,0,1,.919-1.758,32.607,32.607,0,0,0,5.041,4.662A38.165,38.165,0,0,0,35.68,41.4C37.875,42.382,39.843,40.719,39.629,38.348Z" transform="translate(2.276 11.468)" fill="none" stroke="#fff" stroke-miterlimit="10" strokeWidth="2"/>
      <path id="Path_82767" data-name="Path 82767" d="M42.353,25.69c0,.088.033.195,0,.267-1.486,2.8-.317,5.231,2.881,6,1.105.265,2.215.517,3.307.825A2.017,2.017,0,0,1,50.023,35.2a2.406,2.406,0,0,1-1.893,2.373,3.221,3.221,0,0,1-.989.1A4.991,4.991,0,0,0,42.152,40.3a1.227,1.227,0,0,1-1.988.484c-1.819-1.263-3.618-2.559-5.369-3.918a1.462,1.462,0,0,1-.306-1.237,9.417,9.417,0,0,1,3.242-5.385,2.3,2.3,0,0,0,.576-1.539A3.142,3.142,0,0,1,42.353,25.69Z" transform="translate(43.746 30.307)" fill="none" stroke="#fff" stroke-miterlimit="10" strokeWidth="2"/>
      <path id="Path_82769" data-name="Path 82769" d="M46.446,51.848s23.429,16.847,38.792,20" transform="translate(-5.702 -4.037)" fill="none" stroke="#fff" strokeWidth="2"/>
    </g>
  </g>
</svg>
