<svg xmlns="http://www.w3.org/2000/svg" xmlnsXlink="http://www.w3.org/1999/xlink" width="104.165" height="89.99" viewBox="0 0 104.165 89.99">
  <defs>
    <clipPath id="clip-path">
      <rect id="Rectangle_8626" data-name="Rectangle 8626" width="104.165" height="89.99" fill="#fff"/>
    </clipPath>
  </defs>
  <g id="icon-amenities-undergroundparking" transform="translate(0 0)" style="isolation: isolate">
    <g id="Group_13392" data-name="Group 13392" transform="translate(0 0)" clip-path="url(#clip-path)">
      <path id="Path_82731" data-name="Path 82731" d="M38.618,52l-3.439-.071-9.033-.183a5.367,5.367,0,0,1-4.133-1.727,2.684,2.684,0,0,1-.039-3.821,7.553,7.553,0,0,1,5.716-2.93c1.179-.095,2.355-.212,3.532-.329,1.488-.149,2.974-.295,4.464-.4a74.1,74.1,0,0,1,15.427,1c2.2.329,3.458,1.861,4.554,3.4.4.558.665,1.5-.309,2.789a5.186,5.186,0,0,1-4.321,2.012Zm.265-8.259c-1.052,0-2.1.037-3.108.1-1.483.1-2.991.256-4.45.4-1.157.114-2.353.231-3.532.326A6.236,6.236,0,0,0,23.011,47c-.677.874-.684,1.42-.024,2.155a4.137,4.137,0,0,0,3.186,1.291l12.433.253,12.4-.256a3.914,3.914,0,0,0,3.307-1.493c.606-.8.365-1.135.287-1.245-.969-1.366-1.983-2.613-3.685-2.869a81.412,81.412,0,0,0-12.034-1.091m18.649-1.308a8.974,8.974,0,0,1-2.07-.319l-.173-.041c-.538-.127-1.067-.29-1.644-.47l-.8-.246-.192-1.069c4.929-3.721,10.485-4.442,15.271-4.659l.623.494a8.207,8.207,0,0,1-.044,4.009,2.192,2.192,0,0,1-1.654,1.624,12.894,12.894,0,0,0-1.405.414,3.671,3.671,0,0,1-2.608-.051,5.178,5.178,0,0,0-1.768-.046l-.448.034c-.416.032-.831.09-1.247.151a14.236,14.236,0,0,1-1.758.175Zm-3.154-1.878c.409.124.8.239,1.186.331l.178.041a8.148,8.148,0,0,0,1.79.287H57.6a13.067,13.067,0,0,0,1.6-.163c.446-.066.889-.127,1.335-.158l.429-.037a6.078,6.078,0,0,1,2.253.1,2.511,2.511,0,0,0,1.812.063,15.3,15.3,0,0,1,1.527-.451.987.987,0,0,0,.779-.787,6.524,6.524,0,0,0,.107-2.915c-4.145.219-8.826.891-13.062,3.683M12.456,42.368a1.962,1.962,0,0,1-.409-.039,16.619,16.619,0,0,1-1.712-.458l-.55-.163a1.962,1.962,0,0,1-1.505-1.693,32.06,32.06,0,0,1-.119-3.385c0-.645.913-.952,1.259-.96l.295,0a29.629,29.629,0,0,1,8.58,1.517,17.006,17.006,0,0,1,5.139,2.587c.151.112.3.229.453.356l.188.151-.192,1.057c-.3.1-.6.2-.891.312a10.328,10.328,0,0,1-2.056.6,17.01,17.01,0,0,1-3.2.041,11.475,11.475,0,0,1-1.383-.17,9.607,9.607,0,0,0-1.259-.153,3.083,3.083,0,0,0-.955.144c-.227.054-.455.1-.682.139l-.222.034a4.527,4.527,0,0,1-.779.09M9.375,36.91c0,1.154.034,2.112.117,2.991a.781.781,0,0,0,.633.638l.563.168a16.072,16.072,0,0,0,1.6.429,2.477,2.477,0,0,0,.748-.056l.246-.039c.2-.029.392-.078.587-.122a5.158,5.158,0,0,1,1.181-.178,10.562,10.562,0,0,1,1.51.173,10.191,10.191,0,0,0,1.147.149,15.726,15.726,0,0,0,3.052-.022,8.948,8.948,0,0,0,1.683-.487,15.738,15.738,0,0,0-4.5-2.2,28.43,28.43,0,0,0-8.225-1.464l-.283-.606.012.609a.671.671,0,0,0-.068.022M60.37,29.246,40.1,28.936l-1.556,0-.041-.039-19.031.239c-.443.007-.884.029-1.327.049-.419.022-.838.044-1.259.051l-.161,0a1.453,1.453,0,0,1-1.218-.426,1.347,1.347,0,0,1-.078-1.23A18.938,18.938,0,0,1,16.8,23.919a16.563,16.563,0,0,1,1.634-2.348c.222-.283.441-.563.653-.848a4.406,4.406,0,0,1,3.383-1.447l.321-.034A120.1,120.1,0,0,1,37.281,18.5c.721,0,1.444,0,2.165.01,3.975.032,7.932.214,11.644.392a39.612,39.612,0,0,1,4.8.594,3.962,3.962,0,0,1,1.924.967A14.179,14.179,0,0,1,61.809,27.7a1.243,1.243,0,0,1-.153,1.1,1.55,1.55,0,0,1-1.286.441m-43.8-1.225.153,0v.609l.119-.611c.426-.007.833-.029,1.242-.049.455-.022.913-.044,1.369-.051l19.082-.239.039.039,2.438,0,19.277.3c.163-.007.265,0,.339-.012l-.007-.027a12.99,12.99,0,0,0-3.648-6.634,2.733,2.733,0,0,0-1.3-.653,38.373,38.373,0,0,0-4.649-.575c-3.7-.18-7.643-.36-11.6-.392-.718-.007-1.439-.01-2.155-.01a119.193,119.193,0,0,0-14.348.728l-.331.037a3.4,3.4,0,0,0-2.54.962c-.219.295-.446.585-.675.872a15.651,15.651,0,0,0-1.52,2.175A17.862,17.862,0,0,0,16.6,27.928a.931.931,0,0,0-.027.093" transform="translate(11.71 26.565)" fill="#fff"/>
      <path id="Path_82732" data-name="Path 82732" d="M15.319,41.805H15.28c-1.052-.017-2.1-.015-3.152-.01-.872,0-1.744,0-2.618,0-1.719-.01-2.185-.952-2.377-2.465C7,38.3,6.924,37.261,6.841,36.187l-.217-2.621,1.249.728.27.368c.451,1.715.451,1.712,1.81,1.693,1.593-.027,3.191,0,4.783.029l1.858.032a1.826,1.826,0,0,1,.38.058l.762.163-.061.548c-.029.283-.054.56-.078.838a18.6,18.6,0,0,1-.234,1.914,2.029,2.029,0,0,1-2.046,1.868m-2.065-1.23c.682,0,1.361,0,2.043.012.363.049.726-.095.872-.877a17.8,17.8,0,0,0,.217-1.795c.01-.088.015-.175.024-.263l-1.7-.051c-1.583-.029-3.169-.058-4.742-.029a3.649,3.649,0,0,1-1.822-.263c.054.628.112,1.249.19,1.866.178,1.391.448,1.393,1.179,1.4.872.01,1.739.007,2.606,0,.375,0,.753,0,1.128,0" transform="translate(9.509 48.186)" fill="#fff"/>
      <path id="Path_82733" data-name="Path 82733" d="M35.378,41.51q-1.491,0-2.984-.01a2.136,2.136,0,0,1-2.043-1.914,6.929,6.929,0,0,1-.19-1.184c-.019-.351-.017-.706-.012-1.077l0-.926.436-.129a1.711,1.711,0,0,1,.572-.146l1.746-.034c1.627-.029,3.254-.066,4.878-.032,1.442.015,1.447.027,1.909-1.756l.139-.533,1.293.224-.161,1.934c-.088,1.1-.173,2.19-.317,3.276-.212,1.593-.9,2.28-2.287,2.292q-1.491.015-2.986.015m-4.011-4.17v0c0,.341-.01.662.01.984a5.607,5.607,0,0,0,.158.974c.236.977.587.979.867.982,1.983.015,3.967.019,5.95,0,.626,0,.935-.058,1.091-1.237.09-.672.156-1.349.214-2.031a3.722,3.722,0,0,1-1.895.268c-1.605-.032-3.217,0-4.83.032Z" transform="translate(43.275 48.479)" fill="#fff"/>
      <path id="Path_82734" data-name="Path 82734" d="M22.351,60.347l-.224,0c-1.783-.034-3.575-.095-5.365-.158-1.308-.046-2.611-.093-3.916-.124l-.443,0c-.5,0-1.008.017-1.512.037-.385.012-.772.027-1.159.034a1.964,1.964,0,0,1-2.275-1.654,10.483,10.483,0,0,1-.375-2.331l-.041-.991A109.871,109.871,0,0,1,7.007,42.3l.168-2.109c.012-.17.019-.346.029-.519a7.476,7.476,0,0,1,.19-1.568A3.076,3.076,0,0,1,8.7,36.36c.8-.567,1.578-1.159,2.345-1.771.153-.122.343-.251.546-.387a6.194,6.194,0,0,0,.857-.65c-.246.007-.533.039-.66.054s-.248.029-.317.032a17.32,17.32,0,0,1-3.439-.19,2.1,2.1,0,0,1-1.5-.755,1.717,1.717,0,0,1-.236-.9c-.039-.821-.144-3.005,1.551-3.4.631-.149,1.515-.273,2.3-.382l.869-.124c.1-.015.209-.041.331-.068.689-.144,1.727-.365,2.338.373a2.721,2.721,0,0,1,.426,1.235,2.716,2.716,0,0,0,.29.96c.358-.066.587-.986.711-1.483a7.149,7.149,0,0,1,.207-.726c.509-1.344,1.074-2.776,1.751-4.16a19.6,19.6,0,0,1,2.733-3.848,6.279,6.279,0,0,1,4.274-1.861,131.241,131.241,0,0,1,23.245-.947c3.117.156,6.269.492,9.318.816l2.73.287a6.327,6.327,0,0,1,4.174,2.531,22.917,22.917,0,0,1,3.607,6.958l.4,1.025c.29,1.157.662,1.381.665,1.383.019-.132.129-.716.183-1a2.728,2.728,0,0,1,.424-1.23c.614-.743,1.654-.521,2.341-.375.122.027.234.051.334.066l.852.124c.784.112,1.676.236,2.311.385,1.7.392,1.59,2.577,1.551,3.4a1.715,1.715,0,0,1-.239.906,1.955,1.955,0,0,1-1.364.726,17.235,17.235,0,0,1-3.575.214c-.063,0-.175-.015-.312-.032s-.414-.049-.66-.056a6.162,6.162,0,0,0,.857.653c.2.136.39.263.543.385.77.611,1.549,1.206,2.345,1.773l.275.246a2.672,2.672,0,0,1,1.106,1.909,59.776,59.776,0,0,1,.475,11.613c-.066,1.683-.153,3.363-.241,5.044l-.107,2.075a3.084,3.084,0,0,1-.041.424c-.334,1.963-.962,2.5-2.923,2.5l-1.186-.007c-1.4,0-2.791.037-4.187.068q-1.249.033-2.5.056-2.356.037-4.715.058l-1.751.019a1.228,1.228,0,0,1-.463-.078,6.044,6.044,0,0,0-2.426-.412c-.416,0-.835.019-1.257.041s-.848.039-1.269.039q-4.523.015-9.048.056c-3.271.022-6.539.046-9.81.054-1.284,0-2.448-.039-3.614-.076-.984-.034-1.97-.063-2.957-.073a4.925,4.925,0,0,0-.955.124c-.273.054-.548.1-.823.132l-.628.063a23.117,23.117,0,0,1-2.414.166M55.126,58.6a7.269,7.269,0,0,1,2.884.5l.18.594-.007-.609,1.571-.017q2.353-.022,4.708-.058,1.249-.022,2.494-.056c1.405-.032,2.811-.068,4.216-.068l1.186.007c1.3,0,1.478-.054,1.724-1.5a2.188,2.188,0,0,0,.022-.248l.107-2.1c.09-1.673.178-3.351.241-5.027a58.53,58.53,0,0,0-.46-11.376,1.561,1.561,0,0,0-.662-1.15l-.283-.253c-.753-.529-1.549-1.137-2.333-1.758-.132-.1-.3-.217-.47-.334a3.826,3.826,0,0,1-1.525-1.5.921.921,0,0,1,.09-.95c.392-.516,1.2-.465,2.06-.365.093.01.171.019.214.022a15.616,15.616,0,0,0,3.144-.161l.151-.032c.195-.039.521-.1.585-.2A1.089,1.089,0,0,0,75,31.674c.044-.928.015-2.007-.611-2.153-.585-.136-1.447-.258-2.207-.365l-.872-.127c-.119-.017-.253-.046-.4-.078-.324-.066-1-.217-1.142-.041a3.177,3.177,0,0,0-.17.682c-.139.753-.416,2.146-1.732,1.924-.309-.1-1.05-.47-1.471-2.172l-.38-.957a21.339,21.339,0,0,0-3.4-6.608,5.178,5.178,0,0,0-3.368-2.1l-2.735-.29c-3.032-.321-6.167-.658-9.25-.809a128.781,128.781,0,0,0-23.025.938,5.2,5.2,0,0,0-3.5,1.437,18.58,18.58,0,0,0-2.569,3.6c-.655,1.335-1.206,2.738-1.7,4.055-.058.153-.107.36-.166.587-.229.923-.546,2.185-1.649,2.377-1.322.222-1.588-1.169-1.732-1.926a3.108,3.108,0,0,0-.173-.689c-.134-.158-.811-.019-1.137.054-.144.029-.28.058-.4.078l-.891.129c-.755.1-1.612.224-2.19.358-.626.149-.655,1.23-.611,2.158a1.1,1.1,0,0,0,.039.29c.066.1.395.163.589.2a15.045,15.045,0,0,0,3.286.19c.049,0,.124-.012.217-.022.862-.1,1.668-.149,2.063.368a.928.928,0,0,1,.09.947,3.831,3.831,0,0,1-1.525,1.5c-.175.114-.339.227-.47.331-.784.621-1.581,1.228-2.4,1.807a1.808,1.808,0,0,0-.838,1.062,6.493,6.493,0,0,0-.151,1.313c-.01.185-.017.373-.032.558l-.166,2.1A108.54,108.54,0,0,0,8.256,55.1L8.3,56.1a9.211,9.211,0,0,0,.331,2.056c.185.682.287.76,1,.76.463-.007.843-.019,1.22-.034.519-.02,1.038-.037,1.556-.037l.468,0c1.315.032,2.625.08,3.933.124,1.785.063,3.57.124,5.356.158l.192,0a21.914,21.914,0,0,0,2.287-.161l.641-.063a6.946,6.946,0,0,0,.7-.114,6.263,6.263,0,0,1,1.171-.146c1.023.01,2.019.039,3.013.073,1.154.037,2.306.076,3.458.076,3.383-.007,6.649-.032,9.917-.054q4.526-.037,9.053-.056c.4,0,.811-.022,1.218-.039.438-.019.877-.041,1.313-.041" transform="translate(9.021 24.704)" fill="#fff"/>
      <path id="Path_82735" data-name="Path 82735" d="M25.281,25.565a1.977,1.977,0,0,1-1.873-1.741,8.85,8.85,0,0,1,3.181-8.868c.436-.368.862-.743,1.279-1.13a2.767,2.767,0,0,0,.877-3.022A2.314,2.314,0,0,1,29.689,8l.158-.11,1.257.061a2.562,2.562,0,0,1,1.34,1.79,7.319,7.319,0,0,1-2.93,7.894,5,5,0,0,0-2.367,5.475,2.188,2.188,0,0,1-.321,1.656,1.893,1.893,0,0,1-1.24.774,1.854,1.854,0,0,1-.3.024M30.242,9.108a1.109,1.109,0,0,0-.334,1.347A3.97,3.97,0,0,1,28.7,14.717c-.431.4-.872.789-1.322,1.169a7.606,7.606,0,0,0-2.764,7.721c.088.487.446.8.77.731a.672.672,0,0,0,.451-.27.99.99,0,0,0,.119-.743,6.246,6.246,0,0,1,2.881-6.7,6.1,6.1,0,0,0,2.436-6.578,1.429,1.429,0,0,0-.58-.943Z" transform="translate(33.339 11.327)" fill="#fff"/>
      <path id="Path_82736" data-name="Path 82736" d="M20.786,25.565a1.76,1.76,0,0,1-1.016-.324,2.231,2.231,0,0,1-.879-1.481,8.858,8.858,0,0,1,3.3-8.89c.419-.343.818-.709,1.208-1.084a2.7,2.7,0,0,0,.85-2.91A2.377,2.377,0,0,1,25.17,8l.158-.112,1.254.056a2.515,2.515,0,0,1,1.354,1.79,7.335,7.335,0,0,1-2.92,7.9,5.009,5.009,0,0,0-2.38,5.473,2.2,2.2,0,0,1-.319,1.668,1.869,1.869,0,0,1-1.228.765,1.836,1.836,0,0,1-.3.027M25.728,9.108a1.182,1.182,0,0,0-.314,1.42,3.907,3.907,0,0,1-1.171,4.14c-.414.395-.838.782-1.281,1.145a7.616,7.616,0,0,0-2.869,7.74,1.045,1.045,0,0,0,.38.692.544.544,0,0,0,.409.095.644.644,0,0,0,.438-.265,1.006,1.006,0,0,0,.119-.757,6.263,6.263,0,0,1,2.889-6.693,6.108,6.108,0,0,0,2.431-6.583,1.375,1.375,0,0,0-.582-.933Z" transform="translate(26.877 11.327)" fill="#fff"/>
      <path id="Path_82737" data-name="Path 82737" d="M16.3,25.565a1.984,1.984,0,0,1-1.883-1.656A8.968,8.968,0,0,1,17.6,14.946c.353-.285.692-.589,1.03-.894l.153-.139a2.964,2.964,0,0,0,.952-3.208,2.033,2.033,0,0,1,1.086-2.723l.146-.093,1.094.051a2.93,2.93,0,0,1,1.547,2.8,7.246,7.246,0,0,1-3.3,7.044,4.839,4.839,0,0,0-2.192,5.129c.017.114.039.239.054.363a1.957,1.957,0,0,1-1.581,2.26,2,2,0,0,1-.292.024M21.326,9.108c-.6.387-.611.509-.409,1.293A4.168,4.168,0,0,1,19.6,14.817l-.151.136c-.356.321-.709.643-1.081.943a7.747,7.747,0,0,0-2.757,7.769.745.745,0,0,0,.777.672.755.755,0,0,0,.575-.921c-.012-.1-.029-.2-.046-.3a6.041,6.041,0,0,1,2.7-6.33,6.036,6.036,0,0,0,2.781-5.93c-.08-.879-.161-1.447-.718-1.751Z" transform="translate(20.404 11.327)" fill="#fff"/>
      <path id="Path_82738" data-name="Path 82738" d="M103.251,42.8a.908.908,0,0,1-.57-.2L52.084,2.083,1.483,42.6a.913.913,0,0,1-1.14-1.427L51.511.2a.912.912,0,0,1,1.142,0l51.168,40.973a.911.911,0,0,1,.141,1.284.9.9,0,0,1-.711.343" transform="translate(0 0)" fill="#fff"/>
    </g>
  </g>
</svg>
