<svg xmlns="http://www.w3.org/2000/svg" xmlnsXlink="http://www.w3.org/1999/xlink" width="86.959" height="86.014" viewBox="0 0 86.959 86.014">
  <defs>
    <clipPath id="clip-path">
      <rect id="Rectangle_8627" data-name="Rectangle 8627" width="86.959" height="86.014" fill="#fff"/>
    </clipPath>
  </defs>
  <g id="icon-amenities-lobby" transform="translate(0)" style="isolation: isolate">
    <g id="Group_13394" data-name="Group 13394" transform="translate(0 0)" clip-path="url(#clip-path)">
      <path id="Path_82739" data-name="Path 82739" d="M66.483,48.91H13.013v-5.6q0-4.037-.006-8.079C12.989,31.164,10.823,29.01,6.734,29H2.072v-.75c0-.936.027-1.86.06-2.772a33.592,33.592,0,0,0-.117-5.6C1.076,12.921,5.444,9.282,9.347,6.888A44.034,44.034,0,0,1,25.49,1.251C38.636-.918,50.535-.27,61.866,3.225a31.831,31.831,0,0,1,10.4,5.187,23.1,23.1,0,0,1,2.628,2.421,8.425,8.425,0,0,1,2.58,6.669c-.147,2.076-.114,4.215-.081,6.282.018.927.033,1.848.033,2.772V29H72.75c-4.041.009-6.261,2.217-6.267,6.225Zm-51.97-1.5h50.47V35.223c.006-4.83,2.9-7.716,7.767-7.725h3.171v-.942c0-.915-.015-1.83-.033-2.745-.033-2.1-.072-4.275.081-6.417a6.925,6.925,0,0,0-2.175-5.538,21.419,21.419,0,0,0-2.457-2.262,30.283,30.283,0,0,0-9.915-4.935C50.319,1.233,38.646.6,25.733,2.73a42.673,42.673,0,0,0-15.6,5.436c-5.3,3.246-7.284,6.687-6.633,11.505a34.815,34.815,0,0,1,.129,5.856c-.021.648-.042,1.308-.054,1.971H6.737c4.917.015,7.749,2.832,7.77,7.725q.014,4.041.006,8.088Z" transform="translate(3.772 0.001)" fill="#fff"/>
      <path id="Path_82740" data-name="Path 82740" d="M6.264,58.837q-1.188,0-2.376-.009A3.611,3.611,0,0,1,.012,54.973q-.023-20.331,0-40.663a3.676,3.676,0,0,1,3.87-3.891c2.265-.039,4.539-.024,6.816,0,2.691.027,4.113,1.467,4.113,4.17l0,29.409H72.172V14.919a4.566,4.566,0,0,1,1.086-3.444,4.708,4.708,0,0,1,3.471-1.062h.006l1.893,0c1.419-.006,2.844-.012,4.269.006,2.616.03,4.056,1.476,4.056,4.074q.013,20.012,0,40.024c0,3.027-1.284,4.32-4.3,4.32l-74.752,0H6.264M6.888,11.9c-1,0-1.989.006-2.982.024A2.179,2.179,0,0,0,1.512,14.31q-.023,20.331,0,40.663A2.146,2.146,0,0,0,3.9,57.328c1.338.012,2.67.012,4,.009l1.638,0H82.657c2.172,0,2.8-.633,2.8-2.82q0-20.012,0-40.024c0-1.782-.768-2.553-2.568-2.574-1.419-.012-2.835-.006-4.254-.006l-1.9,0h-.006a3.4,3.4,0,0,0-2.418.63,3.258,3.258,0,0,0-.639,2.376V45.5H13.314l0-30.909c0-1.854-.786-2.652-2.628-2.67q-1.9-.018-3.8-.021" transform="translate(0.001 20.791)" fill="#fff"/>
      <path id="Path_82741" data-name="Path 82741" d="M58.968,29.344H5.624V16.987H58.968Zm-51.844-1.5H57.468V18.487H7.124Z" transform="translate(11.248 33.975)" fill="#fff"/>
      <path id="Path_82742" data-name="Path 82742" d="M29.043,33.084c-.2,0-.411,0-.615,0l-.675,0-.591,0c-.447,0-.9,0-1.347-.006A3.14,3.14,0,0,1,22.593,29.7a3.131,3.131,0,0,1,3.228-3.216c1.329-.021,2.661-.03,3.99,0a3.031,3.031,0,0,1,3.072,3.21,3.083,3.083,0,0,1-3.06,3.381c-.258.006-.519.009-.78.009m-1.29-1.506.687,0c.444.006.891.009,1.332-.006a1.6,1.6,0,0,0,1.611-1.851,1.571,1.571,0,0,0-1.608-1.74c-1.308-.033-2.619-.024-3.933,0a1.633,1.633,0,0,0-1.749,1.752,1.65,1.65,0,0,0,1.761,1.842c.432.012.864.009,1.3.006Z" transform="translate(45.184 52.925)" fill="#fff"/>
      <path id="Path_82743" data-name="Path 82743" d="M7.818,33.086c-.567,0-1.134,0-1.7-.015A3.06,3.06,0,0,1,2.976,29.78,3.055,3.055,0,0,1,6.1,26.471c.477-.009.957-.009,1.431-.006l1.383,0c.348,0,.7,0,1.05,0a3.089,3.089,0,0,1,3.282,3.291,3.091,3.091,0,0,1-3.267,3.309c-.72.009-1.437.015-2.157.015m-.936-5.124c-.249,0-.5,0-.747.009a1.583,1.583,0,0,0-1.659,1.8,1.582,1.582,0,0,0,1.668,1.8c1.272.024,2.544.015,3.813,0a1.594,1.594,0,0,0,1.785-1.8,1.617,1.617,0,0,0-1.8-1.8c-.39-.006-.786-.006-1.179,0H7.41v-.006c-.174,0-.351,0-.528,0" transform="translate(5.952 52.929)" fill="#fff"/>
    </g>
  </g>
</svg>
