<svg xmlns="http://www.w3.org/2000/svg" xmlnsXlink="http://www.w3.org/1999/xlink" width="89.99" height="89.99" viewBox="0 0 89.99 89.99">
  <defs>
    <clipPath id="clip-path">
      <rect id="Rectangle_8628" data-name="Rectangle 8628" width="89.99" height="89.99" fill="#fff"/>
    </clipPath>
  </defs>
  <g id="icon-amenities-storagelockers" style="isolation: isolate">
    <g id="Group_13396" data-name="Group 13396" transform="translate(0 0)" clip-path="url(#clip-path)">
      <path id="Path_82744" data-name="Path 82744" d="M56.577,89.99H19.754c-2.665,0-3.521-.858-3.521-3.532V3.532C16.233.892,17.122,0,19.762,0H56.588C59.242,0,60.1.861,60.1,3.541V86.467c0,2.668-.858,3.523-3.521,3.523M19.762,1.421c-1.853,0-2.108.259-2.108,2.111V86.458c0,1.873.236,2.111,2.1,2.111H56.577c1.884,0,2.1-.216,2.1-2.1V3.541c0-1.881-.236-2.12-2.089-2.12ZM38.408,83.2q-4.458,0-8.914-.009c-2.268-.006-2.822-1.259-2.89-2.307a2.152,2.152,0,0,1,.54-1.665,3.142,3.142,0,0,1,2.367-.81q3.086-.017,6.169-.006l4.842,0c2.131,0,4.262.006,6.391-.009h.045c1.753,0,2.722.756,2.876,2.248a2.071,2.071,0,0,1-.52,1.642,3.2,3.2,0,0,1-2.415.9q-4.245.013-8.49.011M33.143,79.82q-1.811,0-3.626.009a1.9,1.9,0,0,0-1.333.361.714.714,0,0,0-.162.6c.034.531.17.975,1.475.977q8.7.021,17.4,0a1.867,1.867,0,0,0,1.364-.432.67.67,0,0,0,.162-.546c-.057-.537-.261-1.037-1.5-.972-2.137.014-4.268.009-6.4.009l-4.842,0c-.844,0-1.691,0-2.535,0m3.529-3.5q-3.845,0-7.689-.017a2.434,2.434,0,0,1-1.776-.682A2.42,2.42,0,0,1,29.025,71.6c1.611-.04,3.225-.048,4.842-.037l6.723,0,5.717,0a12.29,12.29,0,0,1,1.336.06,2.268,2.268,0,0,1,2.188,2.37,2.2,2.2,0,0,1-2.316,2.3q-5.422.03-10.843.031m-3.734-3.347c-1.293,0-2.586.006-3.879.04-.9.02-1.031.483-1.043.929a.925.925,0,0,0,.207.688,1.09,1.09,0,0,0,.767.253q9.249.043,18.518-.014a.811.811,0,0,0,.9-.9c0-.392-.1-.855-.923-.946a10.957,10.957,0,0,0-1.185-.051l-10.519,0-1.918,0c-.31,0-.619,0-.926,0M30.466,51.116H21.9V38.823h8.564Zm-7.144-1.421h5.723V40.244H23.323Zm6.027-31.254a2.161,2.161,0,0,1-1.242-.3c-.236-.162-1.424-1.034-1.435-2.071-.009-1.054,1.154-1.946,1.387-2.114a2.561,2.561,0,0,1,1.631-.315l.287.006c4.208-.006,8.419,0,12.63-.006l4.359,0c2.458.02,2.847,1.492,2.859,2.367a2.243,2.243,0,0,1-.605,1.671A3.024,3.024,0,0,1,47,18.424c-2.131.006-4.265,0-6.388.006l-2.455,0-.58,0c-2.52,0-5.044.006-7.564-.006l-.307.009c-.114,0-.233.009-.358.009m-.006-3.39a1.211,1.211,0,0,0-.455.051,2.073,2.073,0,0,0-.8.946,2.081,2.081,0,0,0,.821.918,2.262,2.262,0,0,0,.744.045L30.017,17c2.52.011,5.041.009,7.558.006l.583,0,2.455,0c2.128,0,4.257,0,6.385-.006a1.741,1.741,0,0,0,1.208-.324.817.817,0,0,0,.2-.654c-.006-.381-.011-.952-1.449-.966l-4.347,0q-6.317,0-12.63.006l-.332-.006c-.082,0-.19-.006-.3-.006m14.02-3.464H40.758l-6.953,0H29.452c-1.875,0-2.833-.787-2.844-2.339a2.306,2.306,0,0,1,.619-1.708A2.965,2.965,0,0,1,29.406,6.8q8.776-.021,17.555-.006c2.336,0,2.8,1.472,2.87,2.347a2.065,2.065,0,0,1-.514,1.608,3.064,3.064,0,0,1-2.307.827c-1.213.009-2.432.009-3.646.009m-5.206-1.424,2.6,0c2.08,0,4.16.006,6.24-.009a1.791,1.791,0,0,0,1.267-.367.626.626,0,0,0,.148-.534c-.043-.523-.19-1.037-1.458-1.04q-8.772-.009-17.549.006a1.71,1.71,0,0,0-1.171.313.882.882,0,0,0-.21.7c.006.548.111.932,1.424.932Z" transform="translate(29.893 0)" fill="#fff"/>
      <path id="Path_82745" data-name="Path 82745" d="M40.335,89.99H3.509C.855,89.99,0,89.135,0,86.461V3.677C0,.824.818,0,3.651,0H40.335c2.64,0,3.529.9,3.529,3.538V86.461c0,2.64-.889,3.529-3.529,3.529M3.651,1.421c-2.043,0-2.231.19-2.231,2.256V86.461c0,1.892.216,2.108,2.088,2.108H40.335c1.873,0,2.108-.236,2.108-2.108V3.538c0-1.858-.256-2.114-2.108-2.117ZM21.908,83.2q-4.356,0-8.706-.011a3.21,3.21,0,0,1-2.424-.906,2.069,2.069,0,0,1-.52-1.634c.153-1.495,1.12-2.25,2.876-2.25h.045c2.069.014,4.14.011,6.212.009l2.489,0,2.788,0q2.962,0,5.916-.009A2.515,2.515,0,0,1,33.5,80.63a2.171,2.171,0,0,1-.531,1.711,3.1,3.1,0,0,1-2.356.847q-4.352.017-8.709.014m-8.78-3.381c-1.253,0-1.4.44-1.458.975a.667.667,0,0,0,.162.537,1.89,1.89,0,0,0,1.372.438q8.708.026,17.41,0a1.8,1.8,0,0,0,1.31-.384.769.769,0,0,0,.165-.625c-.057-.634-.29-.938-1.466-.938h-.034c-1.972.009-3.95.006-5.922.009l-2.788,0-2.486,0c-2.08,0-4.151.006-6.226-.009Zm-.08-3.441a1.752,1.752,0,0,1-1.037-.27c-.833-.6-1.682-1.327-1.665-2.182A2.7,2.7,0,0,1,12.429,71.7c5.464-.091,11.315-.1,18.967-.037a2.054,2.054,0,0,1,1.529.637,2.456,2.456,0,0,1,.577,1.87,2.231,2.231,0,0,1-2.412,2.148c-1.659.04-3.319.037-4.981.037h-6.2c-2.04.006-4.072,0-6.115,0a1.875,1.875,0,0,0-.327.014c-.134.006-.273.014-.418.014m-1.282-2.41c.009,0,.117.3,1.071.983a2.97,2.97,0,0,0,.543-.009,1.5,1.5,0,0,1,.418-.014q3.052.009,6.109,0h6.2c1.662,0,3.3,0,4.947-.037.977-.026,1.014-.563,1.029-.821a1.087,1.087,0,0,0-.2-.807.65.65,0,0,0-.5-.185c-7.644-.063-13.48-.051-18.933.037A1.9,1.9,0,0,0,11.767,73.97Zm4.279-22.8H7.456v-12.3h8.59ZM8.877,49.749h5.748V40.3H8.877Zm21.3-31.291c-.219,0-.435-.006-.648-.014s-.44,0-.619-.014c-1.691.009-3.384.006-5.075.006l-4.473,0q-2.886.009-5.768-.006l-.273,0a2.668,2.668,0,0,1-1.625-.31c-.529-.358-1.409-1.2-1.364-2.06a3.1,3.1,0,0,1,1.389-2.108,2.859,2.859,0,0,1,1.716-.315l.324.009q8.145-.021,16.3,0a8.741,8.741,0,0,1,1.517.105,2.386,2.386,0,0,1,1.645,1.006,1.878,1.878,0,0,1,.216,1.537,3.135,3.135,0,0,1-1.79,1.955,4.274,4.274,0,0,1-1.469.213m-1.233-1.449c.21,0,.421.006.636.014a4.6,4.6,0,0,0,1.588-.114,1.775,1.775,0,0,0,.9-.986.472.472,0,0,0-.04-.406,1.041,1.041,0,0,0-.7-.372,7.626,7.626,0,0,0-1.273-.082q-8.145-.009-16.29,0l-.367-.009a2.345,2.345,0,0,0-.875.068,1.851,1.851,0,0,0-.773,1.012,2.124,2.124,0,0,0,.742.807,2.1,2.1,0,0,0,.8.065l.31,0c1.918.009,3.836.006,5.76.006l4.473,0c1.688,0,3.379,0,5.069-.006ZM16.859,11.59c-1.21,0-2.424,0-3.631-.006a3.253,3.253,0,0,1-2.4-.8,2.164,2.164,0,0,1-.583-1.605c.028-1.148.838-2.375,3.032-2.381q8.648-.017,17.285,0a3.176,3.176,0,0,1,2.327.779,2.288,2.288,0,0,1,.628,1.668c0,1.06-.529,2.324-3,2.336q-3,.009-6,0H19.4q-1.274,0-2.543,0m5.268-3.379q-4.424,0-8.846.009c-1.054,0-1.6.338-1.614.995a.733.733,0,0,0,.182.583,2.04,2.04,0,0,0,1.384.367q3.082.013,6.166,0h5.115c1.995,0,4,0,6,0,1.586-.006,1.588-.534,1.588-.921a.879.879,0,0,0-.216-.662,1.9,1.9,0,0,0-1.321-.358q-4.215-.013-8.434-.011" transform="translate(0 0)" fill="#fff"/>
    </g>
  </g>
</svg>
