<svg xmlns="http://www.w3.org/2000/svg" xmlnsXlink="http://www.w3.org/1999/xlink" width="90.831" height="83.398" viewBox="0 0 90.831 83.398">
  <defs>
    <clipPath id="clip-path">
      <rect id="Rectangle_8557" data-name="Rectangle 8557" width="90.831" height="83.398" fill="#fff"/>
    </clipPath>
  </defs>
  <g id="icon-amenities-saltwaterpool" style="isolation: isolate">
    <g id="Group_13145" data-name="Group 13145" clip-path="url(#clip-path)">
      <path id="Path_82467" data-name="Path 82467" d="M54.377,67.741a13.807,13.807,0,0,1-6.4-1.543A21.523,21.523,0,0,1,44.3,63.545c-.3-.253-.606-.51-.915-.758a16.577,16.577,0,0,1-1.377-1.3c-.336-.342-.669-.683-1.028-1a6.522,6.522,0,0,0-8.995-.014c-.634.554-1.234,1.143-1.838,1.733-.551.537-1.1,1.077-1.672,1.592a14.453,14.453,0,0,1-19.786,0c-.656-.587-1.284-1.2-1.909-1.821-.4-.391-.793-.785-1.2-1.168A6.905,6.905,0,0,0,2.039,58.85,2.306,2.306,0,0,1,.011,56.4c0-.391,0-.785-.006-1.179-.006-.714-.014-1.43.017-2.146a2.187,2.187,0,0,1,.7-1.656,2.28,2.28,0,0,1,1.81-.441,14.075,14.075,0,0,1,8.025,3.747c.523.482,1.036.981,1.546,1.479.617.6,1.234,1.2,1.873,1.774a6.556,6.556,0,0,0,9.163.063c1.259-1.1,2.422-2.254,3.7-3.54a.857.857,0,0,0,.138-.482q.025-20.418,0-40.834a4.051,4.051,0,0,0-3.24-4.072,4.011,4.011,0,0,0-4.65,2.672,2.723,2.723,0,0,1-3.019,1.992,15.416,15.416,0,0,0-1.6-.019c-.336.008-.664.014-1,.008a2.514,2.514,0,0,1-1.945-.675,2.511,2.511,0,0,1-.355-2.03A11.929,11.929,0,0,1,30.632,4.018,12.024,12.024,0,0,1,34.8,13.1c.025,1.3.019,2.6.011,3.931l0,1.182H57.361c.006-.587.017-1.174.028-1.758.033-1.909.066-3.708-.077-5.526-.135-1.719-1.942-2.915-3.612-3.08a3.844,3.844,0,0,0-3.942,2.372,3.253,3.253,0,0,1-3.785,2.413,10.335,10.335,0,0,0-1.24-.019c-.311.006-.612.011-.915,0A2.277,2.277,0,0,1,42,11.881a2.286,2.286,0,0,1-.344-1.906A11.839,11.839,0,0,1,54.6.051a11.974,11.974,0,0,1,10.731,11.97q.025,14.55.011,29.1l0,11.37c.248-.085.5-.176.741-.262a23.63,23.63,0,0,1,3.683-1.1A13.958,13.958,0,0,1,82.31,54.922c.57.534,1.127,1.085,1.686,1.636l.923.909a7.535,7.535,0,0,0,3.967,2.281,2.265,2.265,0,0,1,1.934,2.411l.006,1.083c.008.708.014,1.422-.011,2.132a2.307,2.307,0,0,1-.705,1.769,2.377,2.377,0,0,1-1.923.424,14.091,14.091,0,0,1-8-3.8c-.5-.455-.978-.926-1.46-1.394-.7-.678-1.391-1.355-2.121-1.992a6.488,6.488,0,0,0-8.584-.124c-.92.758-1.8,1.628-2.639,2.471l-.672.664a14.6,14.6,0,0,1-10.334,4.347M2.121,52.335a.783.783,0,0,0-.5.135.949.949,0,0,0-.218.664c-.03.694-.022,1.386-.017,2.08.006.4.008.8.006,1.2a.946.946,0,0,0,.9,1.083,8.206,8.206,0,0,1,4.243,2.314c.413.391.815.788,1.22,1.187.612.6,1.223,1.2,1.86,1.777a12.969,12.969,0,0,0,17.949,0c.557-.5,1.094-1.028,1.628-1.551.623-.609,1.242-1.212,1.89-1.785a7.93,7.93,0,0,1,10.816.014c.383.336.744.7,1.1,1.069a15.585,15.585,0,0,0,1.262,1.193c.311.253.62.512.934.771a20.232,20.232,0,0,0,3.427,2.493,12.96,12.96,0,0,0,15.13-2.568l.661-.658c.871-.865,1.769-1.76,2.736-2.559a7.825,7.825,0,0,1,10.361.149c.755.65,1.468,1.347,2.185,2.044.474.46.948.923,1.433,1.369A12.577,12.577,0,0,0,88.351,66.2a1.2,1.2,0,0,0,.862-.1,1.169,1.169,0,0,0,.223-.771c.025-.691.019-1.38.011-2.072l-.006-1.1c0-.8-.4-.981-.8-1.052a8.993,8.993,0,0,1-4.683-2.648l-.934-.92c-.548-.54-1.1-1.083-1.658-1.606a12.625,12.625,0,0,0-11.356-3.444,22.352,22.352,0,0,0-3.468,1.036c-.554.2-1.113.4-1.683.581l-.9.289,0-13.273q0-14.546-.011-29.1a10.539,10.539,0,0,0-20.94-1.807,1.089,1.089,0,0,0,.061.8,1.113,1.113,0,0,0,.785.223c.284.006.556,0,.838,0a10.94,10.94,0,0,1,1.411.028,1.9,1.9,0,0,0,2.344-1.5,5.226,5.226,0,0,1,5.38-3.287c2.592.256,4.675,2.124,4.849,4.345.149,1.882.116,3.8.08,5.656-.014.8-.028,1.614-.028,2.424v.689H33.428l.006-2.568c.008-1.314.014-2.606-.011-3.9a10.526,10.526,0,0,0-20.891-1.86c-.1.689-.006.887.039.939s.226.179.92.19c.309,0,.634,0,.953-.008.576-.011,1.154-.022,1.727.022.873.077,1.292-.223,1.625-1.1a5.43,5.43,0,0,1,10.557,1.884q.029,20.418,0,40.839a2.16,2.16,0,0,1-.54,1.455c-1.251,1.254-2.479,2.477-3.772,3.6a7.94,7.94,0,0,1-10.981-.074c-.658-.584-1.289-1.2-1.92-1.816-.5-.488-1-.978-1.515-1.452a12.741,12.741,0,0,0-7.254-3.391,2.345,2.345,0,0,0-.251-.017m52.091,8.9a7.474,7.474,0,0,1-4.438-1.474,19.761,19.761,0,0,1-2.78-2.521c-3.719-3.951-7.887-5.524-12.714-4.807l-.791.116V41.508H58.752l.052.989c.017.264.033.54.033.815v4.306c0,3.73,0,7.46.03,11.191a1.62,1.62,0,0,1-1.132,1.683,9.411,9.411,0,0,1-3.524.741M36.525,50.883c4.289,0,8.058,1.782,11.469,5.411a18.391,18.391,0,0,0,2.584,2.347,6.473,6.473,0,0,0,6.642.573c.253-.1.273-.11.27-.391-.033-3.736-.03-7.469-.03-11.2V43.312c0-.143-.006-.287-.014-.427H34.867v8.083a16.2,16.2,0,0,1,1.658-.085M58.763,36.24H33.481V24.821H58.763Zm-23.9-1.377H57.388V26.2H34.861Z" transform="translate(0 0.002)" fill="#fff"/>
      <path id="Path_82468" data-name="Path 82468" d="M54.35,41.066a15.344,15.344,0,0,1-10.543-4.537c-.375-.355-.744-.722-1.11-1.088-.537-.534-1.074-1.069-1.642-1.57a6.538,6.538,0,0,0-9.235.055c-.556.5-1.094,1.03-1.631,1.554-.62.606-1.24,1.212-1.887,1.785a14.334,14.334,0,0,1-19.535-.085C8.13,36.605,7.519,36,6.907,35.4c-.361-.355-.722-.711-1.088-1.061a7.4,7.4,0,0,0-3.887-2.207,2.218,2.218,0,0,1-1.917-2.3c-.008-.408-.006-.813,0-1.218v-.554l-.006-.5c-.006-.4-.011-.8.014-1.2a2.233,2.233,0,0,1,.711-1.639,2.308,2.308,0,0,1,1.8-.427,13.989,13.989,0,0,1,8.031,3.744c.521.477,1.025.972,1.529,1.466.647.631,1.289,1.262,1.97,1.854a6.555,6.555,0,0,0,9.078-.014c.606-.526,1.176-1.094,1.744-1.661.361-.358.719-.716,1.088-1.066,6.306-5.964,14.5-6.006,20.874-.11.435.4.86.826,1.284,1.245.512.507,1.025,1.017,1.559,1.5A6.6,6.6,0,0,0,59,31.261c.573-.512,1.124-1.05,1.672-1.587.636-.62,1.267-1.237,1.934-1.818a14.355,14.355,0,0,1,19.006-.2c.8.669,1.548,1.405,2.27,2.121.317.311.636.628.959.934a7.943,7.943,0,0,0,4.053,2.355,2.274,2.274,0,0,1,1.931,2.416l0,.879c.006.78.008,1.557-.017,2.336a2.3,2.3,0,0,1-.708,1.763,2.387,2.387,0,0,1-1.926.427,14.351,14.351,0,0,1-8.166-3.956c-.435-.408-.862-.826-1.289-1.242-.667-.656-1.333-1.311-2.041-1.926a6.527,6.527,0,0,0-8.835-.055c-.667.562-1.289,1.182-1.909,1.8-.333.328-.667.658-1,.981A15.352,15.352,0,0,1,54.35,41.066M2.119,25.657a.81.81,0,0,0-.5.124,1.047,1.047,0,0,0-.223.675c-.022.361-.017.725-.011,1.088l.006.521v.559c0,.4-.006.793,0,1.19a.856.856,0,0,0,.774.964,8.829,8.829,0,0,1,4.6,2.565c.372.353.741.716,1.107,1.077.6.59,1.187,1.174,1.81,1.733a12.988,12.988,0,0,0,17.7.077c.631-.556,1.234-1.146,1.838-1.736.548-.54,1.1-1.077,1.67-1.592a7.922,7.922,0,0,1,11.069-.066c.587.518,1.143,1.074,1.7,1.628.358.358.716.714,1.085,1.063,5.846,5.518,13.389,5.5,19.23-.039.331-.314.653-.639.978-.961.647-.645,1.3-1.289,1.995-1.876a7.849,7.849,0,0,1,10.626.066c.727.631,1.416,1.309,2.1,1.984.416.41.835.821,1.265,1.22a12.835,12.835,0,0,0,7.389,3.6,1.207,1.207,0,0,0,.865-.107,1.156,1.156,0,0,0,.226-.763c.025-.76.022-1.521.017-2.281l0-.887c0-.815-.427-.995-.793-1.061A9.193,9.193,0,0,1,83.886,31.7c-.328-.314-.65-.634-.973-.95-.7-.7-1.43-1.413-2.185-2.05a13.012,13.012,0,0,0-17.216.187c-.65.568-1.262,1.168-1.879,1.769-.565.551-1.13,1.1-1.716,1.628a7.989,7.989,0,0,1-11.152-.006c-.554-.5-1.083-1.019-1.612-1.546-.41-.408-.826-.818-1.251-1.212-5.8-5.367-13.251-5.328-18.99.1-.361.342-.711.691-1.063,1.041-.592.59-1.182,1.179-1.813,1.725a7.947,7.947,0,0,1-10.885.014c-.7-.606-1.364-1.259-2.028-1.909-.5-.482-.989-.967-1.5-1.433a12.484,12.484,0,0,0-7.248-3.391c-.083-.008-.171-.014-.262-.014" transform="translate(0.002 42.333)" fill="#fff"/>
    </g>
  </g>
</svg>
