<svg xmlns="http://www.w3.org/2000/svg" xmlnsXlink="http://www.w3.org/1999/xlink" width="100.923" height="90.114" viewBox="0 0 100.923 90.114">
  <defs>
    <clipPath id="clip-path">
      <rect id="Rectangle_8559" data-name="Rectangle 8559" width="100.923" height="90.114" fill="#fff"/>
    </clipPath>
  </defs>
  <g id="icon-amenities-terrace" style="isolation: isolate">
    <g id="Group_13149" data-name="Group 13149" transform="translate(0 0)" clip-path="url(#clip-path)">
      <path id="Path_82471" data-name="Path 82471" d="M46.066,69.461a2.452,2.452,0,0,1-.715-.106,2.374,2.374,0,0,1-1.528-3.087l2.105-7.282-4.92,0q-5.931,0-11.858-.005l-.707-.215.567.313c-.347.627-.71,1.248-1.075,1.867l-4.193,7.248A2.339,2.339,0,0,1,21.157,69.4a2.206,2.206,0,0,1-1.833-1.989,3.157,3.157,0,0,1,.375-1.7c.963-1.725,1.95-3.436,2.939-5.145l.914-1.582-.865,0c-1.308,0-2.615-.008-3.921.013a1.751,1.751,0,0,1-1.559-.805q-3.756-5.24-7.536-10.467L6.8,43.734q-3.139-4.35-6.272-8.7a2.647,2.647,0,0,1-.469-2.092A2.289,2.289,0,0,1,1.171,31.42a2.441,2.441,0,0,1,3.263.883l1.883,2.61q3.869,5.357,7.725,10.726c.168.236.262.321.541.285q11.75-.023,23.5-.01a4.441,4.441,0,0,1,1.178.1,2.317,2.317,0,0,1,1.673,2.53,2.264,2.264,0,0,1-2.121,2.1c-.811.034-1.624.026-2.432.034l-.562,0,.186.256c.782,1.077,1.53,2.113,2.268,3.159.085.124.132.142.316.148,2.83-.01,5.661-.021,8.489.008.161-.018.233-.021.243-.023a.95.95,0,0,0,.091-.236q4.84-16.644,9.706-33.273l2.248-7.722,4.56,1.349L52.286,54.234l31.717,0a3.922,3.922,0,0,1,1.207.137,2.312,2.312,0,0,1,1.536,2.659,2.288,2.288,0,0,1-2.263,1.94c-1.142.016-2.287.013-3.429.01H79.971l3.895,6.764a2.451,2.451,0,0,1-.148,2.861,2.321,2.321,0,0,1-2,.839,2.532,2.532,0,0,1-1.96-1.3q-2.606-4.5-5.189-9.017c-.091-.158-.119-.166-.233-.155q-11.669.012-23.327,0l-.777-.06.624.179C50.2,61.4,49.523,63.7,48.847,66l-.471,1.6a2.609,2.609,0,0,1-1.217,1.585,2.281,2.281,0,0,1-1.093.274M29.148,57.684h.008q5.924.008,11.852.005l5.27,0a2.614,2.614,0,0,1,.4.039l.924.117L45.069,66.62a1.094,1.094,0,0,0,.65,1.494,1.051,1.051,0,0,0,.821-.065,1.322,1.322,0,0,0,.593-.811l.471-1.606c.676-2.3,1.352-4.594,2-6.9a1.308,1.308,0,0,1,1.4-1.059q11.669.019,23.324,0h.005a1.449,1.449,0,0,1,1.354.811Q78.272,63,80.88,67.5a1.246,1.246,0,0,0,.953.66.98.98,0,0,0,.9-.386,1.162,1.162,0,0,0,.016-1.38l-4.977-8.7h3.289c1.134,0,2.274,0,3.41-.01a.984.984,0,0,0,1-.834,1.042,1.042,0,0,0-.65-1.238A2.885,2.885,0,0,0,84,55.532l-33.444,0L62.318,15.217,60.244,14.6l-1.888,6.474Q53.5,37.71,48.65,54.348A1.435,1.435,0,0,1,47.1,55.542h-.041c-2.82-.034-5.64-.018-8.465-.008a1.64,1.64,0,0,1-1.38-.7c-.733-1.041-1.481-2.072-2.258-3.146l-1.59-2.2,1.427-.085c.176-.013.319-.021.458-.023l1.129,0c.79,0,1.585,0,2.377-.034a.963.963,0,0,0,.888-.932,1.018,1.018,0,0,0-.707-1.145,2.7,2.7,0,0,0-.813-.06c-7.875-.005-15.7-.008-23.537.01a1.827,1.827,0,0,1-1.6-.823Q9.136,41.024,5.267,35.67L3.385,33.062c-.453-.627-1.038-.823-1.572-.515a.988.988,0,0,0-.492.666,1.354,1.354,0,0,0,.254,1.062q3.131,4.354,6.272,8.7l2.874,3.985Q14.5,52.2,18.262,57.435c.166.236.225.269.484.264,1.313-.023,2.628-.016,3.946-.013l1.24,0c.148,0,.3.01.471.021l1.248.067L25.1,58.852c-.078.153-.14.277-.21.4l-1.134,1.965c-.987,1.7-1.971,3.408-2.931,5.125a1.881,1.881,0,0,0-.212.981.924.924,0,0,0,.769.808,1.075,1.075,0,0,0,1.24-.588l4.2-7.253c.357-.609.715-1.22,1.057-1.841a1.357,1.357,0,0,1,1.271-.764m-1.867-2.16q-3.5,0-7-.01a1.483,1.483,0,0,1-1.108-.585c-.862-1.158-1.7-2.328-2.548-3.5l-.43-.6a1.8,1.8,0,0,1-.184-.339l-.409-.834.86-.228a3.653,3.653,0,0,1,.453-.044H18.1q5.893-.012,11.79.016a1.57,1.57,0,0,1,1.15.614c.836,1.124,1.655,2.263,2.473,3.405l.469.65a3.111,3.111,0,0,1,.176.293l.536.93-.891.173a1.678,1.678,0,0,1-.375.06h-.73q-2.7,0-5.412,0m-9.6-4.848c.836,1.165,1.673,2.328,2.53,3.48,4.143.075,8.212.067,12.285.07l-.041-.057c-.813-1.134-1.626-2.268-2.46-3.387a.377.377,0,0,0-.145-.093c-3.9-.016-7.823-.013-11.757-.013Z" transform="translate(0 20.653)" fill="#fff"/>
      <path id="Path_82472" data-name="Path 82472" d="M56.267,29.37,17.033,17.8l.386-1.1a22.552,22.552,0,0,1,9.2-11.257A19.128,19.128,0,0,1,48.6,6.185c6.37,4.894,9.113,11.757,8.152,20.4-.052.466-.142.932-.236,1.411ZM18.714,16.945,55.252,27.72c.085-.435.168-.855.215-1.282.906-8.157-1.668-14.626-7.652-19.228A17.859,17.859,0,0,0,27.3,6.543a21.231,21.231,0,0,0-8.587,10.4" transform="translate(27.075 3.709)" fill="#fff"/>
      <path id="Path_82473" data-name="Path 82473" d="M26.423,18.043l-16.18-4.77.924-.777A44.355,44.355,0,0,1,39.477,1.983l3.131-.06L39.756,3.218A24.152,24.152,0,0,0,26.632,17.479ZM12.944,12.719l12.691,3.742A25.651,25.651,0,0,1,36.574,3.417a42.056,42.056,0,0,0-23.63,9.3" transform="translate(16.282 3.056)" fill="#fff"/>
      <path id="Path_82474" data-name="Path 82474" d="M51.957,31.471,35.78,26.706l.127-.588A24,24,0,0,0,32.536,6.953l-1.769-2.7,2.672,1.8A44.7,44.7,0,0,1,51.6,30.316ZM37.3,25.8l12.689,3.737A42.379,42.379,0,0,0,35.149,8.885,25.519,25.519,0,0,1,37.3,25.8" transform="translate(48.906 6.767)" fill="#fff"/>
      <path id="Path_82475" data-name="Path 82475" d="M51.138,23.508a2.3,2.3,0,0,1-.658-.109q-6-1.791-12-3.553L33.984,18.52q-7.407-2.183-14.81-4.379a1.353,1.353,0,0,1-.956-.779c-.233-.8-.435-1.608-.65-2.465l-.51-2L55.291,20.162,53.8,21.555c-.5.461-.979.9-1.419,1.367a1.652,1.652,0,0,1-1.24.585M19.421,12.852a.742.742,0,0,0,.124.047q7.4,2.2,14.807,4.382l4.493,1.326q6,1.767,12,3.55c.339.1.407.073.585-.119.412-.438.852-.849,1.313-1.274L18.874,10.78c.179.715.352,1.4.546,2.072" transform="translate(27.116 14.139)" fill="#fff"/>
      <path id="Path_82476" data-name="Path 82476" d="M24.581,15.528,9.429,11.048l1.253-4.262,16.41,4.845ZM11.035,10.173l12.984,3.838,1.049-1.626L11.558,8.394Z" transform="translate(14.988 10.787)" fill="#fff"/>
      <path id="Path_82477" data-name="Path 82477" d="M47.764,22.568l-15.1-4.446V13.494L49.01,18.305Zm-13.81-5.415L46.886,20.96l.518-1.776-13.45-3.959Z" transform="translate(51.914 21.449)" fill="#fff"/>
      <path id="Path_82478" data-name="Path 82478" d="M30.758,6.182,26.19,4.846l.158-.609.627.163-.6-.282.22-.795q.221-.785.453-1.569A2.358,2.358,0,0,1,29.779.037a2.267,2.267,0,0,1,1.888,2.6,17.827,17.827,0,0,1-.5,2.043c-.083.285-.166.57-.241.857ZM27.764,3.958l2.087.611.07-.243a16.221,16.221,0,0,0,.469-1.89.965.965,0,0,0-.831-1.121,1.06,1.06,0,0,0-1.269.813c-.155.515-.3,1.031-.448,1.549Z" transform="translate(41.631 -0.001)" fill="#fff"/>
    </g>
  </g>
</svg>
