<svg xmlns="http://www.w3.org/2000/svg" xmlnsXlink="http://www.w3.org/1999/xlink" width="75.242" height="83.398" viewBox="0 0 75.242 83.398">
  <defs>
    <clipPath id="clip-path">
      <rect id="Rectangle_8558" data-name="Rectangle 8558" width="75.242" height="83.399" fill="#fff"/>
    </clipPath>
  </defs>
  <g id="icon-amenities-yogastudio" transform="translate(0 0)" style="isolation: isolate">
    <g id="Group_13147" data-name="Group 13147" transform="translate(0 0)" clip-path="url(#clip-path)">
      <path id="Path_82469" data-name="Path 82469" d="M57.879,66.654a72.1,72.1,0,0,1-14.1-1.742c-1.642-.33-3.3-.6-4.958-.861-.781-.125-1.567-.25-2.345-.383-.093-.015-.18-.04-.323-.078L34.4,63.133l1.3-.768a48.316,48.316,0,0,1,12.179-4.871,42.728,42.728,0,0,0-6.019,1.016A85.584,85.584,0,0,0,28.14,63.461a34.743,34.743,0,0,1-12.95,3.121,18.267,18.267,0,0,1-7.326-1.064A6.78,6.78,0,0,1,3.8,61.774a6.823,6.823,0,0,1,.486-5.544,12.19,12.19,0,0,1,3.764-4.335,40.357,40.357,0,0,1,11.278-5.641c1.271-.446,2.558-.843,3.849-1.244l1.76-.548c-.31-3.679-.606-7.3-.9-10.993l-.205-2.5A39.545,39.545,0,0,1,5.737,38.717a4.993,4.993,0,0,1-3.757-.783,4.6,4.6,0,0,1-1.9-3.006,4.772,4.772,0,0,1,4.077-5.644A31.436,31.436,0,0,0,21.688,20.1l1.091-1.131c1-1.041,2.007-2.08,3.036-3.089,6.31-6.16,17.18-6.337,23.269-.385.956.939,1.9,1.895,2.836,2.853,1.031,1.051,2.065,2.1,3.119,3.126,4.162,4.032,9.393,6.583,16,7.8a4.788,4.788,0,1,1-1.5,9.448A39.364,39.364,0,0,1,51.3,30.883l-.443-.358-.563,6.4c-.21,2.433-.423,4.863-.661,7.291a.714.714,0,0,0,0,.24c-.005-.028.07.028.255.075a65.119,65.119,0,0,1,11.225,3.609,20.033,20.033,0,0,1,6.943,4.881,8.237,8.237,0,0,1,2.425,5.947A6.656,6.656,0,0,1,66.4,65.205a19.013,19.013,0,0,1-7.343,1.432c-.39.01-.783.018-1.174.018M37.821,62.622l1.2.2c1.672.268,3.344.536,5,.868a66.724,66.724,0,0,0,14.99,1.7,17.554,17.554,0,0,0,6.858-1.319,5.422,5.422,0,0,0,3.354-5.143,6.96,6.96,0,0,0-2.112-5.071,18.819,18.819,0,0,0-6.528-4.57A64.277,64.277,0,0,0,49.582,45.75,1.369,1.369,0,0,1,48.389,44.1c.235-2.425.446-4.851.656-7.278l.7-7.982h.573a.847.847,0,0,1,.616.14l1.141.926a38.174,38.174,0,0,0,17.673,7.584,3.608,3.608,0,0,0,2.766-.576,3.555,3.555,0,0,0-1.7-6.41c-6.858-1.264-12.3-3.925-16.644-8.134-1.064-1.031-2.1-2.09-3.141-3.149-.934-.951-1.865-1.9-2.818-2.833-5.529-5.4-15.783-5.216-21.52.383-1.021,1-2.012,2.032-3.006,3.064l-1.1,1.134A32.629,32.629,0,0,1,4.37,30.515a3.523,3.523,0,0,0-3.059,4.2A3.341,3.341,0,0,0,2.7,36.908a3.709,3.709,0,0,0,2.816.578,38.212,38.212,0,0,0,17.78-7.7c.135-.108.278-.208.448-.328l1.151-.823.383,4.735c.3,3.724.6,7.381.911,11.038a1.127,1.127,0,0,1-.929,1.266l-1.717.533c-1.271.4-2.545.788-3.8,1.229A39.234,39.234,0,0,0,8.8,52.891a11.013,11.013,0,0,0-3.4,3.889,5.626,5.626,0,0,0-.443,4.54,5.581,5.581,0,0,0,3.361,3.033,16.844,16.844,0,0,0,6.833.976A33.524,33.524,0,0,0,27.65,62.309a86.7,86.7,0,0,1,13.926-5.016,40.121,40.121,0,0,1,12.172-1.131l4.6.3-4.518.934a59.654,59.654,0,0,0-16.011,5.224" transform="translate(0 16.744)" fill="#fff"/>
      <path id="Path_82470" data-name="Path 82470" d="M23.22,27.741h0A13.87,13.87,0,0,1,23.172,0a13.629,13.629,0,0,1,9.844,4.042,13.871,13.871,0,0,1,.018,19.628,13.785,13.785,0,0,1-9.814,4.07M23.195,1.253h-.02a12.618,12.618,0,0,0,.043,25.237h0A12.626,12.626,0,0,0,35.842,13.843,12.609,12.609,0,0,0,23.195,1.253" transform="translate(14.058 0.001)" fill="#fff"/>
    </g>
  </g>
</svg>
