<?xml version="1.0" encoding="iso-8859-1"?>
<!-- Uploaded to: SVG Repo, www.svgrepo.com, Generator: SVG Repo Mixer Tools -->
<!DOCTYPE svg PUBLIC "-//W3C//DTD SVG 1.1//EN" "http://www.w3.org/Graphics/SVG/1.1/DTD/svg11.dtd">
<svg fill="#5E514D" height="800px" width="800px" version="1.1" id="Capa_1" xmlns="http://www.w3.org/2000/svg" xmlns:xlink="http://www.w3.org/1999/xlink" 
	 viewBox="0 0 185.098 185.098" xml:space="preserve">
<g>
	<path d="M170.837,14.261C161.642,5.064,149.415,0,136.41,0c-13.005,0-25.231,5.064-34.426,14.26l-87.725,87.725
		c-18.981,18.982-18.98,49.869,0.001,68.853c9.196,9.194,21.423,14.26,34.429,14.261c0.001,0,0.003,0,0.004,0
		c13.001,0,25.224-5.063,34.418-14.259l87.727-87.725C189.819,64.13,189.819,33.243,170.837,14.261z M92.549,140.188L44.911,92.549
		l47.638-47.64l47.638,47.639L92.549,140.188z M48.694,170.098c0,0-0.002,0-0.003,0c-9-0.001-17.461-3.506-23.823-9.868
		c-13.134-13.134-13.134-34.505-0.001-47.639l9.437-9.437l47.64,47.641l-9.438,9.438C66.144,166.595,57.688,170.098,48.694,170.098z
		 M160.231,72.508l-9.436,9.436l-47.641-47.642l9.436-9.436C118.953,18.504,127.412,15,136.41,15c8.999,0,17.458,3.505,23.821,9.867
		C173.364,38.001,173.364,59.373,160.231,72.508z"/>
	<path d="M53.068,141.416c-2.192,2.189-2.191,5.739-0.001,7.933c2.191,2.188,5.742,2.189,7.933-0.002c2.188-2.189,2.19-5.742,0-7.93
		C58.809,139.226,55.257,139.227,53.068,141.416z"/>
	<path d="M35.763,124.108c-2.192,2.194-2.19,5.742,0,7.932c2.189,2.191,5.741,2.191,7.931,0.002c2.19-2.19,2.191-5.742,0-7.934
		S37.952,121.921,35.763,124.108z"/>
	<circle cx="37.539" cy="147.641" r="5.609"/>
	<path d="M124.099,35.752c-2.189,2.187-2.19,5.74,0,7.93c2.19,2.19,5.74,2.19,7.93-0.001c2.191-2.188,2.191-5.74,0-7.93
		C129.84,33.56,126.289,33.56,124.099,35.752z"/>
	<circle cx="145.369" cy="57.021" r="5.608"/>
	<circle cx="147.558" cy="37.458" r="5.609"/>
</g>
</svg>