<svg xmlns="http://www.w3.org/2000/svg" xmlnsXlink="http://www.w3.org/1999/xlink" width="106.854" height="92.756" viewBox="0 0 106.854 92.756">
  <defs>
    <clipPath id="clip-path">
      <path id="Path_83783" data-name="Path 83783" d="M0,62.923H106.854V-29.833H0Z" transform="translate(0 29.833)"/>
    </clipPath>
  </defs>
  <g id="Group_14680" data-name="Group 14680" transform="translate(0 0)" clip-path="url(#clip-path)">
    <g id="Group_14674" data-name="Group 14674" transform="translate(43.397 -0.002)">
      <path id="Path_83777" data-name="Path 83777" d="M6.657,13.315A9.814,9.814,0,1,0-3.156,3.5a9.813,9.813,0,0,0,9.813,9.813" transform="translate(3.156 6.313)"/>
    </g>
    <g id="Group_14675" data-name="Group 14675" transform="translate(0.018 5.941)">
      <path id="Path_83778" data-name="Path 83778" d="M4.561,25.216a1.82,1.82,0,0,0,1.253-3.143c-1.928-1.822-6.128-6.7-3.52-12.614C4.707,3.99,8.354-4.275,4.057-11.1a1.817,1.817,0,0,0-2.509-.572A1.819,1.819,0,0,0,.976-9.165C3.992-4.371,1.744,1.686-1.039,7.991c-2.456,5.572-.833,11.824,4.35,16.727a1.814,1.814,0,0,0,1.25.5" transform="translate(2.162 11.955)"/>
    </g>
    <g id="Group_14676" data-name="Group 14676" transform="translate(14.114 5.941)">
      <path id="Path_83779" data-name="Path 83779" d="M4.561,25.216a1.822,1.822,0,0,0,1.253-3.143c-1.928-1.822-6.128-6.7-3.52-12.614C4.707,3.99,8.354-4.275,4.057-11.1a1.817,1.817,0,0,0-2.509-.572A1.819,1.819,0,0,0,.976-9.165C3.992-4.371,1.744,1.686-1.039,7.991c-2.456,5.572-.833,11.824,4.35,16.727a1.814,1.814,0,0,0,1.25.5" transform="translate(2.162 11.955)"/>
    </g>
    <g id="Group_14677" data-name="Group 14677" transform="translate(84.214 5.941)">
      <path id="Path_83780" data-name="Path 83780" d="M4.561,25.216a1.82,1.82,0,0,0,1.253-3.143c-1.928-1.822-6.128-6.7-3.52-12.614C4.707,3.99,8.351-4.278,4.057-11.1a1.817,1.817,0,0,0-2.509-.572A1.816,1.816,0,0,0,.976-9.165C3.989-4.371,1.744,1.686-1.039,7.991c-2.456,5.572-.833,11.824,4.35,16.727a1.814,1.814,0,0,0,1.25.5" transform="translate(2.162 11.955)"/>
    </g>
    <g id="Group_14678" data-name="Group 14678" transform="translate(98.31 5.941)">
      <path id="Path_83781" data-name="Path 83781" d="M4.561,25.216a1.822,1.822,0,0,0,1.253-3.143c-1.928-1.822-6.128-6.7-3.52-12.614C4.707,3.99,8.351-4.278,4.057-11.1a1.817,1.817,0,0,0-2.509-.572A1.816,1.816,0,0,0,.976-9.165C3.989-4.371,1.744,1.686-1.039,7.991c-2.456,5.572-.833,11.824,4.35,16.727a1.814,1.814,0,0,0,1.25.5" transform="translate(2.162 11.955)"/>
    </g>
    <g id="Group_14679" data-name="Group 14679" transform="translate(0.001 20.029)">
      <path id="Path_83782" data-name="Path 83782" d="M71.12,25.671H45.208c-.056,0-.109.012-.165.016-.429-1.62-1.859-3.728-6.11-5.146l-.093-.155c6.271-1.984,3.694-8.55,3.694-8.55L36.947-5.629c-1.635-6.679-9.405-6.542-9.405-6.542H11.535S3.769-12.308,2.13-5.629L-3.457,11.835S-6.035,18.4.236,20.385l-.09.155c-4.238,1.412-5.677,3.513-6.11,5.133-.009,0-.016,0-.025,0H-31.9a1.82,1.82,0,0,0-1.819,1.822A1.819,1.819,0,0,0-31.9,29.312H-5.988c.068,0,.134-.012.2-.019l4.3,26.957c1.635,5.724,5.724,4.089,5.724,4.089,4.225-1.769,3.408-5.177,3.408-5.177L5.6,30.217l13.942-4.123L33.48,30.217,31.434,55.161s-.818,3.408,3.408,5.177c0,0,4.092,1.635,5.727-4.089l4.3-26.972a1.74,1.74,0,0,0,.339.034H71.12a1.82,1.82,0,1,0,0-3.641M32.345,13.71l-6.9,2.394a5.617,5.617,0,0,1,1.063,1.181.932.932,0,0,1,.068.121,5.613,5.613,0,0,1,.709,4.132,5.8,5.8,0,0,1-4.253,4.7,1.162,1.162,0,0,1-.205.016,1.138,1.138,0,0,1-.2-2.257A3.558,3.558,0,0,0,25.054,21.1c.006-.031.012-.059.019-.09a3.372,3.372,0,0,0-.491-2.522,3.637,3.637,0,0,0-1.831-1.337c-.1-.034-.18-.065-.264-.093l-.087-.031a1.138,1.138,0,0,1-.463-.168c-2.693-.955-5.482-1.688-7.947-2.335-1.94-.51-3.949-1.035-5.935-1.657a1.14,1.14,0,0,1-.771-1.334c.239-1.079.563-2.1.877-3.084A18.622,18.622,0,0,0,9.231,3.72a1.133,1.133,0,0,1,1.188-1.082A1.137,1.137,0,0,1,11.5,3.832a20.752,20.752,0,0,1-1.175,5.31c-.2.609-.395,1.234-.569,1.869,1.611.476,3.234.9,4.807,1.315,2.484.653,5.295,1.39,8.034,2.357l7.975-2.767L28.21,3.823A1.138,1.138,0,0,1,30.4,3.185l2.668,9.132a1.136,1.136,0,0,1-.718,1.393" transform="translate(33.719 12.171)"/>
    </g>
  </g>
</svg>
