<svg id="Group_14804" data-name="Group 14804" xmlns="http://www.w3.org/2000/svg" xmlnsXlink="http://www.w3.org/1999/xlink" width="94.466" height="94.466" viewBox="0 0 94.466 94.466">
  <defs>
    <clipPath id="clip-path">
      <path id="Path_83892" data-name="Path 83892" d="M0,64.083H94.466V-30.383H0Z" transform="translate(0 30.383)"/>
    </clipPath>
  </defs>
  <g id="Group_14803" data-name="Group 14803" transform="translate(0 0)" clip-path="url(#clip-path)">
    <g id="Group_14801" data-name="Group 14801" transform="translate(49.193 0.001)">
      <path id="Path_83890" data-name="Path 83890" d="M30.711,32.047V76.269c0,2.422-.578,3-3,3q-19.635,0-39.275,0c-2.41,0-3-.588-3-3.01q0-44.222,0-88.444c0-2.4.609-3.01,3.01-3.01H27.727c2.4,0,2.985.594,2.985,3.019V32.047M-8.511,37.808H-.894V26.214H-8.511Zm0-11.594M8.132,68.427c-3.094,0-6.187-.009-9.281.006-1.614.006-2.425.637-2.351,1.834.1,1.449,1.144,1.744,2.329,1.747q9.281.023,18.559,0c1.545,0,2.5-.756,2.379-1.878-.143-1.39-1.116-1.726-2.354-1.716-3.094.022-6.187.006-9.281.006M8.067-4.352c3.147,0,6.293.016,9.436-.006,1.517-.012,2.351-.662,2.26-1.778-.109-1.39-1.082-1.806-2.307-1.806q-9.36-.009-18.72.006c-1.2,0-2.242.395-2.229,1.841.012,1.471,1.066,1.744,2.276,1.744H8.067m0,7.3c3.147,0,6.29.006,9.433,0,1.219-.006,2.273-.4,2.254-1.81s-1.079-1.769-2.3-1.778c-.2,0-.4,0-.6,0Q8.1-.649-.657-.643a3,3,0,0,0-1.6.187C-2.793-.074-3.428.619-3.421,1.173s.662,1.225,1.2,1.6a3.086,3.086,0,0,0,1.6.174c2.895.016,5.789.006,8.681,0m.159,58.182c-.9,0-1.8,0-2.7,0-2.394.006-4.788-.019-7.182.04A1.676,1.676,0,0,0-3.505,62.9a1.628,1.628,0,0,0,1.794,1.775q9.878.047,19.756-.016a1.6,1.6,0,0,0,1.716-1.7A1.664,1.664,0,0,0,18.1,61.189a12.123,12.123,0,0,0-1.346-.059q-4.263-.009-8.532,0" transform="translate(14.561 15.194)"/>
    </g>
    <g id="Group_14802" data-name="Group 14802" transform="translate(0 0.001)">
      <path id="Path_83891" data-name="Path 83891" d="M0,32.043V-12.03c0-2.627.532-3.162,3.137-3.162H42.263c2.388,0,3.007.616,3.007,3.013q0,44.222,0,88.444c0,2.407-.6,3.007-3.01,3.007q-19.635,0-39.275,0C.575,79.271,0,78.693,0,76.264V32.043m15.6-5.774H7.953v11.6H15.6Zm0,11.6M22.644-4.35c3.047,0,6.094.009,9.141,0,1.688-.006,2.444-.56,2.45-1.735,0-1.191-.79-1.847-2.4-1.85q-9.216-.023-18.431,0c-1.573,0-2.453.675-2.478,1.8-.028,1.16.784,1.778,2.422,1.788,3.1.016,6.2,0,9.293,0m-.065,72.78c-3.1,0-6.19.016-9.287-.006-1.241-.009-2.214.333-2.354,1.719-.115,1.116.846,1.872,2.388,1.875q9.286.028,18.571,0c1.586-.006,2.431-.715,2.326-1.9-.127-1.436-1.144-1.695-2.36-1.688-3.094.012-6.19,0-9.284,0m0-65.479c2.5,0,4.993.009,7.49,0A8.326,8.326,0,0,0,32.737,2.8a2.63,2.63,0,0,0,1.433-1.57c.246-.927-.407-1.6-1.387-1.769a8.471,8.471,0,0,0-1.486-.1q-8.689-.009-17.377,0a3.393,3.393,0,0,0-1.75.2,2.61,2.61,0,0,0-1.157,1.663c-.025.5.609,1.181,1.126,1.53a3.142,3.142,0,0,0,1.6.2c2.948.016,5.9.006,8.839.006m.068,61.779c.8,0,1.6,0,2.394,0,2.447-.006,4.894.022,7.341-.04A1.647,1.647,0,0,0,34.22,63.1c.068-1.066-.457-1.856-1.5-1.866-6.738-.056-13.475-.072-20.21.04-.541.009-1.464,1.054-1.477,1.632s.846,1.253,1.458,1.695c.342.246.967.118,1.464.118,2.9.009,5.792.006,8.69.006" transform="translate(0 15.192)"/>
    </g>
  </g>
</svg>
