<svg id="Group_14746" data-name="Group 14746" xmlns="http://www.w3.org/2000/svg" width="93.175" height="105.714" viewBox="0 0 93.175 105.714">
  <g id="Group_14739" data-name="Group 14739" transform="translate(47.76 66.622)">
    <path id="Path_83834" data-name="Path 83834" d="M.255,6.994-.121,35.776,43.4,11.4,18.655-3.316Z" transform="translate(0.121 3.316)"/>
  </g>
  <g id="Group_14740" data-name="Group 14740" transform="translate(1.178 66.118)">
    <path id="Path_83835" data-name="Path 83835" d="M0,9.544l42.863,25.5.379-28.782L25.113-4.525Z" transform="translate(0 4.525)"/>
  </g>
  <g id="Group_14741" data-name="Group 14741" transform="translate(28.189 31.892)">
    <path id="Path_83836" data-name="Path 83836" d="M0,21.3.277.207l18.4-10.3L36.8.683l-.274,21.09-18.4,10.3Z" transform="translate(0 10.097)"/>
  </g>
  <g id="Group_14742" data-name="Group 14742" transform="translate(67.789 28.649)">
    <path id="Path_83837" data-name="Path 83837" d="M.186,9.546-.088,30.633l24.74,14.719L25.3-4.526Z" transform="translate(0.088 4.526)"/>
  </g>
  <g id="Group_14743" data-name="Group 14743" transform="translate(0 27.437)">
    <path id="Path_83838" data-name="Path 83838" d="M0,33.829,25.113,19.763,25.39-1.329.647-16.039Z" transform="translate(0 16.039)"/>
  </g>
  <g id="Group_14744" data-name="Group 14744" transform="translate(1.889 0.51)">
    <path id="Path_83839" data-name="Path 83839" d="M0,16.359,24.743,31.074l18.03-10.1H42.7L43.05-7.756Z" transform="translate(0 7.756)"/>
  </g>
  <g id="Group_14745" data-name="Group 14745" transform="translate(48.307 0)">
    <path id="Path_83840" data-name="Path 83840" d="M.245,0-.116,28.788,18.446,39.832,43.565,25.763Z" transform="translate(0.116)"/>
  </g>
</svg>
