<svg id="Group_14819" data-name="Group 14819" xmlns="http://www.w3.org/2000/svg" xmlnsXlink="http://www.w3.org/1999/xlink" width="103.95" height="102.314" viewBox="0 0 103.95 102.314">
  <defs>
    <clipPath id="clip-path">
      <path id="Path_83766" data-name="Path 83766" d="M0,69.407H103.95V-32.907H0Z" transform="translate(0 32.907)"/>
    </clipPath>
  </defs>
  <g id="Group_14659" data-name="Group 14659" transform="translate(0 0)" clip-path="url(#clip-path)">
    <g id="Group_14650" data-name="Group 14650" transform="translate(0.029 11.183)">
      <path id="Path_83757" data-name="Path 83757" d="M.04,0C1.48,1.452,2.686,2.677,3.9,3.893c4.891,4.9,9.806,9.781,14.66,14.719a4.808,4.808,0,0,0,3.7,1.542c5.528-.031,11.056.019,16.588-.037,1.107-.009,1.38.333,1.38,1.405Q40.18,47.9,40.208,74.278c0,1.732-.037,3.464.025,5.2.031.908-.218,1.241-1.188,1.234-5.83-.044-11.663.009-17.492-.059a3.488,3.488,0,0,1-2.217-.852Q9.826,70.39.447,60.85A2.555,2.555,0,0,1,.006,59.2Q-.027,42.15,0,25.091q0-11.865-.016-23.723C-.019,1.032.009.7.04,0" transform="translate(0.019)"/>
    </g>
    <g id="Group_14651" data-name="Group 14651" transform="translate(0.02 -0.002)">
      <path id="Path_83758" data-name="Path 83758" d="M26.138,12.525Q17.254,3.687,8.413-5.194a2.156,2.156,0,0,0-2.27-.594A1.708,1.708,0,0,0,4.931-3.951c.019.855-.395.986-1.107.979-2.6-.025-5.2-.134-7.785.028A4.825,4.825,0,0,1-8.656-4.89,2.852,2.852,0,0,0-9.4-5.574a1.832,1.832,0,0,0-2.944,1.446c-.047.864.012,1.735-.04,2.6A2.833,2.833,0,0,0-11.424.763q9,8.964,17.949,17.974A4.019,4.019,0,0,0,9.545,20c2.823-.006,5.643,0,8.466,0,2.895,0,5.792.016,8.687-.022.373-.006,1.054-.28,1.063-.454.131-2.478.392-4.99-1.623-7M10.384,14.26-2.964.614,8.634.62,21.95,14.1Z" transform="translate(12.393 5.938)"/>
    </g>
    <g id="Group_14652" data-name="Group 14652" transform="translate(0 76.761)">
      <path id="Path_83759" data-name="Path 83759" d="M.215,0c1.89,1.921,3.775,3.849,5.674,5.758,4.3,4.325,8.612,8.631,12.9,12.968A3.959,3.959,0,0,0,21.8,19.967c5.718-.025,11.436.009,17.153-.028.92-.006,1.325.236,1.216,1.194a19.765,19.765,0,0,1-.152,2.245,3.012,3.012,0,0,1-2.873,2.148c-5.192.019-10.385.065-15.574-.053A4.536,4.536,0,0,1,18.8,24.233Q9.86,15.446,1.107,6.476a5.187,5.187,0,0,1-1.113-2.7A23.155,23.155,0,0,1-.049.174C.038.115.128.059.215,0" transform="translate(0.102)"/>
    </g>
    <g id="Group_14653" data-name="Group 14653" transform="translate(45.785 25.286)">
      <path id="Path_83760" data-name="Path 83760" d="M17.732,44.345c-.062-1.729-.025-3.464-.025-5.2q0-26.378.019-52.753c0-1.073-.274-1.418-1.38-1.405-5.531.053-11.059,0-16.588.037a4.818,4.818,0,0,1-3.7-1.542q-2.225-2.267-4.465-4.511V39.464q2.616,2.607,5.242,5.2a3.472,3.472,0,0,0,2.22.852c5.827.068,11.659.019,17.489.059.97.006,1.219-.326,1.188-1.234" transform="translate(8.407 21.025)"/>
    </g>
    <g id="Group_14654" data-name="Group 14654" transform="translate(31.663 -0.002)">
      <path id="Path_83761" data-name="Path 83761" d="M26.138,12.525Q17.254,3.687,8.413-5.194a2.156,2.156,0,0,0-2.27-.594A1.708,1.708,0,0,0,4.931-3.951c.019.855-.395.986-1.107.979-2.6-.025-5.2-.134-7.785.028A4.825,4.825,0,0,1-8.656-4.89,2.852,2.852,0,0,0-9.4-5.574a1.832,1.832,0,0,0-2.944,1.446c-.047.864.012,1.735-.04,2.6A2.833,2.833,0,0,0-11.424.763q9,8.964,17.949,17.974A4.019,4.019,0,0,0,9.545,20c2.823-.006,5.643,0,8.466,0,2.895,0,5.792.016,8.687-.022.373-.006,1.054-.28,1.063-.454.131-2.478.392-4.99-1.623-7M10.384,14.26-2.97.62H8.618L21.95,14.1Z" transform="translate(12.393 5.938)"/>
    </g>
    <g id="Group_14655" data-name="Group 14655" transform="translate(45.787 90.709)">
      <path id="Path_83762" data-name="Path 83762" d="M16.9,4.064c-5.718.037-11.436,0-17.153.031A3.968,3.968,0,0,1-3.268,2.852Q-5.638.459-8.013-1.927V3.657q2.369,2.355,4.751,4.7A4.517,4.517,0,0,0-.483,9.6c5.189.121,10.382.072,15.571.053A3.009,3.009,0,0,0,17.961,7.5a19.02,19.02,0,0,0,.155-2.242c.109-.961-.3-1.2-1.216-1.2" transform="translate(8.013 1.927)"/>
    </g>
    <g id="Group_14656" data-name="Group 14656" transform="translate(77.802 25.286)">
      <path id="Path_83763" data-name="Path 83763" d="M17.732,44.345c-.062-1.729-.025-3.464-.025-5.2q0-26.378.019-52.753c0-1.073-.274-1.418-1.38-1.405-5.531.053-11.059,0-16.588.037a4.818,4.818,0,0,1-3.7-1.542q-2.225-2.267-4.465-4.511V39.464q2.616,2.607,5.242,5.2a3.472,3.472,0,0,0,2.22.852c5.827.068,11.659.019,17.489.059.97.006,1.219-.326,1.188-1.234" transform="translate(8.407 21.025)"/>
    </g>
    <g id="Group_14657" data-name="Group 14657" transform="translate(63.68 -0.002)">
      <path id="Path_83764" data-name="Path 83764" d="M26.138,12.525Q17.254,3.687,8.413-5.194a2.156,2.156,0,0,0-2.27-.594A1.705,1.705,0,0,0,4.931-3.951c.019.855-.395.986-1.107.979-2.6-.025-5.2-.134-7.785.028A4.825,4.825,0,0,1-8.656-4.89,2.852,2.852,0,0,0-9.4-5.574a1.832,1.832,0,0,0-2.944,1.446c-.047.864.012,1.735-.04,2.6A2.833,2.833,0,0,0-11.424.763q9,8.964,17.949,17.974A4.019,4.019,0,0,0,9.545,20c2.823-.006,5.643,0,8.466,0,2.895,0,5.792.016,8.687-.022.373-.006,1.054-.28,1.063-.454.131-2.478.392-4.99-1.623-7M10.384,14.26-2.964.62H8.624L21.95,14.1Z" transform="translate(12.393 5.938)"/>
    </g>
    <g id="Group_14658" data-name="Group 14658" transform="translate(77.803 90.709)">
      <path id="Path_83765" data-name="Path 83765" d="M16.9,4.064c-5.718.037-11.436,0-17.153.031A3.968,3.968,0,0,1-3.268,2.852Q-5.638.459-8.013-1.927V3.657q2.369,2.355,4.751,4.7A4.517,4.517,0,0,0-.483,9.6c5.189.121,10.382.072,15.571.053A3.009,3.009,0,0,0,17.961,7.5a19.02,19.02,0,0,0,.155-2.242c.109-.961-.3-1.2-1.216-1.2" transform="translate(8.013 1.927)"/>
    </g>
  </g>
</svg>
