<svg id="Group_14627" data-name="Group 14627" xmlns="http://www.w3.org/2000/svg" xmlnsXlink="http://www.w3.org/1999/xlink" width="107.099" height="105.902" viewBox="0 0 107.099 105.902">
  <defs>
    <clipPath id="clip-path">
      <path id="Path_83733" data-name="Path 83733" d="M0,71.841H107.1v-105.9H0Z" transform="translate(0 34.061)"/>
    </clipPath>
  </defs>
  <g id="Group_14623" data-name="Group 14623" transform="translate(0 0)" clip-path="url(#clip-path)">
    <g id="Group_14621" data-name="Group 14621" transform="translate(7.087 0.001)">
      <path id="Path_83731" data-name="Path 83731" d="M.158,23.369c0-3.684.382-7.21-.078-10.621C-.931,5.252,3.127.9,8.832-2.6a54.412,54.412,0,0,1,19.893-6.94c15.219-2.509,30.315-2.133,45.155,2.447A39.039,39.039,0,0,1,86.606-.749a28.188,28.188,0,0,1,3.187,2.935,9.646,9.646,0,0,1,2.979,7.649c-.271,3.787-.059,7.608-.059,11.414v2.12c-1.744,0-3.33,0-4.916,0-5.6.009-8.79,3.174-8.793,8.74,0,5.357,0,10.714,0,16.214H13.872V46.589c0-4.825.016-9.651-.006-14.473-.025-5.6-3.184-8.727-8.8-8.746-1.545,0-3.094,0-4.909,0" transform="translate(0.075 11.08)"/>
    </g>
    <g id="Group_14622" data-name="Group 14622" transform="translate(0.001 39.073)">
      <path id="Path_83732" data-name="Path 83732" d="M11.319,28.564H85.079V-8.814c0-3.442,1.287-4.707,4.779-4.707,2.571,0,5.143-.022,7.717.006,2.758.028,4.151,1.415,4.151,4.163q.014,25.082,0,50.157c0,3.252-1.213,4.474-4.449,4.474H5.651c-2.36,0-4.717.019-7.073-.006a3.609,3.609,0,0,1-3.93-3.89q-.028-25.478,0-50.959a3.668,3.668,0,0,1,3.927-3.939c2.839-.047,5.68-.025,8.519,0s4.222,1.43,4.225,4.284q.014,17.923,0,35.846Z" transform="translate(5.367 13.543)"/>
    </g>
  </g>
  <path id="Path_83734" data-name="Path 83734" d="M71.771.08H6.8v-13.6h64.97Z" transform="translate(14.345 77.379)"/>
  <g id="Group_14626" data-name="Group 14626" transform="translate(0 0)" clip-path="url(#clip-path)">
    <g id="Group_14624" data-name="Group 14624" transform="translate(84.935 99.478)">
      <path id="Path_83735" data-name="Path 83735" d="M3.751,4.347c-.8,0-1.6.016-2.4,0A3,3,0,0,1-1.777,1.07,2.975,2.975,0,0,1,1.344-2.042C3-2.064,4.656-2.073,6.31-2.036a2.874,2.874,0,0,1,2.932,3.1A2.936,2.936,0,0,1,6.313,4.341c-.852.031-1.707.006-2.562.006" transform="translate(1.778 2.061)"/>
    </g>
    <g id="Group_14625" data-name="Group 14625" transform="translate(11.186 99.482)">
      <path id="Path_83736" data-name="Path 83736" d="M3.771.008c.749,0,1.5-.009,2.242,0A2.949,2.949,0,0,1,9.2,3.195,2.927,2.927,0,0,1,6.032,6.4c-1.6.019-3.206.028-4.807,0A2.907,2.907,0,0,1-1.788,3.21a2.9,2.9,0,0,1,3-3.2C2.061-.014,2.916,0,3.771,0Z" transform="translate(1.788 0.004)"/>
    </g>
  </g>
</svg>
