<svg id="Group_14769" data-name="Group 14769" xmlns="http://www.w3.org/2000/svg" xmlnsXlink="http://www.w3.org/1999/xlink" width="108.501" height="108.563" viewBox="0 0 108.501 108.563">
  <defs>
    <clipPath id="clip-path">
      <path id="Path_83860" data-name="Path 83860" d="M0,73.646H108.5V-34.917H0Z" transform="translate(0 34.917)"/>
    </clipPath>
  </defs>
  <g id="Group_14768" data-name="Group 14768" transform="translate(0 0)" clip-path="url(#clip-path)">
    <g id="Group_14755" data-name="Group 14755" transform="translate(25.466 84.8)">
      <path id="Path_83847" data-name="Path 83847" d="M19.565,11.509q-13.119,0-26.235,0a8.063,8.063,0,0,1-1.163-.084,1.569,1.569,0,0,1-1.1-2.543A15.916,15.916,0,0,1-7.174,6.973,14.286,14.286,0,0,0-2.709-1.478a17.723,17.723,0,0,0,.165-1.949A1.869,1.869,0,0,1-.483-5.454q20.012,0,40.018,0A1.841,1.841,0,0,1,41.56-3.449a14.147,14.147,0,0,0,4.123,9.915c.728.768,1.5,1.5,2.2,2.295a1.41,1.41,0,0,1,.134,1.937,2.312,2.312,0,0,1-1.01.687,3.59,3.59,0,0,1-1.2.121q-13.115,0-26.235,0" transform="translate(9.276 5.457)"/>
    </g>
    <g id="Group_14756" data-name="Group 14756" transform="translate(39.132 0.001)">
      <path id="Path_83848" data-name="Path 83848" d="M13.717,11.52v5.043c.193,0,.376,0,.563,0,1.676.028,3.364-.068,5.024.115a5.012,5.012,0,0,1,4.008,6.993c-1.126,2.605-2.323,5.183-3.489,7.773-.04.093-.081.187-.143.323.407.056.787.081,1.15.168a1.621,1.621,0,0,1,.028,3.184,3.435,3.435,0,0,1-.833.1q-11.422,0-22.84-.009a3,3,0,0,1-1.222-.261,1.575,1.575,0,0,1-.839-1.726,1.769,1.769,0,0,1,1.719-1.387c.208-.016.417,0,.706,0-.084-.23-.131-.395-.2-.547q-1.646-3.638-3.3-7.275A5.023,5.023,0,0,1-4.68,17.819a5.279,5.279,0,0,1,3.566-1.253c1.517-.016,3.038,0,4.642,0V11.47H2.2A5.054,5.054,0,0,1-3.2,6.694,4.762,4.762,0,0,1,.556,1.52a27.419,27.419,0,0,1,2.972-.326c0-.457-.022-1,.006-1.536a5.093,5.093,0,0,1,1.427-3.6,4.959,4.959,0,0,1,5.22-1.253,4.678,4.678,0,0,1,3.4,4c.131.8.118,1.614.171,2.444.752.044,1.527.047,2.285.143a4.9,4.9,0,0,1,4.421,4.987,5,5,0,0,1-4.387,4.99c-.762.109-1.539.1-2.36.152" transform="translate(6.503 5.462)"/>
    </g>
    <g id="Group_14757" data-name="Group 14757" transform="translate(10.181 25.466)">
      <path id="Path_83849" data-name="Path 83849" d="M13.434,14.93c.662,0,1.328-.022,1.99,0a5.269,5.269,0,0,1,3.8,1.486,4.849,4.849,0,0,1,1.228,5.124,4.864,4.864,0,0,1-3.989,3.448,7.469,7.469,0,0,1-1.421.112q-8.026.014-16.053,0A5.087,5.087,0,0,1-6.31,20.679a4.88,4.88,0,0,1,3.687-5.522,11.583,11.583,0,0,1,1.887-.221C-.182,14.9.378,14.93.959,14.88A11.868,11.868,0,0,1-4.668,4.492,11.349,11.349,0,0,1-.779-3.98a11.781,11.781,0,0,1,16.79.88,11.99,11.99,0,0,1-2.578,18.03" transform="translate(6.369 7.078)"/>
    </g>
    <g id="Group_14758" data-name="Group 14758" transform="translate(71.245 25.458)">
      <path id="Path_83850" data-name="Path 83850" d="M13.436,14.936c.665,0,1.331-.022,1.993,0a5.26,5.26,0,0,1,3.793,1.489,4.852,4.852,0,0,1,1.225,5.127A4.865,4.865,0,0,1,16.455,25a7.469,7.469,0,0,1-1.421.112q-8.026.014-16.056,0a5.088,5.088,0,0,1-5.289-4.434,4.878,4.878,0,0,1,3.694-5.516,11.285,11.285,0,0,1,1.834-.221c.563-.034,1.129-.006,1.747-.053A11.784,11.784,0,0,1-4.663,4.968,11.4,11.4,0,0,1,.644-5.078,11.765,11.765,0,0,1,16.619-2.351a12.007,12.007,0,0,1-3.184,17.287" transform="translate(6.37 7.081)"/>
    </g>
    <g id="Group_14759" data-name="Group 14759" transform="translate(36.813 57.509)">
      <path id="Path_83851" data-name="Path 83851" d="M11.758,16.211H-4.248c-.193,0-.389.006-.581-.006-.637-.031-.9-.4-.656-.989.656-1.579,1.362-3.14,1.987-4.729A71.221,71.221,0,0,0,.416-4.266C.559-5.152.683-6.044.839-6.93c.118-.681.292-.787.964-.749,1.057.059,2.114.131,3.174.134q7.234.019,14.467,0c.846,0,1.691-.065,2.537-.109.675-.037.79.053.914.728.544,2.895,1.017,5.8,1.648,8.681a62.612,62.612,0,0,0,4.384,12.785c.668,1.458.525,1.673-1.057,1.673H11.758" transform="translate(5.575 7.686)"/>
    </g>
    <g id="Group_14760" data-name="Group 14760" transform="translate(10.681 61.04)">
      <path id="Path_83852" data-name="Path 83852" d="M8.03,11.514H-2.626c-.159,0-.317.006-.476-.006-.6-.056-.824-.354-.647-.927.46-1.5.964-2.988,1.408-4.493A83.824,83.824,0,0,0,0-4.386c.031-.193.084-.379.124-.569a.583.583,0,0,1,.675-.5c5.565.012,11.131.006,16.7.009.647,0,.815.162.945.883.233,1.3.407,2.618.709,3.905.6,2.54,1.253,5.065,1.912,7.589A2.059,2.059,0,0,1,21,8.364c-.37.836-.712,1.688-1.063,2.534a.935.935,0,0,1-.986.625c-3.641-.019-7.279-.009-10.919-.009" transform="translate(3.807 5.459)"/>
    </g>
    <g id="Group_14761" data-name="Group 14761" transform="translate(72.884 61.034)">
      <path id="Path_83853" data-name="Path 83853" d="M8.89,11.518c-3.638,0-7.276-.009-10.913.009a.928.928,0,0,1-.986-.616c-.382-.93-.805-1.844-1.132-2.792a2.263,2.263,0,0,1,.009-1.178C-3.4,3.857-2.639.779-1.908-2.305c.193-.805.3-1.632.438-2.447.084-.519.336-.712.9-.709,5.438.022,10.876.012,16.314.016.9,0,1,.115,1.175.982.55,2.745,1.054,5.506,1.719,8.227.529,2.17,1.269,4.291,1.915,6.433.028.084.059.165.084.252.233.768.019,1.07-.777,1.07H8.89" transform="translate(4.215 5.461)"/>
    </g>
    <g id="Group_14762" data-name="Group 14762" transform="translate(76.124 81.407)">
      <path id="Path_83854" data-name="Path 83854" d="M.023.024C.191.012.356-.01.524-.01q11.52,0,23.045,0a1.857,1.857,0,0,1,2.043,1.99A8.113,8.113,0,0,0,28.525,8.1c.97.843,2.037,1.576,3.047,2.375a1.607,1.607,0,0,1,.743,1.735,1.746,1.746,0,0,1-1.642,1.34,5,5,0,0,1-.529.012q-10.993,0-21.985.009a1.6,1.6,0,0,1-1.253-.532A11.867,11.867,0,0,1,3.558,4.918,4.831,4.831,0,0,0,.418.366,4.752,4.752,0,0,1-.011.136Z" transform="translate(0.011 0.011)"/>
    </g>
    <g id="Group_14763" data-name="Group 14763" transform="translate(-0.001 81.408)">
      <path id="Path_83855" data-name="Path 83855" d="M21.981.1A2.029,2.029,0,0,1,21.6.318a4.911,4.911,0,0,0-3.212,4.443,11.345,11.345,0,0,1-3.5,8.357,1.5,1.5,0,0,1-.914.389q-11.156.028-22.315.016A2.015,2.015,0,0,1-9.969,12.9a1.475,1.475,0,0,1,.016-2.142,17.012,17.012,0,0,1,1.7-1.349,12.424,12.424,0,0,0,3.209-3.05A8.294,8.294,0,0,0-3.663,2.084C-3.607.61-2.939-.049-1.487-.049l23,.009h.414c.019.047.034.1.053.143" transform="translate(10.422 0.049)"/>
    </g>
    <g id="Group_14764" data-name="Group 14764" transform="translate(40.71 44.078)">
      <path id="Path_83856" data-name="Path 83856" d="M9.16,6.907c-2.736,0-5.475.009-8.214,0a5.079,5.079,0,0,1-5.23-4.44,4.885,4.885,0,0,1,3.653-5.5,7.618,7.618,0,0,1,1.778-.227q8.106-.023,16.214-.006a5.051,5.051,0,0,1,5.31,4.331,5.052,5.052,0,0,1-4.145,5.727,9.028,9.028,0,0,1-1.421.112c-2.649.012-5.3.006-7.947.006" transform="translate(4.343 3.275)"/>
    </g>
    <g id="Group_14765" data-name="Group 14765" transform="translate(25.981 105.141)">
      <path id="Path_83857" data-name="Path 83857" d="M19.16.013H45.6c.476,0,.955-.037,1.43-.009.513.028.625.239.364.69a5.219,5.219,0,0,1-4.726,2.7c-1.853.031-3.706.006-5.562.006H-4.119A5.179,5.179,0,0,1-8.587,1.322a5.454,5.454,0,0,1-.5-1.178A8.07,8.07,0,0,1-7.968,0q12.051,0,24.109.016H19.16" transform="translate(9.084 0.006)"/>
    </g>
    <g id="Group_14766" data-name="Group 14766" transform="translate(0.559 98.374)">
      <path id="Path_83858" data-name="Path 83858" d="M14.564,0V3.392h-.578q-8.026,0-16.05,0A5.106,5.106,0,0,1-6.488,1.222,4.506,4.506,0,0,1-6.9.125,8.55,8.55,0,0,1-5.9.007Q3.985-.007,13.861,0Z" transform="translate(6.905 0)"/>
    </g>
    <g id="Group_14767" data-name="Group 14767" transform="translate(86.418 98.369)">
      <path id="Path_83859" data-name="Path 83859" d="M.045,2.274c0-.553.006-1.079,0-1.6C.036.3.011-.07-.017-.437c-.031-.432.112-.653.594-.64.933.022,1.872.006,2.808.006q8.74,0,17.48,0a2.775,2.775,0,0,1,.684.177,2.542,2.542,0,0,1-.2.681,5.046,5.046,0,0,1-4.4,2.509c-5.562.047-11.122.019-16.684.016a1.549,1.549,0,0,1-.218-.04" transform="translate(0.021 1.078)"/>
    </g>
  </g>
</svg>
