<svg id="Group_14717" data-name="Group 14717" xmlns="http://www.w3.org/2000/svg" xmlnsXlink="http://www.w3.org/1999/xlink" width="107.999" height="96.435" viewBox="0 0 107.999 96.435">
  <defs>
    <clipPath id="clip-path">
      <path id="Path_83815" data-name="Path 83815" d="M0,60.209H108V-36.226H0Z" transform="translate(0 36.226)"/>
    </clipPath>
  </defs>
  <g id="Group_14716" data-name="Group 14716" transform="translate(0 0)" clip-path="url(#clip-path)">
    <g id="Group_14708" data-name="Group 14708" transform="translate(-0.001 36.704)">
      <path id="Path_83807" data-name="Path 83807" d="M35.063,27.847q17.17,0,34.34.005a3.661,3.661,0,0,1,1.094.112,1.825,1.825,0,0,1,1.19,2.119,1.782,1.782,0,0,1-1.773,1.507c-1.749.024-3.5.008-5.25.008-.237,0-.474,0-.839,0,.173.317.277.508.386.7q2.216,3.849,4.435,7.7a1.957,1.957,0,0,1-.091,2.305,1.9,1.9,0,0,1-3.152-.4q-2.831-4.887-5.636-9.786a.871.871,0,0,0-.863-.524q-12.662.02-25.324,0a.727.727,0,0,0-.844.636c-.876,3.085-1.786,6.16-2.691,9.235A1.88,1.88,0,1,1,26.456,40.4c.4-1.424.823-2.843,1.235-4.265.426-1.475.852-2.95,1.291-4.472a5.215,5.215,0,0,0-.538-.064q-9.3,0-18.592-.008a.776.776,0,0,0-.769.469C8.557,33.017,8,33.951,7.449,34.9c-1.36,2.351-2.713,4.7-4.076,7.052a1.864,1.864,0,0,1-2.079.974A1.7,1.7,0,0,1-.119,41.408,2.725,2.725,0,0,1,.2,39.949c1.443-2.588,2.939-5.143,4.419-7.709.1-.17.178-.346.311-.6-.314-.016-.532-.037-.751-.037-1.871,0-3.745-.021-5.62.011a1.193,1.193,0,0,1-1.107-.58q-5.163-7.2-10.355-14.378-3.881-5.383-7.76-10.768a1.945,1.945,0,0,1,.479-2.9,1.959,1.959,0,0,1,2.625.761q5.219,7.235,10.43,14.476a1.258,1.258,0,0,0,1.161.6q12.754-.028,25.508-.011a4.491,4.491,0,0,1,1.1.085,1.812,1.812,0,0,1,1.291,2A1.746,1.746,0,0,1,20.3,22.542c-1.272.053-2.55.027-3.825.04-.208,0-.415.021-.737.04,1.2,1.669,2.332,3.213,3.431,4.773a.993.993,0,0,0,.924.461c3.067-.016,6.136-.027,9.2.008a.9.9,0,0,0,1.049-.791Q36.534,5.786,42.764-15.491c.12-.407,1.268-4.509,1.4-4.959,1.238.365,2.406.711,3.6,1.065C43.529-4.874,38.287,13.257,34.03,27.847ZM14.52,27.376c-1.057-1.472-2.106-2.947-3.186-4.4a1.012,1.012,0,0,0-.687-.381c-4.693-.024-9.386-.019-14.077-.019-.117,0-.234.027-.418.045a3.258,3.258,0,0,0,.208.413c1.067,1.485,2.132,2.976,3.224,4.443a.942.942,0,0,0,.644.351c4.754.019,9.509.011,14.263.008a2.1,2.1,0,0,0,.272-.051c-.1-.178-.162-.3-.242-.413" transform="translate(21.096 16.755)"/>
    </g>
    <g id="Group_14709" data-name="Group 14709" transform="translate(48.093 6.589)">
      <path id="Path_83808" data-name="Path 83808" d="M0,9.738,41.134,21.869c.136-.769.3-1.485.386-2.209C42.486,10.966,40,3.578,32.94-1.85A20.189,20.189,0,0,0,9.868-2.614,23.691,23.691,0,0,0,.165,9.264C.114,9.4.072,9.531,0,9.738" transform="translate(0 5.859)"/>
    </g>
    <g id="Group_14710" data-name="Group 14710" transform="translate(29.554 5.47)">
      <path id="Path_83809" data-name="Path 83809" d="M18.914,0A47.143,47.143,0,0,0-11.38,11.255L4.3,15.876A27.093,27.093,0,0,1,18.914,0" transform="translate(11.38)"/>
    </g>
    <g id="Group_14711" data-name="Group 14711" transform="translate(88.305 13.81)">
      <path id="Path_83810" data-name="Path 83810" d="M0,0A26.918,26.918,0,0,1,3.761,21.342c5.2,1.533,10.377,3.056,15.677,4.619A47.52,47.52,0,0,0,0,0"/>
    </g>
    <g id="Group_14712" data-name="Group 14712" transform="translate(48.245 25.332)">
      <path id="Path_83811" data-name="Path 83811" d="M0,0C.33,1.294.612,2.47.948,3.631c.048.165.351.3.562.367Q9.547,6.386,17.588,8.753,26.545,11.4,35.5,14.048a1.135,1.135,0,0,0,1.347-.322c.7-.748,1.483-1.419,2.3-2.188L0,0"/>
    </g>
    <g id="Group_14713" data-name="Group 14713" transform="translate(26.678 19.25)">
      <path id="Path_83812" data-name="Path 83812" d="M0,2.048,15.275,6.562c.636-.988,1.256-1.951,1.933-3L.964-1.232,0,2.048" transform="translate(0 1.232)"/>
    </g>
    <g id="Group_14714" data-name="Group 14714" transform="translate(91.821 38.173)">
      <path id="Path_83813" data-name="Path 83813" d="M9.5,5.021c.319-1.1.626-2.138.958-3.28C5.078.157-.286-1.421-5.717-3.021V.541C-.683,2.021,4.369,3.509,9.5,5.021" transform="translate(5.717 3.021)"/>
    </g>
    <g id="Group_14715" data-name="Group 14715" transform="translate(73.782 0.001)">
      <path id="Path_83814" data-name="Path 83814" d="M-1.095,5.811c1.2.354,2.124.539,3.375.906C2.552,5.684,4.233,1.561,4.4.521A1.741,1.741,0,0,0,2.928-1.5,1.844,1.844,0,0,0,.756-.126C.538.6.116,1.675-.095,2.4c-.037.138-1.184,3.053-1.237,3.253" transform="translate(0 1.53)"/>
    </g>
  </g>
</svg>
