<svg id="Group_14807" data-name="Group 14807" xmlns="http://www.w3.org/2000/svg" xmlnsXlink="http://www.w3.org/1999/xlink" width="116.666" height="71.197" viewBox="0 0 116.666 71.197">
  <defs>
    <clipPath id="clip-path">
      <path id="Path_83894" data-name="Path 83894" d="M0,48.3H116.666V-22.9H0Z" transform="translate(0 22.899)"/>
    </clipPath>
  </defs>
  <g id="Group_14806" data-name="Group 14806" transform="translate(0 0)" clip-path="url(#clip-path)">
    <g id="Group_14805" data-name="Group 14805" transform="translate(-0.001 -0.002)">
      <path id="Path_83893" data-name="Path 83893" d="M22.608,19.659c2.49-3.576,5.09-6.915,7.182-10.543.591-1.032-.283-2.907-.488-4.446-1.567.249-2.665.354-3.725.613A1.589,1.589,0,0,1,23.37,4.023,14.16,14.16,0,0,1,23.028.575c.04-1.318,1.1-1.38,2.136-1.377q6.618.014,13.236,0c.927,0,1.9-.1,1.977,1.237a2.163,2.163,0,0,1-1.614,2.543c-1.62.4-3.271.672-4.891.992.072,1.937.877,2.621,2.808,2.6,9.8-.1,19.594-.047,29.391-.047h2.369c-1.477-3.868-2.864-7.5-4.278-11.215-2.024,0-3.964-.022-5.907.009-1.458.025-2.419-.581-2.515-2.077a2.208,2.208,0,0,1,2.366-2.5c2.525-.1,5.059-.059,7.586-.006,1.663.037,2.236,1.312,2.739,2.63q4.3,11.24,8.612,22.473c.227.588.479,1.169.771,1.878,6.937-1.464,13.357-.423,19.053,3.815a21.716,21.716,0,0,1,8.606,13.45c2.254,11.118-3.712,21.584-14.439,25.554a22.342,22.342,0,0,1-27.1-10.176,21.664,21.664,0,0,1-1.856-17.464A22.107,22.107,0,0,1,73.344,19.519c-.839-2.158-1.632-4.194-2.543-6.532-.687.759-1.234,1.334-1.75,1.94-7.266,8.457-14.5,16.948-21.836,25.343a5.01,5.01,0,0,1-3.106,1.455,77.005,77.005,0,0,1-8.171.044c-1.328-.037-1.859.308-2.136,1.744C31.88,53.471,23.292,61.241,13.735,61.825c-10.587.65-19.908-5.279-23.123-15.076-2.848-8.681-1.16-16.6,5.4-23.076,6.595-6.511,14.529-8.05,23.334-5.3.553.174,1.085.423,1.629.637.476.19.951.379,1.629.653m52.52,4.415c-7.947,3.467-11.582,13.982-7.879,22.467,3.961,9.082,14.181,13.006,23.614,9.069a17.483,17.483,0,0,0,9.213-22.719c-3.442-8.214-13.258-13.211-20.434-10.3.252.715.488,1.443.762,2.158q2.588,6.8,5.186,13.587c.525,1.387.373,2.671-1.132,3.237A2.326,2.326,0,0,1,81.21,40c-.208-.544-.407-1.091-.616-1.629q-2.733-7.15-5.466-14.3m-45.7,17.719H27.157c-4.86,0-9.722.062-14.582-.056a3.325,3.325,0,0,1-2.565-1.228c-.358-.787.053-2.046.407-3a11.194,11.194,0,0,1,1.511-2.245q3.978-5.7,7.956-11.411C14.164,20.24,5.635,21.244.244,26.045A17.578,17.578,0,0,0-4.149,47.082a17.955,17.955,0,0,0,18.941,9.937A17.9,17.9,0,0,0,29.433,41.793m16.454-6.905c6.859-8.034,13.435-15.732,20.241-23.7H36.494c3.137,7.913,6.194,15.639,9.393,23.7M26.529,22.4a23.457,23.457,0,0,1,7.58,13.69c.062.379.594.955.927.97,2.117.087,4.241.044,6.657.044-3.1-7.891-6.085-15.477-9.191-23.375-2.108,3.059-4.008,5.82-5.973,8.671m2.96,14.622a17.715,17.715,0,0,0-5.718-10.745c-2.484,3.628-4.829,7.049-7.363,10.745Z" transform="translate(10.719 9.321)"/>
    </g>
  </g>
</svg>
