<svg id="Group_14754" data-name="Group 14754" xmlns="http://www.w3.org/2000/svg" xmlnsXlink="http://www.w3.org/1999/xlink" width="72.593" height="108.258" viewBox="0 0 72.593 108.258">
  <defs>
    <clipPath id="clip-path">
      <path id="Path_83846" data-name="Path 83846" d="M0,73.439H72.593V-34.819H0Z" transform="translate(0 34.819)"/>
    </clipPath>
  </defs>
  <g id="Group_14753" data-name="Group 14753" transform="translate(0 0)" clip-path="url(#clip-path)">
    <g id="Group_14751" data-name="Group 14751" transform="translate(0 -0.001)">
      <path id="Path_83844" data-name="Path 83844" d="M36.1,5.807C27.969,2.887,20.6.381,13.57-1.876,4.485-4.793-4.329-.244-7.311,8.959-11.191,20.926-14,30.1-16.446,38.711a22.838,22.838,0,0,0-.445,8.777c.833,6.666,4.661,11.877,8.855,17.069,2.27,2.792,3.01,5.124,2.413,7.537a5.73,5.73,0,0,0,.233,3.974L-10.572,91.84A15,15,0,0,1-12.6,96.5c-.445.395-2.335,2.189-1.959,4.2.28,1.483,1.657,2.624,4.1,3.4l2.36.79a8.756,8.756,0,0,0,2.954.616,3.329,3.329,0,0,0,2.354-.821c1.5-1.384,1.051-3.97.923-4.558A14.823,14.823,0,0,1-.676,95.09L4.436,79.7a5.555,5.555,0,0,0,1.07-.709,6.144,6.144,0,0,0,1.527-2.229,7.365,7.365,0,0,1,.616-1.141A7.629,7.629,0,0,1,9.9,73.4a19.376,19.376,0,0,1,5.478-2.1l.9-.246a74.709,74.709,0,0,0,8.488-3.094c1.178-.494,2.354-.973,3.538-1.43-1.163-.609-2.307-1.253-3.442-1.9a12.749,12.749,0,0,0-2.823-1.446,5.933,5.933,0,0,0-2.136-.053c-.314.062-.647.131-1.01.205l-.569.115c-6.5,1.337-12.838-.215-20.57-5.006-6.616-4.11-9.2-10.68-7.083-18.036C-6.742,31.42-3.608,21.757.26,10.89,2.3,5.132,5.913,3.462,11.938,5.433c6.455,2.12,13.251,4.415,20.8,7.03,6.47,2.235,7.369,3.5,7.406,10.444v.448l5.97,3.262.23-.945C48.515,16.769,44.4,8.782,36.1,5.807" transform="translate(17.115 2.753)"/>
    </g>
    <g id="Group_14752" data-name="Group 14752" transform="translate(33.419 27.475)">
      <path id="Path_83845" data-name="Path 83845" d="M22.111,3.662a5.184,5.184,0,0,0-3.942-.955c-2.5.479-5.9-.849-6.84-3.84l-.183-.6-.628.087c-.78.109-1.542.187-2.3.264a22.858,22.858,0,0,0-4.878.83A19.424,19.424,0,0,0-9.8,23.165C-7.37,32.39.064,38.158,8.773,38.158a20.385,20.385,0,0,0,4.745-.557,18.483,18.483,0,0,0,11.4-7.446l.221-.323-.134-.37a4.458,4.458,0,0,1,.155-2.892c.308-.846,1.555-2.711,2.208-2.8l.5-.068.118-.488c1.909-7.664-.068-14.243-5.876-19.554M.583,3.323c1.6-.637,3.243-.382,3.625.575S3.574,6.211,1.992,6.864a4.451,4.451,0,0,1-2.4.283,1.626,1.626,0,0,1-1.216-.861C-2.01,5.334-1,3.972.583,3.323M-4.864,27.285c-.7-.159-2.005-2.481-2.288-3.454a18.987,18.987,0,0,1-.473-2.413c.728.009,1.788.861,2.434,2.276a6.685,6.685,0,0,1,.46,3.454.309.309,0,0,1-.084.146l.3.684Zm4.8-10.164a2.963,2.963,0,0,1-2.133,1.026A3.274,3.274,0,0,1-4.7,17.258a2.5,2.5,0,0,1-.743-1.912c.081-1.99.976-3.056,2.733-3.249.1-.009.221-.009.326-.009a3.138,3.138,0,0,1,2,.731,2.961,2.961,0,0,1,1.07,2.058A3.028,3.028,0,0,1-.06,17.121M7.094,28.61a2.954,2.954,0,0,1-2.139,1.026,2.911,2.911,0,0,1-2.506-.889,2.5,2.5,0,0,1-.737-1.9c.078-1.99.976-3.053,2.73-3.249.106-.009.224-.009.33-.009a3.091,3.091,0,0,1,2,.734,2.965,2.965,0,0,1,1.07,2.046,3,3,0,0,1-.743,2.245M8.583,11.472a2.481,2.481,0,0,1-.737-1.9c.078-2,.976-3.066,2.721-3.262.106-.009.211-.009.311-.009a3.134,3.134,0,0,1,2.015.74,2.948,2.948,0,0,1,1.07,2.052,3.017,3.017,0,0,1-.74,2.245,2.954,2.954,0,0,1-2.133,1.023,2.936,2.936,0,0,1-2.506-.886m9.48,21.083a3.892,3.892,0,0,1-2.152,1.906c-1.564.662-3.221.389-3.628-.578-.376-.958.637-2.313,2.22-2.966a4.615,4.615,0,0,1,1.716-.351,1.94,1.94,0,0,1,1.912.936,1.4,1.4,0,0,1-.068,1.054m.867-8.87A2.983,2.983,0,0,1,16.8,24.708a3.157,3.157,0,0,1-2.506-.889,2.474,2.474,0,0,1-.734-1.9c.078-2,.973-3.063,2.717-3.258.109-.009.224-.009.33-.009a3.121,3.121,0,0,1,2,.731,2.955,2.955,0,0,1,1.07,2.058,3.035,3.035,0,0,1-.743,2.248m6.231-10.251a.966.966,0,0,1-.308.675v.006a.8.8,0,0,1-.724.168,4.139,4.139,0,0,1-2.5-1.62,4.2,4.2,0,0,1-1.07-2.792,1,1,0,0,1,.308-.684.9.9,0,0,1,.572-.177.631.631,0,0,1,.152.012,4.059,4.059,0,0,1,2.5,1.62,4.21,4.21,0,0,1,1.073,2.792" transform="translate(10.483 1.736)"/>
    </g>
  </g>
</svg>
