<svg id="Group_14673" data-name="Group 14673" xmlns="http://www.w3.org/2000/svg" xmlnsXlink="http://www.w3.org/1999/xlink" width="107.062" height="98.15" viewBox="0 0 107.062 98.15">
  <defs>
    <clipPath id="clip-path">
      <path id="Path_83776" data-name="Path 83776" d="M0,66.582H107.062v-98.15H0Z" transform="translate(0 31.568)"/>
    </clipPath>
  </defs>
  <g id="Group_14672" data-name="Group 14672" transform="translate(0 0)" clip-path="url(#clip-path)">
    <g id="Group_14670" data-name="Group 14670" transform="translate(0 0)">
      <path id="Path_83774" data-name="Path 83774" d="M51.932,42.831A51.3,51.3,0,0,1,58.2,40.872,15.9,15.9,0,0,1,72.5,45.2c1.06.986,2.074,2.024,3.112,3.031a9.893,9.893,0,0,0,5.177,2.951,1.884,1.884,0,0,1,1.632,2.071c0,1.275.037,2.55-.006,3.821-.05,1.48-.752,2.015-2.22,1.838a16,16,0,0,1-9.113-4.331c-1.452-1.34-2.817-2.78-4.309-4.07a8.575,8.575,0,0,0-11.336-.165c-1.421,1.169-2.7,2.509-4.017,3.8a16.374,16.374,0,0,1-19.069,3.215,34.516,34.516,0,0,1-5.351-4c-1.02-.827-1.869-1.859-2.857-2.73a8.664,8.664,0,0,0-11.852-.016c-1.452,1.275-2.773,2.7-4.21,3.986a16.413,16.413,0,0,1-22.579,0c-1.275-1.141-2.459-2.385-3.7-3.563a9.151,9.151,0,0,0-4.661-2.559,1.93,1.93,0,0,1-1.75-2.108c.009-1.318-.04-2.637.012-3.952s.787-1.875,2.083-1.726a15.973,15.973,0,0,1,9.144,4.275c1.39,1.275,2.7,2.646,4.1,3.9a8.648,8.648,0,0,0,12.051.078C4.34,47.6,5.8,46.139,7.263,44.681a1.813,1.813,0,0,0,.4-1.16q.023-24.438,0-48.876a5.678,5.678,0,0,0-4.555-5.68A5.609,5.609,0,0,0-3.374-7.317a2.471,2.471,0,0,1-2.78,1.853c-1.048-.081-2.108,0-3.159-.019-1.729-.025-2.2-.588-1.953-2.291A13.543,13.543,0,0,1-.206-18.709,13.371,13.371,0,0,1,15.381-5.445c.044,2.276.006,4.552.006,6.924H44.029c0-3.23.187-6.436-.062-9.6-.187-2.388-2.543-4.194-5.062-4.443a5.449,5.449,0,0,0-5.581,3.386,3.072,3.072,0,0,1-3.666,2.344c-.871-.09-1.757,0-2.633-.025-1.492-.047-2.058-.746-1.8-2.192a13.434,13.434,0,0,1,14.607-11.2A13.487,13.487,0,0,1,51.923-6.748q.037,24.112.009,48.22ZM15.458,40.8c6.554-.967,11.65,1.446,15.938,6A22.576,22.576,0,0,0,34.6,49.715a8.6,8.6,0,0,0,8.74.784,1.133,1.133,0,0,0,.839-1.244c-.056-6.184-.031-12.368-.037-18.556,0-.457-.04-.917-.062-1.334H15.458Zm-.009-19.386H44.057V9.395H15.449Z" transform="translate(24.622 20.307)"/>
    </g>
    <g id="Group_14671" data-name="Group 14671" transform="translate(0.005 79.543)">
      <path id="Path_83775" data-name="Path 83775" d="M.009,2.631c0-.659-.034-1.318.006-1.974C.1-.665.78-1.2,2.108-1.05a15.822,15.822,0,0,1,9.141,4.269c1.424,1.3,2.745,2.721,4.2,3.986A8.642,8.642,0,0,0,27.4,7.189c1.191-1.035,2.267-2.2,3.417-3.29,7.2-6.815,16.566-6.868,23.854-.124,1.16,1.073,2.239,2.239,3.417,3.29a8.68,8.68,0,0,0,12.244.006C71.8,5.753,73.156,4.3,74.639,3a16.358,16.358,0,0,1,21.677-.233c1.343,1.126,2.553,2.41,3.821,3.625a10.164,10.164,0,0,0,5.279,3.028,1.9,1.9,0,0,1,1.626,2.083c0,1.275.028,2.55-.016,3.821-.05,1.468-.765,2.009-2.226,1.831a16.26,16.26,0,0,1-9.309-4.521c-1.346-1.259-2.618-2.6-4.008-3.812a8.6,8.6,0,0,0-11.647-.072C78.6,9.8,77.49,10.995,76.312,12.114c-7.335,6.977-16.783,7-24.143.047-1.116-1.054-2.167-2.183-3.318-3.2A8.673,8.673,0,0,0,36.7,9.036c-1.433,1.293-2.758,2.708-4.2,3.989a16.418,16.418,0,0,1-22.284-.1C9,11.84,7.879,10.665,6.7,9.546A9.747,9.747,0,0,0,1.62,6.692,1.835,1.835,0,0,1,.012,4.739c-.012-.7,0-1.405,0-2.108" transform="translate(0.004 1.247)"/>
    </g>
  </g>
</svg>
