<svg id="Group_14669" data-name="Group 14669" xmlns="http://www.w3.org/2000/svg" xmlnsXlink="http://www.w3.org/1999/xlink" width="94.168" height="106.014" viewBox="0 0 94.168 106.014">
  <defs>
    <clipPath id="clip-path">
      <path id="Path_83773" data-name="Path 83773" d="M0,71.917H94.168V-34.1H0Z" transform="translate(0 34.097)"/>
    </clipPath>
  </defs>
  <g id="Group_14668" data-name="Group 14668" transform="translate(0 0)" clip-path="url(#clip-path)">
    <g id="Group_14666" data-name="Group 14666" transform="translate(0 36.994)">
      <path id="Path_83771" data-name="Path 83771" d="M45.828,38.841a50.694,50.694,0,0,0-15.257,1.421A111.4,111.4,0,0,0,12.976,46.6,43.951,43.951,0,0,1-3.21,50.51a22.556,22.556,0,0,1-9.014-1.3c-4.822-1.9-6.42-6.06-4.135-10.73A14.922,14.922,0,0,1-11.8,33.251c4.256-3.262,9.132-5.3,14.134-7.064,2.295-.805,4.63-1.486,6.946-2.22.4-.131.787-.174.731-.815C9.484,17,8.993,10.84,8.477,4.479c-.364.264-.619.426-.852.616-6.738,5.46-14.557,8.448-22.992,9.968a5.241,5.241,0,0,1-6.271-4.173A5.267,5.267,0,0,1-17.1,4.622,40.557,40.557,0,0,0,5.645-7.3C7.386-9.09,9.1-10.909,10.887-12.653c7.658-7.481,21.111-7.714,28.5-.488,2.559,2.5,5.009,5.118,7.58,7.611C52.783.1,59.878,3.157,67.741,4.609a5.326,5.326,0,0,1,4.633,6.032,5.241,5.241,0,0,1-6.265,4.427c-8.37-1.486-16.134-4.446-22.849-9.816-.488-.392-.967-.79-1.458-1.178-.037-.028-.121,0-.283,0q-.28,3.153-.557,6.327c-.364,4.126-.706,8.252-1.113,12.375-.078.8.183,1.063.927,1.25a80.991,80.991,0,0,1,14.147,4.543,24.968,24.968,0,0,1,8.572,6.013,9.8,9.8,0,0,1,2.888,7.014,7.685,7.685,0,0,1-4.732,7.235,23.08,23.08,0,0,1-9.038,1.754c-6.52.19-12.9-.9-19.255-2.18-3.091-.622-6.215-1.063-9.321-1.589-.152-.025-.3-.078-.715-.187,7.129-4.182,14.747-6.181,22.507-7.785" transform="translate(21.728 18.415)"/>
    </g>
    <g id="Group_14667" data-name="Group 14667" transform="translate(29.794 -0.002)">
      <path id="Path_83772" data-name="Path 83772" d="M22.87,11.411A16.857,16.857,0,1,1,5.953-5.41,16.873,16.873,0,0,1,22.87,11.411" transform="translate(10.843 5.41)"/>
    </g>
  </g>
</svg>
