<svg id="Group_14800" data-name="Group 14800" xmlns="http://www.w3.org/2000/svg" xmlnsXlink="http://www.w3.org/1999/xlink" width="109.064" height="93.095" viewBox="0 0 109.064 93.095">
  <defs>
    <clipPath id="clip-path">
      <path id="Path_83889" data-name="Path 83889" d="M0,63.153H109.064V-29.942H0Z" transform="translate(0 29.942)"/>
    </clipPath>
  </defs>
  <g id="Group_14799" data-name="Group 14799" transform="translate(0 0)" clip-path="url(#clip-path)">
    <g id="Group_14792" data-name="Group 14792" transform="translate(19.394 85.788)">
      <path id="Path_83882" data-name="Path 83882" d="M6.832.112c-.1.955-.143,4.825-.314,5.724-.187.967-.721,1.43-1.53,1.418-1.99-.028-3.98,0-5.97-.016-1.219-.009-1.639-.423-1.838-2-.193-1.52-.28-3.65-.42-5.292a7.429,7.429,0,0,1,.821.724c.566,2.155.146.479,1.9.445,2.282-.037,4.564-1.135,6.85-1.1a3.125,3.125,0,0,1,.5.1" transform="translate(3.239 0.053)"/>
    </g>
    <g id="Group_14793" data-name="Group 14793" transform="translate(78.531 85.875)">
      <path id="Path_83883" data-name="Path 83883" d="M6.818,0c-.143,1.6-.233,3.793-.442,5.376C6.19,6.759,5.73,7.192,4.629,7.2c-2.055.019-4.107.016-6.162,0-.808-.006-1.256-.46-1.508-1.5A6.643,6.643,0,0,1-3.218,4.6c-.028-.5-.006-3.939-.006-4.49.149-.047.286.46.423.46C-.526.532,1.75.451,4.026.5,5.873.532,5.459,2.792,6.038.55c.065.012.715-.563.78-.55" transform="translate(3.233 0)"/>
    </g>
    <g id="Group_14794" data-name="Group 14794" transform="translate(18.435 44.639)">
      <path id="Path_83884" data-name="Path 83884" d="M47.445,7.793c-.886-.205-2.329-.373-3.227-.516-.619-.1-1.7-.482-2.18.1-.451.55-.2,2.68-1.371,2.478,0,0-.634-.218-1.017-1.775l-.42-1.07A22.885,22.885,0,0,0,35.611,0a6.056,6.056,0,0,0-3.9-2.394c-4.138-.423-8.274-.933-12.424-1.138q-3.255-.159-6.5-.159A135.721,135.721,0,0,0-4.641-2.563a5.873,5.873,0,0,0-4.02,1.7A19.9,19.9,0,0,0-11.4,2.993c-.678,1.384-1.241,2.811-1.785,4.247-.28.74-.423,2.5-1.4,2.674-1.169.2-.917-1.928-1.371-2.478-.476-.578-1.561-.193-2.176-.1-.9.14-2.341.308-3.23.516-1.2.28-1.16,1.965-1.116,2.87a1.2,1.2,0,0,0,.14.619c.239.367.768.426,1.157.51a16.377,16.377,0,0,0,3.4.18c.364-.012,2.189-.382,1.844.469-.277.678-1.318,1.2-1.872,1.639-.8.637-1.617,1.259-2.45,1.853a2.487,2.487,0,0,0-1.11,1.446,11.528,11.528,0,0,0-.208,2.046c-.056.728-.118,1.452-.171,2.176a122.379,122.379,0,0,0,.075,14.249,10.23,10.23,0,0,0,.367,2.27c.27.992.644,1.247,1.635,1.247h.1c.923-.016,1.847-.075,2.77-.075.159,0,.317,0,.476.006,3.2.081,6.4.23,9.6.292h.208c1.029,0,2.061-.134,3.091-.233.628-.059,1.25-.267,1.875-.267h.025c2.223.019,4.446.155,6.669.155h.121c6.5-.016,13-.093,19.5-.112.867,0,1.741-.084,2.612-.084a6.856,6.856,0,0,1,2.736.469.653.653,0,0,0,.249.037c.062,0,.124,0,.183,0,2.164-.025,4.331-.047,6.5-.081,2.31-.034,4.62-.127,6.93-.127.336,0,.675,0,1.014.006.072,0,.14,0,.211,0,1.679,0,2.1-.311,2.4-2.071a3.528,3.528,0,0,0,.031-.361c.124-2.45.267-4.9.361-7.353a60.8,60.8,0,0,0-.485-11.886,2.219,2.219,0,0,0-.948-1.607l-.221-.205c-.833-.594-1.648-1.216-2.45-1.853-.553-.438-1.6-.961-1.872-1.635-.345-.852,1.483-.485,1.844-.469a16.367,16.367,0,0,0,3.4-.183c.392-.081.917-.143,1.157-.51a1.183,1.183,0,0,0,.14-.616c.044-.908.09-2.593-1.116-2.873m-57.725.712A19.006,19.006,0,0,1-8.919,4.837,28.016,28.016,0,0,1-6.6,1.606C-5.8.53-4.451.474-3.2.325A125.041,125.041,0,0,1,11.711-.433c.743,0,1.489,0,2.232.012,4.008.034,8.015.208,12.017.4a39.672,39.672,0,0,1,4.888.606,3.454,3.454,0,0,1,1.663.836A14.057,14.057,0,0,1,36.463,8.6c.149.628-.065.818-.874.818H35.5Q25.533,9.259,15.566,9.1c-.314,0-.625-.006-.936-.006-.538,0-1.073.006-1.611.006v-.04Q3.156,9.18-6.711,9.3c-.892.012-1.785.084-2.677.106h-.155c-.787,0-.951-.165-.737-.9m3.495,14.458c-.594,0-1.194-.034-1.785-.068-.886-.05-1.76-.3-2.643-.333h-.072a12.217,12.217,0,0,0-1.735.3,6.566,6.566,0,0,1-.942.121,1.559,1.559,0,0,1-.3-.028c-.774-.149-1.53-.407-2.288-.628a1.407,1.407,0,0,1-1.107-1.206,33.355,33.355,0,0,1-.121-3.436c0-.131.445-.364.684-.37h.292a29.889,29.889,0,0,1,8.69,1.542,16.832,16.832,0,0,1,5.124,2.578c.211.155.41.323.644.51a19.085,19.085,0,0,1-2.944.917,10.072,10.072,0,0,1-1.5.1M29.9,30.851a4.783,4.783,0,0,1-3.98,1.831c-4.309.09-8.616.177-12.838.264L.21,32.682a4.956,4.956,0,0,1-3.818-1.573,2.159,2.159,0,0,1-.009-3.15,7.183,7.183,0,0,1,5.463-2.786c2.755-.221,5.5-.56,8.261-.749,1.088-.075,2.176-.109,3.262-.109A84.731,84.731,0,0,1,25.92,25.454c2.027.3,3.212,1.741,4.291,3.258a1.753,1.753,0,0,1-.311,2.139M43.421,17.276a8,8,0,0,1-.031,3.849,1.646,1.646,0,0,1-1.256,1.247,15.737,15.737,0,0,0-1.517.445,2.838,2.838,0,0,1-1,.183,4.069,4.069,0,0,1-1.281-.239,3.387,3.387,0,0,0-1.042-.14c-.494,0-1.007.062-1.492.1-1.029.072-2.052.317-3.078.336h-.068a9.728,9.728,0,0,1-2.18-.358c-.79-.183-1.558-.454-2.494-.731,4.639-3.5,9.915-4.44,15.44-4.689" transform="translate(22.494 3.695)"/>
    </g>
    <g id="Group_14795" data-name="Group 14795" transform="translate(61.638 22.38)">
      <path id="Path_83885" data-name="Path 83885" d="M5.024,0A2.065,2.065,0,0,1,6.1,1.477,7.1,7.1,0,0,1,3.261,9.125,5.947,5.947,0,0,0,.487,15.558,1.454,1.454,0,0,1-.638,17.38,1.415,1.415,0,0,1-2.2,16.087,8.723,8.723,0,0,1,.944,7.319q.7-.592,1.374-1.216a3.567,3.567,0,0,0,1.1-3.849A1.825,1.825,0,0,1,4.175,0Z" transform="translate(2.382)"/>
    </g>
    <g id="Group_14796" data-name="Group 14796" transform="translate(50.048 22.38)">
      <path id="Path_83886" data-name="Path 83886" d="M5.014,0A2.019,2.019,0,0,1,6.1,1.468,7.1,7.1,0,0,1,3.267,9.122a5.96,5.96,0,0,0-2.783,6.43A1.447,1.447,0,0,1-.629,17.38a1.437,1.437,0,0,1-1.579-1.356,8.718,8.718,0,0,1,3.262-8.79c.454-.373.889-.774,1.315-1.178A3.5,3.5,0,0,0,3.435,2.329,1.888,1.888,0,0,1,4.165,0Z" transform="translate(2.377)"/>
    </g>
    <g id="Group_14797" data-name="Group 14797" transform="translate(38.437 22.38)">
      <path id="Path_83887" data-name="Path 83887" d="M5.018,0c1.07.473,1.166,1.489,1.256,2.434A7.058,7.058,0,0,1,3.059,9.293a5.755,5.755,0,0,0-2.59,6.05c.019.118.04.233.053.351A1.427,1.427,0,0,1-.616,17.377a1.416,1.416,0,0,1-1.561-1.216A8.912,8.912,0,0,1-1.7,10.826,8.844,8.844,0,0,1,.967,7.316c.438-.351.855-.737,1.275-1.116a3.777,3.777,0,0,0,1.2-4.026C3.137.989,3.308.628,4.309,0Z" transform="translate(2.379)"/>
    </g>
    <g id="Group_14798" data-name="Group 14798" transform="translate(1.554 1.555)">
      <path id="Path_83888" data-name="Path 83888" d="M71.247,29.533a.937.937,0,0,1-.581-.2L19.2-11.884-32.27,29.331a.929.929,0,0,1-1.306-.146.929.929,0,0,1,.146-1.306L18.618-13.8a.935.935,0,0,1,1.163,0L71.825,27.879a.928.928,0,0,1,.149,1.3s0,0,0,0a.926.926,0,0,1-.724.348" transform="translate(33.779 14.002)" stroke="#000" strokeWidth="2"/>
    </g>
  </g>
</svg>
