<svg id="Group_14818" data-name="Group 14818" xmlns="http://www.w3.org/2000/svg" xmlnsXlink="http://www.w3.org/1999/xlink" width="109.44" height="109.406" viewBox="0 0 109.44 109.406">
  <defs>
    <clipPath id="clip-path">
      <path id="Path_83756" data-name="Path 83756" d="M0,74.218H109.44V-35.188H0Z" transform="translate(0 35.188)"/>
    </clipPath>
  </defs>
  <g id="Group_14648" data-name="Group 14648" transform="translate(0 0)" clip-path="url(#clip-path)">
    <g id="Group_14639" data-name="Group 14639" transform="translate(16.56 35.443)">
      <path id="Path_83747" data-name="Path 83747" d="M39.073,28.77a7.545,7.545,0,0,1-4.505,6.977c-2.8,1.256-5.534,1.126-8.392.69A85.667,85.667,0,0,1,2.932,29.37,63.255,63.255,0,0,1-13.236,19.013a64.442,64.442,0,0,1-5.1-5.659,1.118,1.118,0,0,1-.149-.933c2.624-7.123,5.3-14.231,7.919-21.36,1.443-3.936,4.7-4.975,7.761-4.645a21.225,21.225,0,0,1,4.123.861,38.513,38.513,0,0,1,10.3,5.329A82.063,82.063,0,0,1,33.893,15.562a32.621,32.621,0,0,1,4.667,10c.255,1.051.348,2.139.513,3.209m-7.58,1.71c1.449.012,1.794-.33,1.763-1.778-.006-.233-.04-.46-.065-.69a17.105,17.105,0,0,0-2.021-5.861A59.036,59.036,0,0,0,21.7,8.955,77.687,77.687,0,0,0,7.972-3.087,34.222,34.222,0,0,0-1.036-7.6,6.455,6.455,0,0,0-4.446-7.89c-.473.109-.774.379-.734.861a18.91,18.91,0,0,0,.386,3.342A30.9,30.9,0,0,0-.115,5.538a79.059,79.059,0,0,0,14.775,16,50.154,50.154,0,0,0,11.46,7.478,14.3,14.3,0,0,0,5.373,1.468" transform="translate(18.525 13.64)"/>
    </g>
    <g id="Group_14640" data-name="Group 14640" transform="translate(9.044 68.587)">
      <path id="Path_83748" data-name="Path 83748" d="M3.295,0a4.96,4.96,0,0,1,.414.351A59.01,59.01,0,0,0,18.253,11.806a94.507,94.507,0,0,0,23.431,9.467c.354.093.721.155,1.082.227.333.065.662.124.995.187.006.059.016.118.025.177l-.9.336c-4.742,1.75-9.492,3.479-14.218,5.273a6.091,6.091,0,0,1-3.33.012,64.851,64.851,0,0,1-13.693-3.638A29.345,29.345,0,0,1,1.106,17.2c-.846-.88-1.576-1.872-2.354-2.817a1.357,1.357,0,0,1-.177-1.48C.083,8.936,1.55,4.953,3.027.97c.1-.28.159-.575.267-.97" transform="translate(1.562)"/>
    </g>
    <g id="Group_14641" data-name="Group 14641" transform="translate(70.026 38.999)">
      <path id="Path_83749" data-name="Path 83749" d="M16.033,7.266c-.115,1.576-.2,3.007-.333,4.427a6.654,6.654,0,0,1-5.45,6.175,6.36,6.36,0,0,1-4.536-.833c-1.29-.765-2.5-1.657-3.75-2.494-.243-.165-.488-.33-.911-.613C.736,15.2.44,16.354.164,17.511c-.121.513-.155,1.057-.32,1.555a1.828,1.828,0,0,1-2.136,1.349c-1.34-.227-2.677-.5-4-.824a1.591,1.591,0,0,1-1.3-1.859,19.836,19.836,0,0,1,2.114-7.484A7.768,7.768,0,0,1,.108,6.085a5.421,5.421,0,0,1,3.6.731c1.337.718,2.581,1.611,3.865,2.428.205.131.4.267.752.5,0-.476.012-.784,0-1.091A15.194,15.194,0,0,1,8.891,3.65,6.322,6.322,0,0,1,17.479-.519a40.474,40.474,0,0,1,4.888,2.988c.193.118.373.261.647.454a4.126,4.126,0,0,0,.351-.737c.326-1.272.647-2.546.936-3.827a1.957,1.957,0,0,1,2.674-1.716c1.085.224,2.183.392,3.262.644A1.723,1.723,0,0,1,31.793-.572a17.958,17.958,0,0,1-2.366,7.754,6.926,6.926,0,0,1-6.4,3.669,6.862,6.862,0,0,1-3.5-1.188c-.973-.622-1.906-1.306-2.857-1.962-.183-.124-.367-.252-.634-.435" transform="translate(7.601 3.445)"/>
    </g>
    <g id="Group_14642" data-name="Group 14642" transform="translate(46.545 0)">
      <path id="Path_83750" data-name="Path 83750" d="M4.388,20.8C3.661,19.787,3,18.9,2.376,17.98A9.815,9.815,0,0,1,.433,13.59a6.615,6.615,0,0,1,6.2-7.338C7.9,6.131,9.17,6.084,10.439,6c.177-.012.351-.044.665-.084-.243-.336-.429-.581-.606-.836A16.79,16.79,0,0,1,7.73.233,6.13,6.13,0,0,1,8.993-5.544c1.729-2.192,4.191-3.109,6.787-3.737a24.718,24.718,0,0,1,3.271-.566A1.607,1.607,0,0,1,21-8.488a39.032,39.032,0,0,1,.784,4,1.8,1.8,0,0,1-1.626,2.117q-2.019.48-4.033.973a6.619,6.619,0,0,0-.675.239c.215.351.389.662.585.961.774,1.15,1.632,2.251,2.31,3.454a6.528,6.528,0,0,1,.373,6.424,6,6,0,0,1-4.477,3.473c-1.806.326-3.653.429-5.5.631.252.37.6.821.883,1.3.756,1.265,1.561,2.509,2.2,3.831a5.605,5.605,0,0,1-.606,5.656,8.669,8.669,0,0,1-5.1,3.715A50.969,50.969,0,0,1,.868,29.506a1.672,1.672,0,0,1-2.155-1.424c-.3-1.253-.557-2.525-.762-3.8A1.861,1.861,0,0,1-.459,22.053c1.206-.308,2.431-.529,3.644-.815a11.83,11.83,0,0,0,1.2-.435" transform="translate(2.08 9.863)"/>
    </g>
    <g id="Group_14643" data-name="Group 14643" transform="translate(64.412 16.834)">
      <path id="Path_83751" data-name="Path 83751" d="M27.793,2.058c0,.463.028.927-.006,1.387a1.187,1.187,0,0,1-1.194,1.272c-1.558.208-3.134.3-4.673.6a41.9,41.9,0,0,0-12.8,4.931,57.614,57.614,0,0,0-13.394,10.8c-1.321,1.415-2.481,2.985-3.691,4.5-.849,1.063-1.066,1.11-2.223.358-.737-.479-1.489-.93-2.214-1.427-.93-.64-1-1.088-.342-1.984A60.563,60.563,0,0,1,11.127,2.842a44.005,44.005,0,0,1,14.815-3.8c1.275-.106,1.778.339,1.862,1.632.028.46,0,.923,0,1.387Z" transform="translate(13.177 0.976)"/>
    </g>
    <g id="Group_14644" data-name="Group 14644" transform="translate(0 89.055)">
      <path id="Path_83752" data-name="Path 83752" d="M4.308,0C10.023,6.19,17.283,9.371,25.2,11.451c-3.119,1.163-6.138,2.288-9.16,3.417Q9,17.494,1.961,20.119a2.82,2.82,0,0,1-3.846-1.744,2.527,2.527,0,0,1,.093-1.946Q.437,10.459,2.669,4.493C3.207,3.05,3.727,1.6,4.308,0" transform="translate(2.042)"/>
    </g>
    <g id="Group_14645" data-name="Group 14645" transform="translate(83.92 68.462)">
      <path id="Path_83753" data-name="Path 83753" d="M3.228,3.938c-1.2,0-2.4.009-3.6,0-.774-.009-1.085-.246-1.113-1.01A35.312,35.312,0,0,1-1.473-.881c.019-.3.46-.625.771-.852a1.419,1.419,0,0,1,.74-.109c2.145-.016,4.294-.034,6.439-.022,1.346.009,1.66.364,1.654,1.716,0,.923.019,1.847,0,2.77-.016.939-.379,1.3-1.306,1.312-1.2.012-2.4,0-3.6,0" transform="translate(1.531 1.867)"/>
    </g>
    <g id="Group_14646" data-name="Group 14646" transform="translate(35.18 7.99)">
      <path id="Path_83754" data-name="Path 83754" d="M0,3.287C0,2.109,0,.931,0-.248c0-.864.333-1.256,1.188-1.284,1.154-.037,2.31-.031,3.464-.009A1.2,1.2,0,0,1,5.8-.291q.028,3.605-.012,7.207A1.1,1.1,0,0,1,4.556,8.107c-1.063.009-2.127.016-3.19,0C.256,8.088.023,7.849.014,6.754,0,5.6.014,4.444.014,3.287Z" transform="translate(0.001 1.559)"/>
    </g>
    <g id="Group_14647" data-name="Group 14647" transform="translate(90.943 0.701)">
      <path id="Path_83755" data-name="Path 83755" d="M2.464,6.839A3.486,3.486,0,0,1,1.8,6.463C.928,5.636.052,4.812-.779,3.945A1.033,1.033,0,0,1-.741,2.3C.944.618,2.629-1.064,4.333-2.725c.712-.69,1.054-.69,1.766,0C6.948-1.91,7.738-1.036,8.571-.2A.728.728,0,0,1,8.6.9a4.914,4.914,0,0,1-.4.476Q5.727,3.85,3.239,6.314a5.365,5.365,0,0,1-.774.525" transform="translate(1.168 3.243)"/>
    </g>
  </g>
</svg>
