<svg id="Group_14688" data-name="Group 14688" xmlns="http://www.w3.org/2000/svg" xmlnsXlink="http://www.w3.org/1999/xlink" width="111.607" height="91.578" viewBox="0 0 111.607 91.578">
  <defs>
    <clipPath id="clip-path">
      <path id="Path_83789" data-name="Path 83789" d="M0,62.124H111.607V-29.454H0Z" transform="translate(0 29.454)"/>
    </clipPath>
  </defs>
  <g id="Group_14687" data-name="Group 14687" transform="translate(0 0)" clip-path="url(#clip-path)">
    <g id="Group_14682" data-name="Group 14682" transform="translate(71.921 21.788)">
      <path id="Path_83784" data-name="Path 83784" d="M26.775,15.62q-2.789-9-5.612-17.99a6.721,6.721,0,0,0-6.769-5.018q-7.229-.037-14.455,0a6.762,6.762,0,0,0-6.8,5.043l-.006-.006c-.18.563-.354,1.129-.532,1.691C-8.53,2.888-9.7,6.426-10.731,10q-.872,2.817-1.747,5.637a2.978,2.978,0,0,0,.958,3.6,2.682,2.682,0,0,0,3.29-.022,4.383,4.383,0,0,0,1.2-1.912c.137-.454.27-.9.407-1.359,0,0,.389-1.244.563-1.884.973-3.29,1.921-6.585,2.882-9.875.115-.389.23-.774.345-1.163a9.184,9.184,0,0,1,.585-1.2c.224.326.379.445.373.557-.084,2.888.494,5.817-.364,8.656-1.847,6.122-3.747,12.225-5.621,18.338-.56,1.825-1.107,3.653-1.707,5.64H-1.82v1.433c0,6.557.009,13.115-.009,19.675a3.905,3.905,0,0,0,1.1,3.044,3.421,3.421,0,0,0,3.871.8,3.661,3.661,0,0,0,2.369-3.576c.034-3.5.012-7,.012-10.509,0-3.277-.016-6.557.022-9.837,0-.351.27-.976.473-1a22.353,22.353,0,0,1,2.755-.05V44.56c0,3.986-.019,7.972.016,11.961a3.637,3.637,0,0,0,7.176.9,7.623,7.623,0,0,0,.165-1.884c.009-6.483.022-12.968-.012-19.451,0-.883.249-1.157,1.122-1.132,1.977.062,3.958.022,6.06.022-.127-.473-.215-.821-.32-1.166q-3.1-10.13-6.2-20.256a10.918,10.918,0,0,1-.613-2.7c-.081-2.605-.037-5.217-.016-7.826a4.635,4.635,0,0,1,.246-1.035c.112,0,.221,0,.33-.006.152.392.336.774.454,1.178,1.377,4.71,2.724,9.43,4.145,14.125A4.446,4.446,0,0,0,22.528,19.2a2.678,2.678,0,0,0,3.286.022,2.983,2.983,0,0,0,.961-3.6" transform="translate(12.695 7.406)"/>
    </g>
    <g id="Group_14683" data-name="Group 14683" transform="translate(12.051 1.922)">
      <path id="Path_83785" data-name="Path 83785" d="M5.336,10.7a7.841,7.841,0,0,0,7.742-7.925A7.842,7.842,0,0,0,5.262-5.074,7.828,7.828,0,0,0-2.53,2.8,7.827,7.827,0,0,0,5.336,10.7" transform="translate(2.53 5.074)"/>
    </g>
    <g id="Group_14684" data-name="Group 14684" transform="translate(83.458 1.922)">
      <path id="Path_83786" data-name="Path 83786" d="M5.258,10.7a7.791,7.791,0,0,0,7.81-7.835A7.782,7.782,0,1,0-2.493,2.814,7.788,7.788,0,0,0,5.258,10.7" transform="translate(2.493 5.074)"/>
    </g>
    <g id="Group_14685" data-name="Group 14685" transform="translate(0 21.789)">
      <path id="Path_83787" data-name="Path 83787" d="M26.88,16.06l.028.006c-.152-.485-.3-.976-.454-1.461-.435-1.443-3.992-12.888-5.329-17.169A6.76,6.76,0,0,0,14.362-7.6Q7.133-7.631-.092-7.6a6.757,6.757,0,0,0-6.834,5.09C-7.878.464-8.8,3.446-9.725,6.428-10.7,9.549-11.7,12.665-12.613,15.8A2.857,2.857,0,0,0-10.8,19.4,2.886,2.886,0,0,0-7.259,17.7,8.228,8.228,0,0,0-6.9,16.651Q-4.881,9.688-2.85,2.728a5.887,5.887,0,0,1,.485-.97c.118.019.236.037.354.059.047.482.131.967.131,1.449q.009,25.991.006,51.979c0,.485-.006.97.037,1.452A3.647,3.647,0,0,0,.949,59.921a3.358,3.358,0,0,0,3.865-1.67,6.564,6.564,0,0,0,.647-2.761c.047-8.42.028-16.842.031-25.262a5.3,5.3,0,0,1,.053-1.113c.187-.824.774-1.424,1.558-1.265a3.014,3.014,0,0,1,1.5,1.2c.224.3.127.858.127,1.3q.009,12.909.012,25.822a3.628,3.628,0,0,0,3.283,3.815A3.665,3.665,0,0,0,16,56.9a8.374,8.374,0,0,0,.075-1.558q0-26.047.009-52.091c0-.479.084-.958.131-1.436.155-.012.308-.028.463-.044.118.3.255.606.367.914,0,0,2.127,7.415,3.212,11.09.053.215.109.429.159.644l.031.009q.331,1.11.656,2.226a8.242,8.242,0,0,0,.358,1.054,2.89,2.89,0,0,0,3.554,1.676A2.846,2.846,0,0,0,26.88,16.06" transform="translate(12.744 7.614)"/>
    </g>
    <g id="Group_14686" data-name="Group 14686" transform="translate(53.829 0)">
      <path id="Path_83788" data-name="Path 83788" d="M1.289,62.124A1.913,1.913,0,0,1-.611,60.2V-27.529a1.913,1.913,0,0,1,1.9-1.925,1.913,1.913,0,0,1,1.9,1.925V60.2a1.913,1.913,0,0,1-1.9,1.925" transform="translate(0.611 29.454)"/>
    </g>
  </g>
</svg>
