<svg id="Group_14707" data-name="Group 14707" xmlns="http://www.w3.org/2000/svg" xmlnsXlink="http://www.w3.org/1999/xlink" width="105.094" height="81.538" viewBox="0 0 105.094 81.538">
  <defs>
    <clipPath id="clip-path">
      <path id="Path_83806" data-name="Path 83806" d="M0,55.313H105.094V-26.225H0Z" transform="translate(0 26.225)"/>
    </clipPath>
  </defs>
  <g id="Group_14706" data-name="Group 14706" transform="translate(0 0)" clip-path="url(#clip-path)">
    <g id="Group_14694" data-name="Group 14694" transform="translate(83.339 45.442)">
      <path id="Path_83794" data-name="Path 83794" d="M6.649,2.268a5.536,5.536,0,0,0-1.94,1.415,20.274,20.274,0,0,1,0-2.13A3.224,3.224,0,0,0,4.118-.456,1.529,1.529,0,0,0,2.219-.9a2.378,2.378,0,0,0-.762,2.012q-.145,3.75-.143,7.5A5.332,5.332,0,0,0-1.379,6.791a1.847,1.847,0,0,0-1-.068c-1.172.317-.8,2.043-.246,2.724a14.787,14.787,0,0,0,1.6,1.455,8.186,8.186,0,0,1,2.267,4.443A24.306,24.306,0,0,1,1.51,20.4L1.3,34.811l3.246.14c.239-6.066.264-12.144.025-18.214a30.282,30.282,0,0,1,.09-5.519A9.323,9.323,0,0,1,6.82,6.213,13.374,13.374,0,0,0,8.891,3.937c.382-.69.361-1.794-.392-2.027a1.465,1.465,0,0,0-.7,0,5.334,5.334,0,0,0-1.154.358" transform="translate(3.153 1.075)"/>
    </g>
    <g id="Group_14695" data-name="Group 14695" transform="translate(0.001 43.769)">
      <path id="Path_83795" data-name="Path 83795" d="M45.793,25.529V19.2c5.335-.414,6.374-.917,6.346-3.526-.025-2.273.2-4.928-.883-6.682-.78-1.272-3.51-1.346-5.634-2.04,0-3.986,0-8.351,0-12.713,0-4.763-1.607-6.346-6.442-6.346H-7.194c-6.943,0-7.932.992-7.932,7.944v11.7c-2.829.224-6.228-.74-6.5,3.373a15.928,15.928,0,0,0,.6,6.61c.958,2.481,3.859,1.2,5.777,1.716v6.43c.193,0,3.532-.131,3.532-.131V19.181h53.9v6.355ZM42.187,7.481h-53.91V4.393h53.91Zm.025-6.6H-11.758V-2.136H42.211Zm.025-6.554H-11.742c-.152-2.792.162-3.143,2.78-3.143q24.214,0,48.429.009c2.615,0,2.926.342,2.77,3.134" transform="translate(21.711 12.104)"/>
    </g>
    <g id="Group_14696" data-name="Group 14696" transform="translate(73.815 14.109)">
      <path id="Path_83796" data-name="Path 83796" d="M20.96,26.482c-.948,5.6-3.821,10.406-10.267,12.6,0-3.118-.04-6,.04-8.886.012-.445.522-.917.883-1.3.836-.9,1.75-1.729,2.584-2.633a4.681,4.681,0,0,0,1.132-4.925,4.988,4.988,0,0,0-4.02-3.386,4.063,4.063,0,0,1-1.9-.864,4.826,4.826,0,0,0-5.441-1.244,4.767,4.767,0,0,0-3.143,4.81c0,.675,0,1.352,0,1.981-3.8,1.185-5.625,3.339-4.76,6.082a8.864,8.864,0,0,0,2.752,3.918C.931,34.364,1.111,36.419.636,39.015a14.241,14.241,0,0,1-9.629-9.6c-1.5-4.695-.9-9.489-.314-14.228A64.739,64.739,0,0,1-3.195-4.7a20.545,20.545,0,0,1,4.291-5.9,6.57,6.57,0,0,1,9.439.078,19.042,19.042,0,0,1,3.955,5.4,72.352,72.352,0,0,1,5.848,17.349,41.226,41.226,0,0,1,.622,14.246" transform="translate(9.938 12.556)"/>
    </g>
    <g id="Group_14697" data-name="Group 14697" transform="translate(27.042 9.438)">
      <path id="Path_83797" data-name="Path 83797" d="M6.676,13.478A9.89,9.89,0,0,1-3.165,3.485a9.886,9.886,0,1,1,19.771.081,9.9,9.9,0,0,1-9.931,9.912" transform="translate(3.165 6.39)"/>
    </g>
    <g id="Group_14698" data-name="Group 14698" transform="translate(22.865 5.204)">
      <path id="Path_83798" data-name="Path 83798" d="M3.9,2.922a5.949,5.949,0,0,1-.973,1.169,1.233,1.233,0,0,1-1.611-.152C.339,3.016-.619,2.067-1.517,1.069A1.459,1.459,0,0,1-1.355-.939a1.4,1.4,0,0,1,1.94-.1c.992.9,1.928,1.875,2.845,2.854A4.109,4.109,0,0,1,3.9,2.922" transform="translate(1.847 1.386)"/>
    </g>
    <g id="Group_14699" data-name="Group 14699" transform="translate(45.188 5.221)">
      <path id="Path_83799" data-name="Path 83799" d="M0,2.878A6.531,6.531,0,0,1,.675,1.637C1.458.785,2.288-.029,3.119-.838A1.493,1.493,0,0,1,5.307-.931a1.527,1.527,0,0,1,.016,2.2c-.83.883-1.691,1.738-2.565,2.581a1.274,1.274,0,0,1-1.66.274A6.548,6.548,0,0,1,0,2.878" transform="translate(0 1.364)"/>
    </g>
    <g id="Group_14700" data-name="Group 14700" transform="translate(22.676 27.878)">
      <path id="Path_83800" data-name="Path 83800" d="M0,2.842A7.865,7.865,0,0,1,.765,1.576C1.511.762,2.307-.016,3.1-.79A1.526,1.526,0,0,1,5.345-.908a1.553,1.553,0,0,1-.068,2.257Q4.045,2.632,2.761,3.871A1.283,1.283,0,0,1,1.1,4.123,6.5,6.5,0,0,1,0,2.842" transform="translate(0 1.347)"/>
    </g>
    <g id="Group_14701" data-name="Group 14701" transform="translate(45.24 27.838)">
      <path id="Path_83801" data-name="Path 83801" d="M0,.956A5.834,5.834,0,0,1,.964-.216a1.231,1.231,0,0,1,1.611.14c.979.92,1.934,1.866,2.832,2.864A1.463,1.463,0,0,1,5.264,4.8a1.432,1.432,0,0,1-2.009.072c-.964-.9-1.881-1.847-2.777-2.811A4.15,4.15,0,0,1,0,.956" transform="translate(0 0.453)"/>
    </g>
    <g id="Group_14702" data-name="Group 14702" transform="translate(35.414 32.027)">
      <path id="Path_83802" data-name="Path 83802" d="M.007,2.267c0-.634-.025-1.269.006-1.9A1.49,1.49,0,0,1,1.505-1.075,1.478,1.478,0,0,1,3,.361c.034,1.293.037,2.587,0,3.88a1.478,1.478,0,0,1-1.527,1.4,1.48,1.48,0,0,1-1.455-1.4C-.021,3.589.007,2.927.007,2.267" transform="translate(0.003 1.075)"/>
    </g>
    <g id="Group_14703" data-name="Group 14703" transform="translate(35.413 -0.001)">
      <path id="Path_83803" data-name="Path 83803" d="M.005,2.3c0-.634-.022-1.269.006-1.9A1.488,1.488,0,0,1,1.538-1.089,1.48,1.48,0,0,1,3.006.379q.047,1.9,0,3.8A1.487,1.487,0,0,1,1.517,5.627,1.482,1.482,0,0,1,.015,4.2C-.019,3.566.009,2.931.009,2.3Z" transform="translate(0.003 1.089)"/>
    </g>
    <g id="Group_14704" data-name="Group 14704" transform="translate(17.688 17.846)">
      <path id="Path_83804" data-name="Path 83804" d="M2.242,2.068c-.606,0-1.209.022-1.816-.006A1.5,1.5,0,0,1-1.063.541,1.454,1.454,0,0,1,.361-.951q1.931-.061,3.865.006A1.394,1.394,0,0,1,5.578.513,1.455,1.455,0,0,1,4.213,2.056c-.653.04-1.315.009-1.971.009Z" transform="translate(1.063 0.981)"/>
    </g>
    <g id="Group_14705" data-name="Group 14705" transform="translate(49.521 17.843)">
      <path id="Path_83805" data-name="Path 83805" d="M2.2,2.071c-.578,0-1.157.016-1.735,0A1.456,1.456,0,0,1-1.044.588,1.427,1.427,0,0,1,.393-.955C1.63-.992,2.868-.989,4.1-.958A1.48,1.48,0,0,1,5.6.553,1.511,1.511,0,0,1,4.1,2.064c-.631.025-1.262.006-1.893.006" transform="translate(1.044 0.982)"/>
    </g>
  </g>
</svg>
