<svg xmlns="http://www.w3.org/2000/svg" xmlnsXlink="http://www.w3.org/1999/xlink" width="104.693" height="89.889" viewBox="0 0 104.693 89.889">
  <defs>
    <clipPath id="clip-path">
      <path id="Path_83866" data-name="Path 83866" d="M0,60.978H104.693V-28.911H0Z" transform="translate(0 28.911)" fill="none"/>
    </clipPath>
  </defs>
  <g id="Group_14776" data-name="Group 14776" transform="translate(0 0)">
    <g id="Group_14775" data-name="Group 14775" transform="translate(0 0)" clip-path="url(#clip-path)">
      <g id="Group_14770" data-name="Group 14770" transform="translate(44.289 9.309)">
        <path id="Path_83861" data-name="Path 83861" d="M16.108,3.582a13.168,13.168,0,0,1-1.579,17.595,12.87,12.87,0,0,1-10.2,3.442A12.6,12.6,0,0,1-4.624,19.85,13.128,13.128,0,0,1-2.837,1.338,13.158,13.158,0,0,1,16.108,3.582" transform="translate(7.637 1.699)"/>
      </g>
      <g id="Group_14771" data-name="Group 14771" transform="translate(48.873 13.753)">
        <path id="Path_83862" data-name="Path 83862" d="M5.933,11.866a8.746,8.746,0,1,1,0-17.492A8.8,8.8,0,0,1,13.46-1.335,1.088,1.088,0,0,1,13.081.151a1.088,1.088,0,0,1-1.486-.379A6.578,6.578,0,0,0-.646,3.12,6.58,6.58,0,0,0,12.288,4.83a1.083,1.083,0,0,1,2.092.563,8.755,8.755,0,0,1-8.448,6.473" transform="translate(2.813 5.626)" fill="#fff"/>
      </g>
      <g id="Group_14772" data-name="Group 14772" transform="translate(28.203 0)">
        <path id="Path_83863" data-name="Path 83863" d="M16.108,3.582a13.168,13.168,0,0,1-1.579,17.595,12.87,12.87,0,0,1-10.2,3.442A12.6,12.6,0,0,1-4.624,19.85,13.128,13.128,0,0,1-2.837,1.338,13.158,13.158,0,0,1,16.108,3.582" transform="translate(7.637 1.699)"/>
      </g>
      <g id="Group_14773" data-name="Group 14773" transform="translate(32.787 4.444)">
        <path id="Path_83864" data-name="Path 83864" d="M5.933,11.866a8.746,8.746,0,1,1,0-17.492A8.8,8.8,0,0,1,13.46-1.335,1.088,1.088,0,0,1,13.081.151a1.088,1.088,0,0,1-1.486-.379A6.578,6.578,0,0,0-.646,3.12,6.58,6.58,0,0,0,12.288,4.83a1.083,1.083,0,0,1,2.092.563,8.755,8.755,0,0,1-8.448,6.473" transform="translate(2.813 5.626)" fill="#fff"/>
      </g>
      <g id="Group_14774" data-name="Group 14774" transform="translate(0.001 7.175)">
        <path id="Path_83865" data-name="Path 83865" d="M70.309,52.931,23.366,18,53.8-4.639c.075-.056.146-.118.215-.18A16.338,16.338,0,0,0,56.5-4.15a40.966,40.966,0,0,0,7.835.336,2.489,2.489,0,0,1,1.782.274,3.29,3.29,0,0,0,3.734-.044,3.3,3.3,0,0,0,1.126-3.939A3.15,3.15,0,0,0,67.52-9.511c-1.1.134-2.127.65-3.305.417-1.673-.33-3.339-.606-4.645-1.841A5.647,5.647,0,0,1,57.99-13.5a9.81,9.81,0,0,1-.1-4.014,4.745,4.745,0,0,1,.3-1.34c.221-.507.606-.936.855-1.433a3.045,3.045,0,0,0-.264-3.535,3.311,3.311,0,0,0-3.492-1.166,3.346,3.346,0,0,0-2.316,3.858A2.079,2.079,0,0,1,53.149-20a54.4,54.4,0,0,0-1.834,6.778,17.573,17.573,0,0,0-.395,4.256c-.078.047-.152.1-.227.149L19.011,14.763-12.672-8.814q-.107-.079-.224-.149a17.889,17.889,0,0,0-.395-4.256A54.416,54.416,0,0,0-15.128-20a2.108,2.108,0,0,1,.171-1.135,3.343,3.343,0,0,0-2.313-3.858,3.309,3.309,0,0,0-3.492,1.166,3.04,3.04,0,0,0-.264,3.535c.246.5.631.927.855,1.433a4.854,4.854,0,0,1,.3,1.34,9.864,9.864,0,0,1-.1,4.014,5.7,5.7,0,0,1-1.579,2.568c-1.306,1.234-2.972,1.511-4.648,1.841-1.178.233-2.2-.283-3.305-.417a3.154,3.154,0,0,0-3.457,1.987,3.3,3.3,0,0,0,1.126,3.939,3.29,3.29,0,0,0,3.734.044,2.5,2.5,0,0,1,1.785-.274,40.988,40.988,0,0,0,7.835-.336,16.3,16.3,0,0,0,2.484-.668,2.483,2.483,0,0,0,.218.18L14.655,18-32.288,52.931a2.6,2.6,0,0,0-.532,3.638,2.593,2.593,0,0,0,2.086,1.051,2.583,2.583,0,0,0,1.551-.516L19.011,21.245,67.2,57.1a2.6,2.6,0,1,0,3.106-4.173" transform="translate(33.335 25.096)"/>
      </g>
    </g>
  </g>
</svg>
