<svg xmlns="http://www.w3.org/2000/svg" xmlnsXlink="http://www.w3.org/1999/xlink" width="120.158" height="78.26" viewBox="0 0 120.158 78.26">
  <defs>
    <clipPath id="clip-path">
      <path id="Path_83746" data-name="Path 83746" d="M0,54.452H120.158v-78.26H0Z" transform="translate(0 21.308)"/>
    </clipPath>
  </defs>
  <g id="Group_14638" data-name="Group 14638" transform="translate(0 2.5)">
    <g id="Group_14637" data-name="Group 14637" transform="translate(0 0)" clip-path="url(#clip-path)">
      <g id="Group_14633" data-name="Group 14633" transform="translate(3.001 6.416)">
        <path id="Path_83742" data-name="Path 83742" d="M25.661,28.373C25.646,22.512,23,19.838,17.2,19.825c-6.38-.016-12.76-.056-19.137.028-1.81.022-2.431-.606-2.621-2.4-1-9.536-2.155-19.053-3.218-28.58-.177-1.589-.762-2.562-2.528-2.276s-1.981,1.486-1.816,2.991c1.374,12.651,2.948,25.29,4,37.969.64,7.667.463,15.4.659,23.1.037,1.43.249,2.677,2.164,2.683,1.847.006,2.248-1.051,2.229-2.59-.053-4.875,0-9.753-.168-14.626-.062-1.931.457-2.658,2.481-2.624q9.682.154,19.37,0c2.108-.037,2.717.7,2.668,2.739-.121,4.878-.016,9.763-.047,14.647-.012,1.611.538,2.6,2.295,2.518,1.816-.09,2.1-1.412,2.117-2.826.034-3.858.012-7.72.012-11.579,0-3.541.009-7.086,0-10.63" transform="translate(12.166 13.452)"/>
      </g>
      <g id="Group_14634" data-name="Group 14634" transform="translate(79.322 6.417)">
        <path id="Path_83743" data-name="Path 83743" d="M24.4.034c-1.766-.286-2.351.684-2.528,2.273-1.063,9.53-2.214,19.047-3.218,28.58-.19,1.8-.815,2.425-2.621,2.4C9.661,33.2,3.28,33.246-3.1,33.258c-5.808.012-8.448,2.689-8.463,8.55-.009,3.541,0,7.086,0,10.63,0,3.858-.019,7.717.012,11.575.012,1.418.3,2.739,2.12,2.826,1.757.087,2.307-.908,2.295-2.518-.031-4.881.075-9.766-.047-14.647-.05-2.04.557-2.776,2.665-2.739q9.687.168,19.373,0c2.024-.031,2.543.7,2.478,2.624-.162,4.872-.112,9.75-.168,14.629-.016,1.539.386,2.6,2.229,2.59,1.915-.006,2.13-1.253,2.167-2.683.2-7.7.019-15.44.656-23.107,1.057-12.679,2.63-25.315,4-37.969.165-1.5-.059-2.7-1.816-2.988" transform="translate(11.57 0.016)"/>
      </g>
      <g id="Group_14635" data-name="Group 14635" transform="translate(25.841 24.685)">
        <path id="Path_83744" data-name="Path 83744" d="M31.914,30.028H24.085a3,3,0,0,1-3-3V-3.747H50.719a1.521,1.521,0,0,0,1.517-1.514V-12.72a1.523,1.523,0,0,0-1.517-1.517H-13.617a1.521,1.521,0,0,0-1.514,1.517v7.459a1.518,1.518,0,0,0,1.514,1.514H16.014V27.031a3,3,0,0,1-3,3H5.188a2.537,2.537,0,1,0,0,5.074H31.914a2.537,2.537,0,1,0,0-5.074" transform="translate(15.131 14.237)"/>
      </g>
      <g id="Group_14636" data-name="Group 14636" transform="translate(40.736 -1.001)">
        <path id="Path_83745" data-name="Path 83745" d="M.886,14.969H40.292A1.31,1.31,0,0,0,41.6,13.663v-.33a1.31,1.31,0,0,0-1.306-1.306H39.207c-.687-.084-.933-.426-1.029-1.265A17.448,17.448,0,0,0,31.384-1.323a16.535,16.535,0,0,0-9.66-3.342,1.594,1.594,0,0,0,.23-.818A1.612,1.612,0,0,0,20.34-7.1a1.612,1.612,0,0,0-1.614,1.614,1.621,1.621,0,0,0,.264.883,22.377,22.377,0,0,0-4.418.849,13.2,13.2,0,0,0-3.5,1.617A17.356,17.356,0,0,0,3.106,10.678c-.109.846-.445,1.253-1.2,1.349H.886A1.31,1.31,0,0,0-.42,13.333v.33A1.31,1.31,0,0,0,.886,14.969M26.182-.524a2.142,2.142,0,0,1,.37.208,18.5,18.5,0,0,1,5.615,7.857,12.313,12.313,0,0,1,.712,3.7c.016.522-.155.749-.631.787H30.625c-.684-.044-.9-.326-.939-1.038A20.637,20.637,0,0,0,26.512.486c-.183-.28-.314-.594-.473-.892.05-.04.1-.078.143-.118" transform="translate(0.42 7.097)"/>
      </g>
    </g>
  </g>
</svg>