<svg id="Group_14817" data-name="Group 14817" xmlns="http://www.w3.org/2000/svg" xmlnsXlink="http://www.w3.org/1999/xlink" width="105.977" height="106.014" viewBox="0 0 105.977 106.014">
  <defs>
    <clipPath id="clip-path">
      <path id="Path_83903" data-name="Path 83903" d="M0,71.917H105.977V-34.1H0Z" transform="translate(0 34.097)"/>
    </clipPath>
  </defs>
  <g id="Group_14816" data-name="Group 14816" transform="translate(0 0)" clip-path="url(#clip-path)">
    <g id="Group_14808" data-name="Group 14808" transform="translate(7.578 58.755)">
      <path id="Path_83895" data-name="Path 83895" d="M.03,0H88.8V38.3c-.32.022-.644.059-.967.059q-42.786,0-85.571,0c-.569,0-1.141-.028-1.713-.022-.423,0-.578-.165-.566-.6.031-1.048.019-2.1.019-3.143L-.014.382C-.014.289.008.2.03,0" transform="translate(0.014)"/>
    </g>
    <g id="Group_14809" data-name="Group 14809" transform="translate(34.845 5.422)">
      <path id="Path_83896" data-name="Path 83896" d="M23.229,26.737H-11.013c.127-.849.239-1.657.373-2.462Q-8.966,14.285-7.282,4.3C-6.638.53-6.01-3.247-5.277-7A6.865,6.865,0,0,1,1.57-12.65q4.64-.061,9.284.009c3.476.053,6.119,2.366,6.85,6.106.659,3.383,1.16,6.794,1.729,10.195q1.9,11.319,3.793,22.644a3.16,3.16,0,0,1,0,.432" transform="translate(11.013 12.677)"/>
    </g>
    <g id="Group_14810" data-name="Group 14810" transform="translate(-0.002 47.439)">
      <path id="Path_83897" data-name="Path 83897" d="M35.257,0H85.334c.215,0,.429-.006.64.006.815.05,1.269.423,1.281,1.228.034,2.046.04,4.095,0,6.141-.019.867-.5,1.269-1.38,1.315-.5.028-1,.006-1.5.006q-49.539,0-99.077.006c-1.592,0-1.928-.308-1.962-1.909-.034-1.617-.031-3.237-.047-4.857S-16.417,0-14.816,0q17.461,0,34.929.012,7.574,0,15.145,0Z" transform="translate(16.716 0.001)"/>
    </g>
    <g id="Group_14811" data-name="Group 14811" transform="translate(72.586 0)">
      <path id="Path_83898" data-name="Path 83898" d="M10.688,5.858c-.32,2.711-2.005,4.4-3.7,6.082a2.931,2.931,0,0,1-4.571.019Q-.73,8.848-3.851,5.706C-5.483,4.061-5.458,2.553-3.866.862a10.444,10.444,0,0,1,5.1-3.377,7.069,7.069,0,0,1,7,1.76c1.15,1.132,2.2,2.369,3.249,3.6q4.566,5.391,9.082,10.829a1.036,1.036,0,0,0,1.163.407,5.476,5.476,0,0,1,6.492,4.431,5.419,5.419,0,0,1-4.443,6.411,2.051,2.051,0,0,0-1.782,1.418c-1.387,3.308-2.895,6.563-4.356,9.841a2.562,2.562,0,0,0-.09.361c.448.025.861.044,1.275.078a2.189,2.189,0,0,1,2.229,2.223c.05.9,0,1.806.019,2.711.009.42-.183.513-.566.513q-6.319,0-12.639.022c-.392,0-.563-.1-.557-.516.016-.9-.028-1.81,0-2.711a2.058,2.058,0,0,1,2.223-2.239c1.4-.053,2.808-.053,4.21-.016a1.159,1.159,0,0,0,1.284-.811c1.67-3.8,3.4-7.577,5.133-11.4-.392-.323-.815-.628-1.191-.983a5.345,5.345,0,0,1-.519-7.35c.264-.326.426-.541.075-.955-2.5-2.935-4.968-5.895-7.45-8.846-.075-.087-.159-.171-.386-.41" transform="translate(5.067 2.778)"/>
    </g>
    <g id="Group_14812" data-name="Group 14812" transform="translate(1.025 30.889)">
      <path id="Path_83899" data-name="Path 83899" d="M11.3.039A6.036,6.036,0,0,0,11.293,5.6a3.873,3.873,0,0,1-.5.075c-4.353,0-8.706,0-13.055-.016A2.865,2.865,0,0,1-5.2,3.72,2.757,2.757,0,0,1-3.155.114a5.767,5.767,0,0,1,1.2-.121Q4.47-.026,10.889-.017a3.253,3.253,0,0,1,.41.056" transform="translate(5.357 0.019)"/>
    </g>
    <g id="Group_14813" data-name="Group 14813" transform="translate(5.365 39.172)">
      <path id="Path_83900" data-name="Path 83900" d="M11.277,3.853H9.852q-5.708,0-11.414,0a8.163,8.163,0,0,1-1.486-.1,2.678,2.678,0,0,1-2.3-2.605A2.821,2.821,0,0,1-3.2-1.691,5.184,5.184,0,0,1-2-1.825q6.417-.009,12.838.009c.115,0,.233.019.457.037a5.927,5.927,0,0,0-.019,5.631" transform="translate(5.346 1.827)"/>
    </g>
    <g id="Group_14814" data-name="Group 14814" transform="translate(7.595 99.667)">
      <path id="Path_83901" data-name="Path 83901" d="M2.962.015C4.174.015,5.387.034,6.6.009c.557-.016.737.174.724.74-.037,1.427.009,2.851,0,4.278-.009.973-.326,1.3-1.281,1.3-2,.012-3.992.016-5.988,0-1.163-.012-1.43-.289-1.44-1.443C-1.4,3.507-1.369,2.126-1.4.749c-.012-.553.168-.768.731-.756C.537.021,1.749,0,2.962,0Z" transform="translate(1.404 0.007)"/>
    </g>
    <g id="Group_14815" data-name="Group 14815" transform="translate(87.724 99.664)">
      <path id="Path_83902" data-name="Path 83902" d="M2.955.049C4.19.049,5.427.064,6.661.039c.479-.009.672.115.659.634C7.286,2.1,7.314,3.525,7.3,4.952c-.006.93-.354,1.328-1.278,1.34-2.021.031-4.039.04-6.057.006-1.051-.016-1.29-.289-1.312-1.321C-1.373,3.506-1.367,2.032-1.4.562c-.009-.432.146-.591.578-.585C.437,0,1.7-.017,2.955-.017Z" transform="translate(1.401 0.023)"/>
    </g>
  </g>
</svg>
