<svg id="Group_14820" data-name="Group 14820" xmlns="http://www.w3.org/2000/svg" xmlnsXlink="http://www.w3.org/1999/xlink" width="113.334" height="53.395" viewBox="0 0 113.334 53.395">
  <defs>
    <clipPath id="clip-path">
      <path id="Path_83770" data-name="Path 83770" d="M0,37.409H113.334v-53.4H0Z" transform="translate(0 15.986)"/>
    </clipPath>
  </defs>
  <g id="Group_14664" data-name="Group 14664" transform="translate(0 0)" clip-path="url(#clip-path)">
    <g id="Group_14661" data-name="Group 14661" transform="translate(23.712 0)">
      <path id="Path_83767" data-name="Path 83767" d="M0,37.372V-15.89c2.144,0,4.232-.157,6.3.043C8.2-15.659,9.329-13.759,9.366-11c.043,3.594.013,7.188.013,10.779V1.73H56.448c.027-.618.073-1.219.073-1.82.007-3.594-.027-7.188.013-10.779.04-3.36,1.4-5.044,4.052-5.087,2.091-.037,4.182.017,6.269-.013,1.035-.013,1.513.351,1.51,1.86q-.065,24.81,0,49.617c0,1.44-.377,1.937-1.463,1.917-2.088-.04-4.179.02-6.266-.013-2.739-.04-4.065-1.713-4.1-5.2s-.01-6.961-.01-10.438V19.766H9.379c0,2.455.007,4.89,0,7.325-.007,2.051.047,4.112-.073,6.152-.134,2.345-1.4,3.975-3.227,4.1-1.984.134-3.978.03-6.076.03" transform="translate(0 15.97)"/>
    </g>
    <g id="Group_14662" data-name="Group 14662" transform="translate(0 5.994)">
      <path id="Path_83768" data-name="Path 83768" d="M6.624,24.855c-1.884,0-3.688.02-5.495,0-2.485-.033-3.9-1.7-3.925-4.853q-.07-9.915,0-19.834c.023-3.136,1.453-4.82,3.928-4.85,1.724-.023,3.45-.013,5.174-.023a1.951,1.951,0,0,0,.354-.1c.217-.919.4-1.914.685-2.856.661-2.184,1.56-2.949,3.39-2.956,1.587-.01,3.176,0,4.763.017a2.239,2.239,0,0,1,.488.14v41a63.69,63.69,0,0,1-6.961-.07c-1.309-.144-2.228-2.014-2.335-3.784-.033-.554-.04-1.112-.067-1.834" transform="translate(2.83 10.621)"/>
    </g>
    <g id="Group_14663" data-name="Group 14663" transform="translate(96.835 5.964)">
      <path id="Path_83769" data-name="Path 83769" d="M0,.187C5.107-.525,5.608-.18,6.864,5.882c1.87,0,3.771-.017,5.672,0,2.415.027,3.885,1.677,3.915,4.693q.1,10.085,0,20.171c-.03,3.026-1.486,4.643-3.921,4.673-1.8.023-3.611,0-5.4,0-.24,6.617-3.313,6.226-7.121,5.7Z" transform="translate(0 0.08)"/>
    </g>
  </g>
</svg>
