<svg id="Group_14738" data-name="Group 14738" xmlns="http://www.w3.org/2000/svg" xmlnsXlink="http://www.w3.org/1999/xlink" width="108.069" height="100.265" viewBox="0 0 108.069 100.265">
  <defs>
    <clipPath id="clip-path">
      <path id="Path_83833" data-name="Path 83833" d="M0,68.017H108.069V-32.248H0Z" transform="translate(0 32.248)"/>
    </clipPath>
  </defs>
  <g id="Group_14737" data-name="Group 14737" transform="translate(0 0)" clip-path="url(#clip-path)">
    <g id="Group_14732" data-name="Group 14732" transform="translate(56.071 66.853)">
      <path id="Path_83828" data-name="Path 83828" d="M6.107,7.7C3.5,5.47.992,3.362-1.458,1.188A4.074,4.074,0,0,1-2.832-.733a3.136,3.136,0,0,1,.448-2.4c.721-.83,1.775-.6,2.534.255A39.253,39.253,0,0,0,2.957.34,23.347,23.347,0,0,0,6.676,3.054c1.772,1.06,3.529,1.747,5.733.64,2.077-1.045,4.381-.463,6.5.348C22.1,5.261,25.3,6.151,28.739,5.094a1.364,1.364,0,0,1,1.054.286c2.13,1.716,4.266,3.436,6.315,5.248a3.689,3.689,0,0,1,1.007,1.887c1.035,4.676,2,9.368,2.982,14.053.289,1.377.044,2.587-1.433,3.056s-2.357-.348-2.935-1.654c-1.247-2.814-2.531-5.606-3.886-8.6-4.878,3.066-9.213.839-13.528-1.315-1.626-.815-3.174-1.785-5.052-2.848-.538,1.2-1.126,2.335-1.564,3.529-.961,2.618-1.763,5.3-2.8,7.888-.541,1.352-1.3,2.982-3.1,2.683-1.859-.3-1.99-2.186-1.937-3.569q.28-7.238,1-14.458A14.142,14.142,0,0,1,6.107,7.7" transform="translate(2.895 3.652)"/>
    </g>
    <g id="Group_14733" data-name="Group 14733" transform="translate(15.546 0.002)">
      <path id="Path_83829" data-name="Path 83829" d="M0,6.743a10.01,10.01,0,0,1,20.02.137A10.077,10.077,0,0,1,10.3,16.829,10.07,10.07,0,0,1,0,6.743" transform="translate(0 3.197)"/>
    </g>
    <g id="Group_14734" data-name="Group 14734" transform="translate(0 18.798)">
      <path id="Path_83830" data-name="Path 83830" d="M31.9,23.4c-.159-1.735-1.334-2.55-2.777-3.143a29.864,29.864,0,0,1-12.362-9.489,31.577,31.577,0,0,1-3.5-5.656,89.591,89.591,0,0,0,.731-9.872c-.376-4.9-4.169-7.356-8.858-5.939A10.294,10.294,0,0,0-1.67-4.174,49.919,49.919,0,0,0-4.745,20.05,13.069,13.069,0,0,0-2.31,26.71a3.814,3.814,0,0,1,.55,1.925A38.481,38.481,0,0,1-5.32,48.452a60.181,60.181,0,0,1-8.441,12.841,5.363,5.363,0,0,0,.668,7.788,5.588,5.588,0,0,0,7.729-.563C1.586,60.69,6.529,51.813,8.622,41.469c.19-.933.395-1.862.675-3.171A27.226,27.226,0,0,1,11.3,50.905c-.314,4.082-1,8.143-1.673,12.188-.578,3.454,1.014,6.42,4.039,7.092a5.616,5.616,0,0,0,6.8-4.26c1.856-7.776,2.82-15.617,1.471-23.6-1.132-6.675-3.5-12.838-8.367-17.654a6.843,6.843,0,0,1-2.375-5.97,5.5,5.5,0,0,1,1.1-2.111,39.284,39.284,0,0,0,6.06,5.606,46.015,46.015,0,0,0,8.8,4.872c2.64,1.181,5.006-.818,4.748-3.666" transform="translate(15.126 11.095)"/>
    </g>
    <g id="Group_14735" data-name="Group 14735" transform="translate(89.344 60.539)">
      <path id="Path_83831" data-name="Path 83831" d="M6.436.145c0,.106.04.236-.006.32C4.645,3.83,6.05,6.755,9.893,7.676c1.328.317,2.661.622,3.974.992a2.422,2.422,0,0,1,1.788,2.91,2.883,2.883,0,0,1-2.276,2.848,3.757,3.757,0,0,1-1.188.127,6,6,0,0,0-6,3.153,1.474,1.474,0,0,1-2.388.581c-2.186-1.517-4.35-3.075-6.452-4.71a1.738,1.738,0,0,1-.37-1.483A11.3,11.3,0,0,1,.879,5.62a2.772,2.772,0,0,0,.693-1.85C1.71,1.159,4.166-.722,6.436.145" transform="translate(3.051 0.069)"/>
    </g>
    <g id="Group_14736" data-name="Group 14736" transform="matrix(0.995, 0.105, -0.105, 0.995, 43.366, 51.902)">
      <path id="Path_83832" data-name="Path 83832" d="M0,.125A4.476,4.476,0,0,1,3.729.561c4.171,1.957,8.306,3.949,12.5,5.884a128.656,128.656,0,0,0,25.94,9.183c.51.114.851.546,1.269.829a6.728,6.728,0,0,1-1.868.185,95.611,95.611,0,0,1-17.505-5.461C17.828,8.529,11.8,5.67,5.695,2.881,3.784,2.006,1.941,1.067,0,.125" transform="translate(0 0.124)" stroke="#000" strokeLinecap="square" strokeWidth="2"/>
    </g>
  </g>
</svg>
