<svg id="Group_14728" data-name="Group 14728" xmlns="http://www.w3.org/2000/svg" xmlnsXlink="http://www.w3.org/1999/xlink" width="105.231" height="105.23" viewBox="0 0 105.231 105.23">
  <defs>
    <clipPath id="clip-path">
      <path id="Path_83825" data-name="Path 83825" d="M0,71.385H105.231V-33.845H0Z" transform="translate(0 33.845)"/>
    </clipPath>
  </defs>
  <g id="Group_14727" data-name="Group 14727" transform="translate(0 0)" clip-path="url(#clip-path)">
    <g id="Group_14718" data-name="Group 14718" transform="translate(16.776 12.138)">
      <path id="Path_83816" data-name="Path 83816" d="M3.808,6.956A3.288,3.288,0,0,0,8.459,2.307L3.808-2.344a3.309,3.309,0,0,0-4.648,0,3.284,3.284,0,0,0,0,4.651Z" transform="translate(1.805 3.298)"/>
    </g>
    <g id="Group_14719" data-name="Group 14719" transform="translate(-0.001 46.051)">
      <path id="Path_83817" data-name="Path 83817" d="M8.924,2.232a3.3,3.3,0,0,0-3.29-3.29H-.941a3.3,3.3,0,0,0-3.29,3.29,3.3,3.3,0,0,0,3.29,3.29H5.634a3.3,3.3,0,0,0,3.29-3.29" transform="translate(4.231 1.058)"/>
    </g>
    <g id="Group_14720" data-name="Group 14720" transform="translate(12.134 77.25)">
      <path id="Path_83818" data-name="Path 83818" d="M3.811.647-.853,5.3a3.309,3.309,0,0,0,0,4.648,3.29,3.29,0,0,0,4.651,0L8.462,5.3a3.312,3.312,0,0,0,0-4.651,3.312,3.312,0,0,0-4.651,0" transform="translate(1.807 0.307)"/>
    </g>
    <g id="Group_14721" data-name="Group 14721" transform="translate(46.05 92.077)">
      <path id="Path_83819" data-name="Path 83819" d="M2.236,0a3.3,3.3,0,0,0-3.29,3.29L-1.06,9.865a3.29,3.29,0,0,0,6.579.012V3.29A3.3,3.3,0,0,0,2.236,0" transform="translate(1.06)"/>
    </g>
    <g id="Group_14722" data-name="Group 14722" transform="translate(52.62 0)">
      <path id="Path_83820" data-name="Path 83820" d="M2.227,8.924A3.276,3.276,0,0,0,5.517,5.65L5.529-.941a3.3,3.3,0,0,0-3.29-3.29A3.3,3.3,0,0,0-1.047-.941l-.009,6.576a3.289,3.289,0,0,0,3.283,3.29" transform="translate(1.056 4.231)"/>
    </g>
    <g id="Group_14723" data-name="Group 14723" transform="translate(77.249 81.882)">
      <path id="Path_83821" data-name="Path 83821" d="M3.8.65A3.3,3.3,0,0,0-.85.65,3.3,3.3,0,0,0-.843,5.3L3.8,9.95A3.282,3.282,0,1,0,8.45,5.314Z" transform="translate(1.803 0.308)"/>
    </g>
    <g id="Group_14724" data-name="Group 14724" transform="translate(92.076 52.616)">
      <path id="Path_83822" data-name="Path 83822" d="M6.7,0H.113a3.3,3.3,0,0,0-3.29,3.274,3.3,3.3,0,0,0,3.29,3.29l6.576.012A3.288,3.288,0,0,0,6.7,0" transform="translate(3.177)"/>
    </g>
    <g id="Group_14725" data-name="Group 14725" transform="translate(81.882 16.778)">
      <path id="Path_83823" data-name="Path 83823" d="M3.8,6.953,8.451,2.318a3.3,3.3,0,0,0,.006-4.651,3.275,3.275,0,0,0-4.639,0L-.845,2.318a3.3,3.3,0,0,0,0,4.648A3.293,3.293,0,0,0,3.8,6.953" transform="translate(1.802 3.297)"/>
    </g>
    <g id="Group_14726" data-name="Group 14726" transform="translate(19.745 19.732)">
      <path id="Path_83824" data-name="Path 83824" d="M22.307,0A32.884,32.884,0,1,0,55.19,32.883,32.881,32.881,0,0,0,22.307,0" transform="translate(10.576)"/>
    </g>
  </g>
</svg>
