<svg xmlns="http://www.w3.org/2000/svg" xmlnsXlink="http://www.w3.org/1999/xlink" width="112.801" height="103.748" viewBox="0 0 112.801 103.748">
  <defs>
    <clipPath id="clip-path">
      <path id="Path_83843" data-name="Path 83843" d="M0,68.783H112.8V-34.965H0Z" transform="translate(0 34.965)"/>
    </clipPath>
  </defs>
  <g id="Group_14750" data-name="Group 14750" transform="translate(0 0)">
    <g id="Group_14749" data-name="Group 14749" transform="translate(0 0)" clip-path="url(#clip-path)">
      <g id="Group_14747" data-name="Group 14747" transform="translate(0 0.002)">
        <path id="Path_83841" data-name="Path 83841" d="M31.741,52.989l-5.353-12.6.442-.166a2.455,2.455,0,0,0,1.409-1.371,2.694,2.694,0,0,0-.05-2.127,2.855,2.855,0,0,0-3.5-1.582q-1.384.525-2.765,1.044L16.537,22.32a15.915,15.915,0,0,0,6.884-7.911A13.915,13.915,0,0,0,23.19,3.8L21.516-.061Q18.855-6.181,16.2-12.316l-5.32-12.266a3.772,3.772,0,0,0-4.67-2.142,3.23,3.23,0,0,0-1.84,1.765,3.7,3.7,0,0,0-.006,2.875L14.52,2.621a2.728,2.728,0,0,1-.074,2.751,1.929,1.929,0,0,1-1.813.674,2.833,2.833,0,0,1-2.148-1.929L5.618-8.319C4.8-10.4,3.986-12.592,3.17-14.776c-.807-2.166-1.617-4.332-2.427-6.4a4.618,4.618,0,0,0-4.356-2.67,2.04,2.04,0,0,0-1.662.967,5,5,0,0,0-.513,4.148c.763,2.065,1.522,4.178,2.288,6.293.783,2.166,1.564,4.332,2.344,6.445C-.393-3.931.366-1.845,1.132.244c.78,2.142,1.564,4.285,2.344,6.4A2.49,2.49,0,0,1,3.206,9.2a2.139,2.139,0,0,1-2,.724A2.365,2.365,0,0,1-.548,8.22L-9.4-16.96a3.748,3.748,0,0,0-1.917-2.154,3.251,3.251,0,0,0-2.552-.107,3.721,3.721,0,0,0-2.074,4.67q2.1,6.36,4.187,12.708l5.5,16.7A14.034,14.034,0,0,0,.63,22.973a15.983,15.983,0,0,0,10.433,1.412l5.2,13.949-2.976,1.122a2.821,2.821,0,0,0-1.561,3.5,2.714,2.714,0,0,0,1.386,1.623,2.451,2.451,0,0,0,1.949.089c.151-.053.306-.113.457-.169l9.735,28.529a5.421,5.421,0,0,0,3.383,3.356,7,7,0,0,0,2.4.412,8.035,8.035,0,0,0,2.849-.531A7.5,7.5,0,0,0,37.9,72.881a5.469,5.469,0,0,0,.288-4.747q-3.227-7.566-6.445-15.145" transform="translate(16.135 26.936)"/>
      </g>
      <g id="Group_14748" data-name="Group 14748" transform="translate(61.45 2.369)">
        <path id="Path_83842" data-name="Path 83842" d="M31.558,2.313a8.687,8.687,0,0,0-8.433-3.386C15.1.088,2.432,11.571-9.072,40.332l-.231.579L5.722,46.839l-5,12.774L-2.257,58.47a2.828,2.828,0,0,0-3.492,1.576,2.713,2.713,0,0,0-.039,2.13,2.463,2.463,0,0,0,1.4,1.371l.448.172L-15.636,91.5a5.494,5.494,0,0,0,.3,4.756,7.564,7.564,0,0,0,4,3.4,8,8,0,0,0,2.863.543A6.974,6.974,0,0,0-6.1,99.794a5.443,5.443,0,0,0,3.371-3.35l5.261-15.6q2.185-6.485,4.38-12.976l.442.169a2.463,2.463,0,0,0,1.97-.083A2.7,2.7,0,0,0,10.7,66.336a2.851,2.851,0,0,0-1.564-3.5L6.387,61.779l4.887-12.744L26.3,54.966l.228-.573c11.433-28.58,10.094-45.644,5.029-52.08" transform="translate(16.042 1.176)"/>
      </g>
    </g>
  </g>
</svg>
