<svg id="Group_14693" data-name="Group 14693" xmlns="http://www.w3.org/2000/svg" xmlnsXlink="http://www.w3.org/1999/xlink" width="108.846" height="76.775" viewBox="0 0 108.846 76.775">
  <defs>
    <clipPath id="clip-path">
      <path id="Path_83793" data-name="Path 83793" d="M0,52.082H108.846V-24.693H0Z" transform="translate(0 24.693)"/>
    </clipPath>
  </defs>
  <g id="Group_14692" data-name="Group 14692" transform="translate(0 0)" clip-path="url(#clip-path)">
    <g id="Group_14689" data-name="Group 14689" transform="translate(0.026 -0.001)">
      <path id="Path_83790" data-name="Path 83790" d="M73.821,42.528a38.324,38.324,0,0,1-1.567,4.925A15.7,15.7,0,0,1,56.223,56.51a15.88,15.88,0,0,1-14-12.776A15.467,15.467,0,0,1,45.04,31.251c.183-.255.367-.51.588-.821-1.405-1.676-2.789-3.324-4.222-5.034a18.727,18.727,0,0,0-4.738,7.779,48.3,48.3,0,0,0-1.293,7.291c-.261,2.161-1.368,3.333-3.579,3.333q-14.295.009-28.6-.016A1.362,1.362,0,0,0,1.663,44.8,19.088,19.088,0,0,1-17.57,56.545,19.2,19.2,0,0,1-34.823,40.116,19.086,19.086,0,0,1-18.512,18.445,19.057,19.057,0,0,1,3.028,34.768c.118.839.19,1.682.286,2.587H9.806a24.528,24.528,0,0,0-1.968-9.626c-.575-1.328-1.359-2.562-1.971-3.877a1.564,1.564,0,0,1-.04-1.222A19.437,19.437,0,0,1,19.5,12.314,5.521,5.521,0,0,0,23.3,9.739c2.4-3.722,4.85-7.418,7.44-11.01,2.419-3.358,5.951-5.009,9.912-5.833.342-.072.681-.143,1.026-.218v-6.231c-2.148-.053-4.256-.1-6.365-.162a3.162,3.162,0,0,1-3.15-3.4A3.141,3.141,0,0,1,35-20.078c7.667-.485,14.8,1.038,20.978,5.864C63.362-8.443,67.211-.86,67.2,8.564a9.5,9.5,0,0,1-9.449,9.716A20.542,20.542,0,0,0,46.4,21.352c1.343,1.6,2.655,3.2,4.033,4.745.146.165.709.093,1.007-.037A15.218,15.218,0,0,1,66.35,27.107a15.4,15.4,0,0,1,7.266,11,3.6,3.6,0,0,0,.205.591ZM-5.1,43.8H-6.163c-2.267,0-4.536.044-6.8-.016a9.583,9.583,0,0,1-9.309-9.449,3.1,3.1,0,0,1,1.533-2.848A3.174,3.174,0,0,1-15.9,34.04a3.3,3.3,0,0,0,3.678,3.377c2.3.012,4.6,0,6.906,0h2.089c.358-5.755-4.546-11.635-10.382-12.564a12.768,12.768,0,0,0-14.616,9.393A12.768,12.768,0,0,0-20.02,49.484C-13.82,51.651-7.366,48.4-5.1,43.8m54.9-8.143a9.438,9.438,0,0,0,2.462,12.661,9.617,9.617,0,0,0,12.34-.936,9.794,9.794,0,0,0,.939-12.458c-2.761-3.681-8.025-4.686-10.621-3.165,1.747,2.2,3.482,4.387,5.239,6.563a3.325,3.325,0,0,1,.777,3.159,3.04,3.04,0,0,1-2.438,2.267,3.131,3.131,0,0,1-3.2-1.216c-1.813-2.257-3.616-4.521-5.5-6.874" transform="translate(35 20.164)"/>
    </g>
    <g id="Group_14690" data-name="Group 14690" transform="translate(-0.001 12.844)">
      <path id="Path_83791" data-name="Path 83791" d="M31.035,10.92a67.359,67.359,0,0,0-5.348,4.11,67.943,67.943,0,0,0-4.546,5.1c-1.007-.715-2.1-1.558-3.252-2.3a24.539,24.539,0,0,0-12.452-3.7c-2.885-.14-5.8.065-8.644-.746A16.078,16.078,0,0,1-14.714-1.787,3.163,3.163,0,0,1-11.328-5.17c4.359-.009,8.715-.016,13.074.016a3.087,3.087,0,0,1,1.477.426C9.989-.736,16.711,3.337,23.513,7.264c2.438,1.408,5.071,2.478,7.521,3.656" transform="translate(14.714 5.177)"/>
    </g>
    <g id="Group_14691" data-name="Group 14691" transform="translate(35.913 6.468)">
      <path id="Path_83792" data-name="Path 83792" d="M0,6.8C5.914-2.557,19.579-6.733,30.243.309A24.1,24.1,0,0,0,27.7,2.355a52.419,52.419,0,0,0-4.253,4.857c-1.667,2.245-3.15,4.626-4.664,6.98a1.152,1.152,0,0,1-1.474.544C10.966,13.384,5.416,10.327,0,6.8" transform="translate(0 3.222)"/>
    </g>
  </g>
</svg>
