<svg id="Group_14632" data-name="Group 14632" xmlns="http://www.w3.org/2000/svg" xmlnsXlink="http://www.w3.org/1999/xlink" width="108.069" height="111.61" viewBox="0 0 108.069 111.61">
  <defs>
    <clipPath id="clip-path">
      <path id="Path_83741" data-name="Path 83741" d="M0,75.713H108.069V-35.9H0Z" transform="translate(0 35.897)"/>
    </clipPath>
  </defs>
  <g id="Group_14631" data-name="Group 14631" transform="translate(0 0)" clip-path="url(#clip-path)">
    <g id="Group_14628" data-name="Group 14628" transform="translate(0 35.999)">
      <path id="Path_83738" data-name="Path 83738" d="M29.167,51.285l-36.611-.006c-.267,0-.538,0-.8-.022A6.076,6.076,0,0,1-13.815,45.6c-.115-1.9.417-5.183,5.065-6.5a29.6,29.6,0,0,1,3.9-10.537,6.131,6.131,0,0,1-2.63-6.6,6.286,6.286,0,0,1,5.559-4.7,1.345,1.345,0,0,0,.65-.469A27.935,27.935,0,0,0,3.261,3.877c.068-.522.04-.622-.469-.951A14.84,14.84,0,0,1-1.586-17.546,14.725,14.725,0,0,1,9.843-24.28a14.806,14.806,0,0,1,15.76,13.8A14.871,14.871,0,0,1,18.658,3.137a1.235,1.235,0,0,0-.249.227,28.152,28.152,0,0,0,4.477,13.4,1,1,0,0,0,.917.572,5.966,5.966,0,0,1,5.366,4.67,6.136,6.136,0,0,1-2.559,6.511l-.044.031c.137.267.267.535.4.8a42.886,42.886,0,0,1,1.909,4.135,40.961,40.961,0,0,1,1.309,4.353c.109.41.218.827.333,1.253a5.952,5.952,0,0,1,3.877,2.55,5.873,5.873,0,0,1,.4,6.33,5.976,5.976,0,0,1-5.631,3.317Z" transform="translate(13.828 24.315)"/>
    </g>
    <g id="Group_14629" data-name="Group 14629" transform="translate(57.488 57.787)">
      <path id="Path_83739" data-name="Path 83739" d="M33,14.088Q28.344,9.419,23.671,4.76L17.533-1.368c-.544-.541-1.073-1.094-1.6-1.645-.628-.656-1.256-1.312-1.906-1.949A6.321,6.321,0,0,0,9.652-6.678H9.6A6.194,6.194,0,0,0,5.118-4.863C3.312-3.016,1.487-1.188-.341.644L-13.45,13.814a6.361,6.361,0,0,0-.6.594,6.409,6.409,0,0,0,.55,9.017q4.962,4.99,9.928,9.977l8.51,8.547.006,0a6.321,6.321,0,0,0,4.5,2.04h.075a6.2,6.2,0,0,0,4.63-1.847L16.61,39.67q8.25-8.218,16.429-16.507c.053-.05.106-.1.155-.155a6.327,6.327,0,0,0-.2-8.92m-34.751,8.9H-1.9a4.318,4.318,0,0,1-3.013-1.216h0a4.314,4.314,0,0,1-1.331-3.063,4.369,4.369,0,0,1,1.247-3.131,4.276,4.276,0,0,1,3.047-1.312h.05a4.389,4.389,0,0,1,4.347,4.213,4.358,4.358,0,0,1-4.2,4.508m8.286-19a4.334,4.334,0,0,1,3-1.312,4.459,4.459,0,0,1,3.122,1.206,4.38,4.38,0,0,1,.106,6.2,4.285,4.285,0,0,1-3.047,1.321H9.664a4.317,4.317,0,0,1-3.047-1.262H6.611a4.369,4.369,0,0,1-.078-6.156M9.8,34.59h-.14A4.331,4.331,0,0,1,6.6,33.343l0,0a4.386,4.386,0,0,1-.012-6.184,4.339,4.339,0,0,1,3.056-1.287h.022A4.359,4.359,0,0,1,9.8,34.59M12.748,21.7A4.339,4.339,0,0,1,9.658,23h-.04A4.369,4.369,0,0,1,5.3,18.571v0a4.387,4.387,0,0,1,4.312-4.3,4.627,4.627,0,0,1,3.091,1.265,4.373,4.373,0,0,1,.04,6.162m11.529.012A4.314,4.314,0,0,1,21.187,23h-.053a4.376,4.376,0,0,1-4.288-4.462v0a4.392,4.392,0,0,1,4.353-4.26,4.275,4.275,0,0,1,3.063,1.284,4.363,4.363,0,0,1,.016,6.156" transform="translate(15.645 6.679)"/>
    </g>
    <g id="Group_14630" data-name="Group 14630" transform="translate(27.175)">
      <path id="Path_83740" data-name="Path 83740" d="M42.051,0H-10.283a9.7,9.7,0,0,0-9.654,9.694V32.065a18.7,18.7,0,0,1,9.906,4.5,18.85,18.85,0,0,1,6.42,12.99,18.923,18.923,0,0,1-6.943,16.009A24.192,24.192,0,0,0-7.615,73.8a10,10,0,0,1,7.487,7.63,10.229,10.229,0,0,1-1.626,8.221c.4.855.787,1.738,1.141,2.627l.044.118c.457,1.265.864,2.562,1.206,3.871a10.2,10.2,0,0,1,2.375,1.67H16.593q-4.085-4.1-8.177-8.218a8.816,8.816,0,0,1-2.907-6.072,8.906,8.906,0,0,1,2.217-6.467,9.389,9.389,0,0,1,.787-.787L23.206,61.636c2.049-2.055,4.1-4.107,6.122-6.181a8.9,8.9,0,0,1,6.321-2.562,9.07,9.07,0,0,1,6.138,2.4c.768.756,1.489,1.5,2.208,2.257.585.613,1.169,1.222,1.769,1.819L51.7,65.3V9.694A9.7,9.7,0,0,0,42.051,0M29.033,45.907l-1.265,1.328q-3.572,3.754-7.136,7.512c-1.219,1.29-2.422,2.59-3.66,3.93L14.659,61.17l-.765-.815q-2.211-2.341-4.406-4.642c-3.3-3.461-6.71-7.042-9.946-10.643a9.608,9.608,0,0,1-2.422-6.98,10.432,10.432,0,0,1,3.4-7.17,10.186,10.186,0,0,1,14.11.432l.025.028A10.594,10.594,0,0,1,21.748,28.3a10.2,10.2,0,0,1,10.375,9.875,10.8,10.8,0,0,1-3.091,7.733M40.17,17.887c-1.356,1.393-2.789,2.646-4.182,3.846-.541.466-1.066.923-1.564,1.368l-.8.718L31.5,21.854c-1.188-1.091-2.506-2.3-3.771-3.56a4.39,4.39,0,0,1-.606-5.547A4.491,4.491,0,0,1,32.164,10.7a7.014,7.014,0,0,1,1.632.756c.068-.053.14-.1.218-.152a4.657,4.657,0,0,1,5.879.672,4.263,4.263,0,0,1,.277,5.914" transform="translate(19.937)"/>
    </g>
  </g>
</svg>
