<svg id="Group_14731" data-name="Group 14731" xmlns="http://www.w3.org/2000/svg" xmlnsXlink="http://www.w3.org/1999/xlink" width="104.826" height="87.007" viewBox="0 0 104.826 87.007">
  <defs>
    <clipPath id="clip-path">
      <path id="Path_83827" data-name="Path 83827" d="M0,59.023H104.826V-27.984H0Z" transform="translate(0 27.984)"/>
    </clipPath>
  </defs>
  <g id="Group_14730" data-name="Group 14730" transform="translate(0 0)" clip-path="url(#clip-path)">
    <g id="Group_14729" data-name="Group 14729" transform="translate(0 0.002)">
      <path id="Path_83826" data-name="Path 83826" d="M0,35.911c4.508-.255,8.715,1.144,12.959,2.357,1.53.438,3.059.871,4.645,1.178q-4.5-2.159-8.995-4.312c.04-.1.084-.2.127-.3,1.2.389,2.382.827,3.6,1.16,2.263.619,4.527,1.247,6.825,1.722A7.894,7.894,0,0,0,22,37.627a2.177,2.177,0,0,0,1.878-1.735c-2.736-.746-5.447-1.486-8.155-2.223,1.191-.541,2.335-1,3.6-.423.578.261,1.222.367,1.819.591a3.481,3.481,0,0,0,3.445-.594c.756-.541,1.52-1.076,2.239-1.667a42.061,42.061,0,0,1,12.095-6.452,70.448,70.448,0,0,1,13.823-3.812,25.638,25.638,0,0,1,8.323.367,12.524,12.524,0,0,0,6.215-.2,7.73,7.73,0,0,0,5.177-5.892,27.535,27.535,0,0,0,.193-11.426A20.843,20.843,0,0,0,71.172.277c-.765-1.847-1.71-3.632-2.326-5.525-.961-2.969.072-5.55,2.058-7.782a12.1,12.1,0,0,1,6.8-3.809,5.471,5.471,0,0,0,.566-.187h2.8c.072.047.14.124.215.137a8.482,8.482,0,0,1,5.2,2.929C88-12.2,89.383-10.338,90.807-8.5a7.965,7.965,0,0,0,5.1,3.206c2.03.326,4.079.557,6.119.827a3.423,3.423,0,0,1,2.8,1.769v1.4c-.625.566-1.163,1.387-1.9,1.651a14.17,14.17,0,0,1-7.132.6A46.236,46.236,0,0,1,89.678-.746a16.626,16.626,0,0,0-7.928-.392c0,3.563-.012,7.021.006,10.478a20.953,20.953,0,0,0,1.834,8.451q.97,2.192,1.962,4.372a18.2,18.2,0,0,1,1.34,11.653A25.48,25.48,0,0,1,76.169,49.479a38.889,38.889,0,0,1-13.942,6.147,1.035,1.035,0,0,0-.939,1.023c-.137,1.094-.4,2.17-.566,3.258-.572,3.681,1.085,5.385,4.745,4.919,3.373-.426,6.647.32,9.953.852a2.648,2.648,0,0,0-2.456,1.881c-1.5.221-2.879.376-4.238.637-.945.18-1.844.553-2.739-.193a2.437,2.437,0,0,0-1.073-.314,26.856,26.856,0,0,1-3.408-.678,1.741,1.741,0,0,0-2.139.606,10.768,10.768,0,0,0-.728,1.113c-.277-.215-.538-.435-.818-.628-.793-.547-1.045-.432-1.586.386a12.187,12.187,0,0,1-1.377,1.492h-1.57a6.673,6.673,0,0,0-4.194,0H47.521c-1.241-.354-2.481-.7-3.719-1.063-.771-.224-1.533-.479-2.3-.718.006-.084.016-.165.022-.249,1.732-.65,3.464-1.3,5.261-1.971-1.446-3.423-.65-6.924.143-10.546-1.209.109-2.251.171-3.28.3a14.7,14.7,0,0,1-5.625-.068c-1.629-.423-3.286-.721-4.934-1.066-3.6-.756-7.22-1.461-10.811-2.285a8.613,8.613,0,0,1-4.44-2.267l.4-.311a12.525,12.525,0,0,1-1.52-.724,41.768,41.768,0,0,1-3.924-2.7c-.877-.721-.7-1.551.227-2.148.168-.106.351-.187.693-.37-1.586-.858-3.059-1.663-4.539-2.453-2.428-1.3-4.875-2.571-7.288-3.9A18.036,18.036,0,0,1,0,36.085ZM60.085,66.555a6.375,6.375,0,0,1-1.94-6.166,6.939,6.939,0,0,0,.078-1.567,2.57,2.57,0,0,0-2.64-2.658c-.55-.016-1.1-.072-1.651-.115-1.178-.093-2.354-.19-3.445-.277-.289,1.343-.56,2.578-.824,3.815-.715,3.38.644,5.606,4.042,6.249,2.1.4,4.25.488,6.38.718" transform="translate(0 17.026)"/>
    </g>
  </g>
</svg>
